G04 #@! TF.GenerationSoftware,KiCad,Pcbnew,(5.1.0)-1*
G04 #@! TF.CreationDate,2020-01-21T12:08:37-05:00*
G04 #@! TF.ProjectId,RasPi_NFC_Audio_KiCAD,52617350-695f-44e4-9643-5f417564696f,rev?*
G04 #@! TF.SameCoordinates,Original*
G04 #@! TF.FileFunction,Legend,Top*
G04 #@! TF.FilePolarity,Positive*
%FSLAX46Y46*%
G04 Gerber Fmt 4.6, Leading zero omitted, Abs format (unit mm)*
G04 Created by KiCad (PCBNEW (5.1.0)-1) date 2020-01-21 12:08:37*
%MOMM*%
%LPD*%
G04 APERTURE LIST*
%ADD10C,0.200000*%
%ADD11C,0.150000*%
%ADD12C,0.300000*%
%ADD13C,0.400000*%
%ADD14C,0.127000*%
%ADD15C,0.100000*%
%ADD16C,0.120000*%
%ADD17C,0.304800*%
%ADD18C,0.203200*%
%ADD19C,0.152400*%
G04 APERTURE END LIST*
D10*
X117974457Y-54988057D02*
X117403028Y-54988057D01*
X117403028Y-53788057D01*
X118374457Y-54359485D02*
X118774457Y-54359485D01*
X118945885Y-54988057D02*
X118374457Y-54988057D01*
X118374457Y-53788057D01*
X118945885Y-53788057D01*
X119460171Y-54988057D02*
X119460171Y-53788057D01*
X119745885Y-53788057D01*
X119917314Y-53845200D01*
X120031600Y-53959485D01*
X120088742Y-54073771D01*
X120145885Y-54302342D01*
X120145885Y-54473771D01*
X120088742Y-54702342D01*
X120031600Y-54816628D01*
X119917314Y-54930914D01*
X119745885Y-54988057D01*
X119460171Y-54988057D01*
X121803028Y-53788057D02*
X122031600Y-53788057D01*
X122145885Y-53845200D01*
X122260171Y-53959485D01*
X122317314Y-54188057D01*
X122317314Y-54588057D01*
X122260171Y-54816628D01*
X122145885Y-54930914D01*
X122031600Y-54988057D01*
X121803028Y-54988057D01*
X121688742Y-54930914D01*
X121574457Y-54816628D01*
X121517314Y-54588057D01*
X121517314Y-54188057D01*
X121574457Y-53959485D01*
X121688742Y-53845200D01*
X121803028Y-53788057D01*
X123345885Y-54188057D02*
X123345885Y-54988057D01*
X122831600Y-54188057D02*
X122831600Y-54816628D01*
X122888742Y-54930914D01*
X123003028Y-54988057D01*
X123174457Y-54988057D01*
X123288742Y-54930914D01*
X123345885Y-54873771D01*
X123745885Y-54188057D02*
X124203028Y-54188057D01*
X123917314Y-53788057D02*
X123917314Y-54816628D01*
X123974457Y-54930914D01*
X124088742Y-54988057D01*
X124203028Y-54988057D01*
X124603028Y-54188057D02*
X124603028Y-55388057D01*
X124603028Y-54245200D02*
X124717314Y-54188057D01*
X124945885Y-54188057D01*
X125060171Y-54245200D01*
X125117314Y-54302342D01*
X125174457Y-54416628D01*
X125174457Y-54759485D01*
X125117314Y-54873771D01*
X125060171Y-54930914D01*
X124945885Y-54988057D01*
X124717314Y-54988057D01*
X124603028Y-54930914D01*
X126203028Y-54188057D02*
X126203028Y-54988057D01*
X125688742Y-54188057D02*
X125688742Y-54816628D01*
X125745885Y-54930914D01*
X125860171Y-54988057D01*
X126031600Y-54988057D01*
X126145885Y-54930914D01*
X126203028Y-54873771D01*
X126603028Y-54188057D02*
X127060171Y-54188057D01*
X126774457Y-53788057D02*
X126774457Y-54816628D01*
X126831600Y-54930914D01*
X126945885Y-54988057D01*
X127060171Y-54988057D01*
X127403028Y-54930914D02*
X127517314Y-54988057D01*
X127745885Y-54988057D01*
X127860171Y-54930914D01*
X127917314Y-54816628D01*
X127917314Y-54759485D01*
X127860171Y-54645200D01*
X127745885Y-54588057D01*
X127574457Y-54588057D01*
X127460171Y-54530914D01*
X127403028Y-54416628D01*
X127403028Y-54359485D01*
X127460171Y-54245200D01*
X127574457Y-54188057D01*
X127745885Y-54188057D01*
X127860171Y-54245200D01*
X117015742Y-106067600D02*
X116901457Y-106010457D01*
X116730028Y-106010457D01*
X116558600Y-106067600D01*
X116444314Y-106181885D01*
X116387171Y-106296171D01*
X116330028Y-106524742D01*
X116330028Y-106696171D01*
X116387171Y-106924742D01*
X116444314Y-107039028D01*
X116558600Y-107153314D01*
X116730028Y-107210457D01*
X116844314Y-107210457D01*
X117015742Y-107153314D01*
X117072885Y-107096171D01*
X117072885Y-106696171D01*
X116844314Y-106696171D01*
X117587171Y-107210457D02*
X117587171Y-106010457D01*
X118044314Y-106010457D01*
X118158600Y-106067600D01*
X118215742Y-106124742D01*
X118272885Y-106239028D01*
X118272885Y-106410457D01*
X118215742Y-106524742D01*
X118158600Y-106581885D01*
X118044314Y-106639028D01*
X117587171Y-106639028D01*
X118787171Y-107210457D02*
X118787171Y-106010457D01*
X119587171Y-106010457D02*
X119815742Y-106010457D01*
X119930028Y-106067600D01*
X120044314Y-106181885D01*
X120101457Y-106410457D01*
X120101457Y-106810457D01*
X120044314Y-107039028D01*
X119930028Y-107153314D01*
X119815742Y-107210457D01*
X119587171Y-107210457D01*
X119472885Y-107153314D01*
X119358600Y-107039028D01*
X119301457Y-106810457D01*
X119301457Y-106410457D01*
X119358600Y-106181885D01*
X119472885Y-106067600D01*
X119587171Y-106010457D01*
X121530028Y-106581885D02*
X121930028Y-106581885D01*
X122101457Y-107210457D02*
X121530028Y-107210457D01*
X121530028Y-106010457D01*
X122101457Y-106010457D01*
X122501457Y-107210457D02*
X123130028Y-106410457D01*
X122501457Y-106410457D02*
X123130028Y-107210457D01*
X123587171Y-106410457D02*
X123587171Y-107610457D01*
X123587171Y-106467600D02*
X123701457Y-106410457D01*
X123930028Y-106410457D01*
X124044314Y-106467600D01*
X124101457Y-106524742D01*
X124158600Y-106639028D01*
X124158600Y-106981885D01*
X124101457Y-107096171D01*
X124044314Y-107153314D01*
X123930028Y-107210457D01*
X123701457Y-107210457D01*
X123587171Y-107153314D01*
X125187171Y-107210457D02*
X125187171Y-106581885D01*
X125130028Y-106467600D01*
X125015742Y-106410457D01*
X124787171Y-106410457D01*
X124672885Y-106467600D01*
X125187171Y-107153314D02*
X125072885Y-107210457D01*
X124787171Y-107210457D01*
X124672885Y-107153314D01*
X124615742Y-107039028D01*
X124615742Y-106924742D01*
X124672885Y-106810457D01*
X124787171Y-106753314D01*
X125072885Y-106753314D01*
X125187171Y-106696171D01*
X125758600Y-106410457D02*
X125758600Y-107210457D01*
X125758600Y-106524742D02*
X125815742Y-106467600D01*
X125930028Y-106410457D01*
X126101457Y-106410457D01*
X126215742Y-106467600D01*
X126272885Y-106581885D01*
X126272885Y-107210457D01*
X127358600Y-107210457D02*
X127358600Y-106010457D01*
X127358600Y-107153314D02*
X127244314Y-107210457D01*
X127015742Y-107210457D01*
X126901457Y-107153314D01*
X126844314Y-107096171D01*
X126787171Y-106981885D01*
X126787171Y-106639028D01*
X126844314Y-106524742D01*
X126901457Y-106467600D01*
X127015742Y-106410457D01*
X127244314Y-106410457D01*
X127358600Y-106467600D01*
X128387171Y-107153314D02*
X128272885Y-107210457D01*
X128044314Y-107210457D01*
X127930028Y-107153314D01*
X127872885Y-107039028D01*
X127872885Y-106581885D01*
X127930028Y-106467600D01*
X128044314Y-106410457D01*
X128272885Y-106410457D01*
X128387171Y-106467600D01*
X128444314Y-106581885D01*
X128444314Y-106696171D01*
X127872885Y-106810457D01*
X128958600Y-107210457D02*
X128958600Y-106410457D01*
X128958600Y-106639028D02*
X129015742Y-106524742D01*
X129072885Y-106467600D01*
X129187171Y-106410457D01*
X129301457Y-106410457D01*
D11*
X131629454Y-105905600D02*
G75*
G03X131629454Y-105905600I-209454J0D01*
G01*
X136356981Y-71996600D02*
G75*
G03X136356981Y-71996600I-314181J0D01*
G01*
X137437981Y-84341000D02*
G75*
G03X137437981Y-84341000I-353781J0D01*
G01*
D12*
X200288957Y-96676400D02*
X201003242Y-96676400D01*
X200092528Y-97104971D02*
X200780028Y-95604971D01*
X201092528Y-97104971D01*
X202467528Y-96962114D02*
X202387171Y-97033542D01*
X202163957Y-97104971D01*
X202021100Y-97104971D01*
X201815742Y-97033542D01*
X201690742Y-96890685D01*
X201637171Y-96747828D01*
X201601457Y-96462114D01*
X201628242Y-96247828D01*
X201735385Y-95962114D01*
X201824671Y-95819257D01*
X201985385Y-95676400D01*
X202208600Y-95604971D01*
X202351457Y-95604971D01*
X202556814Y-95676400D01*
X202619314Y-95747828D01*
X198235385Y-99654971D02*
X197824671Y-98940685D01*
X197378242Y-99654971D02*
X197565742Y-98154971D01*
X198137171Y-98154971D01*
X198271100Y-98226400D01*
X198333600Y-98297828D01*
X198387171Y-98440685D01*
X198360385Y-98654971D01*
X198271100Y-98797828D01*
X198190742Y-98869257D01*
X198038957Y-98940685D01*
X197467528Y-98940685D01*
X199458600Y-99583542D02*
X199306814Y-99654971D01*
X199021100Y-99654971D01*
X198887171Y-99583542D01*
X198833600Y-99440685D01*
X198905028Y-98869257D01*
X198994314Y-98726400D01*
X199146100Y-98654971D01*
X199431814Y-98654971D01*
X199565742Y-98726400D01*
X199619314Y-98869257D01*
X199601457Y-99012114D01*
X198869314Y-99154971D01*
X200146100Y-98654971D02*
X200378242Y-99654971D01*
X200860385Y-98654971D01*
X203235385Y-99654971D02*
X202378242Y-99654971D01*
X202806814Y-99654971D02*
X202994314Y-98154971D01*
X202824671Y-98369257D01*
X202663957Y-98512114D01*
X202512171Y-98583542D01*
X203896100Y-99512114D02*
X203958600Y-99583542D01*
X203878242Y-99654971D01*
X203815742Y-99583542D01*
X203896100Y-99512114D01*
X203878242Y-99654971D01*
X205065742Y-98154971D02*
X205208600Y-98154971D01*
X205342528Y-98226400D01*
X205405028Y-98297828D01*
X205458600Y-98440685D01*
X205494314Y-98726400D01*
X205449671Y-99083542D01*
X205342528Y-99369257D01*
X205253242Y-99512114D01*
X205172885Y-99583542D01*
X205021100Y-99654971D01*
X204878242Y-99654971D01*
X204744314Y-99583542D01*
X204681814Y-99512114D01*
X204628242Y-99369257D01*
X204592528Y-99083542D01*
X204637171Y-98726400D01*
X204744314Y-98440685D01*
X204833600Y-98297828D01*
X204913957Y-98226400D01*
X205065742Y-98154971D01*
D13*
X172461323Y-75864323D02*
X172461323Y-71864323D01*
X173985133Y-71864323D01*
X174366085Y-72054800D01*
X174556561Y-72245276D01*
X174747038Y-72626228D01*
X174747038Y-73197657D01*
X174556561Y-73578609D01*
X174366085Y-73769085D01*
X173985133Y-73959561D01*
X172461323Y-73959561D01*
X176461323Y-75864323D02*
X176461323Y-73197657D01*
X176461323Y-71864323D02*
X176270847Y-72054800D01*
X176461323Y-72245276D01*
X176651800Y-72054800D01*
X176461323Y-71864323D01*
X176461323Y-72245276D01*
X181032752Y-71864323D02*
X183699419Y-71864323D01*
X181032752Y-75864323D01*
X183699419Y-75864323D01*
X186747038Y-75673847D02*
X186366085Y-75864323D01*
X185604180Y-75864323D01*
X185223228Y-75673847D01*
X185032752Y-75292895D01*
X185032752Y-73769085D01*
X185223228Y-73388133D01*
X185604180Y-73197657D01*
X186366085Y-73197657D01*
X186747038Y-73388133D01*
X186937514Y-73769085D01*
X186937514Y-74150038D01*
X185032752Y-74530990D01*
X188651800Y-75864323D02*
X188651800Y-73197657D01*
X188651800Y-73959561D02*
X188842276Y-73578609D01*
X189032752Y-73388133D01*
X189413704Y-73197657D01*
X189794657Y-73197657D01*
X191699419Y-75864323D02*
X191318466Y-75673847D01*
X191127990Y-75483371D01*
X190937514Y-75102419D01*
X190937514Y-73959561D01*
X191127990Y-73578609D01*
X191318466Y-73388133D01*
X191699419Y-73197657D01*
X192270847Y-73197657D01*
X192651800Y-73388133D01*
X192842276Y-73578609D01*
X193032752Y-73959561D01*
X193032752Y-75102419D01*
X192842276Y-75483371D01*
X192651800Y-75673847D01*
X192270847Y-75864323D01*
X191699419Y-75864323D01*
X167604180Y-82264323D02*
X167604180Y-78264323D01*
X169889895Y-82264323D01*
X169889895Y-78264323D01*
X173127990Y-80169085D02*
X171794657Y-80169085D01*
X171794657Y-82264323D02*
X171794657Y-78264323D01*
X173699419Y-78264323D01*
X177508942Y-81883371D02*
X177318466Y-82073847D01*
X176747038Y-82264323D01*
X176366085Y-82264323D01*
X175794657Y-82073847D01*
X175413704Y-81692895D01*
X175223228Y-81311942D01*
X175032752Y-80550038D01*
X175032752Y-79978609D01*
X175223228Y-79216704D01*
X175413704Y-78835752D01*
X175794657Y-78454800D01*
X176366085Y-78264323D01*
X176747038Y-78264323D01*
X177318466Y-78454800D01*
X177508942Y-78645276D01*
X182080371Y-78073847D02*
X178651800Y-83216704D01*
X183223228Y-81121466D02*
X185127990Y-81121466D01*
X182842276Y-82264323D02*
X184175609Y-78264323D01*
X185508942Y-82264323D01*
X188556561Y-79597657D02*
X188556561Y-82264323D01*
X186842276Y-79597657D02*
X186842276Y-81692895D01*
X187032752Y-82073847D01*
X187413704Y-82264323D01*
X187985133Y-82264323D01*
X188366085Y-82073847D01*
X188556561Y-81883371D01*
X192175609Y-82264323D02*
X192175609Y-78264323D01*
X192175609Y-82073847D02*
X191794657Y-82264323D01*
X191032752Y-82264323D01*
X190651800Y-82073847D01*
X190461323Y-81883371D01*
X190270847Y-81502419D01*
X190270847Y-80359561D01*
X190461323Y-79978609D01*
X190651800Y-79788133D01*
X191032752Y-79597657D01*
X191794657Y-79597657D01*
X192175609Y-79788133D01*
X194080371Y-82264323D02*
X194080371Y-79597657D01*
X194080371Y-78264323D02*
X193889895Y-78454800D01*
X194080371Y-78645276D01*
X194270847Y-78454800D01*
X194080371Y-78264323D01*
X194080371Y-78645276D01*
X196556561Y-82264323D02*
X196175609Y-82073847D01*
X195985133Y-81883371D01*
X195794657Y-81502419D01*
X195794657Y-80359561D01*
X195985133Y-79978609D01*
X196175609Y-79788133D01*
X196556561Y-79597657D01*
X197127990Y-79597657D01*
X197508942Y-79788133D01*
X197699419Y-79978609D01*
X197889895Y-80359561D01*
X197889895Y-81502419D01*
X197699419Y-81883371D01*
X197508942Y-82073847D01*
X197127990Y-82264323D01*
X196556561Y-82264323D01*
X176556561Y-88473847D02*
X177127990Y-88664323D01*
X178080371Y-88664323D01*
X178461323Y-88473847D01*
X178651800Y-88283371D01*
X178842276Y-87902419D01*
X178842276Y-87521466D01*
X178651800Y-87140514D01*
X178461323Y-86950038D01*
X178080371Y-86759561D01*
X177318466Y-86569085D01*
X176937514Y-86378609D01*
X176747038Y-86188133D01*
X176556561Y-85807180D01*
X176556561Y-85426228D01*
X176747038Y-85045276D01*
X176937514Y-84854800D01*
X177318466Y-84664323D01*
X178270847Y-84664323D01*
X178842276Y-84854800D01*
X180556561Y-88664323D02*
X180556561Y-84664323D01*
X180937514Y-87140514D02*
X182080371Y-88664323D01*
X182080371Y-85997657D02*
X180556561Y-87521466D01*
X183794657Y-88664323D02*
X183794657Y-85997657D01*
X183794657Y-84664323D02*
X183604180Y-84854800D01*
X183794657Y-85045276D01*
X183985133Y-84854800D01*
X183794657Y-84664323D01*
X183794657Y-85045276D01*
X185699419Y-88664323D02*
X185699419Y-85997657D01*
X185699419Y-86759561D02*
X185889895Y-86378609D01*
X186080371Y-86188133D01*
X186461323Y-85997657D01*
X186842276Y-85997657D01*
X187604180Y-85997657D02*
X189127990Y-85997657D01*
X188175609Y-84664323D02*
X188175609Y-88092895D01*
X188366085Y-88473847D01*
X188747038Y-88664323D01*
X189127990Y-88664323D01*
D10*
X158318714Y-106220000D02*
X158204428Y-106162857D01*
X158033000Y-106162857D01*
X157861571Y-106220000D01*
X157747285Y-106334285D01*
X157690142Y-106448571D01*
X157633000Y-106677142D01*
X157633000Y-106848571D01*
X157690142Y-107077142D01*
X157747285Y-107191428D01*
X157861571Y-107305714D01*
X158033000Y-107362857D01*
X158147285Y-107362857D01*
X158318714Y-107305714D01*
X158375857Y-107248571D01*
X158375857Y-106848571D01*
X158147285Y-106848571D01*
X158890142Y-107362857D02*
X158890142Y-106162857D01*
X159575857Y-107362857D01*
X159575857Y-106162857D01*
X160147285Y-107362857D02*
X160147285Y-106162857D01*
X160433000Y-106162857D01*
X160604428Y-106220000D01*
X160718714Y-106334285D01*
X160775857Y-106448571D01*
X160833000Y-106677142D01*
X160833000Y-106848571D01*
X160775857Y-107077142D01*
X160718714Y-107191428D01*
X160604428Y-107305714D01*
X160433000Y-107362857D01*
X160147285Y-107362857D01*
X154686428Y-106162857D02*
X154115000Y-106162857D01*
X154057857Y-106734285D01*
X154115000Y-106677142D01*
X154229285Y-106620000D01*
X154515000Y-106620000D01*
X154629285Y-106677142D01*
X154686428Y-106734285D01*
X154743571Y-106848571D01*
X154743571Y-107134285D01*
X154686428Y-107248571D01*
X154629285Y-107305714D01*
X154515000Y-107362857D01*
X154229285Y-107362857D01*
X154115000Y-107305714D01*
X154057857Y-107248571D01*
X155086428Y-106162857D02*
X155486428Y-107362857D01*
X155886428Y-106162857D01*
D11*
X145315605Y-61989000D02*
G75*
G03X145315605Y-61989000I-179605J0D01*
G01*
X138330605Y-52337000D02*
G75*
G03X138330605Y-52337000I-179605J0D01*
G01*
D10*
X168802885Y-55667514D02*
X168974314Y-55724657D01*
X169260028Y-55724657D01*
X169374314Y-55667514D01*
X169431457Y-55610371D01*
X169488600Y-55496085D01*
X169488600Y-55381800D01*
X169431457Y-55267514D01*
X169374314Y-55210371D01*
X169260028Y-55153228D01*
X169031457Y-55096085D01*
X168917171Y-55038942D01*
X168860028Y-54981800D01*
X168802885Y-54867514D01*
X168802885Y-54753228D01*
X168860028Y-54638942D01*
X168917171Y-54581800D01*
X169031457Y-54524657D01*
X169317171Y-54524657D01*
X169488600Y-54581800D01*
X170002885Y-55724657D02*
X170002885Y-54524657D01*
X170460028Y-54524657D01*
X170574314Y-54581800D01*
X170631457Y-54638942D01*
X170688600Y-54753228D01*
X170688600Y-54924657D01*
X170631457Y-55038942D01*
X170574314Y-55096085D01*
X170460028Y-55153228D01*
X170002885Y-55153228D01*
X171888600Y-55724657D02*
X171488600Y-55153228D01*
X171202885Y-55724657D02*
X171202885Y-54524657D01*
X171660028Y-54524657D01*
X171774314Y-54581800D01*
X171831457Y-54638942D01*
X171888600Y-54753228D01*
X171888600Y-54924657D01*
X171831457Y-55038942D01*
X171774314Y-55096085D01*
X171660028Y-55153228D01*
X171202885Y-55153228D01*
X172402885Y-55724657D02*
X172402885Y-54524657D01*
X173088600Y-55724657D02*
X172574314Y-55038942D01*
X173088600Y-54524657D02*
X172402885Y-55210371D01*
X173602885Y-55267514D02*
X174517171Y-55267514D01*
X175774314Y-55724657D02*
X175374314Y-55153228D01*
X175088600Y-55724657D02*
X175088600Y-54524657D01*
X175545742Y-54524657D01*
X175660028Y-54581800D01*
X175717171Y-54638942D01*
X175774314Y-54753228D01*
X175774314Y-54924657D01*
X175717171Y-55038942D01*
X175660028Y-55096085D01*
X175545742Y-55153228D01*
X175088600Y-55153228D01*
X152788171Y-55946914D02*
X152959600Y-56004057D01*
X153245314Y-56004057D01*
X153359600Y-55946914D01*
X153416742Y-55889771D01*
X153473885Y-55775485D01*
X153473885Y-55661200D01*
X153416742Y-55546914D01*
X153359600Y-55489771D01*
X153245314Y-55432628D01*
X153016742Y-55375485D01*
X152902457Y-55318342D01*
X152845314Y-55261200D01*
X152788171Y-55146914D01*
X152788171Y-55032628D01*
X152845314Y-54918342D01*
X152902457Y-54861200D01*
X153016742Y-54804057D01*
X153302457Y-54804057D01*
X153473885Y-54861200D01*
X153988171Y-56004057D02*
X153988171Y-54804057D01*
X154445314Y-54804057D01*
X154559600Y-54861200D01*
X154616742Y-54918342D01*
X154673885Y-55032628D01*
X154673885Y-55204057D01*
X154616742Y-55318342D01*
X154559600Y-55375485D01*
X154445314Y-55432628D01*
X153988171Y-55432628D01*
X155873885Y-56004057D02*
X155473885Y-55432628D01*
X155188171Y-56004057D02*
X155188171Y-54804057D01*
X155645314Y-54804057D01*
X155759600Y-54861200D01*
X155816742Y-54918342D01*
X155873885Y-55032628D01*
X155873885Y-55204057D01*
X155816742Y-55318342D01*
X155759600Y-55375485D01*
X155645314Y-55432628D01*
X155188171Y-55432628D01*
X156388171Y-56004057D02*
X156388171Y-54804057D01*
X157073885Y-56004057D02*
X156559600Y-55318342D01*
X157073885Y-54804057D02*
X156388171Y-55489771D01*
X157588171Y-55546914D02*
X158502457Y-55546914D01*
X159645314Y-56004057D02*
X159073885Y-56004057D01*
X159073885Y-54804057D01*
D14*
X130805800Y-105154600D02*
X131155800Y-105154600D01*
X133405800Y-105154600D02*
X133055800Y-105154600D01*
X130805800Y-103354600D02*
X131155800Y-103354600D01*
X133405800Y-103354600D02*
X133055800Y-103354600D01*
D15*
X131535800Y-105909600D02*
G75*
G03X131535800Y-105909600I-50000J0D01*
G01*
D16*
X151310200Y-79990133D02*
X151310200Y-80332667D01*
X150290200Y-79990133D02*
X150290200Y-80332667D01*
X127450836Y-97620800D02*
X128654964Y-97620800D01*
X127450836Y-95800800D02*
X128654964Y-95800800D01*
X116305000Y-79291267D02*
X116305000Y-78948733D01*
X117325000Y-79291267D02*
X117325000Y-78948733D01*
X133648667Y-69886400D02*
X133306133Y-69886400D01*
X133648667Y-70906400D02*
X133306133Y-70906400D01*
X128878000Y-73782067D02*
X128878000Y-73439533D01*
X129898000Y-73782067D02*
X129898000Y-73439533D01*
X139376733Y-90439000D02*
X139719267Y-90439000D01*
X139376733Y-89419000D02*
X139719267Y-89419000D01*
X131478267Y-86502000D02*
X131135733Y-86502000D01*
X131478267Y-85482000D02*
X131135733Y-85482000D01*
X139376733Y-86371000D02*
X139719267Y-86371000D01*
X139376733Y-87391000D02*
X139719267Y-87391000D01*
X139390733Y-85486000D02*
X139733267Y-85486000D01*
X139390733Y-84466000D02*
X139733267Y-84466000D01*
X127538667Y-79106600D02*
X127196133Y-79106600D01*
X127538667Y-80126600D02*
X127196133Y-80126600D01*
X140011733Y-78878000D02*
X140354267Y-78878000D01*
X140011733Y-79898000D02*
X140354267Y-79898000D01*
X135609000Y-87090733D02*
X135609000Y-87433267D01*
X136629000Y-87090733D02*
X136629000Y-87433267D01*
X138600733Y-75449000D02*
X138943267Y-75449000D01*
X138600733Y-76469000D02*
X138943267Y-76469000D01*
X134470000Y-89009733D02*
X134470000Y-89352267D01*
X133450000Y-89009733D02*
X133450000Y-89352267D01*
X142852000Y-74898733D02*
X142852000Y-75241267D01*
X141832000Y-74898733D02*
X141832000Y-75241267D01*
X148617800Y-83901733D02*
X148617800Y-84244267D01*
X147597800Y-83901733D02*
X147597800Y-84244267D01*
X144753000Y-88995733D02*
X144753000Y-89338267D01*
X145773000Y-88995733D02*
X145773000Y-89338267D01*
X145773000Y-74912733D02*
X145773000Y-75255267D01*
X144753000Y-74912733D02*
X144753000Y-75255267D01*
X147597800Y-79978733D02*
X147597800Y-80321267D01*
X148617800Y-79978733D02*
X148617800Y-80321267D01*
X148944000Y-89009733D02*
X148944000Y-89352267D01*
X149964000Y-89009733D02*
X149964000Y-89352267D01*
X149964000Y-74912733D02*
X149964000Y-75255267D01*
X148944000Y-74912733D02*
X148944000Y-75255267D01*
X143175333Y-57850800D02*
X143517867Y-57850800D01*
X143175333Y-56830800D02*
X143517867Y-56830800D01*
X150208533Y-68137800D02*
X150551067Y-68137800D01*
X150208533Y-67117800D02*
X150551067Y-67117800D01*
X137433267Y-57876200D02*
X137090733Y-57876200D01*
X137433267Y-56856200D02*
X137090733Y-56856200D01*
X145575267Y-67117800D02*
X145232733Y-67117800D01*
X145575267Y-68137800D02*
X145232733Y-68137800D01*
X150879000Y-103746000D02*
X150879000Y-112746000D01*
X150879000Y-112746000D02*
X141679000Y-112746000D01*
X141679000Y-112746000D02*
X141679000Y-98146000D01*
X141679000Y-98146000D02*
X144479000Y-98146000D01*
X148079000Y-98146000D02*
X150879000Y-98146000D01*
X150879000Y-98146000D02*
X150879000Y-100146000D01*
X141439000Y-99646000D02*
X141439000Y-97906000D01*
X141439000Y-97906000D02*
X143179000Y-97906000D01*
X151288600Y-48498400D02*
X150888600Y-48498400D01*
X151288600Y-49138400D02*
X151288600Y-48498400D01*
X145268600Y-55478400D02*
X145268600Y-48738400D01*
X151048600Y-55478400D02*
X151048600Y-48738400D01*
X151048600Y-48738400D02*
X145268600Y-48738400D01*
X151048600Y-55478400D02*
X145268600Y-55478400D01*
X151048600Y-54358400D02*
X145268600Y-54358400D01*
X151048600Y-49258400D02*
X145268600Y-49258400D01*
X167431600Y-49258400D02*
X161651600Y-49258400D01*
X167431600Y-54358400D02*
X161651600Y-54358400D01*
X167431600Y-55478400D02*
X161651600Y-55478400D01*
X167431600Y-48738400D02*
X161651600Y-48738400D01*
X167431600Y-55478400D02*
X167431600Y-48738400D01*
X161651600Y-55478400D02*
X161651600Y-48738400D01*
X167671600Y-49138400D02*
X167671600Y-48498400D01*
X167671600Y-48498400D02*
X167271600Y-48498400D01*
X144216733Y-85486000D02*
X144559267Y-85486000D01*
X144216733Y-84466000D02*
X144559267Y-84466000D01*
X144216733Y-78751000D02*
X144559267Y-78751000D01*
X144216733Y-79771000D02*
X144559267Y-79771000D01*
X119944067Y-97750200D02*
X119601533Y-97750200D01*
X119944067Y-98770200D02*
X119601533Y-98770200D01*
X119944067Y-96865200D02*
X119601533Y-96865200D01*
X119944067Y-95845200D02*
X119601533Y-95845200D01*
X117975933Y-105069400D02*
X118318467Y-105069400D01*
X117975933Y-104049400D02*
X118318467Y-104049400D01*
X122166933Y-104049400D02*
X122509467Y-104049400D01*
X122166933Y-105069400D02*
X122509467Y-105069400D01*
X122585667Y-78979600D02*
X122243133Y-78979600D01*
X122585667Y-79999600D02*
X122243133Y-79999600D01*
X138600733Y-73421000D02*
X138943267Y-73421000D01*
X138600733Y-72401000D02*
X138943267Y-72401000D01*
X144216733Y-83454000D02*
X144559267Y-83454000D01*
X144216733Y-82434000D02*
X144559267Y-82434000D01*
X151310200Y-83927133D02*
X151310200Y-84269667D01*
X150290200Y-83927133D02*
X150290200Y-84269667D01*
X132010733Y-56780000D02*
X132353267Y-56780000D01*
X132010733Y-57800000D02*
X132353267Y-57800000D01*
X132339267Y-59066000D02*
X131996733Y-59066000D01*
X132339267Y-60086000D02*
X131996733Y-60086000D01*
X139390733Y-68260800D02*
X139733267Y-68260800D01*
X139390733Y-69280800D02*
X139733267Y-69280800D01*
X139606267Y-65162000D02*
X139263733Y-65162000D01*
X139606267Y-66182000D02*
X139263733Y-66182000D01*
X122052267Y-68658500D02*
X121709733Y-68658500D01*
X122052267Y-67638500D02*
X121709733Y-67638500D01*
X148440000Y-70782267D02*
X148440000Y-70439733D01*
X147420000Y-70782267D02*
X147420000Y-70439733D01*
X119604133Y-94985600D02*
X119946667Y-94985600D01*
X119604133Y-93965600D02*
X119946667Y-93965600D01*
X119604133Y-92060600D02*
X119946667Y-92060600D01*
X119604133Y-93080600D02*
X119946667Y-93080600D01*
X125646733Y-74433000D02*
X125989267Y-74433000D01*
X125646733Y-75453000D02*
X125989267Y-75453000D01*
X126017267Y-72405000D02*
X125674733Y-72405000D01*
X126017267Y-71385000D02*
X125674733Y-71385000D01*
D17*
X137221400Y-84352000D02*
G75*
G03X137221400Y-84352000I-127000J0D01*
G01*
D18*
X130839400Y-77835000D02*
X130527400Y-77835000D01*
X130527400Y-77835000D02*
X130527400Y-78147000D01*
X136681400Y-83989000D02*
X136369400Y-83989000D01*
X136681400Y-78147000D02*
X136681400Y-77835000D01*
X136681400Y-77835000D02*
X136369400Y-77835000D01*
X130527400Y-83677000D02*
X130527400Y-83989000D01*
X136681400Y-83989000D02*
X136681400Y-83677000D01*
X130839400Y-83989000D02*
X130527400Y-83989000D01*
D19*
X141707000Y-52489400D02*
X141707000Y-52235400D01*
X141453000Y-55232600D02*
X141707000Y-55232600D01*
X138709800Y-54978600D02*
X138709800Y-55232600D01*
X138963800Y-52235400D02*
X138709800Y-52235400D01*
X138709800Y-55232600D02*
X138963800Y-55232600D01*
X141707000Y-55232600D02*
X141707000Y-54978600D01*
X141707000Y-52235400D02*
X141453000Y-52235400D01*
X138709800Y-52235400D02*
X138709800Y-52489400D01*
X145694800Y-61938200D02*
X145694800Y-62192200D01*
X148692000Y-61938200D02*
X148438000Y-61938200D01*
X148692000Y-64935400D02*
X148692000Y-64681400D01*
X145694800Y-64935400D02*
X145948800Y-64935400D01*
X145948800Y-61938200D02*
X145694800Y-61938200D01*
X145694800Y-64681400D02*
X145694800Y-64935400D01*
X148438000Y-64935400D02*
X148692000Y-64935400D01*
X148692000Y-62192200D02*
X148692000Y-61938200D01*
D14*
X136176000Y-74121600D02*
X136176000Y-73251600D01*
X134406000Y-71946600D02*
X132666000Y-71946600D01*
X130896000Y-74121600D02*
X130896000Y-73251600D01*
X134406000Y-75426600D02*
X132666000Y-75426600D01*
D11*
X158160000Y-108022000D02*
X160560000Y-108022000D01*
X158160000Y-112222000D02*
X158160000Y-108022000D01*
X160560000Y-112222000D02*
X158160000Y-112222000D01*
X160560000Y-108022000D02*
X160560000Y-112222000D01*
X155988000Y-108022000D02*
X155988000Y-112222000D01*
X155988000Y-112222000D02*
X153588000Y-112222000D01*
X153588000Y-112222000D02*
X153588000Y-108022000D01*
X153588000Y-108022000D02*
X155988000Y-108022000D01*
X152572000Y-48865400D02*
X154972000Y-48865400D01*
X152572000Y-53065400D02*
X152572000Y-48865400D01*
X154972000Y-53065400D02*
X152572000Y-53065400D01*
X154972000Y-48865400D02*
X154972000Y-53065400D01*
X158858200Y-48865400D02*
X158858200Y-53065400D01*
X158858200Y-53065400D02*
X156458200Y-53065400D01*
X156458200Y-53065400D02*
X156458200Y-48865400D01*
X156458200Y-48865400D02*
X158858200Y-48865400D01*
X171558200Y-48890800D02*
X171558200Y-53090800D01*
X171558200Y-53090800D02*
X169158200Y-53090800D01*
X169158200Y-53090800D02*
X169158200Y-48890800D01*
X169158200Y-48890800D02*
X171558200Y-48890800D01*
X172968200Y-48890800D02*
X175368200Y-48890800D01*
X172968200Y-53090800D02*
X172968200Y-48890800D01*
X175368200Y-53090800D02*
X172968200Y-53090800D01*
X175368200Y-48890800D02*
X175368200Y-53090800D01*
D16*
X114462000Y-55299600D02*
X109262000Y-55299600D01*
X114462000Y-103619600D02*
X114462000Y-55299600D01*
X109262000Y-106219600D02*
X109262000Y-55299600D01*
X114462000Y-103619600D02*
X111862000Y-103619600D01*
X111862000Y-103619600D02*
X111862000Y-106219600D01*
X111862000Y-106219600D02*
X109262000Y-106219600D01*
X114462000Y-104889600D02*
X114462000Y-106219600D01*
X114462000Y-106219600D02*
X113132000Y-106219600D01*
X145291964Y-95842800D02*
X144087836Y-95842800D01*
X145291964Y-94022800D02*
X144087836Y-94022800D01*
X115866000Y-51024000D02*
X136306000Y-51024000D01*
X136306000Y-51024000D02*
X136306000Y-48364000D01*
X136306000Y-48364000D02*
X115866000Y-48364000D01*
X115866000Y-48364000D02*
X115866000Y-51024000D01*
X116816000Y-48364000D02*
X116816000Y-42364000D01*
X116816000Y-42364000D02*
X117576000Y-42364000D01*
X117576000Y-42364000D02*
X117576000Y-48364000D01*
X116876000Y-48364000D02*
X116876000Y-42364000D01*
X116996000Y-48364000D02*
X116996000Y-42364000D01*
X117116000Y-48364000D02*
X117116000Y-42364000D01*
X117236000Y-48364000D02*
X117236000Y-42364000D01*
X117356000Y-48364000D02*
X117356000Y-42364000D01*
X117476000Y-48364000D02*
X117476000Y-42364000D01*
X116816000Y-51354000D02*
X116816000Y-51024000D01*
X117576000Y-51354000D02*
X117576000Y-51024000D01*
X118466000Y-51024000D02*
X118466000Y-48364000D01*
X119356000Y-48364000D02*
X119356000Y-42364000D01*
X119356000Y-42364000D02*
X120116000Y-42364000D01*
X120116000Y-42364000D02*
X120116000Y-48364000D01*
X119356000Y-51421071D02*
X119356000Y-51024000D01*
X120116000Y-51421071D02*
X120116000Y-51024000D01*
X121006000Y-51024000D02*
X121006000Y-48364000D01*
X121896000Y-48364000D02*
X121896000Y-42364000D01*
X121896000Y-42364000D02*
X122656000Y-42364000D01*
X122656000Y-42364000D02*
X122656000Y-48364000D01*
X121896000Y-51421071D02*
X121896000Y-51024000D01*
X122656000Y-51421071D02*
X122656000Y-51024000D01*
X123546000Y-51024000D02*
X123546000Y-48364000D01*
X124436000Y-48364000D02*
X124436000Y-42364000D01*
X124436000Y-42364000D02*
X125196000Y-42364000D01*
X125196000Y-42364000D02*
X125196000Y-48364000D01*
X124436000Y-51421071D02*
X124436000Y-51024000D01*
X125196000Y-51421071D02*
X125196000Y-51024000D01*
X126086000Y-51024000D02*
X126086000Y-48364000D01*
X126976000Y-48364000D02*
X126976000Y-42364000D01*
X126976000Y-42364000D02*
X127736000Y-42364000D01*
X127736000Y-42364000D02*
X127736000Y-48364000D01*
X126976000Y-51421071D02*
X126976000Y-51024000D01*
X127736000Y-51421071D02*
X127736000Y-51024000D01*
X128626000Y-51024000D02*
X128626000Y-48364000D01*
X129516000Y-48364000D02*
X129516000Y-42364000D01*
X129516000Y-42364000D02*
X130276000Y-42364000D01*
X130276000Y-42364000D02*
X130276000Y-48364000D01*
X129516000Y-51421071D02*
X129516000Y-51024000D01*
X130276000Y-51421071D02*
X130276000Y-51024000D01*
X131166000Y-51024000D02*
X131166000Y-48364000D01*
X132056000Y-48364000D02*
X132056000Y-42364000D01*
X132056000Y-42364000D02*
X132816000Y-42364000D01*
X132816000Y-42364000D02*
X132816000Y-48364000D01*
X132056000Y-51421071D02*
X132056000Y-51024000D01*
X132816000Y-51421071D02*
X132816000Y-51024000D01*
X133706000Y-51024000D02*
X133706000Y-48364000D01*
X134596000Y-48364000D02*
X134596000Y-42364000D01*
X134596000Y-42364000D02*
X135356000Y-42364000D01*
X135356000Y-42364000D02*
X135356000Y-48364000D01*
X134596000Y-51421071D02*
X134596000Y-51024000D01*
X135356000Y-51421071D02*
X135356000Y-51024000D01*
X117196000Y-53734000D02*
X115926000Y-53734000D01*
X115926000Y-53734000D02*
X115926000Y-52464000D01*
X121660233Y-66690000D02*
X122002767Y-66690000D01*
X121660233Y-65670000D02*
X122002767Y-65670000D01*
X117342233Y-66559000D02*
X117684767Y-66559000D01*
X117342233Y-67579000D02*
X117684767Y-67579000D01*
X121448500Y-62844767D02*
X121448500Y-62502233D01*
X122468500Y-62844767D02*
X122468500Y-62502233D01*
X117833000Y-62809267D02*
X117833000Y-62466733D01*
X116813000Y-62809267D02*
X116813000Y-62466733D01*
X131986267Y-63261000D02*
X131643733Y-63261000D01*
X131986267Y-62241000D02*
X131643733Y-62241000D01*
X131580233Y-66182000D02*
X131922767Y-66182000D01*
X131580233Y-65162000D02*
X131922767Y-65162000D01*
X127869233Y-66245500D02*
X128211767Y-66245500D01*
X127869233Y-65225500D02*
X128211767Y-65225500D01*
X125643500Y-63010233D02*
X125643500Y-63352767D01*
X124623500Y-63010233D02*
X124623500Y-63352767D01*
X128976733Y-92594000D02*
X129319267Y-92594000D01*
X128976733Y-93614000D02*
X129319267Y-93614000D01*
X128021267Y-105069400D02*
X127678733Y-105069400D01*
X128021267Y-104049400D02*
X127678733Y-104049400D01*
X140624000Y-110342800D02*
X115104000Y-110342800D01*
X115104000Y-110342800D02*
X115104000Y-113002800D01*
X115104000Y-113002800D02*
X140624000Y-113002800D01*
X140624000Y-113002800D02*
X140624000Y-110342800D01*
X139674000Y-113002800D02*
X139674000Y-119002800D01*
X139674000Y-119002800D02*
X138914000Y-119002800D01*
X138914000Y-119002800D02*
X138914000Y-113002800D01*
X139614000Y-113002800D02*
X139614000Y-119002800D01*
X139494000Y-113002800D02*
X139494000Y-119002800D01*
X139374000Y-113002800D02*
X139374000Y-119002800D01*
X139254000Y-113002800D02*
X139254000Y-119002800D01*
X139134000Y-113002800D02*
X139134000Y-119002800D01*
X139014000Y-113002800D02*
X139014000Y-119002800D01*
X139674000Y-110012800D02*
X139674000Y-110342800D01*
X138914000Y-110012800D02*
X138914000Y-110342800D01*
X138024000Y-110342800D02*
X138024000Y-113002800D01*
X137134000Y-113002800D02*
X137134000Y-119002800D01*
X137134000Y-119002800D02*
X136374000Y-119002800D01*
X136374000Y-119002800D02*
X136374000Y-113002800D01*
X137134000Y-109945729D02*
X137134000Y-110342800D01*
X136374000Y-109945729D02*
X136374000Y-110342800D01*
X135484000Y-110342800D02*
X135484000Y-113002800D01*
X134594000Y-113002800D02*
X134594000Y-119002800D01*
X134594000Y-119002800D02*
X133834000Y-119002800D01*
X133834000Y-119002800D02*
X133834000Y-113002800D01*
X134594000Y-109945729D02*
X134594000Y-110342800D01*
X133834000Y-109945729D02*
X133834000Y-110342800D01*
X132944000Y-110342800D02*
X132944000Y-113002800D01*
X132054000Y-113002800D02*
X132054000Y-119002800D01*
X132054000Y-119002800D02*
X131294000Y-119002800D01*
X131294000Y-119002800D02*
X131294000Y-113002800D01*
X132054000Y-109945729D02*
X132054000Y-110342800D01*
X131294000Y-109945729D02*
X131294000Y-110342800D01*
X130404000Y-110342800D02*
X130404000Y-113002800D01*
X129514000Y-113002800D02*
X129514000Y-119002800D01*
X129514000Y-119002800D02*
X128754000Y-119002800D01*
X128754000Y-119002800D02*
X128754000Y-113002800D01*
X129514000Y-109945729D02*
X129514000Y-110342800D01*
X128754000Y-109945729D02*
X128754000Y-110342800D01*
X127864000Y-110342800D02*
X127864000Y-113002800D01*
X126974000Y-113002800D02*
X126974000Y-119002800D01*
X126974000Y-119002800D02*
X126214000Y-119002800D01*
X126214000Y-119002800D02*
X126214000Y-113002800D01*
X126974000Y-109945729D02*
X126974000Y-110342800D01*
X126214000Y-109945729D02*
X126214000Y-110342800D01*
X125324000Y-110342800D02*
X125324000Y-113002800D01*
X124434000Y-113002800D02*
X124434000Y-119002800D01*
X124434000Y-119002800D02*
X123674000Y-119002800D01*
X123674000Y-119002800D02*
X123674000Y-113002800D01*
X124434000Y-109945729D02*
X124434000Y-110342800D01*
X123674000Y-109945729D02*
X123674000Y-110342800D01*
X122784000Y-110342800D02*
X122784000Y-113002800D01*
X121894000Y-113002800D02*
X121894000Y-119002800D01*
X121894000Y-119002800D02*
X121134000Y-119002800D01*
X121134000Y-119002800D02*
X121134000Y-113002800D01*
X121894000Y-109945729D02*
X121894000Y-110342800D01*
X121134000Y-109945729D02*
X121134000Y-110342800D01*
X120244000Y-110342800D02*
X120244000Y-113002800D01*
X119354000Y-113002800D02*
X119354000Y-119002800D01*
X119354000Y-119002800D02*
X118594000Y-119002800D01*
X118594000Y-119002800D02*
X118594000Y-113002800D01*
X119354000Y-109945729D02*
X119354000Y-110342800D01*
X118594000Y-109945729D02*
X118594000Y-110342800D01*
X117704000Y-110342800D02*
X117704000Y-113002800D01*
X116814000Y-113002800D02*
X116814000Y-119002800D01*
X116814000Y-119002800D02*
X116054000Y-119002800D01*
X116054000Y-119002800D02*
X116054000Y-113002800D01*
X116814000Y-109945729D02*
X116814000Y-110342800D01*
X116054000Y-109945729D02*
X116054000Y-110342800D01*
X139294000Y-107632800D02*
X140564000Y-107632800D01*
X140564000Y-107632800D02*
X140564000Y-108902800D01*
D15*
X119511800Y-57934040D02*
X119511800Y-57734040D01*
X119061800Y-57934040D02*
X119511800Y-57934040D01*
X118861800Y-58134040D02*
X119061800Y-57934040D01*
X118861800Y-58434040D02*
X118861800Y-58134040D01*
X123764000Y-58281640D02*
X123764000Y-57981640D01*
X123764000Y-57981640D02*
X123964000Y-57781640D01*
X123964000Y-57781640D02*
X124414000Y-57781640D01*
X124414000Y-57781640D02*
X124414000Y-57581640D01*
X128300200Y-61845640D02*
X128300200Y-61645640D01*
X127850200Y-61845640D02*
X128300200Y-61845640D01*
X127650200Y-62045640D02*
X127850200Y-61845640D01*
X127650200Y-62345640D02*
X127650200Y-62045640D01*
X127675600Y-57722840D02*
X127675600Y-57422840D01*
X127675600Y-57422840D02*
X127875600Y-57222840D01*
X127875600Y-57222840D02*
X128325600Y-57222840D01*
X128325600Y-57222840D02*
X128325600Y-57022840D01*
D16*
X133723933Y-100061600D02*
X134066467Y-100061600D01*
X133723933Y-101081600D02*
X134066467Y-101081600D01*
D10*
X134620514Y-102784657D02*
X134620514Y-103756085D01*
X134677657Y-103870371D01*
X134734800Y-103927514D01*
X134849085Y-103984657D01*
X135077657Y-103984657D01*
X135191942Y-103927514D01*
X135249085Y-103870371D01*
X135306228Y-103756085D01*
X135306228Y-102784657D01*
X136449085Y-102784657D02*
X135877657Y-102784657D01*
X135820514Y-103356085D01*
X135877657Y-103298942D01*
X135991942Y-103241800D01*
X136277657Y-103241800D01*
X136391942Y-103298942D01*
X136449085Y-103356085D01*
X136506228Y-103470371D01*
X136506228Y-103756085D01*
X136449085Y-103870371D01*
X136391942Y-103927514D01*
X136277657Y-103984657D01*
X135991942Y-103984657D01*
X135877657Y-103927514D01*
X135820514Y-103870371D01*
D11*
X150633533Y-78062380D02*
X150300200Y-77586190D01*
X150062104Y-78062380D02*
X150062104Y-77062380D01*
X150443057Y-77062380D01*
X150538295Y-77110000D01*
X150585914Y-77157619D01*
X150633533Y-77252857D01*
X150633533Y-77395714D01*
X150585914Y-77490952D01*
X150538295Y-77538571D01*
X150443057Y-77586190D01*
X150062104Y-77586190D01*
X151109723Y-78062380D02*
X151300200Y-78062380D01*
X151395438Y-78014761D01*
X151443057Y-77967142D01*
X151538295Y-77824285D01*
X151585914Y-77633809D01*
X151585914Y-77252857D01*
X151538295Y-77157619D01*
X151490676Y-77110000D01*
X151395438Y-77062380D01*
X151204961Y-77062380D01*
X151109723Y-77110000D01*
X151062104Y-77157619D01*
X151014485Y-77252857D01*
X151014485Y-77490952D01*
X151062104Y-77586190D01*
X151109723Y-77633809D01*
X151204961Y-77681428D01*
X151395438Y-77681428D01*
X151490676Y-77633809D01*
X151538295Y-77586190D01*
X151585914Y-77490952D01*
X152327428Y-81338980D02*
X151756000Y-81338980D01*
X152041714Y-81338980D02*
X152041714Y-80338980D01*
X151946476Y-80481838D01*
X151851238Y-80577076D01*
X151756000Y-80624695D01*
X152756000Y-81243742D02*
X152803619Y-81291361D01*
X152756000Y-81338980D01*
X152708380Y-81291361D01*
X152756000Y-81243742D01*
X152756000Y-81338980D01*
X153708380Y-80338980D02*
X153232190Y-80338980D01*
X153184571Y-80815171D01*
X153232190Y-80767552D01*
X153327428Y-80719933D01*
X153565523Y-80719933D01*
X153660761Y-80767552D01*
X153708380Y-80815171D01*
X153756000Y-80910409D01*
X153756000Y-81148504D01*
X153708380Y-81243742D01*
X153660761Y-81291361D01*
X153565523Y-81338980D01*
X153327428Y-81338980D01*
X153232190Y-81291361D01*
X153184571Y-81243742D01*
X128078333Y-95188342D02*
X128030714Y-95235961D01*
X127887857Y-95283580D01*
X127792619Y-95283580D01*
X127649761Y-95235961D01*
X127554523Y-95140723D01*
X127506904Y-95045485D01*
X127459285Y-94855009D01*
X127459285Y-94712152D01*
X127506904Y-94521676D01*
X127554523Y-94426438D01*
X127649761Y-94331200D01*
X127792619Y-94283580D01*
X127887857Y-94283580D01*
X128030714Y-94331200D01*
X128078333Y-94378819D01*
X129030714Y-95283580D02*
X128459285Y-95283580D01*
X128745000Y-95283580D02*
X128745000Y-94283580D01*
X128649761Y-94426438D01*
X128554523Y-94521676D01*
X128459285Y-94569295D01*
X116648333Y-76951142D02*
X116600714Y-76998761D01*
X116457857Y-77046380D01*
X116362619Y-77046380D01*
X116219761Y-76998761D01*
X116124523Y-76903523D01*
X116076904Y-76808285D01*
X116029285Y-76617809D01*
X116029285Y-76474952D01*
X116076904Y-76284476D01*
X116124523Y-76189238D01*
X116219761Y-76094000D01*
X116362619Y-76046380D01*
X116457857Y-76046380D01*
X116600714Y-76094000D01*
X116648333Y-76141619D01*
X116981666Y-76046380D02*
X117600714Y-76046380D01*
X117267380Y-76427333D01*
X117410238Y-76427333D01*
X117505476Y-76474952D01*
X117553095Y-76522571D01*
X117600714Y-76617809D01*
X117600714Y-76855904D01*
X117553095Y-76951142D01*
X117505476Y-76998761D01*
X117410238Y-77046380D01*
X117124523Y-77046380D01*
X117029285Y-76998761D01*
X116981666Y-76951142D01*
X133348833Y-69140642D02*
X133301214Y-69188261D01*
X133158357Y-69235880D01*
X133063119Y-69235880D01*
X132920261Y-69188261D01*
X132825023Y-69093023D01*
X132777404Y-68997785D01*
X132729785Y-68807309D01*
X132729785Y-68664452D01*
X132777404Y-68473976D01*
X132825023Y-68378738D01*
X132920261Y-68283500D01*
X133063119Y-68235880D01*
X133158357Y-68235880D01*
X133301214Y-68283500D01*
X133348833Y-68331119D01*
X134205976Y-68235880D02*
X134015500Y-68235880D01*
X133920261Y-68283500D01*
X133872642Y-68331119D01*
X133777404Y-68473976D01*
X133729785Y-68664452D01*
X133729785Y-69045404D01*
X133777404Y-69140642D01*
X133825023Y-69188261D01*
X133920261Y-69235880D01*
X134110738Y-69235880D01*
X134205976Y-69188261D01*
X134253595Y-69140642D01*
X134301214Y-69045404D01*
X134301214Y-68807309D01*
X134253595Y-68712071D01*
X134205976Y-68664452D01*
X134110738Y-68616833D01*
X133920261Y-68616833D01*
X133825023Y-68664452D01*
X133777404Y-68712071D01*
X133729785Y-68807309D01*
X129221333Y-71490142D02*
X129173714Y-71537761D01*
X129030857Y-71585380D01*
X128935619Y-71585380D01*
X128792761Y-71537761D01*
X128697523Y-71442523D01*
X128649904Y-71347285D01*
X128602285Y-71156809D01*
X128602285Y-71013952D01*
X128649904Y-70823476D01*
X128697523Y-70728238D01*
X128792761Y-70633000D01*
X128935619Y-70585380D01*
X129030857Y-70585380D01*
X129173714Y-70633000D01*
X129221333Y-70680619D01*
X129554666Y-70585380D02*
X130221333Y-70585380D01*
X129792761Y-71585380D01*
X139508333Y-91810142D02*
X139460714Y-91857761D01*
X139317857Y-91905380D01*
X139222619Y-91905380D01*
X139079761Y-91857761D01*
X138984523Y-91762523D01*
X138936904Y-91667285D01*
X138889285Y-91476809D01*
X138889285Y-91333952D01*
X138936904Y-91143476D01*
X138984523Y-91048238D01*
X139079761Y-90953000D01*
X139222619Y-90905380D01*
X139317857Y-90905380D01*
X139460714Y-90953000D01*
X139508333Y-91000619D01*
X140079761Y-91333952D02*
X139984523Y-91286333D01*
X139936904Y-91238714D01*
X139889285Y-91143476D01*
X139889285Y-91095857D01*
X139936904Y-91000619D01*
X139984523Y-90953000D01*
X140079761Y-90905380D01*
X140270238Y-90905380D01*
X140365476Y-90953000D01*
X140413095Y-91000619D01*
X140460714Y-91095857D01*
X140460714Y-91143476D01*
X140413095Y-91238714D01*
X140365476Y-91286333D01*
X140270238Y-91333952D01*
X140079761Y-91333952D01*
X139984523Y-91381571D01*
X139936904Y-91429190D01*
X139889285Y-91524428D01*
X139889285Y-91714904D01*
X139936904Y-91810142D01*
X139984523Y-91857761D01*
X140079761Y-91905380D01*
X140270238Y-91905380D01*
X140365476Y-91857761D01*
X140413095Y-91810142D01*
X140460714Y-91714904D01*
X140460714Y-91524428D01*
X140413095Y-91429190D01*
X140365476Y-91381571D01*
X140270238Y-91333952D01*
X131126333Y-87746142D02*
X131078714Y-87793761D01*
X130935857Y-87841380D01*
X130840619Y-87841380D01*
X130697761Y-87793761D01*
X130602523Y-87698523D01*
X130554904Y-87603285D01*
X130507285Y-87412809D01*
X130507285Y-87269952D01*
X130554904Y-87079476D01*
X130602523Y-86984238D01*
X130697761Y-86889000D01*
X130840619Y-86841380D01*
X130935857Y-86841380D01*
X131078714Y-86889000D01*
X131126333Y-86936619D01*
X131602523Y-87841380D02*
X131793000Y-87841380D01*
X131888238Y-87793761D01*
X131935857Y-87746142D01*
X132031095Y-87603285D01*
X132078714Y-87412809D01*
X132078714Y-87031857D01*
X132031095Y-86936619D01*
X131983476Y-86889000D01*
X131888238Y-86841380D01*
X131697761Y-86841380D01*
X131602523Y-86889000D01*
X131554904Y-86936619D01*
X131507285Y-87031857D01*
X131507285Y-87269952D01*
X131554904Y-87365190D01*
X131602523Y-87412809D01*
X131697761Y-87460428D01*
X131888238Y-87460428D01*
X131983476Y-87412809D01*
X132031095Y-87365190D01*
X132078714Y-87269952D01*
X138905142Y-88762142D02*
X138857523Y-88809761D01*
X138714666Y-88857380D01*
X138619428Y-88857380D01*
X138476571Y-88809761D01*
X138381333Y-88714523D01*
X138333714Y-88619285D01*
X138286095Y-88428809D01*
X138286095Y-88285952D01*
X138333714Y-88095476D01*
X138381333Y-88000238D01*
X138476571Y-87905000D01*
X138619428Y-87857380D01*
X138714666Y-87857380D01*
X138857523Y-87905000D01*
X138905142Y-87952619D01*
X139857523Y-88857380D02*
X139286095Y-88857380D01*
X139571809Y-88857380D02*
X139571809Y-87857380D01*
X139476571Y-88000238D01*
X139381333Y-88095476D01*
X139286095Y-88143095D01*
X140476571Y-87857380D02*
X140571809Y-87857380D01*
X140667047Y-87905000D01*
X140714666Y-87952619D01*
X140762285Y-88047857D01*
X140809904Y-88238333D01*
X140809904Y-88476428D01*
X140762285Y-88666904D01*
X140714666Y-88762142D01*
X140667047Y-88809761D01*
X140571809Y-88857380D01*
X140476571Y-88857380D01*
X140381333Y-88809761D01*
X140333714Y-88762142D01*
X140286095Y-88666904D01*
X140238476Y-88476428D01*
X140238476Y-88238333D01*
X140286095Y-88047857D01*
X140333714Y-87952619D01*
X140381333Y-87905000D01*
X140476571Y-87857380D01*
X138919142Y-83903142D02*
X138871523Y-83950761D01*
X138728666Y-83998380D01*
X138633428Y-83998380D01*
X138490571Y-83950761D01*
X138395333Y-83855523D01*
X138347714Y-83760285D01*
X138300095Y-83569809D01*
X138300095Y-83426952D01*
X138347714Y-83236476D01*
X138395333Y-83141238D01*
X138490571Y-83046000D01*
X138633428Y-82998380D01*
X138728666Y-82998380D01*
X138871523Y-83046000D01*
X138919142Y-83093619D01*
X139871523Y-83998380D02*
X139300095Y-83998380D01*
X139585809Y-83998380D02*
X139585809Y-82998380D01*
X139490571Y-83141238D01*
X139395333Y-83236476D01*
X139300095Y-83284095D01*
X140823904Y-83998380D02*
X140252476Y-83998380D01*
X140538190Y-83998380D02*
X140538190Y-82998380D01*
X140442952Y-83141238D01*
X140347714Y-83236476D01*
X140252476Y-83284095D01*
X126713142Y-78348142D02*
X126665523Y-78395761D01*
X126522666Y-78443380D01*
X126427428Y-78443380D01*
X126284571Y-78395761D01*
X126189333Y-78300523D01*
X126141714Y-78205285D01*
X126094095Y-78014809D01*
X126094095Y-77871952D01*
X126141714Y-77681476D01*
X126189333Y-77586238D01*
X126284571Y-77491000D01*
X126427428Y-77443380D01*
X126522666Y-77443380D01*
X126665523Y-77491000D01*
X126713142Y-77538619D01*
X127665523Y-78443380D02*
X127094095Y-78443380D01*
X127379809Y-78443380D02*
X127379809Y-77443380D01*
X127284571Y-77586238D01*
X127189333Y-77681476D01*
X127094095Y-77729095D01*
X128046476Y-77538619D02*
X128094095Y-77491000D01*
X128189333Y-77443380D01*
X128427428Y-77443380D01*
X128522666Y-77491000D01*
X128570285Y-77538619D01*
X128617904Y-77633857D01*
X128617904Y-77729095D01*
X128570285Y-77871952D01*
X127998857Y-78443380D01*
X128617904Y-78443380D01*
X139540142Y-78315142D02*
X139492523Y-78362761D01*
X139349666Y-78410380D01*
X139254428Y-78410380D01*
X139111571Y-78362761D01*
X139016333Y-78267523D01*
X138968714Y-78172285D01*
X138921095Y-77981809D01*
X138921095Y-77838952D01*
X138968714Y-77648476D01*
X139016333Y-77553238D01*
X139111571Y-77458000D01*
X139254428Y-77410380D01*
X139349666Y-77410380D01*
X139492523Y-77458000D01*
X139540142Y-77505619D01*
X140492523Y-78410380D02*
X139921095Y-78410380D01*
X140206809Y-78410380D02*
X140206809Y-77410380D01*
X140111571Y-77553238D01*
X140016333Y-77648476D01*
X139921095Y-77696095D01*
X140825857Y-77410380D02*
X141444904Y-77410380D01*
X141111571Y-77791333D01*
X141254428Y-77791333D01*
X141349666Y-77838952D01*
X141397285Y-77886571D01*
X141444904Y-77981809D01*
X141444904Y-78219904D01*
X141397285Y-78315142D01*
X141349666Y-78362761D01*
X141254428Y-78410380D01*
X140968714Y-78410380D01*
X140873476Y-78362761D01*
X140825857Y-78315142D01*
X135603142Y-90032142D02*
X135555523Y-90079761D01*
X135412666Y-90127380D01*
X135317428Y-90127380D01*
X135174571Y-90079761D01*
X135079333Y-89984523D01*
X135031714Y-89889285D01*
X134984095Y-89698809D01*
X134984095Y-89555952D01*
X135031714Y-89365476D01*
X135079333Y-89270238D01*
X135174571Y-89175000D01*
X135317428Y-89127380D01*
X135412666Y-89127380D01*
X135555523Y-89175000D01*
X135603142Y-89222619D01*
X136555523Y-90127380D02*
X135984095Y-90127380D01*
X136269809Y-90127380D02*
X136269809Y-89127380D01*
X136174571Y-89270238D01*
X136079333Y-89365476D01*
X135984095Y-89413095D01*
X137412666Y-89460714D02*
X137412666Y-90127380D01*
X137174571Y-89079761D02*
X136936476Y-89794047D01*
X137555523Y-89794047D01*
X138129142Y-74886142D02*
X138081523Y-74933761D01*
X137938666Y-74981380D01*
X137843428Y-74981380D01*
X137700571Y-74933761D01*
X137605333Y-74838523D01*
X137557714Y-74743285D01*
X137510095Y-74552809D01*
X137510095Y-74409952D01*
X137557714Y-74219476D01*
X137605333Y-74124238D01*
X137700571Y-74029000D01*
X137843428Y-73981380D01*
X137938666Y-73981380D01*
X138081523Y-74029000D01*
X138129142Y-74076619D01*
X139081523Y-74981380D02*
X138510095Y-74981380D01*
X138795809Y-74981380D02*
X138795809Y-73981380D01*
X138700571Y-74124238D01*
X138605333Y-74219476D01*
X138510095Y-74267095D01*
X139986285Y-73981380D02*
X139510095Y-73981380D01*
X139462476Y-74457571D01*
X139510095Y-74409952D01*
X139605333Y-74362333D01*
X139843428Y-74362333D01*
X139938666Y-74409952D01*
X139986285Y-74457571D01*
X140033904Y-74552809D01*
X140033904Y-74790904D01*
X139986285Y-74886142D01*
X139938666Y-74933761D01*
X139843428Y-74981380D01*
X139605333Y-74981380D01*
X139510095Y-74933761D01*
X139462476Y-74886142D01*
X133317142Y-92064142D02*
X133269523Y-92111761D01*
X133126666Y-92159380D01*
X133031428Y-92159380D01*
X132888571Y-92111761D01*
X132793333Y-92016523D01*
X132745714Y-91921285D01*
X132698095Y-91730809D01*
X132698095Y-91587952D01*
X132745714Y-91397476D01*
X132793333Y-91302238D01*
X132888571Y-91207000D01*
X133031428Y-91159380D01*
X133126666Y-91159380D01*
X133269523Y-91207000D01*
X133317142Y-91254619D01*
X134269523Y-92159380D02*
X133698095Y-92159380D01*
X133983809Y-92159380D02*
X133983809Y-91159380D01*
X133888571Y-91302238D01*
X133793333Y-91397476D01*
X133698095Y-91445095D01*
X135126666Y-91159380D02*
X134936190Y-91159380D01*
X134840952Y-91207000D01*
X134793333Y-91254619D01*
X134698095Y-91397476D01*
X134650476Y-91587952D01*
X134650476Y-91968904D01*
X134698095Y-92064142D01*
X134745714Y-92111761D01*
X134840952Y-92159380D01*
X135031428Y-92159380D01*
X135126666Y-92111761D01*
X135174285Y-92064142D01*
X135221904Y-91968904D01*
X135221904Y-91730809D01*
X135174285Y-91635571D01*
X135126666Y-91587952D01*
X135031428Y-91540333D01*
X134840952Y-91540333D01*
X134745714Y-91587952D01*
X134698095Y-91635571D01*
X134650476Y-91730809D01*
X141572142Y-72901142D02*
X141524523Y-72948761D01*
X141381666Y-72996380D01*
X141286428Y-72996380D01*
X141143571Y-72948761D01*
X141048333Y-72853523D01*
X141000714Y-72758285D01*
X140953095Y-72567809D01*
X140953095Y-72424952D01*
X141000714Y-72234476D01*
X141048333Y-72139238D01*
X141143571Y-72044000D01*
X141286428Y-71996380D01*
X141381666Y-71996380D01*
X141524523Y-72044000D01*
X141572142Y-72091619D01*
X142524523Y-72996380D02*
X141953095Y-72996380D01*
X142238809Y-72996380D02*
X142238809Y-71996380D01*
X142143571Y-72139238D01*
X142048333Y-72234476D01*
X141953095Y-72282095D01*
X142857857Y-71996380D02*
X143524523Y-71996380D01*
X143095952Y-72996380D01*
X147464942Y-86831742D02*
X147417323Y-86879361D01*
X147274466Y-86926980D01*
X147179228Y-86926980D01*
X147036371Y-86879361D01*
X146941133Y-86784123D01*
X146893514Y-86688885D01*
X146845895Y-86498409D01*
X146845895Y-86355552D01*
X146893514Y-86165076D01*
X146941133Y-86069838D01*
X147036371Y-85974600D01*
X147179228Y-85926980D01*
X147274466Y-85926980D01*
X147417323Y-85974600D01*
X147464942Y-86022219D01*
X148417323Y-86926980D02*
X147845895Y-86926980D01*
X148131609Y-86926980D02*
X148131609Y-85926980D01*
X148036371Y-86069838D01*
X147941133Y-86165076D01*
X147845895Y-86212695D01*
X148988752Y-86355552D02*
X148893514Y-86307933D01*
X148845895Y-86260314D01*
X148798276Y-86165076D01*
X148798276Y-86117457D01*
X148845895Y-86022219D01*
X148893514Y-85974600D01*
X148988752Y-85926980D01*
X149179228Y-85926980D01*
X149274466Y-85974600D01*
X149322085Y-86022219D01*
X149369704Y-86117457D01*
X149369704Y-86165076D01*
X149322085Y-86260314D01*
X149274466Y-86307933D01*
X149179228Y-86355552D01*
X148988752Y-86355552D01*
X148893514Y-86403171D01*
X148845895Y-86450790D01*
X148798276Y-86546028D01*
X148798276Y-86736504D01*
X148845895Y-86831742D01*
X148893514Y-86879361D01*
X148988752Y-86926980D01*
X149179228Y-86926980D01*
X149274466Y-86879361D01*
X149322085Y-86831742D01*
X149369704Y-86736504D01*
X149369704Y-86546028D01*
X149322085Y-86450790D01*
X149274466Y-86403171D01*
X149179228Y-86355552D01*
X144493142Y-92064142D02*
X144445523Y-92111761D01*
X144302666Y-92159380D01*
X144207428Y-92159380D01*
X144064571Y-92111761D01*
X143969333Y-92016523D01*
X143921714Y-91921285D01*
X143874095Y-91730809D01*
X143874095Y-91587952D01*
X143921714Y-91397476D01*
X143969333Y-91302238D01*
X144064571Y-91207000D01*
X144207428Y-91159380D01*
X144302666Y-91159380D01*
X144445523Y-91207000D01*
X144493142Y-91254619D01*
X145445523Y-92159380D02*
X144874095Y-92159380D01*
X145159809Y-92159380D02*
X145159809Y-91159380D01*
X145064571Y-91302238D01*
X144969333Y-91397476D01*
X144874095Y-91445095D01*
X145921714Y-92159380D02*
X146112190Y-92159380D01*
X146207428Y-92111761D01*
X146255047Y-92064142D01*
X146350285Y-91921285D01*
X146397904Y-91730809D01*
X146397904Y-91349857D01*
X146350285Y-91254619D01*
X146302666Y-91207000D01*
X146207428Y-91159380D01*
X146016952Y-91159380D01*
X145921714Y-91207000D01*
X145874095Y-91254619D01*
X145826476Y-91349857D01*
X145826476Y-91587952D01*
X145874095Y-91683190D01*
X145921714Y-91730809D01*
X146016952Y-91778428D01*
X146207428Y-91778428D01*
X146302666Y-91730809D01*
X146350285Y-91683190D01*
X146397904Y-91587952D01*
X144620142Y-73141142D02*
X144572523Y-73188761D01*
X144429666Y-73236380D01*
X144334428Y-73236380D01*
X144191571Y-73188761D01*
X144096333Y-73093523D01*
X144048714Y-72998285D01*
X144001095Y-72807809D01*
X144001095Y-72664952D01*
X144048714Y-72474476D01*
X144096333Y-72379238D01*
X144191571Y-72284000D01*
X144334428Y-72236380D01*
X144429666Y-72236380D01*
X144572523Y-72284000D01*
X144620142Y-72331619D01*
X145001095Y-72331619D02*
X145048714Y-72284000D01*
X145143952Y-72236380D01*
X145382047Y-72236380D01*
X145477285Y-72284000D01*
X145524904Y-72331619D01*
X145572523Y-72426857D01*
X145572523Y-72522095D01*
X145524904Y-72664952D01*
X144953476Y-73236380D01*
X145572523Y-73236380D01*
X146191571Y-72236380D02*
X146286809Y-72236380D01*
X146382047Y-72284000D01*
X146429666Y-72331619D01*
X146477285Y-72426857D01*
X146524904Y-72617333D01*
X146524904Y-72855428D01*
X146477285Y-73045904D01*
X146429666Y-73141142D01*
X146382047Y-73188761D01*
X146286809Y-73236380D01*
X146191571Y-73236380D01*
X146096333Y-73188761D01*
X146048714Y-73141142D01*
X146001095Y-73045904D01*
X145953476Y-72855428D01*
X145953476Y-72617333D01*
X146001095Y-72426857D01*
X146048714Y-72331619D01*
X146096333Y-72284000D01*
X146191571Y-72236380D01*
X147414142Y-77967142D02*
X147366523Y-78014761D01*
X147223666Y-78062380D01*
X147128428Y-78062380D01*
X146985571Y-78014761D01*
X146890333Y-77919523D01*
X146842714Y-77824285D01*
X146795095Y-77633809D01*
X146795095Y-77490952D01*
X146842714Y-77300476D01*
X146890333Y-77205238D01*
X146985571Y-77110000D01*
X147128428Y-77062380D01*
X147223666Y-77062380D01*
X147366523Y-77110000D01*
X147414142Y-77157619D01*
X147795095Y-77157619D02*
X147842714Y-77110000D01*
X147937952Y-77062380D01*
X148176047Y-77062380D01*
X148271285Y-77110000D01*
X148318904Y-77157619D01*
X148366523Y-77252857D01*
X148366523Y-77348095D01*
X148318904Y-77490952D01*
X147747476Y-78062380D01*
X148366523Y-78062380D01*
X149318904Y-78062380D02*
X148747476Y-78062380D01*
X149033190Y-78062380D02*
X149033190Y-77062380D01*
X148937952Y-77205238D01*
X148842714Y-77300476D01*
X148747476Y-77348095D01*
X148811142Y-92064142D02*
X148763523Y-92111761D01*
X148620666Y-92159380D01*
X148525428Y-92159380D01*
X148382571Y-92111761D01*
X148287333Y-92016523D01*
X148239714Y-91921285D01*
X148192095Y-91730809D01*
X148192095Y-91587952D01*
X148239714Y-91397476D01*
X148287333Y-91302238D01*
X148382571Y-91207000D01*
X148525428Y-91159380D01*
X148620666Y-91159380D01*
X148763523Y-91207000D01*
X148811142Y-91254619D01*
X149192095Y-91254619D02*
X149239714Y-91207000D01*
X149334952Y-91159380D01*
X149573047Y-91159380D01*
X149668285Y-91207000D01*
X149715904Y-91254619D01*
X149763523Y-91349857D01*
X149763523Y-91445095D01*
X149715904Y-91587952D01*
X149144476Y-92159380D01*
X149763523Y-92159380D01*
X150144476Y-91254619D02*
X150192095Y-91207000D01*
X150287333Y-91159380D01*
X150525428Y-91159380D01*
X150620666Y-91207000D01*
X150668285Y-91254619D01*
X150715904Y-91349857D01*
X150715904Y-91445095D01*
X150668285Y-91587952D01*
X150096857Y-92159380D01*
X150715904Y-92159380D01*
X151097142Y-75427142D02*
X151049523Y-75474761D01*
X150906666Y-75522380D01*
X150811428Y-75522380D01*
X150668571Y-75474761D01*
X150573333Y-75379523D01*
X150525714Y-75284285D01*
X150478095Y-75093809D01*
X150478095Y-74950952D01*
X150525714Y-74760476D01*
X150573333Y-74665238D01*
X150668571Y-74570000D01*
X150811428Y-74522380D01*
X150906666Y-74522380D01*
X151049523Y-74570000D01*
X151097142Y-74617619D01*
X151478095Y-74617619D02*
X151525714Y-74570000D01*
X151620952Y-74522380D01*
X151859047Y-74522380D01*
X151954285Y-74570000D01*
X152001904Y-74617619D01*
X152049523Y-74712857D01*
X152049523Y-74808095D01*
X152001904Y-74950952D01*
X151430476Y-75522380D01*
X152049523Y-75522380D01*
X152382857Y-74522380D02*
X153001904Y-74522380D01*
X152668571Y-74903333D01*
X152811428Y-74903333D01*
X152906666Y-74950952D01*
X152954285Y-74998571D01*
X153001904Y-75093809D01*
X153001904Y-75331904D01*
X152954285Y-75427142D01*
X152906666Y-75474761D01*
X152811428Y-75522380D01*
X152525714Y-75522380D01*
X152430476Y-75474761D01*
X152382857Y-75427142D01*
X142715142Y-59247342D02*
X142667523Y-59294961D01*
X142524666Y-59342580D01*
X142429428Y-59342580D01*
X142286571Y-59294961D01*
X142191333Y-59199723D01*
X142143714Y-59104485D01*
X142096095Y-58914009D01*
X142096095Y-58771152D01*
X142143714Y-58580676D01*
X142191333Y-58485438D01*
X142286571Y-58390200D01*
X142429428Y-58342580D01*
X142524666Y-58342580D01*
X142667523Y-58390200D01*
X142715142Y-58437819D01*
X143096095Y-58437819D02*
X143143714Y-58390200D01*
X143238952Y-58342580D01*
X143477047Y-58342580D01*
X143572285Y-58390200D01*
X143619904Y-58437819D01*
X143667523Y-58533057D01*
X143667523Y-58628295D01*
X143619904Y-58771152D01*
X143048476Y-59342580D01*
X143667523Y-59342580D01*
X144524666Y-58675914D02*
X144524666Y-59342580D01*
X144286571Y-58294961D02*
X144048476Y-59009247D01*
X144667523Y-59009247D01*
X149776342Y-69534342D02*
X149728723Y-69581961D01*
X149585866Y-69629580D01*
X149490628Y-69629580D01*
X149347771Y-69581961D01*
X149252533Y-69486723D01*
X149204914Y-69391485D01*
X149157295Y-69201009D01*
X149157295Y-69058152D01*
X149204914Y-68867676D01*
X149252533Y-68772438D01*
X149347771Y-68677200D01*
X149490628Y-68629580D01*
X149585866Y-68629580D01*
X149728723Y-68677200D01*
X149776342Y-68724819D01*
X150157295Y-68724819D02*
X150204914Y-68677200D01*
X150300152Y-68629580D01*
X150538247Y-68629580D01*
X150633485Y-68677200D01*
X150681104Y-68724819D01*
X150728723Y-68820057D01*
X150728723Y-68915295D01*
X150681104Y-69058152D01*
X150109676Y-69629580D01*
X150728723Y-69629580D01*
X151633485Y-68629580D02*
X151157295Y-68629580D01*
X151109676Y-69105771D01*
X151157295Y-69058152D01*
X151252533Y-69010533D01*
X151490628Y-69010533D01*
X151585866Y-69058152D01*
X151633485Y-69105771D01*
X151681104Y-69201009D01*
X151681104Y-69439104D01*
X151633485Y-69534342D01*
X151585866Y-69581961D01*
X151490628Y-69629580D01*
X151252533Y-69629580D01*
X151157295Y-69581961D01*
X151109676Y-69534342D01*
X136619142Y-59247342D02*
X136571523Y-59294961D01*
X136428666Y-59342580D01*
X136333428Y-59342580D01*
X136190571Y-59294961D01*
X136095333Y-59199723D01*
X136047714Y-59104485D01*
X136000095Y-58914009D01*
X136000095Y-58771152D01*
X136047714Y-58580676D01*
X136095333Y-58485438D01*
X136190571Y-58390200D01*
X136333428Y-58342580D01*
X136428666Y-58342580D01*
X136571523Y-58390200D01*
X136619142Y-58437819D01*
X137000095Y-58437819D02*
X137047714Y-58390200D01*
X137142952Y-58342580D01*
X137381047Y-58342580D01*
X137476285Y-58390200D01*
X137523904Y-58437819D01*
X137571523Y-58533057D01*
X137571523Y-58628295D01*
X137523904Y-58771152D01*
X136952476Y-59342580D01*
X137571523Y-59342580D01*
X138428666Y-58342580D02*
X138238190Y-58342580D01*
X138142952Y-58390200D01*
X138095333Y-58437819D01*
X138000095Y-58580676D01*
X137952476Y-58771152D01*
X137952476Y-59152104D01*
X138000095Y-59247342D01*
X138047714Y-59294961D01*
X138142952Y-59342580D01*
X138333428Y-59342580D01*
X138428666Y-59294961D01*
X138476285Y-59247342D01*
X138523904Y-59152104D01*
X138523904Y-58914009D01*
X138476285Y-58818771D01*
X138428666Y-58771152D01*
X138333428Y-58723533D01*
X138142952Y-58723533D01*
X138047714Y-58771152D01*
X138000095Y-58818771D01*
X137952476Y-58914009D01*
X144747142Y-69534342D02*
X144699523Y-69581961D01*
X144556666Y-69629580D01*
X144461428Y-69629580D01*
X144318571Y-69581961D01*
X144223333Y-69486723D01*
X144175714Y-69391485D01*
X144128095Y-69201009D01*
X144128095Y-69058152D01*
X144175714Y-68867676D01*
X144223333Y-68772438D01*
X144318571Y-68677200D01*
X144461428Y-68629580D01*
X144556666Y-68629580D01*
X144699523Y-68677200D01*
X144747142Y-68724819D01*
X145128095Y-68724819D02*
X145175714Y-68677200D01*
X145270952Y-68629580D01*
X145509047Y-68629580D01*
X145604285Y-68677200D01*
X145651904Y-68724819D01*
X145699523Y-68820057D01*
X145699523Y-68915295D01*
X145651904Y-69058152D01*
X145080476Y-69629580D01*
X145699523Y-69629580D01*
X146032857Y-68629580D02*
X146699523Y-68629580D01*
X146270952Y-69629580D01*
D10*
X149335000Y-95076571D02*
X149335000Y-96148000D01*
X149263571Y-96362285D01*
X149120714Y-96505142D01*
X148906428Y-96576571D01*
X148763571Y-96576571D01*
X150835000Y-96576571D02*
X149977857Y-96576571D01*
X150406428Y-96576571D02*
X150406428Y-95076571D01*
X150263571Y-95290857D01*
X150120714Y-95433714D01*
X149977857Y-95505142D01*
D11*
X147825266Y-55930780D02*
X147825266Y-56645066D01*
X147777647Y-56787923D01*
X147682409Y-56883161D01*
X147539552Y-56930780D01*
X147444314Y-56930780D01*
X148730028Y-56264114D02*
X148730028Y-56930780D01*
X148491933Y-55883161D02*
X148253838Y-56597447D01*
X148872885Y-56597447D01*
X164208266Y-55930780D02*
X164208266Y-56645066D01*
X164160647Y-56787923D01*
X164065409Y-56883161D01*
X163922552Y-56930780D01*
X163827314Y-56930780D01*
X165160647Y-55930780D02*
X164684457Y-55930780D01*
X164636838Y-56406971D01*
X164684457Y-56359352D01*
X164779695Y-56311733D01*
X165017790Y-56311733D01*
X165113028Y-56359352D01*
X165160647Y-56406971D01*
X165208266Y-56502209D01*
X165208266Y-56740304D01*
X165160647Y-56835542D01*
X165113028Y-56883161D01*
X165017790Y-56930780D01*
X164779695Y-56930780D01*
X164684457Y-56883161D01*
X164636838Y-56835542D01*
X143699333Y-86952380D02*
X143223142Y-86952380D01*
X143223142Y-85952380D01*
X144556476Y-86952380D02*
X143985047Y-86952380D01*
X144270761Y-86952380D02*
X144270761Y-85952380D01*
X144175523Y-86095238D01*
X144080285Y-86190476D01*
X143985047Y-86238095D01*
X144221333Y-78283380D02*
X143745142Y-78283380D01*
X143745142Y-77283380D01*
X144507047Y-77378619D02*
X144554666Y-77331000D01*
X144649904Y-77283380D01*
X144888000Y-77283380D01*
X144983238Y-77331000D01*
X145030857Y-77378619D01*
X145078476Y-77473857D01*
X145078476Y-77569095D01*
X145030857Y-77711952D01*
X144459428Y-78283380D01*
X145078476Y-78283380D01*
X116927733Y-98737980D02*
X116594400Y-98261790D01*
X116356304Y-98737980D02*
X116356304Y-97737980D01*
X116737257Y-97737980D01*
X116832495Y-97785600D01*
X116880114Y-97833219D01*
X116927733Y-97928457D01*
X116927733Y-98071314D01*
X116880114Y-98166552D01*
X116832495Y-98214171D01*
X116737257Y-98261790D01*
X116356304Y-98261790D01*
X117880114Y-98737980D02*
X117308685Y-98737980D01*
X117594400Y-98737980D02*
X117594400Y-97737980D01*
X117499161Y-97880838D01*
X117403923Y-97976076D01*
X117308685Y-98023695D01*
X116876933Y-96832980D02*
X116543600Y-96356790D01*
X116305504Y-96832980D02*
X116305504Y-95832980D01*
X116686457Y-95832980D01*
X116781695Y-95880600D01*
X116829314Y-95928219D01*
X116876933Y-96023457D01*
X116876933Y-96166314D01*
X116829314Y-96261552D01*
X116781695Y-96309171D01*
X116686457Y-96356790D01*
X116305504Y-96356790D01*
X117257885Y-95928219D02*
X117305504Y-95880600D01*
X117400742Y-95832980D01*
X117638838Y-95832980D01*
X117734076Y-95880600D01*
X117781695Y-95928219D01*
X117829314Y-96023457D01*
X117829314Y-96118695D01*
X117781695Y-96261552D01*
X117210266Y-96832980D01*
X117829314Y-96832980D01*
X117980533Y-103581780D02*
X117647200Y-103105590D01*
X117409104Y-103581780D02*
X117409104Y-102581780D01*
X117790057Y-102581780D01*
X117885295Y-102629400D01*
X117932914Y-102677019D01*
X117980533Y-102772257D01*
X117980533Y-102915114D01*
X117932914Y-103010352D01*
X117885295Y-103057971D01*
X117790057Y-103105590D01*
X117409104Y-103105590D01*
X118313866Y-102581780D02*
X118932914Y-102581780D01*
X118599580Y-102962733D01*
X118742438Y-102962733D01*
X118837676Y-103010352D01*
X118885295Y-103057971D01*
X118932914Y-103153209D01*
X118932914Y-103391304D01*
X118885295Y-103486542D01*
X118837676Y-103534161D01*
X118742438Y-103581780D01*
X118456723Y-103581780D01*
X118361485Y-103534161D01*
X118313866Y-103486542D01*
X122171533Y-103581780D02*
X121838200Y-103105590D01*
X121600104Y-103581780D02*
X121600104Y-102581780D01*
X121981057Y-102581780D01*
X122076295Y-102629400D01*
X122123914Y-102677019D01*
X122171533Y-102772257D01*
X122171533Y-102915114D01*
X122123914Y-103010352D01*
X122076295Y-103057971D01*
X121981057Y-103105590D01*
X121600104Y-103105590D01*
X123028676Y-102915114D02*
X123028676Y-103581780D01*
X122790580Y-102534161D02*
X122552485Y-103248447D01*
X123171533Y-103248447D01*
X122261733Y-78417980D02*
X121928400Y-77941790D01*
X121690304Y-78417980D02*
X121690304Y-77417980D01*
X122071257Y-77417980D01*
X122166495Y-77465600D01*
X122214114Y-77513219D01*
X122261733Y-77608457D01*
X122261733Y-77751314D01*
X122214114Y-77846552D01*
X122166495Y-77894171D01*
X122071257Y-77941790D01*
X121690304Y-77941790D01*
X123166495Y-77417980D02*
X122690304Y-77417980D01*
X122642685Y-77894171D01*
X122690304Y-77846552D01*
X122785542Y-77798933D01*
X123023638Y-77798933D01*
X123118876Y-77846552D01*
X123166495Y-77894171D01*
X123214114Y-77989409D01*
X123214114Y-78227504D01*
X123166495Y-78322742D01*
X123118876Y-78370361D01*
X123023638Y-78417980D01*
X122785542Y-78417980D01*
X122690304Y-78370361D01*
X122642685Y-78322742D01*
X138605333Y-71933380D02*
X138272000Y-71457190D01*
X138033904Y-71933380D02*
X138033904Y-70933380D01*
X138414857Y-70933380D01*
X138510095Y-70981000D01*
X138557714Y-71028619D01*
X138605333Y-71123857D01*
X138605333Y-71266714D01*
X138557714Y-71361952D01*
X138510095Y-71409571D01*
X138414857Y-71457190D01*
X138033904Y-71457190D01*
X139462476Y-70933380D02*
X139272000Y-70933380D01*
X139176761Y-70981000D01*
X139129142Y-71028619D01*
X139033904Y-71171476D01*
X138986285Y-71361952D01*
X138986285Y-71742904D01*
X139033904Y-71838142D01*
X139081523Y-71885761D01*
X139176761Y-71933380D01*
X139367238Y-71933380D01*
X139462476Y-71885761D01*
X139510095Y-71838142D01*
X139557714Y-71742904D01*
X139557714Y-71504809D01*
X139510095Y-71409571D01*
X139462476Y-71361952D01*
X139367238Y-71314333D01*
X139176761Y-71314333D01*
X139081523Y-71361952D01*
X139033904Y-71409571D01*
X138986285Y-71504809D01*
X144221333Y-81966380D02*
X143888000Y-81490190D01*
X143649904Y-81966380D02*
X143649904Y-80966380D01*
X144030857Y-80966380D01*
X144126095Y-81014000D01*
X144173714Y-81061619D01*
X144221333Y-81156857D01*
X144221333Y-81299714D01*
X144173714Y-81394952D01*
X144126095Y-81442571D01*
X144030857Y-81490190D01*
X143649904Y-81490190D01*
X144554666Y-80966380D02*
X145221333Y-80966380D01*
X144792761Y-81966380D01*
X150582733Y-86952380D02*
X150249400Y-86476190D01*
X150011304Y-86952380D02*
X150011304Y-85952380D01*
X150392257Y-85952380D01*
X150487495Y-86000000D01*
X150535114Y-86047619D01*
X150582733Y-86142857D01*
X150582733Y-86285714D01*
X150535114Y-86380952D01*
X150487495Y-86428571D01*
X150392257Y-86476190D01*
X150011304Y-86476190D01*
X151154161Y-86380952D02*
X151058923Y-86333333D01*
X151011304Y-86285714D01*
X150963685Y-86190476D01*
X150963685Y-86142857D01*
X151011304Y-86047619D01*
X151058923Y-86000000D01*
X151154161Y-85952380D01*
X151344638Y-85952380D01*
X151439876Y-86000000D01*
X151487495Y-86047619D01*
X151535114Y-86142857D01*
X151535114Y-86190476D01*
X151487495Y-86285714D01*
X151439876Y-86333333D01*
X151344638Y-86380952D01*
X151154161Y-86380952D01*
X151058923Y-86428571D01*
X151011304Y-86476190D01*
X150963685Y-86571428D01*
X150963685Y-86761904D01*
X151011304Y-86857142D01*
X151058923Y-86904761D01*
X151154161Y-86952380D01*
X151344638Y-86952380D01*
X151439876Y-86904761D01*
X151487495Y-86857142D01*
X151535114Y-86761904D01*
X151535114Y-86571428D01*
X151487495Y-86476190D01*
X151439876Y-86428571D01*
X151344638Y-86380952D01*
X152378228Y-84361580D02*
X151806800Y-84361580D01*
X152092514Y-84361580D02*
X152092514Y-83361580D01*
X151997276Y-83504438D01*
X151902038Y-83599676D01*
X151806800Y-83647295D01*
X152806800Y-84266342D02*
X152854419Y-84313961D01*
X152806800Y-84361580D01*
X152759180Y-84313961D01*
X152806800Y-84266342D01*
X152806800Y-84361580D01*
X153759180Y-83361580D02*
X153282990Y-83361580D01*
X153235371Y-83837771D01*
X153282990Y-83790152D01*
X153378228Y-83742533D01*
X153616323Y-83742533D01*
X153711561Y-83790152D01*
X153759180Y-83837771D01*
X153806800Y-83933009D01*
X153806800Y-84171104D01*
X153759180Y-84266342D01*
X153711561Y-84313961D01*
X153616323Y-84361580D01*
X153378228Y-84361580D01*
X153282990Y-84313961D01*
X153235371Y-84266342D01*
X131539142Y-56312380D02*
X131205809Y-55836190D01*
X130967714Y-56312380D02*
X130967714Y-55312380D01*
X131348666Y-55312380D01*
X131443904Y-55360000D01*
X131491523Y-55407619D01*
X131539142Y-55502857D01*
X131539142Y-55645714D01*
X131491523Y-55740952D01*
X131443904Y-55788571D01*
X131348666Y-55836190D01*
X130967714Y-55836190D01*
X132491523Y-56312380D02*
X131920095Y-56312380D01*
X132205809Y-56312380D02*
X132205809Y-55312380D01*
X132110571Y-55455238D01*
X132015333Y-55550476D01*
X131920095Y-55598095D01*
X132872476Y-55407619D02*
X132920095Y-55360000D01*
X133015333Y-55312380D01*
X133253428Y-55312380D01*
X133348666Y-55360000D01*
X133396285Y-55407619D01*
X133443904Y-55502857D01*
X133443904Y-55598095D01*
X133396285Y-55740952D01*
X132824857Y-56312380D01*
X133443904Y-56312380D01*
X131525142Y-61458380D02*
X131191809Y-60982190D01*
X130953714Y-61458380D02*
X130953714Y-60458380D01*
X131334666Y-60458380D01*
X131429904Y-60506000D01*
X131477523Y-60553619D01*
X131525142Y-60648857D01*
X131525142Y-60791714D01*
X131477523Y-60886952D01*
X131429904Y-60934571D01*
X131334666Y-60982190D01*
X130953714Y-60982190D01*
X132477523Y-61458380D02*
X131906095Y-61458380D01*
X132191809Y-61458380D02*
X132191809Y-60458380D01*
X132096571Y-60601238D01*
X132001333Y-60696476D01*
X131906095Y-60744095D01*
X132810857Y-60458380D02*
X133429904Y-60458380D01*
X133096571Y-60839333D01*
X133239428Y-60839333D01*
X133334666Y-60886952D01*
X133382285Y-60934571D01*
X133429904Y-61029809D01*
X133429904Y-61267904D01*
X133382285Y-61363142D01*
X133334666Y-61410761D01*
X133239428Y-61458380D01*
X132953714Y-61458380D01*
X132858476Y-61410761D01*
X132810857Y-61363142D01*
X138919142Y-67793180D02*
X138585809Y-67316990D01*
X138347714Y-67793180D02*
X138347714Y-66793180D01*
X138728666Y-66793180D01*
X138823904Y-66840800D01*
X138871523Y-66888419D01*
X138919142Y-66983657D01*
X138919142Y-67126514D01*
X138871523Y-67221752D01*
X138823904Y-67269371D01*
X138728666Y-67316990D01*
X138347714Y-67316990D01*
X139871523Y-67793180D02*
X139300095Y-67793180D01*
X139585809Y-67793180D02*
X139585809Y-66793180D01*
X139490571Y-66936038D01*
X139395333Y-67031276D01*
X139300095Y-67078895D01*
X140728666Y-67126514D02*
X140728666Y-67793180D01*
X140490571Y-66745561D02*
X140252476Y-67459847D01*
X140871523Y-67459847D01*
X138792142Y-64447980D02*
X138458809Y-63971790D01*
X138220714Y-64447980D02*
X138220714Y-63447980D01*
X138601666Y-63447980D01*
X138696904Y-63495600D01*
X138744523Y-63543219D01*
X138792142Y-63638457D01*
X138792142Y-63781314D01*
X138744523Y-63876552D01*
X138696904Y-63924171D01*
X138601666Y-63971790D01*
X138220714Y-63971790D01*
X139744523Y-64447980D02*
X139173095Y-64447980D01*
X139458809Y-64447980D02*
X139458809Y-63447980D01*
X139363571Y-63590838D01*
X139268333Y-63686076D01*
X139173095Y-63733695D01*
X140649285Y-63447980D02*
X140173095Y-63447980D01*
X140125476Y-63924171D01*
X140173095Y-63876552D01*
X140268333Y-63828933D01*
X140506428Y-63828933D01*
X140601666Y-63876552D01*
X140649285Y-63924171D01*
X140696904Y-64019409D01*
X140696904Y-64257504D01*
X140649285Y-64352742D01*
X140601666Y-64400361D01*
X140506428Y-64447980D01*
X140268333Y-64447980D01*
X140173095Y-64400361D01*
X140125476Y-64352742D01*
X121238142Y-70030880D02*
X120904809Y-69554690D01*
X120666714Y-70030880D02*
X120666714Y-69030880D01*
X121047666Y-69030880D01*
X121142904Y-69078500D01*
X121190523Y-69126119D01*
X121238142Y-69221357D01*
X121238142Y-69364214D01*
X121190523Y-69459452D01*
X121142904Y-69507071D01*
X121047666Y-69554690D01*
X120666714Y-69554690D01*
X122190523Y-70030880D02*
X121619095Y-70030880D01*
X121904809Y-70030880D02*
X121904809Y-69030880D01*
X121809571Y-69173738D01*
X121714333Y-69268976D01*
X121619095Y-69316595D01*
X123047666Y-69030880D02*
X122857190Y-69030880D01*
X122761952Y-69078500D01*
X122714333Y-69126119D01*
X122619095Y-69268976D01*
X122571476Y-69459452D01*
X122571476Y-69840404D01*
X122619095Y-69935642D01*
X122666714Y-69983261D01*
X122761952Y-70030880D01*
X122952428Y-70030880D01*
X123047666Y-69983261D01*
X123095285Y-69935642D01*
X123142904Y-69840404D01*
X123142904Y-69602309D01*
X123095285Y-69507071D01*
X123047666Y-69459452D01*
X122952428Y-69411833D01*
X122761952Y-69411833D01*
X122666714Y-69459452D01*
X122619095Y-69507071D01*
X122571476Y-69602309D01*
X145001142Y-71331380D02*
X144667809Y-70855190D01*
X144429714Y-71331380D02*
X144429714Y-70331380D01*
X144810666Y-70331380D01*
X144905904Y-70379000D01*
X144953523Y-70426619D01*
X145001142Y-70521857D01*
X145001142Y-70664714D01*
X144953523Y-70759952D01*
X144905904Y-70807571D01*
X144810666Y-70855190D01*
X144429714Y-70855190D01*
X145953523Y-71331380D02*
X145382095Y-71331380D01*
X145667809Y-71331380D02*
X145667809Y-70331380D01*
X145572571Y-70474238D01*
X145477333Y-70569476D01*
X145382095Y-70617095D01*
X146286857Y-70331380D02*
X146953523Y-70331380D01*
X146524952Y-71331380D01*
X115943542Y-94978780D02*
X115610209Y-94502590D01*
X115372114Y-94978780D02*
X115372114Y-93978780D01*
X115753066Y-93978780D01*
X115848304Y-94026400D01*
X115895923Y-94074019D01*
X115943542Y-94169257D01*
X115943542Y-94312114D01*
X115895923Y-94407352D01*
X115848304Y-94454971D01*
X115753066Y-94502590D01*
X115372114Y-94502590D01*
X116895923Y-94978780D02*
X116324495Y-94978780D01*
X116610209Y-94978780D02*
X116610209Y-93978780D01*
X116514971Y-94121638D01*
X116419733Y-94216876D01*
X116324495Y-94264495D01*
X117467352Y-94407352D02*
X117372114Y-94359733D01*
X117324495Y-94312114D01*
X117276876Y-94216876D01*
X117276876Y-94169257D01*
X117324495Y-94074019D01*
X117372114Y-94026400D01*
X117467352Y-93978780D01*
X117657828Y-93978780D01*
X117753066Y-94026400D01*
X117800685Y-94074019D01*
X117848304Y-94169257D01*
X117848304Y-94216876D01*
X117800685Y-94312114D01*
X117753066Y-94359733D01*
X117657828Y-94407352D01*
X117467352Y-94407352D01*
X117372114Y-94454971D01*
X117324495Y-94502590D01*
X117276876Y-94597828D01*
X117276876Y-94788304D01*
X117324495Y-94883542D01*
X117372114Y-94931161D01*
X117467352Y-94978780D01*
X117657828Y-94978780D01*
X117753066Y-94931161D01*
X117800685Y-94883542D01*
X117848304Y-94788304D01*
X117848304Y-94597828D01*
X117800685Y-94502590D01*
X117753066Y-94454971D01*
X117657828Y-94407352D01*
X115946142Y-93073780D02*
X115612809Y-92597590D01*
X115374714Y-93073780D02*
X115374714Y-92073780D01*
X115755666Y-92073780D01*
X115850904Y-92121400D01*
X115898523Y-92169019D01*
X115946142Y-92264257D01*
X115946142Y-92407114D01*
X115898523Y-92502352D01*
X115850904Y-92549971D01*
X115755666Y-92597590D01*
X115374714Y-92597590D01*
X116898523Y-93073780D02*
X116327095Y-93073780D01*
X116612809Y-93073780D02*
X116612809Y-92073780D01*
X116517571Y-92216638D01*
X116422333Y-92311876D01*
X116327095Y-92359495D01*
X117374714Y-93073780D02*
X117565190Y-93073780D01*
X117660428Y-93026161D01*
X117708047Y-92978542D01*
X117803285Y-92835685D01*
X117850904Y-92645209D01*
X117850904Y-92264257D01*
X117803285Y-92169019D01*
X117755666Y-92121400D01*
X117660428Y-92073780D01*
X117469952Y-92073780D01*
X117374714Y-92121400D01*
X117327095Y-92169019D01*
X117279476Y-92264257D01*
X117279476Y-92502352D01*
X117327095Y-92597590D01*
X117374714Y-92645209D01*
X117469952Y-92692828D01*
X117660428Y-92692828D01*
X117755666Y-92645209D01*
X117803285Y-92597590D01*
X117850904Y-92502352D01*
X125062142Y-73871380D02*
X124728809Y-73395190D01*
X124490714Y-73871380D02*
X124490714Y-72871380D01*
X124871666Y-72871380D01*
X124966904Y-72919000D01*
X125014523Y-72966619D01*
X125062142Y-73061857D01*
X125062142Y-73204714D01*
X125014523Y-73299952D01*
X124966904Y-73347571D01*
X124871666Y-73395190D01*
X124490714Y-73395190D01*
X125443095Y-72966619D02*
X125490714Y-72919000D01*
X125585952Y-72871380D01*
X125824047Y-72871380D01*
X125919285Y-72919000D01*
X125966904Y-72966619D01*
X126014523Y-73061857D01*
X126014523Y-73157095D01*
X125966904Y-73299952D01*
X125395476Y-73871380D01*
X126014523Y-73871380D01*
X126633571Y-72871380D02*
X126728809Y-72871380D01*
X126824047Y-72919000D01*
X126871666Y-72966619D01*
X126919285Y-73061857D01*
X126966904Y-73252333D01*
X126966904Y-73490428D01*
X126919285Y-73680904D01*
X126871666Y-73776142D01*
X126824047Y-73823761D01*
X126728809Y-73871380D01*
X126633571Y-73871380D01*
X126538333Y-73823761D01*
X126490714Y-73776142D01*
X126443095Y-73680904D01*
X126395476Y-73490428D01*
X126395476Y-73252333D01*
X126443095Y-73061857D01*
X126490714Y-72966619D01*
X126538333Y-72919000D01*
X126633571Y-72871380D01*
X125062142Y-70696380D02*
X124728809Y-70220190D01*
X124490714Y-70696380D02*
X124490714Y-69696380D01*
X124871666Y-69696380D01*
X124966904Y-69744000D01*
X125014523Y-69791619D01*
X125062142Y-69886857D01*
X125062142Y-70029714D01*
X125014523Y-70124952D01*
X124966904Y-70172571D01*
X124871666Y-70220190D01*
X124490714Y-70220190D01*
X125443095Y-69791619D02*
X125490714Y-69744000D01*
X125585952Y-69696380D01*
X125824047Y-69696380D01*
X125919285Y-69744000D01*
X125966904Y-69791619D01*
X126014523Y-69886857D01*
X126014523Y-69982095D01*
X125966904Y-70124952D01*
X125395476Y-70696380D01*
X126014523Y-70696380D01*
X126966904Y-70696380D02*
X126395476Y-70696380D01*
X126681190Y-70696380D02*
X126681190Y-69696380D01*
X126585952Y-69839238D01*
X126490714Y-69934476D01*
X126395476Y-69982095D01*
D12*
X126873542Y-83595771D02*
X126873542Y-84810057D01*
X126944971Y-84952914D01*
X127016400Y-85024342D01*
X127159257Y-85095771D01*
X127444971Y-85095771D01*
X127587828Y-85024342D01*
X127659257Y-84952914D01*
X127730685Y-84810057D01*
X127730685Y-83595771D01*
X128373542Y-83738628D02*
X128444971Y-83667200D01*
X128587828Y-83595771D01*
X128944971Y-83595771D01*
X129087828Y-83667200D01*
X129159257Y-83738628D01*
X129230685Y-83881485D01*
X129230685Y-84024342D01*
X129159257Y-84238628D01*
X128302114Y-85095771D01*
X129230685Y-85095771D01*
D10*
X141605523Y-50024895D02*
X141605523Y-51077276D01*
X141667428Y-51201085D01*
X141729333Y-51262990D01*
X141853142Y-51324895D01*
X142100761Y-51324895D01*
X142224571Y-51262990D01*
X142286476Y-51201085D01*
X142348380Y-51077276D01*
X142348380Y-50024895D01*
X142843619Y-50024895D02*
X143648380Y-50024895D01*
X143215047Y-50520133D01*
X143400761Y-50520133D01*
X143524571Y-50582038D01*
X143586476Y-50643942D01*
X143648380Y-50767752D01*
X143648380Y-51077276D01*
X143586476Y-51201085D01*
X143524571Y-51262990D01*
X143400761Y-51324895D01*
X143029333Y-51324895D01*
X142905523Y-51262990D01*
X142843619Y-51201085D01*
X148234923Y-59168895D02*
X148234923Y-60221276D01*
X148296828Y-60345085D01*
X148358733Y-60406990D01*
X148482542Y-60468895D01*
X148730161Y-60468895D01*
X148853971Y-60406990D01*
X148915876Y-60345085D01*
X148977780Y-60221276D01*
X148977780Y-59168895D01*
X150153971Y-59602228D02*
X150153971Y-60468895D01*
X149844447Y-59106990D02*
X149534923Y-60035561D01*
X150339685Y-60035561D01*
X135960309Y-70791690D02*
X135960309Y-71267880D01*
X135626976Y-70267880D02*
X135960309Y-70791690D01*
X136293642Y-70267880D01*
X137150785Y-71267880D02*
X136579357Y-71267880D01*
X136865071Y-71267880D02*
X136865071Y-70267880D01*
X136769833Y-70410738D01*
X136674595Y-70505976D01*
X136579357Y-70553595D01*
X115680000Y-55897071D02*
X115680000Y-56968500D01*
X115608571Y-57182785D01*
X115465714Y-57325642D01*
X115251428Y-57397071D01*
X115108571Y-57397071D01*
X116322857Y-56039928D02*
X116394285Y-55968500D01*
X116537142Y-55897071D01*
X116894285Y-55897071D01*
X117037142Y-55968500D01*
X117108571Y-56039928D01*
X117180000Y-56182785D01*
X117180000Y-56325642D01*
X117108571Y-56539928D01*
X116251428Y-57397071D01*
X117180000Y-57397071D01*
D11*
X141516442Y-95550257D02*
X141564061Y-95597876D01*
X141611680Y-95740733D01*
X141611680Y-95835971D01*
X141564061Y-95978828D01*
X141468823Y-96074066D01*
X141373585Y-96121685D01*
X141183109Y-96169304D01*
X141040252Y-96169304D01*
X140849776Y-96121685D01*
X140754538Y-96074066D01*
X140659300Y-95978828D01*
X140611680Y-95835971D01*
X140611680Y-95740733D01*
X140659300Y-95597876D01*
X140706919Y-95550257D01*
X140706919Y-95169304D02*
X140659300Y-95121685D01*
X140611680Y-95026447D01*
X140611680Y-94788352D01*
X140659300Y-94693114D01*
X140706919Y-94645495D01*
X140802157Y-94597876D01*
X140897395Y-94597876D01*
X141040252Y-94645495D01*
X141611680Y-95216923D01*
X141611680Y-94597876D01*
X141040252Y-94026447D02*
X140992633Y-94121685D01*
X140945014Y-94169304D01*
X140849776Y-94216923D01*
X140802157Y-94216923D01*
X140706919Y-94169304D01*
X140659300Y-94121685D01*
X140611680Y-94026447D01*
X140611680Y-93835971D01*
X140659300Y-93740733D01*
X140706919Y-93693114D01*
X140802157Y-93645495D01*
X140849776Y-93645495D01*
X140945014Y-93693114D01*
X140992633Y-93740733D01*
X141040252Y-93835971D01*
X141040252Y-94026447D01*
X141087871Y-94121685D01*
X141135490Y-94169304D01*
X141230728Y-94216923D01*
X141421204Y-94216923D01*
X141516442Y-94169304D01*
X141564061Y-94121685D01*
X141611680Y-94026447D01*
X141611680Y-93835971D01*
X141564061Y-93740733D01*
X141516442Y-93693114D01*
X141421204Y-93645495D01*
X141230728Y-93645495D01*
X141135490Y-93693114D01*
X141087871Y-93740733D01*
X141040252Y-93835971D01*
D10*
X137497000Y-49012857D02*
X137497000Y-49870000D01*
X137439857Y-50041428D01*
X137325571Y-50155714D01*
X137154142Y-50212857D01*
X137039857Y-50212857D01*
X137954142Y-49012857D02*
X138697000Y-49012857D01*
X138297000Y-49470000D01*
X138468428Y-49470000D01*
X138582714Y-49527142D01*
X138639857Y-49584285D01*
X138697000Y-49698571D01*
X138697000Y-49984285D01*
X138639857Y-50098571D01*
X138582714Y-50155714D01*
X138468428Y-50212857D01*
X138125571Y-50212857D01*
X138011285Y-50155714D01*
X137954142Y-50098571D01*
D11*
X124236642Y-66822880D02*
X123903309Y-66346690D01*
X123665214Y-66822880D02*
X123665214Y-65822880D01*
X124046166Y-65822880D01*
X124141404Y-65870500D01*
X124189023Y-65918119D01*
X124236642Y-66013357D01*
X124236642Y-66156214D01*
X124189023Y-66251452D01*
X124141404Y-66299071D01*
X124046166Y-66346690D01*
X123665214Y-66346690D01*
X124617595Y-65918119D02*
X124665214Y-65870500D01*
X124760452Y-65822880D01*
X124998547Y-65822880D01*
X125093785Y-65870500D01*
X125141404Y-65918119D01*
X125189023Y-66013357D01*
X125189023Y-66108595D01*
X125141404Y-66251452D01*
X124569976Y-66822880D01*
X125189023Y-66822880D01*
X125569976Y-65918119D02*
X125617595Y-65870500D01*
X125712833Y-65822880D01*
X125950928Y-65822880D01*
X126046166Y-65870500D01*
X126093785Y-65918119D01*
X126141404Y-66013357D01*
X126141404Y-66108595D01*
X126093785Y-66251452D01*
X125522357Y-66822880D01*
X126141404Y-66822880D01*
X116870642Y-69045380D02*
X116537309Y-68569190D01*
X116299214Y-69045380D02*
X116299214Y-68045380D01*
X116680166Y-68045380D01*
X116775404Y-68093000D01*
X116823023Y-68140619D01*
X116870642Y-68235857D01*
X116870642Y-68378714D01*
X116823023Y-68473952D01*
X116775404Y-68521571D01*
X116680166Y-68569190D01*
X116299214Y-68569190D01*
X117251595Y-68140619D02*
X117299214Y-68093000D01*
X117394452Y-68045380D01*
X117632547Y-68045380D01*
X117727785Y-68093000D01*
X117775404Y-68140619D01*
X117823023Y-68235857D01*
X117823023Y-68331095D01*
X117775404Y-68473952D01*
X117203976Y-69045380D01*
X117823023Y-69045380D01*
X118156357Y-68045380D02*
X118775404Y-68045380D01*
X118442071Y-68426333D01*
X118584928Y-68426333D01*
X118680166Y-68473952D01*
X118727785Y-68521571D01*
X118775404Y-68616809D01*
X118775404Y-68854904D01*
X118727785Y-68950142D01*
X118680166Y-68997761D01*
X118584928Y-69045380D01*
X118299214Y-69045380D01*
X118203976Y-68997761D01*
X118156357Y-68950142D01*
X121315642Y-60726880D02*
X120982309Y-60250690D01*
X120744214Y-60726880D02*
X120744214Y-59726880D01*
X121125166Y-59726880D01*
X121220404Y-59774500D01*
X121268023Y-59822119D01*
X121315642Y-59917357D01*
X121315642Y-60060214D01*
X121268023Y-60155452D01*
X121220404Y-60203071D01*
X121125166Y-60250690D01*
X120744214Y-60250690D01*
X121696595Y-59822119D02*
X121744214Y-59774500D01*
X121839452Y-59726880D01*
X122077547Y-59726880D01*
X122172785Y-59774500D01*
X122220404Y-59822119D01*
X122268023Y-59917357D01*
X122268023Y-60012595D01*
X122220404Y-60155452D01*
X121648976Y-60726880D01*
X122268023Y-60726880D01*
X123125166Y-60060214D02*
X123125166Y-60726880D01*
X122887071Y-59679261D02*
X122648976Y-60393547D01*
X123268023Y-60393547D01*
X116743642Y-60599880D02*
X116410309Y-60123690D01*
X116172214Y-60599880D02*
X116172214Y-59599880D01*
X116553166Y-59599880D01*
X116648404Y-59647500D01*
X116696023Y-59695119D01*
X116743642Y-59790357D01*
X116743642Y-59933214D01*
X116696023Y-60028452D01*
X116648404Y-60076071D01*
X116553166Y-60123690D01*
X116172214Y-60123690D01*
X117124595Y-59695119D02*
X117172214Y-59647500D01*
X117267452Y-59599880D01*
X117505547Y-59599880D01*
X117600785Y-59647500D01*
X117648404Y-59695119D01*
X117696023Y-59790357D01*
X117696023Y-59885595D01*
X117648404Y-60028452D01*
X117076976Y-60599880D01*
X117696023Y-60599880D01*
X118600785Y-59599880D02*
X118124595Y-59599880D01*
X118076976Y-60076071D01*
X118124595Y-60028452D01*
X118219833Y-59980833D01*
X118457928Y-59980833D01*
X118553166Y-60028452D01*
X118600785Y-60076071D01*
X118648404Y-60171309D01*
X118648404Y-60409404D01*
X118600785Y-60504642D01*
X118553166Y-60552261D01*
X118457928Y-60599880D01*
X118219833Y-60599880D01*
X118124595Y-60552261D01*
X118076976Y-60504642D01*
X134460142Y-63203380D02*
X134126809Y-62727190D01*
X133888714Y-63203380D02*
X133888714Y-62203380D01*
X134269666Y-62203380D01*
X134364904Y-62251000D01*
X134412523Y-62298619D01*
X134460142Y-62393857D01*
X134460142Y-62536714D01*
X134412523Y-62631952D01*
X134364904Y-62679571D01*
X134269666Y-62727190D01*
X133888714Y-62727190D01*
X134841095Y-62298619D02*
X134888714Y-62251000D01*
X134983952Y-62203380D01*
X135222047Y-62203380D01*
X135317285Y-62251000D01*
X135364904Y-62298619D01*
X135412523Y-62393857D01*
X135412523Y-62489095D01*
X135364904Y-62631952D01*
X134793476Y-63203380D01*
X135412523Y-63203380D01*
X136269666Y-62203380D02*
X136079190Y-62203380D01*
X135983952Y-62251000D01*
X135936333Y-62298619D01*
X135841095Y-62441476D01*
X135793476Y-62631952D01*
X135793476Y-63012904D01*
X135841095Y-63108142D01*
X135888714Y-63155761D01*
X135983952Y-63203380D01*
X136174428Y-63203380D01*
X136269666Y-63155761D01*
X136317285Y-63108142D01*
X136364904Y-63012904D01*
X136364904Y-62774809D01*
X136317285Y-62679571D01*
X136269666Y-62631952D01*
X136174428Y-62584333D01*
X135983952Y-62584333D01*
X135888714Y-62631952D01*
X135841095Y-62679571D01*
X135793476Y-62774809D01*
X131158142Y-67711880D02*
X130824809Y-67235690D01*
X130586714Y-67711880D02*
X130586714Y-66711880D01*
X130967666Y-66711880D01*
X131062904Y-66759500D01*
X131110523Y-66807119D01*
X131158142Y-66902357D01*
X131158142Y-67045214D01*
X131110523Y-67140452D01*
X131062904Y-67188071D01*
X130967666Y-67235690D01*
X130586714Y-67235690D01*
X131539095Y-66807119D02*
X131586714Y-66759500D01*
X131681952Y-66711880D01*
X131920047Y-66711880D01*
X132015285Y-66759500D01*
X132062904Y-66807119D01*
X132110523Y-66902357D01*
X132110523Y-66997595D01*
X132062904Y-67140452D01*
X131491476Y-67711880D01*
X132110523Y-67711880D01*
X132443857Y-66711880D02*
X133110523Y-66711880D01*
X132681952Y-67711880D01*
X127397642Y-64757880D02*
X127064309Y-64281690D01*
X126826214Y-64757880D02*
X126826214Y-63757880D01*
X127207166Y-63757880D01*
X127302404Y-63805500D01*
X127350023Y-63853119D01*
X127397642Y-63948357D01*
X127397642Y-64091214D01*
X127350023Y-64186452D01*
X127302404Y-64234071D01*
X127207166Y-64281690D01*
X126826214Y-64281690D01*
X127778595Y-63853119D02*
X127826214Y-63805500D01*
X127921452Y-63757880D01*
X128159547Y-63757880D01*
X128254785Y-63805500D01*
X128302404Y-63853119D01*
X128350023Y-63948357D01*
X128350023Y-64043595D01*
X128302404Y-64186452D01*
X127730976Y-64757880D01*
X128350023Y-64757880D01*
X128921452Y-64186452D02*
X128826214Y-64138833D01*
X128778595Y-64091214D01*
X128730976Y-63995976D01*
X128730976Y-63948357D01*
X128778595Y-63853119D01*
X128826214Y-63805500D01*
X128921452Y-63757880D01*
X129111928Y-63757880D01*
X129207166Y-63805500D01*
X129254785Y-63853119D01*
X129302404Y-63948357D01*
X129302404Y-63995976D01*
X129254785Y-64091214D01*
X129207166Y-64138833D01*
X129111928Y-64186452D01*
X128921452Y-64186452D01*
X128826214Y-64234071D01*
X128778595Y-64281690D01*
X128730976Y-64376928D01*
X128730976Y-64567404D01*
X128778595Y-64662642D01*
X128826214Y-64710261D01*
X128921452Y-64757880D01*
X129111928Y-64757880D01*
X129207166Y-64710261D01*
X129254785Y-64662642D01*
X129302404Y-64567404D01*
X129302404Y-64376928D01*
X129254785Y-64281690D01*
X129207166Y-64234071D01*
X129111928Y-64186452D01*
X124617642Y-61361880D02*
X124284309Y-60885690D01*
X124046214Y-61361880D02*
X124046214Y-60361880D01*
X124427166Y-60361880D01*
X124522404Y-60409500D01*
X124570023Y-60457119D01*
X124617642Y-60552357D01*
X124617642Y-60695214D01*
X124570023Y-60790452D01*
X124522404Y-60838071D01*
X124427166Y-60885690D01*
X124046214Y-60885690D01*
X124998595Y-60457119D02*
X125046214Y-60409500D01*
X125141452Y-60361880D01*
X125379547Y-60361880D01*
X125474785Y-60409500D01*
X125522404Y-60457119D01*
X125570023Y-60552357D01*
X125570023Y-60647595D01*
X125522404Y-60790452D01*
X124950976Y-61361880D01*
X125570023Y-61361880D01*
X126046214Y-61361880D02*
X126236690Y-61361880D01*
X126331928Y-61314261D01*
X126379547Y-61266642D01*
X126474785Y-61123785D01*
X126522404Y-60933309D01*
X126522404Y-60552357D01*
X126474785Y-60457119D01*
X126427166Y-60409500D01*
X126331928Y-60361880D01*
X126141452Y-60361880D01*
X126046214Y-60409500D01*
X125998595Y-60457119D01*
X125950976Y-60552357D01*
X125950976Y-60790452D01*
X125998595Y-60885690D01*
X126046214Y-60933309D01*
X126141452Y-60980928D01*
X126331928Y-60980928D01*
X126427166Y-60933309D01*
X126474785Y-60885690D01*
X126522404Y-60790452D01*
X128505142Y-92126380D02*
X128171809Y-91650190D01*
X127933714Y-92126380D02*
X127933714Y-91126380D01*
X128314666Y-91126380D01*
X128409904Y-91174000D01*
X128457523Y-91221619D01*
X128505142Y-91316857D01*
X128505142Y-91459714D01*
X128457523Y-91554952D01*
X128409904Y-91602571D01*
X128314666Y-91650190D01*
X127933714Y-91650190D01*
X128838476Y-91126380D02*
X129457523Y-91126380D01*
X129124190Y-91507333D01*
X129267047Y-91507333D01*
X129362285Y-91554952D01*
X129409904Y-91602571D01*
X129457523Y-91697809D01*
X129457523Y-91935904D01*
X129409904Y-92031142D01*
X129362285Y-92078761D01*
X129267047Y-92126380D01*
X128981333Y-92126380D01*
X128886095Y-92078761D01*
X128838476Y-92031142D01*
X130076571Y-91126380D02*
X130171809Y-91126380D01*
X130267047Y-91174000D01*
X130314666Y-91221619D01*
X130362285Y-91316857D01*
X130409904Y-91507333D01*
X130409904Y-91745428D01*
X130362285Y-91935904D01*
X130314666Y-92031142D01*
X130267047Y-92078761D01*
X130171809Y-92126380D01*
X130076571Y-92126380D01*
X129981333Y-92078761D01*
X129933714Y-92031142D01*
X129886095Y-91935904D01*
X129838476Y-91745428D01*
X129838476Y-91507333D01*
X129886095Y-91316857D01*
X129933714Y-91221619D01*
X129981333Y-91174000D01*
X130076571Y-91126380D01*
X127156342Y-103443342D02*
X127108723Y-103490961D01*
X126965866Y-103538580D01*
X126870628Y-103538580D01*
X126727771Y-103490961D01*
X126632533Y-103395723D01*
X126584914Y-103300485D01*
X126537295Y-103110009D01*
X126537295Y-102967152D01*
X126584914Y-102776676D01*
X126632533Y-102681438D01*
X126727771Y-102586200D01*
X126870628Y-102538580D01*
X126965866Y-102538580D01*
X127108723Y-102586200D01*
X127156342Y-102633819D01*
X127537295Y-102633819D02*
X127584914Y-102586200D01*
X127680152Y-102538580D01*
X127918247Y-102538580D01*
X128013485Y-102586200D01*
X128061104Y-102633819D01*
X128108723Y-102729057D01*
X128108723Y-102824295D01*
X128061104Y-102967152D01*
X127489676Y-103538580D01*
X128108723Y-103538580D01*
X128584914Y-103538580D02*
X128775390Y-103538580D01*
X128870628Y-103490961D01*
X128918247Y-103443342D01*
X129013485Y-103300485D01*
X129061104Y-103110009D01*
X129061104Y-102729057D01*
X129013485Y-102633819D01*
X128965866Y-102586200D01*
X128870628Y-102538580D01*
X128680152Y-102538580D01*
X128584914Y-102586200D01*
X128537295Y-102633819D01*
X128489676Y-102729057D01*
X128489676Y-102967152D01*
X128537295Y-103062390D01*
X128584914Y-103110009D01*
X128680152Y-103157628D01*
X128870628Y-103157628D01*
X128965866Y-103110009D01*
X129013485Y-103062390D01*
X129061104Y-102967152D01*
D10*
X137725600Y-105578657D02*
X137725600Y-106435800D01*
X137668457Y-106607228D01*
X137554171Y-106721514D01*
X137382742Y-106778657D01*
X137268457Y-106778657D01*
X138811314Y-105578657D02*
X138582742Y-105578657D01*
X138468457Y-105635800D01*
X138411314Y-105692942D01*
X138297028Y-105864371D01*
X138239885Y-106092942D01*
X138239885Y-106550085D01*
X138297028Y-106664371D01*
X138354171Y-106721514D01*
X138468457Y-106778657D01*
X138697028Y-106778657D01*
X138811314Y-106721514D01*
X138868457Y-106664371D01*
X138925600Y-106550085D01*
X138925600Y-106264371D01*
X138868457Y-106150085D01*
X138811314Y-106092942D01*
X138697028Y-106035800D01*
X138468457Y-106035800D01*
X138354171Y-106092942D01*
X138297028Y-106150085D01*
X138239885Y-106264371D01*
D11*
X119843961Y-57050219D02*
X119748723Y-57002600D01*
X119653485Y-56907361D01*
X119510628Y-56764504D01*
X119415390Y-56716885D01*
X119320152Y-56716885D01*
X119367771Y-56954980D02*
X119272533Y-56907361D01*
X119177295Y-56812123D01*
X119129676Y-56621647D01*
X119129676Y-56288314D01*
X119177295Y-56097838D01*
X119272533Y-56002600D01*
X119367771Y-55954980D01*
X119558247Y-55954980D01*
X119653485Y-56002600D01*
X119748723Y-56097838D01*
X119796342Y-56288314D01*
X119796342Y-56621647D01*
X119748723Y-56812123D01*
X119653485Y-56907361D01*
X119558247Y-56954980D01*
X119367771Y-56954980D01*
X120748723Y-56954980D02*
X120177295Y-56954980D01*
X120463009Y-56954980D02*
X120463009Y-55954980D01*
X120367771Y-56097838D01*
X120272533Y-56193076D01*
X120177295Y-56240695D01*
X124492161Y-56872419D02*
X124396923Y-56824800D01*
X124301685Y-56729561D01*
X124158828Y-56586704D01*
X124063590Y-56539085D01*
X123968352Y-56539085D01*
X124015971Y-56777180D02*
X123920733Y-56729561D01*
X123825495Y-56634323D01*
X123777876Y-56443847D01*
X123777876Y-56110514D01*
X123825495Y-55920038D01*
X123920733Y-55824800D01*
X124015971Y-55777180D01*
X124206447Y-55777180D01*
X124301685Y-55824800D01*
X124396923Y-55920038D01*
X124444542Y-56110514D01*
X124444542Y-56443847D01*
X124396923Y-56634323D01*
X124301685Y-56729561D01*
X124206447Y-56777180D01*
X124015971Y-56777180D01*
X124825495Y-55872419D02*
X124873114Y-55824800D01*
X124968352Y-55777180D01*
X125206447Y-55777180D01*
X125301685Y-55824800D01*
X125349304Y-55872419D01*
X125396923Y-55967657D01*
X125396923Y-56062895D01*
X125349304Y-56205752D01*
X124777876Y-56777180D01*
X125396923Y-56777180D01*
X128829961Y-61218259D02*
X128734723Y-61170640D01*
X128639485Y-61075401D01*
X128496628Y-60932544D01*
X128401390Y-60884925D01*
X128306152Y-60884925D01*
X128353771Y-61123020D02*
X128258533Y-61075401D01*
X128163295Y-60980163D01*
X128115676Y-60789687D01*
X128115676Y-60456354D01*
X128163295Y-60265878D01*
X128258533Y-60170640D01*
X128353771Y-60123020D01*
X128544247Y-60123020D01*
X128639485Y-60170640D01*
X128734723Y-60265878D01*
X128782342Y-60456354D01*
X128782342Y-60789687D01*
X128734723Y-60980163D01*
X128639485Y-61075401D01*
X128544247Y-61123020D01*
X128353771Y-61123020D01*
X129115676Y-60123020D02*
X129734723Y-60123020D01*
X129401390Y-60503973D01*
X129544247Y-60503973D01*
X129639485Y-60551592D01*
X129687104Y-60599211D01*
X129734723Y-60694449D01*
X129734723Y-60932544D01*
X129687104Y-61027782D01*
X129639485Y-61075401D01*
X129544247Y-61123020D01*
X129258533Y-61123020D01*
X129163295Y-61075401D01*
X129115676Y-61027782D01*
X128594261Y-56440619D02*
X128499023Y-56393000D01*
X128403785Y-56297761D01*
X128260928Y-56154904D01*
X128165690Y-56107285D01*
X128070452Y-56107285D01*
X128118071Y-56345380D02*
X128022833Y-56297761D01*
X127927595Y-56202523D01*
X127879976Y-56012047D01*
X127879976Y-55678714D01*
X127927595Y-55488238D01*
X128022833Y-55393000D01*
X128118071Y-55345380D01*
X128308547Y-55345380D01*
X128403785Y-55393000D01*
X128499023Y-55488238D01*
X128546642Y-55678714D01*
X128546642Y-56012047D01*
X128499023Y-56202523D01*
X128403785Y-56297761D01*
X128308547Y-56345380D01*
X128118071Y-56345380D01*
X129403785Y-55678714D02*
X129403785Y-56345380D01*
X129165690Y-55297761D02*
X128927595Y-56012047D01*
X129546642Y-56012047D01*
X133367942Y-99550780D02*
X133034609Y-99074590D01*
X132796514Y-99550780D02*
X132796514Y-98550780D01*
X133177466Y-98550780D01*
X133272704Y-98598400D01*
X133320323Y-98646019D01*
X133367942Y-98741257D01*
X133367942Y-98884114D01*
X133320323Y-98979352D01*
X133272704Y-99026971D01*
X133177466Y-99074590D01*
X132796514Y-99074590D01*
X133701276Y-98550780D02*
X134320323Y-98550780D01*
X133986990Y-98931733D01*
X134129847Y-98931733D01*
X134225085Y-98979352D01*
X134272704Y-99026971D01*
X134320323Y-99122209D01*
X134320323Y-99360304D01*
X134272704Y-99455542D01*
X134225085Y-99503161D01*
X134129847Y-99550780D01*
X133844133Y-99550780D01*
X133748895Y-99503161D01*
X133701276Y-99455542D01*
X135272704Y-99550780D02*
X134701276Y-99550780D01*
X134986990Y-99550780D02*
X134986990Y-98550780D01*
X134891752Y-98693638D01*
X134796514Y-98788876D01*
X134701276Y-98836495D01*
M02*
