M48
; DRILL file {KiCad (5.1.0)-1} date 1/21/2020 12:08:45 PM
; FORMAT={-:-/ absolute / inch / decimal}
; #@! TF.CreationDate,2020-01-21T12:08:45-05:00
; #@! TF.GenerationSoftware,Kicad,Pcbnew,(5.1.0)-1
; #@! TF.FileFunction,Plated,1,2,PTH
FMAT,2
INCH
T1C0.0118
T2C0.0157
T3C0.0315
T4C0.0394
T5C0.0433
T6C0.0591
T7C0.0630
%
G90
G05
T1
X4.919Y-2.9905
X5.121Y-4.1405
X5.399Y-2.1255
X5.408Y-3.3835
X5.414Y-3.3035
X5.441Y-3.1955
X5.507Y-3.1675
X5.5195Y-2.116
X5.663Y-2.5135
X5.782Y-2.3665
X5.797Y-2.4975
T2
X4.524Y-2.583
X4.529Y-2.4505
X4.539Y-3.1505
X4.544Y-2.1355
X4.544Y-2.7805
X4.549Y-3.5805
X4.562Y-3.3005
X4.5815Y-2.5455
X4.5911Y-2.7384
X4.6165Y-2.2105
X4.624Y-3.8905
X4.634Y-3.5355
X4.653Y-3.9195
X4.659Y-1.9305
X4.6665Y-2.5014
X4.709Y-2.6405
X4.714Y-3.4305
X4.7165Y-2.2205
X4.733Y-4.1165
X4.7365Y-2.4255
X4.7465Y-2.503
X4.814Y-2.208
X4.814Y-3.4305
X4.824Y-2.5505
X4.842Y-3.4605
X4.862Y-3.4045
X4.869Y-2.478
X4.879Y-2.6255
X4.888Y-3.4655
X4.9Y-3.3345
X4.903Y-4.1165
X4.909Y-2.218
X4.909Y-3.1345
X4.9165Y-2.3805
X4.919Y-2.7755
X4.931Y-4.1455
X4.944Y-3.4655
X4.9715Y-2.453
X4.9715Y-2.5205
X4.974Y-2.3705
X4.986Y-4.1605
X5.009Y-2.213
X5.044Y-2.343
X5.0815Y-2.5205
X5.084Y-3.3855
X5.094Y-2.8055
X5.1015Y-2.2205
X5.107Y-4.0785
X5.114Y-2.3455
X5.115Y-4.0475
X5.122Y-4.0175
X5.154Y-2.4105
X5.154Y-2.8655
X5.157Y-4.0165
X5.159Y-3.7735
X5.164Y-2.8155
X5.169Y-2.7705
X5.193Y-4.0145
X5.194Y-2.3005
X5.222Y-3.1475
X5.224Y-2.4155
X5.224Y-3.2155
X5.256Y-4.0395
X5.2865Y-2.3455
X5.289Y-2.1605
X5.291Y-4.0335
X5.294Y-2.2805
X5.304Y-3.1485
X5.304Y-3.2165
X5.314Y-2.2255
X5.328Y-4.0305
X5.354Y-2.1555
X5.359Y-3.5455
X5.361Y-3.0075
X5.369Y-2.3055
X5.394Y-2.5855
X5.44Y-2.0185
X5.484Y-3.2155
X5.494Y-2.6455
X5.504Y-2.3655
X5.549Y-2.9905
X5.554Y-3.2055
X5.574Y-2.3755
X5.574Y-3.3955
X5.574Y-3.5405
X5.579Y-2.5855
X5.594Y-3.0805
X5.614Y-2.4955
X5.638Y-3.6795
X5.644Y-2.6805
X5.665Y-2.0665
X5.679Y-2.3105
X5.683Y-2.1775
X5.719Y-2.5755
X5.731Y-2.1675
X5.764Y-2.9205
X5.794Y-3.5455
X5.824Y-2.6755
X5.914Y-2.8705
X5.954Y-2.7255
X5.997Y-3.4035
X6.009Y-3.0535
X6.029Y-4.1305
X6.034Y-2.3305
X6.039Y-2.2755
X6.0665Y-3.14
X6.069Y-4.1805
X6.109Y-3.1825
X6.154Y-3.295
X8.169Y-3.21
X8.214Y-3.165
X8.259Y-3.165
X8.3015Y-3.2075
T3
X4.993Y-3.5355
X5.009Y-2.6675
T4
X4.584Y-4.2875
X4.684Y-4.2875
X4.784Y-4.2875
X4.884Y-4.2875
X4.984Y-4.2875
X5.084Y-4.2875
X5.184Y-4.2875
X5.284Y-4.2875
X5.384Y-4.2875
X5.484Y-4.2875
X4.354Y-2.2295
X4.354Y-2.3295
X4.354Y-2.4295
X4.354Y-2.5295
X4.354Y-2.6295
X4.354Y-2.7295
X4.354Y-2.8295
X4.354Y-2.9295
X4.354Y-3.0295
X4.354Y-3.1295
X4.354Y-3.2295
X4.354Y-3.3295
X4.354Y-3.4295
X4.354Y-3.5295
X4.354Y-3.6295
X4.354Y-3.7295
X4.354Y-3.8295
X4.354Y-3.9295
X4.354Y-4.0295
X4.354Y-4.1295
X4.454Y-2.2295
X4.454Y-2.3295
X4.454Y-2.4295
X4.454Y-2.5295
X4.454Y-2.6295
X4.454Y-2.7295
X4.454Y-2.8295
X4.454Y-2.9295
X4.454Y-3.0295
X4.454Y-3.1295
X4.454Y-3.2295
X4.454Y-3.3295
X4.454Y-3.4295
X4.454Y-3.5295
X4.454Y-3.6295
X4.454Y-3.7295
X4.454Y-3.8295
X4.454Y-3.9295
X4.454Y-4.0295
X4.454Y-4.1295
X4.614Y-2.0655
X4.714Y-2.0655
X4.814Y-2.0655
X4.914Y-2.0655
X5.014Y-2.0655
X5.114Y-2.0655
X5.214Y-2.0655
X5.314Y-2.0655
T5
X6.428Y-2.0515
X6.528Y-2.0515
X5.783Y-2.0515
X5.883Y-2.0515
T6
X6.419Y-4.2455
X6.444Y-4.3805
T7
X5.759Y-3.8955
X5.759Y-4.1317
X5.9441Y-4.0136
T0
M30
