G04 #@! TF.GenerationSoftware,KiCad,Pcbnew,(5.1.0)-1*
G04 #@! TF.CreationDate,2020-01-21T12:08:37-05:00*
G04 #@! TF.ProjectId,RasPi_NFC_Audio_KiCAD,52617350-695f-44e4-9643-5f417564696f,rev?*
G04 #@! TF.SameCoordinates,Original*
G04 #@! TF.FileFunction,Copper,L2,Bot*
G04 #@! TF.FilePolarity,Positive*
%FSLAX46Y46*%
G04 Gerber Fmt 4.6, Leading zero omitted, Abs format (unit mm)*
G04 Created by KiCad (PCBNEW (5.1.0)-1) date 2020-01-21 12:08:37*
%MOMM*%
%LPD*%
G04 APERTURE LIST*
%ADD10R,2.600000X2.600000*%
%ADD11C,2.600000*%
%ADD12C,2.100000*%
%ADD13R,2.100000X2.100000*%
%ADD14C,0.100000*%
%ADD15C,0.590000*%
%ADD16R,1.700000X1.700000*%
%ADD17O,1.700000X1.700000*%
%ADD18C,1.000000*%
%ADD19C,0.600000*%
%ADD20C,2.000000*%
%ADD21C,0.500000*%
%ADD22C,2.000000*%
%ADD23C,0.160000*%
%ADD24C,0.250000*%
%ADD25C,0.200000*%
%ADD26C,0.500000*%
%ADD27C,0.254000*%
G04 APERTURE END LIST*
D10*
X146279000Y-98946000D03*
D11*
X146279000Y-104946000D03*
X150979000Y-101946000D03*
D12*
X146888600Y-52108400D03*
D13*
X149428600Y-52108400D03*
X165811600Y-52108400D03*
D12*
X163271600Y-52108400D03*
D14*
G36*
X156498958Y-79121510D02*
G01*
X156513276Y-79123634D01*
X156527317Y-79127151D01*
X156540946Y-79132028D01*
X156554031Y-79138217D01*
X156566447Y-79145658D01*
X156578073Y-79154281D01*
X156588798Y-79164002D01*
X156598519Y-79174727D01*
X156607142Y-79186353D01*
X156614583Y-79198769D01*
X156620772Y-79211854D01*
X156625649Y-79225483D01*
X156629166Y-79239524D01*
X156631290Y-79253842D01*
X156632000Y-79268300D01*
X156632000Y-79563300D01*
X156631290Y-79577758D01*
X156629166Y-79592076D01*
X156625649Y-79606117D01*
X156620772Y-79619746D01*
X156614583Y-79632831D01*
X156607142Y-79645247D01*
X156598519Y-79656873D01*
X156588798Y-79667598D01*
X156578073Y-79677319D01*
X156566447Y-79685942D01*
X156554031Y-79693383D01*
X156540946Y-79699572D01*
X156527317Y-79704449D01*
X156513276Y-79707966D01*
X156498958Y-79710090D01*
X156484500Y-79710800D01*
X156139500Y-79710800D01*
X156125042Y-79710090D01*
X156110724Y-79707966D01*
X156096683Y-79704449D01*
X156083054Y-79699572D01*
X156069969Y-79693383D01*
X156057553Y-79685942D01*
X156045927Y-79677319D01*
X156035202Y-79667598D01*
X156025481Y-79656873D01*
X156016858Y-79645247D01*
X156009417Y-79632831D01*
X156003228Y-79619746D01*
X155998351Y-79606117D01*
X155994834Y-79592076D01*
X155992710Y-79577758D01*
X155992000Y-79563300D01*
X155992000Y-79268300D01*
X155992710Y-79253842D01*
X155994834Y-79239524D01*
X155998351Y-79225483D01*
X156003228Y-79211854D01*
X156009417Y-79198769D01*
X156016858Y-79186353D01*
X156025481Y-79174727D01*
X156035202Y-79164002D01*
X156045927Y-79154281D01*
X156057553Y-79145658D01*
X156069969Y-79138217D01*
X156083054Y-79132028D01*
X156096683Y-79127151D01*
X156110724Y-79123634D01*
X156125042Y-79121510D01*
X156139500Y-79120800D01*
X156484500Y-79120800D01*
X156498958Y-79121510D01*
X156498958Y-79121510D01*
G37*
D15*
X156312000Y-79415800D03*
D14*
G36*
X156498958Y-78151510D02*
G01*
X156513276Y-78153634D01*
X156527317Y-78157151D01*
X156540946Y-78162028D01*
X156554031Y-78168217D01*
X156566447Y-78175658D01*
X156578073Y-78184281D01*
X156588798Y-78194002D01*
X156598519Y-78204727D01*
X156607142Y-78216353D01*
X156614583Y-78228769D01*
X156620772Y-78241854D01*
X156625649Y-78255483D01*
X156629166Y-78269524D01*
X156631290Y-78283842D01*
X156632000Y-78298300D01*
X156632000Y-78593300D01*
X156631290Y-78607758D01*
X156629166Y-78622076D01*
X156625649Y-78636117D01*
X156620772Y-78649746D01*
X156614583Y-78662831D01*
X156607142Y-78675247D01*
X156598519Y-78686873D01*
X156588798Y-78697598D01*
X156578073Y-78707319D01*
X156566447Y-78715942D01*
X156554031Y-78723383D01*
X156540946Y-78729572D01*
X156527317Y-78734449D01*
X156513276Y-78737966D01*
X156498958Y-78740090D01*
X156484500Y-78740800D01*
X156139500Y-78740800D01*
X156125042Y-78740090D01*
X156110724Y-78737966D01*
X156096683Y-78734449D01*
X156083054Y-78729572D01*
X156069969Y-78723383D01*
X156057553Y-78715942D01*
X156045927Y-78707319D01*
X156035202Y-78697598D01*
X156025481Y-78686873D01*
X156016858Y-78675247D01*
X156009417Y-78662831D01*
X156003228Y-78649746D01*
X155998351Y-78636117D01*
X155994834Y-78622076D01*
X155992710Y-78607758D01*
X155992000Y-78593300D01*
X155992000Y-78298300D01*
X155992710Y-78283842D01*
X155994834Y-78269524D01*
X155998351Y-78255483D01*
X156003228Y-78241854D01*
X156009417Y-78228769D01*
X156016858Y-78216353D01*
X156025481Y-78204727D01*
X156035202Y-78194002D01*
X156045927Y-78184281D01*
X156057553Y-78175658D01*
X156069969Y-78168217D01*
X156083054Y-78162028D01*
X156096683Y-78157151D01*
X156110724Y-78153634D01*
X156125042Y-78151510D01*
X156139500Y-78150800D01*
X156484500Y-78150800D01*
X156498958Y-78151510D01*
X156498958Y-78151510D01*
G37*
D15*
X156312000Y-78445800D03*
D14*
G36*
X156524358Y-84427710D02*
G01*
X156538676Y-84429834D01*
X156552717Y-84433351D01*
X156566346Y-84438228D01*
X156579431Y-84444417D01*
X156591847Y-84451858D01*
X156603473Y-84460481D01*
X156614198Y-84470202D01*
X156623919Y-84480927D01*
X156632542Y-84492553D01*
X156639983Y-84504969D01*
X156646172Y-84518054D01*
X156651049Y-84531683D01*
X156654566Y-84545724D01*
X156656690Y-84560042D01*
X156657400Y-84574500D01*
X156657400Y-84869500D01*
X156656690Y-84883958D01*
X156654566Y-84898276D01*
X156651049Y-84912317D01*
X156646172Y-84925946D01*
X156639983Y-84939031D01*
X156632542Y-84951447D01*
X156623919Y-84963073D01*
X156614198Y-84973798D01*
X156603473Y-84983519D01*
X156591847Y-84992142D01*
X156579431Y-84999583D01*
X156566346Y-85005772D01*
X156552717Y-85010649D01*
X156538676Y-85014166D01*
X156524358Y-85016290D01*
X156509900Y-85017000D01*
X156164900Y-85017000D01*
X156150442Y-85016290D01*
X156136124Y-85014166D01*
X156122083Y-85010649D01*
X156108454Y-85005772D01*
X156095369Y-84999583D01*
X156082953Y-84992142D01*
X156071327Y-84983519D01*
X156060602Y-84973798D01*
X156050881Y-84963073D01*
X156042258Y-84951447D01*
X156034817Y-84939031D01*
X156028628Y-84925946D01*
X156023751Y-84912317D01*
X156020234Y-84898276D01*
X156018110Y-84883958D01*
X156017400Y-84869500D01*
X156017400Y-84574500D01*
X156018110Y-84560042D01*
X156020234Y-84545724D01*
X156023751Y-84531683D01*
X156028628Y-84518054D01*
X156034817Y-84504969D01*
X156042258Y-84492553D01*
X156050881Y-84480927D01*
X156060602Y-84470202D01*
X156071327Y-84460481D01*
X156082953Y-84451858D01*
X156095369Y-84444417D01*
X156108454Y-84438228D01*
X156122083Y-84433351D01*
X156136124Y-84429834D01*
X156150442Y-84427710D01*
X156164900Y-84427000D01*
X156509900Y-84427000D01*
X156524358Y-84427710D01*
X156524358Y-84427710D01*
G37*
D15*
X156337400Y-84722000D03*
D14*
G36*
X156524358Y-85397710D02*
G01*
X156538676Y-85399834D01*
X156552717Y-85403351D01*
X156566346Y-85408228D01*
X156579431Y-85414417D01*
X156591847Y-85421858D01*
X156603473Y-85430481D01*
X156614198Y-85440202D01*
X156623919Y-85450927D01*
X156632542Y-85462553D01*
X156639983Y-85474969D01*
X156646172Y-85488054D01*
X156651049Y-85501683D01*
X156654566Y-85515724D01*
X156656690Y-85530042D01*
X156657400Y-85544500D01*
X156657400Y-85839500D01*
X156656690Y-85853958D01*
X156654566Y-85868276D01*
X156651049Y-85882317D01*
X156646172Y-85895946D01*
X156639983Y-85909031D01*
X156632542Y-85921447D01*
X156623919Y-85933073D01*
X156614198Y-85943798D01*
X156603473Y-85953519D01*
X156591847Y-85962142D01*
X156579431Y-85969583D01*
X156566346Y-85975772D01*
X156552717Y-85980649D01*
X156538676Y-85984166D01*
X156524358Y-85986290D01*
X156509900Y-85987000D01*
X156164900Y-85987000D01*
X156150442Y-85986290D01*
X156136124Y-85984166D01*
X156122083Y-85980649D01*
X156108454Y-85975772D01*
X156095369Y-85969583D01*
X156082953Y-85962142D01*
X156071327Y-85953519D01*
X156060602Y-85943798D01*
X156050881Y-85933073D01*
X156042258Y-85921447D01*
X156034817Y-85909031D01*
X156028628Y-85895946D01*
X156023751Y-85882317D01*
X156020234Y-85868276D01*
X156018110Y-85853958D01*
X156017400Y-85839500D01*
X156017400Y-85544500D01*
X156018110Y-85530042D01*
X156020234Y-85515724D01*
X156023751Y-85501683D01*
X156028628Y-85488054D01*
X156034817Y-85474969D01*
X156042258Y-85462553D01*
X156050881Y-85450927D01*
X156060602Y-85440202D01*
X156071327Y-85430481D01*
X156082953Y-85421858D01*
X156095369Y-85414417D01*
X156108454Y-85408228D01*
X156122083Y-85403351D01*
X156136124Y-85399834D01*
X156150442Y-85397710D01*
X156164900Y-85397000D01*
X156509900Y-85397000D01*
X156524358Y-85397710D01*
X156524358Y-85397710D01*
G37*
D15*
X156337400Y-85692000D03*
D16*
X113132000Y-104889600D03*
D17*
X110592000Y-104889600D03*
X113132000Y-102349600D03*
X110592000Y-102349600D03*
X113132000Y-99809600D03*
X110592000Y-99809600D03*
X113132000Y-97269600D03*
X110592000Y-97269600D03*
X113132000Y-94729600D03*
X110592000Y-94729600D03*
X113132000Y-92189600D03*
X110592000Y-92189600D03*
X113132000Y-89649600D03*
X110592000Y-89649600D03*
X113132000Y-87109600D03*
X110592000Y-87109600D03*
X113132000Y-84569600D03*
X110592000Y-84569600D03*
X113132000Y-82029600D03*
X110592000Y-82029600D03*
X113132000Y-79489600D03*
X110592000Y-79489600D03*
X113132000Y-76949600D03*
X110592000Y-76949600D03*
X113132000Y-74409600D03*
X110592000Y-74409600D03*
X113132000Y-71869600D03*
X110592000Y-71869600D03*
X113132000Y-69329600D03*
X110592000Y-69329600D03*
X113132000Y-66789600D03*
X110592000Y-66789600D03*
X113132000Y-64249600D03*
X110592000Y-64249600D03*
X113132000Y-61709600D03*
X110592000Y-61709600D03*
X113132000Y-59169600D03*
X110592000Y-59169600D03*
X113132000Y-56629600D03*
X110592000Y-56629600D03*
D16*
X117196000Y-52464000D03*
D17*
X119736000Y-52464000D03*
X122276000Y-52464000D03*
X124816000Y-52464000D03*
X127356000Y-52464000D03*
X129896000Y-52464000D03*
X132436000Y-52464000D03*
X134976000Y-52464000D03*
D16*
X139294000Y-108902800D03*
D17*
X136754000Y-108902800D03*
X134214000Y-108902800D03*
X131674000Y-108902800D03*
X129134000Y-108902800D03*
X126594000Y-108902800D03*
X124054000Y-108902800D03*
X121514000Y-108902800D03*
X118974000Y-108902800D03*
X116434000Y-108902800D03*
D18*
X126822600Y-89802000D03*
X127229000Y-67754800D03*
D19*
X132690000Y-61354000D03*
X131928000Y-58433000D03*
X118529500Y-63535000D03*
X120561500Y-63576500D03*
X134722000Y-81699400D03*
X132690000Y-81674000D03*
X154153000Y-106185000D03*
X153137000Y-104915000D03*
X153264000Y-59195000D03*
X153391000Y-57798000D03*
X156312000Y-83693300D03*
D20*
X163678000Y-111264994D03*
X163043000Y-107836000D03*
D19*
X115545000Y-90945000D03*
X115291000Y-80023000D03*
X115418000Y-70625000D03*
X115037000Y-62243000D03*
X136119000Y-90056000D03*
X129134000Y-85992000D03*
X147168000Y-90056000D03*
X141580000Y-89929000D03*
X141580000Y-86246000D03*
X150216000Y-72911000D03*
X146406000Y-74181000D03*
X140945000Y-75959000D03*
X142088000Y-78245000D03*
X131293000Y-70371000D03*
X131166000Y-71514000D03*
X129388000Y-71260000D03*
X130912000Y-72784000D03*
X124943000Y-70498000D03*
X137008000Y-65672000D03*
X143358000Y-68085000D03*
X151232000Y-69228000D03*
X129896000Y-59576000D03*
X136373000Y-58560000D03*
X144247000Y-58687000D03*
X132639200Y-79946800D03*
X134722000Y-79972200D03*
X124689000Y-79616600D03*
X136169800Y-76390800D03*
D21*
X147244200Y-63436800D03*
X140195700Y-53746700D03*
X143840600Y-63843200D03*
X146863200Y-60109400D03*
X137516000Y-83909200D03*
X137135000Y-53988000D03*
D19*
X129070500Y-64021000D03*
X126276500Y-64021000D03*
X123927000Y-66688000D03*
X119609000Y-67069000D03*
X120307500Y-61608000D03*
X126340000Y-60211000D03*
X126644800Y-105677000D03*
X131039000Y-95847200D03*
X143205600Y-93459600D03*
D21*
X130073800Y-105169000D03*
D19*
X115875200Y-83833000D03*
X133502800Y-102603600D03*
X130099200Y-102044800D03*
D21*
X138201800Y-81166000D03*
X139878200Y-80454800D03*
X137363600Y-85941200D03*
D19*
X144348600Y-55308800D03*
X138176400Y-51270200D03*
X114910000Y-65608500D03*
X117704000Y-89802000D03*
X122276000Y-87135000D03*
X119736000Y-87135000D03*
X145263000Y-65418000D03*
X147930000Y-67958000D03*
X139548000Y-67196000D03*
X116614473Y-69555527D03*
X145567800Y-55054800D03*
X143891400Y-52489400D03*
X118339000Y-49035000D03*
X115418000Y-54242000D03*
X134341000Y-54877000D03*
X134468000Y-57925000D03*
X139802000Y-60084000D03*
X141580000Y-60338000D03*
X124155600Y-88024000D03*
X124460400Y-84696600D03*
X122987200Y-87897000D03*
X123495200Y-86474600D03*
X141072000Y-81420000D03*
X139294000Y-81674000D03*
X155169000Y-80835800D03*
X154089500Y-79756300D03*
X209779000Y-80391300D03*
X210858500Y-81470800D03*
X152324200Y-86449200D03*
X208636000Y-80391300D03*
X207493000Y-81534300D03*
X152629000Y-77559200D03*
X134976000Y-56528000D03*
X135992000Y-54750000D03*
X142596000Y-63386000D03*
X141707000Y-65672000D03*
X125578000Y-88024000D03*
D21*
X124943000Y-75959000D03*
D19*
X116370500Y-64656000D03*
X123673000Y-62941500D03*
X122530000Y-64783000D03*
X128118000Y-59512500D03*
X126276500Y-62306500D03*
X124879500Y-60465000D03*
X117259500Y-56147000D03*
X119799500Y-56401000D03*
X122276000Y-56083500D03*
X124689000Y-56337500D03*
X127229000Y-56210500D03*
X130912000Y-61227000D03*
X129578500Y-56401000D03*
X134277500Y-59576000D03*
X118186600Y-99555600D03*
X120218600Y-104559400D03*
X129718200Y-103594200D03*
X125247800Y-105296000D03*
X117450000Y-98819000D03*
X124536600Y-104559400D03*
X129921400Y-102806800D03*
X130988200Y-102019400D03*
X135331600Y-102375000D03*
X131902600Y-101968600D03*
X134391800Y-102451200D03*
D22*
X126822600Y-89802000D02*
X127229000Y-89395600D01*
X127229000Y-89395600D02*
X127229000Y-67754800D01*
D23*
X132690000Y-61354000D02*
X132690000Y-59195000D01*
X132690000Y-59195000D02*
X131928000Y-58433000D01*
X118529500Y-63535000D02*
X120520000Y-63535000D01*
X120520000Y-63535000D02*
X120561500Y-63576500D01*
D24*
X153391000Y-59068000D02*
X153264000Y-59195000D01*
D25*
X156312000Y-79415800D02*
X156312000Y-83693300D01*
X156337400Y-83718700D02*
X156312000Y-83693300D01*
X156337400Y-84722000D02*
X156337400Y-83718700D01*
X110592000Y-99809600D02*
X111862000Y-98539600D01*
X111862000Y-98539600D02*
X114478200Y-98539600D01*
D23*
X111441999Y-81179601D02*
X111721399Y-81179601D01*
X110592000Y-82029600D02*
X111441999Y-81179601D01*
X111721399Y-81179601D02*
X112116000Y-80785000D01*
X112116000Y-80785000D02*
X114529000Y-80785000D01*
X114529000Y-80785000D02*
X115291000Y-80023000D01*
D24*
X113132000Y-84569600D02*
X115138600Y-84569600D01*
X115138600Y-84569600D02*
X115875200Y-83833000D01*
D23*
X113132000Y-104889600D02*
X113132000Y-104584800D01*
X113132000Y-104584800D02*
X112166800Y-103619600D01*
X112166800Y-103619600D02*
X109576000Y-103619600D01*
X109576000Y-103619600D02*
X109144200Y-103187800D01*
X109144200Y-103187800D02*
X109144200Y-83629800D01*
X109144200Y-83629800D02*
X109474400Y-83299600D01*
X111862000Y-83299600D02*
X113132000Y-84569600D01*
X109474400Y-83299600D02*
X111862000Y-83299600D01*
X133502800Y-102603600D02*
X130708800Y-102603600D01*
X130708800Y-102603600D02*
X130658000Y-102603600D01*
X130658000Y-102603600D02*
X130099200Y-102044800D01*
X138201800Y-81166000D02*
X138913000Y-80454800D01*
X138913000Y-80454800D02*
X139878200Y-80454800D01*
X138201800Y-81166000D02*
X138201800Y-81519553D01*
X138201800Y-81519553D02*
X138201800Y-85103000D01*
X138201800Y-85103000D02*
X137363600Y-85941200D01*
X144348600Y-55308800D02*
X143231000Y-54191200D01*
X143231000Y-54191200D02*
X143231000Y-52311600D01*
X143231000Y-52311600D02*
X141453000Y-50533600D01*
X141453000Y-50533600D02*
X138913000Y-50533600D01*
X138913000Y-50533600D02*
X138176400Y-51270200D01*
X115334264Y-65608500D02*
X115397764Y-65545000D01*
X114910000Y-65608500D02*
X115334264Y-65608500D01*
X115397764Y-65545000D02*
X131610500Y-65545000D01*
X138176400Y-58979100D02*
X138176400Y-51270200D01*
X131610500Y-65545000D02*
X138176400Y-58979100D01*
X114656000Y-85865000D02*
X111887400Y-85865000D01*
X111887400Y-85865000D02*
X110592000Y-84569600D01*
X117704000Y-89802000D02*
X117704000Y-88913000D01*
X117704000Y-88913000D02*
X114656000Y-85865000D01*
X122276000Y-87135000D02*
X119736000Y-87135000D01*
X145562999Y-65717999D02*
X145562999Y-66225999D01*
X145263000Y-65418000D02*
X145562999Y-65717999D01*
X145562999Y-66225999D02*
X147295000Y-67958000D01*
X147295000Y-67958000D02*
X147930000Y-67958000D01*
X140967402Y-67196000D02*
X139548000Y-67196000D01*
X145263000Y-65418000D02*
X143485000Y-67196000D01*
X143485000Y-67196000D02*
X140967402Y-67196000D01*
X116614473Y-69555527D02*
X113487600Y-66789600D01*
X113487600Y-66789600D02*
X113132000Y-66789600D01*
X145567800Y-55054800D02*
X143891400Y-53378400D01*
X143891400Y-53378400D02*
X143891400Y-52489400D01*
X115418000Y-53817736D02*
X115545000Y-53690736D01*
X115418000Y-54242000D02*
X115418000Y-53817736D01*
X115545000Y-53690736D02*
X115545000Y-51067000D01*
X117577000Y-49035000D02*
X118339000Y-49035000D01*
X115545000Y-51067000D02*
X117577000Y-49035000D01*
X134468000Y-57925000D02*
X134341000Y-54877000D01*
X141580000Y-60338000D02*
X140056000Y-60338000D01*
X140056000Y-60338000D02*
X139802000Y-60084000D01*
X124155600Y-88024000D02*
X124460400Y-87719200D01*
X124460400Y-87719200D02*
X124460400Y-84696600D01*
X122987200Y-87897000D02*
X123495200Y-87389000D01*
X123495200Y-87389000D02*
X123495200Y-86474600D01*
D25*
X141072000Y-81420000D02*
X139548000Y-81420000D01*
X139548000Y-81420000D02*
X139294000Y-81674000D01*
X209779000Y-80391300D02*
X209715500Y-80327800D01*
X207493000Y-80264300D02*
X207493000Y-79692800D01*
X156312000Y-62865300D02*
X156312000Y-63309800D01*
X156820000Y-62357300D02*
X156312000Y-62865300D01*
X156312000Y-75882800D02*
X156312000Y-63309800D01*
X154089500Y-61277800D02*
X155296000Y-60071300D01*
X205969000Y-62357300D02*
X156820000Y-62357300D01*
X209779000Y-61404800D02*
X209779000Y-62611300D01*
X206731000Y-62357300D02*
X205969000Y-62357300D01*
X208636000Y-81407300D02*
X207493000Y-80264300D01*
X156883500Y-60071300D02*
X155867500Y-60071300D01*
X209779000Y-60706300D02*
X209144000Y-60071300D01*
X154089500Y-64325800D02*
X154089500Y-79756300D01*
X208636000Y-81407300D02*
X208636000Y-101346300D01*
X207874000Y-102616300D02*
X208636000Y-101854300D01*
X155169000Y-81978800D02*
X155169000Y-102044800D01*
X208636000Y-101854300D02*
X208636000Y-101346300D01*
X207493000Y-79692800D02*
X207493000Y-63119300D01*
X155169000Y-80835800D02*
X155169000Y-81978800D01*
X154089500Y-61849300D02*
X154089500Y-61277800D01*
X209779000Y-79121300D02*
X209779000Y-62611300D01*
X156312000Y-75882800D02*
X156312000Y-77337800D01*
X209779000Y-80391300D02*
X209779000Y-79121300D01*
X157010500Y-102616300D02*
X207874000Y-102616300D01*
X155296000Y-60071300D02*
X155867500Y-60071300D01*
X207493000Y-63119300D02*
X206731000Y-62357300D01*
X155740500Y-102616300D02*
X157010500Y-102616300D01*
X209779000Y-61404800D02*
X209779000Y-60706300D01*
X209144000Y-60071300D02*
X202984500Y-60071300D01*
X202984500Y-60071300D02*
X156883500Y-60071300D01*
X154089500Y-61849300D02*
X154089500Y-64325800D01*
X155169000Y-102044800D02*
X155740500Y-102616300D01*
X156312000Y-77337800D02*
X156312000Y-78445800D01*
X152946500Y-87071500D02*
X152324200Y-86449200D01*
X152946500Y-103505300D02*
X152946500Y-87071500D01*
X154407000Y-104965800D02*
X152946500Y-103505300D01*
X208890000Y-104965800D02*
X154407000Y-104965800D01*
X210858500Y-81470800D02*
X210858500Y-102997300D01*
X210858500Y-102997300D02*
X208890000Y-104965800D01*
X209779000Y-86614300D02*
X209779000Y-102552800D01*
X155550000Y-58928300D02*
X154661000Y-58928300D01*
X209779000Y-102552800D02*
X208572500Y-103759300D01*
X207493000Y-81534300D02*
X207493000Y-83248800D01*
X210922000Y-60896800D02*
X210922000Y-80327800D01*
X210922000Y-60325300D02*
X210922000Y-60896800D01*
X202730500Y-61214300D02*
X207937500Y-61214300D01*
X154661000Y-58928300D02*
X152946500Y-60642800D01*
X152946500Y-60642800D02*
X152946500Y-61531800D01*
X156756500Y-58928300D02*
X155550000Y-58928300D01*
X209779000Y-86614300D02*
X209779000Y-81470800D01*
X207493000Y-83248800D02*
X207493000Y-101155800D01*
X156312000Y-100901800D02*
X156312000Y-100330300D01*
X156883500Y-101473300D02*
X156312000Y-100901800D01*
X156312000Y-86556300D02*
X156312000Y-100330300D01*
X208318500Y-58928300D02*
X209525000Y-58928300D01*
X157899500Y-103759300D02*
X208572500Y-103759300D01*
X209525000Y-58928300D02*
X210922000Y-60325300D01*
X210922000Y-80327800D02*
X209779000Y-81470800D01*
X156756500Y-58928300D02*
X208318500Y-58928300D01*
X155169000Y-103759300D02*
X157899500Y-103759300D01*
X155169000Y-76136800D02*
X155169000Y-62420800D01*
X154089500Y-80899300D02*
X155169000Y-79819800D01*
X154026000Y-81026300D02*
X154089500Y-80962800D01*
X156375500Y-61214300D02*
X157328000Y-61214300D01*
X152946500Y-61531800D02*
X152946500Y-61468300D01*
X208636000Y-63055800D02*
X208636000Y-80391300D01*
X207937500Y-61214300D02*
X208636000Y-61912800D01*
X207175500Y-101473300D02*
X206096000Y-101473300D01*
X208636000Y-61912800D02*
X208636000Y-63055800D01*
X155169000Y-79819800D02*
X155169000Y-76136800D01*
X154089500Y-80962800D02*
X154089500Y-80899300D01*
X154026000Y-102616300D02*
X154026000Y-96964800D01*
X207493000Y-101155800D02*
X207175500Y-101473300D01*
X157899500Y-103759300D02*
X157963000Y-103759300D01*
X155169000Y-103759300D02*
X154026000Y-102616300D01*
X154026000Y-96964800D02*
X154026000Y-81026300D01*
X155169000Y-62420800D02*
X156375500Y-61214300D01*
X206096000Y-101473300D02*
X156883500Y-101473300D01*
X157328000Y-61214300D02*
X202730500Y-61214300D01*
X156312000Y-86112400D02*
X156312000Y-86556300D01*
X156337400Y-86087000D02*
X156312000Y-86112400D01*
X156337400Y-85692000D02*
X156337400Y-86087000D01*
X152946500Y-76708300D02*
X152946500Y-61531800D01*
X152946500Y-76708300D02*
X152946500Y-77241700D01*
X152946500Y-77241700D02*
X152629000Y-77559200D01*
D23*
X135611000Y-55258000D02*
X134976000Y-56528000D01*
X135992000Y-54750000D02*
X135611000Y-55258000D01*
X142596000Y-63386000D02*
X141707000Y-64275000D01*
X141707000Y-64275000D02*
X141707000Y-65672000D01*
D26*
X125578000Y-77737000D02*
X125578000Y-88024000D01*
X124943000Y-75959000D02*
X125578000Y-77737000D01*
D23*
X113132000Y-64249600D02*
X115964100Y-64249600D01*
X115964100Y-64249600D02*
X116370500Y-64656000D01*
X111441999Y-62559599D02*
X111480099Y-62559599D01*
X110592000Y-61709600D02*
X111441999Y-62559599D01*
X111480099Y-62559599D02*
X111925500Y-63005000D01*
X111925500Y-63005000D02*
X123609500Y-63005000D01*
X123609500Y-63005000D02*
X123673000Y-62941500D01*
X123673000Y-62941500D02*
X123673000Y-63640000D01*
X123673000Y-63640000D02*
X122530000Y-64783000D01*
X113132000Y-59169600D02*
X127775100Y-59169600D01*
X127775100Y-59169600D02*
X128118000Y-59512500D01*
X126576499Y-62006501D02*
X126576499Y-61943001D01*
X126276500Y-62306500D02*
X126576499Y-62006501D01*
X126576499Y-61943001D02*
X128118000Y-60401500D01*
X128118000Y-60401500D02*
X128118000Y-59512500D01*
X110592000Y-59169600D02*
X111887400Y-60465000D01*
X111887400Y-60465000D02*
X124879500Y-60465000D01*
X117259500Y-52527500D02*
X117196000Y-52464000D01*
X117259500Y-56147000D02*
X117259500Y-52527500D01*
X119799500Y-52527500D02*
X119736000Y-52464000D01*
X119799500Y-56401000D02*
X119799500Y-52527500D01*
X122276000Y-56083500D02*
X122276000Y-52464000D01*
X124689000Y-52591000D02*
X124816000Y-52464000D01*
X124689000Y-56337500D02*
X124689000Y-52591000D01*
X127229000Y-52591000D02*
X127356000Y-52464000D01*
X127229000Y-56210500D02*
X127229000Y-52591000D01*
X130912000Y-61227000D02*
X130594500Y-60909500D01*
X130594500Y-60909500D02*
X130594500Y-58750500D01*
X130594500Y-58750500D02*
X128880000Y-57036000D01*
X128880000Y-53480000D02*
X129896000Y-52464000D01*
X128880000Y-57036000D02*
X128880000Y-53480000D01*
X129878499Y-56101001D02*
X131084999Y-56101001D01*
X129578500Y-56401000D02*
X129878499Y-56101001D01*
X132436000Y-54750000D02*
X132436000Y-52464000D01*
X131084999Y-56101001D02*
X132436000Y-54750000D01*
X134277500Y-59576000D02*
X133325000Y-58623500D01*
X133325000Y-54115000D02*
X134976000Y-52464000D01*
X133325000Y-58623500D02*
X133325000Y-54115000D01*
X113132000Y-102349600D02*
X115392600Y-102349600D01*
X115392600Y-102349600D02*
X118186600Y-99555600D01*
X115392600Y-102349600D02*
X115595800Y-102349600D01*
X115595800Y-102349600D02*
X119253400Y-102349600D01*
X119253400Y-102349600D02*
X120218600Y-103314800D01*
X120218600Y-103314800D02*
X120218600Y-104559400D01*
X129718200Y-103594200D02*
X126289200Y-103594200D01*
X126289200Y-103594200D02*
X125247800Y-104635600D01*
X125247800Y-104635600D02*
X125247800Y-105296000D01*
X117749999Y-98519001D02*
X119309001Y-98519001D01*
X117450000Y-98819000D02*
X117749999Y-98519001D01*
X119309001Y-98519001D02*
X123800000Y-103010000D01*
X123800000Y-103010000D02*
X124358800Y-103568800D01*
X124358800Y-103568800D02*
X124536600Y-103746600D01*
X124536600Y-103746600D02*
X124536600Y-104559400D01*
X124836599Y-104259401D02*
X124536600Y-104559400D01*
X129921400Y-102806800D02*
X126289200Y-102806800D01*
X126289200Y-102806800D02*
X125616100Y-103479900D01*
X125679600Y-103416400D02*
X125616100Y-103479900D01*
X125616100Y-103479900D02*
X124836599Y-104259401D01*
X130988200Y-101595136D02*
X131376736Y-101206600D01*
X130988200Y-102019400D02*
X130988200Y-101595136D01*
X131376736Y-101206600D02*
X134163200Y-101206600D01*
X134163200Y-101206600D02*
X135331600Y-102375000D01*
X131902600Y-101968600D02*
X133350400Y-101968600D01*
X133350400Y-101968600D02*
X133909200Y-101968600D01*
X133909200Y-101968600D02*
X134391800Y-102451200D01*
D27*
G36*
X115064255Y-50536584D02*
G01*
X115036974Y-50558973D01*
X114990853Y-50615172D01*
X114947624Y-50667846D01*
X114881231Y-50792058D01*
X114840347Y-50926836D01*
X114826542Y-51067000D01*
X114830001Y-51102119D01*
X114830000Y-53407156D01*
X114820623Y-53418582D01*
X114754230Y-53542794D01*
X114736514Y-53601196D01*
X114691738Y-53645972D01*
X114589414Y-53799111D01*
X114518932Y-53969271D01*
X114483000Y-54149911D01*
X114483000Y-54334089D01*
X114518932Y-54514729D01*
X114589414Y-54684889D01*
X114691738Y-54838028D01*
X114821972Y-54968262D01*
X114975111Y-55070586D01*
X115145271Y-55141068D01*
X115325911Y-55177000D01*
X115510089Y-55177000D01*
X115690729Y-55141068D01*
X115860889Y-55070586D01*
X116014028Y-54968262D01*
X116144262Y-54838028D01*
X116246586Y-54684889D01*
X116317068Y-54514729D01*
X116353000Y-54334089D01*
X116353000Y-54149911D01*
X116317068Y-53969271D01*
X116308411Y-53948370D01*
X116346000Y-53952072D01*
X116544501Y-53952072D01*
X116544500Y-55539710D01*
X116533238Y-55550972D01*
X116430914Y-55704111D01*
X116360432Y-55874271D01*
X116324500Y-56054911D01*
X116324500Y-56239089D01*
X116360432Y-56419729D01*
X116430914Y-56589889D01*
X116533238Y-56743028D01*
X116663472Y-56873262D01*
X116816611Y-56975586D01*
X116986771Y-57046068D01*
X117167411Y-57082000D01*
X117351589Y-57082000D01*
X117532229Y-57046068D01*
X117702389Y-56975586D01*
X117855528Y-56873262D01*
X117985762Y-56743028D01*
X118088086Y-56589889D01*
X118158568Y-56419729D01*
X118194500Y-56239089D01*
X118194500Y-56054911D01*
X118158568Y-55874271D01*
X118088086Y-55704111D01*
X117985762Y-55550972D01*
X117974500Y-55539710D01*
X117974500Y-53952072D01*
X118046000Y-53952072D01*
X118170482Y-53939812D01*
X118290180Y-53903502D01*
X118400494Y-53844537D01*
X118497185Y-53765185D01*
X118576537Y-53668494D01*
X118635502Y-53558180D01*
X118656393Y-53489313D01*
X118680866Y-53519134D01*
X118906986Y-53704706D01*
X119084501Y-53799589D01*
X119084500Y-55793710D01*
X119073238Y-55804972D01*
X118970914Y-55958111D01*
X118900432Y-56128271D01*
X118864500Y-56308911D01*
X118864500Y-56493089D01*
X118900432Y-56673729D01*
X118970914Y-56843889D01*
X119073238Y-56997028D01*
X119203472Y-57127262D01*
X119356611Y-57229586D01*
X119526771Y-57300068D01*
X119707411Y-57336000D01*
X119891589Y-57336000D01*
X120072229Y-57300068D01*
X120242389Y-57229586D01*
X120395528Y-57127262D01*
X120525762Y-56997028D01*
X120628086Y-56843889D01*
X120698568Y-56673729D01*
X120734500Y-56493089D01*
X120734500Y-56308911D01*
X120698568Y-56128271D01*
X120628086Y-55958111D01*
X120525762Y-55804972D01*
X120514500Y-55793710D01*
X120514500Y-53731706D01*
X120565014Y-53704706D01*
X120791134Y-53519134D01*
X120976706Y-53293014D01*
X121006000Y-53238209D01*
X121035294Y-53293014D01*
X121220866Y-53519134D01*
X121446986Y-53704706D01*
X121561001Y-53765648D01*
X121561000Y-55476210D01*
X121549738Y-55487472D01*
X121447414Y-55640611D01*
X121376932Y-55810771D01*
X121341000Y-55991411D01*
X121341000Y-56175589D01*
X121376932Y-56356229D01*
X121447414Y-56526389D01*
X121549738Y-56679528D01*
X121679972Y-56809762D01*
X121833111Y-56912086D01*
X122003271Y-56982568D01*
X122183911Y-57018500D01*
X122368089Y-57018500D01*
X122548729Y-56982568D01*
X122718889Y-56912086D01*
X122872028Y-56809762D01*
X123002262Y-56679528D01*
X123104586Y-56526389D01*
X123175068Y-56356229D01*
X123211000Y-56175589D01*
X123211000Y-55991411D01*
X123175068Y-55810771D01*
X123104586Y-55640611D01*
X123002262Y-55487472D01*
X122991000Y-55476210D01*
X122991000Y-53765648D01*
X123105014Y-53704706D01*
X123331134Y-53519134D01*
X123516706Y-53293014D01*
X123546000Y-53238209D01*
X123575294Y-53293014D01*
X123760866Y-53519134D01*
X123974001Y-53694049D01*
X123974000Y-55730210D01*
X123962738Y-55741472D01*
X123860414Y-55894611D01*
X123789932Y-56064771D01*
X123754000Y-56245411D01*
X123754000Y-56429589D01*
X123789932Y-56610229D01*
X123860414Y-56780389D01*
X123962738Y-56933528D01*
X124092972Y-57063762D01*
X124246111Y-57166086D01*
X124416271Y-57236568D01*
X124596911Y-57272500D01*
X124781089Y-57272500D01*
X124961729Y-57236568D01*
X125131889Y-57166086D01*
X125285028Y-57063762D01*
X125415262Y-56933528D01*
X125517586Y-56780389D01*
X125588068Y-56610229D01*
X125624000Y-56429589D01*
X125624000Y-56245411D01*
X125588068Y-56064771D01*
X125517586Y-55894611D01*
X125415262Y-55741472D01*
X125404000Y-55730210D01*
X125404000Y-53833530D01*
X125645014Y-53704706D01*
X125871134Y-53519134D01*
X126056706Y-53293014D01*
X126086000Y-53238209D01*
X126115294Y-53293014D01*
X126300866Y-53519134D01*
X126514001Y-53694049D01*
X126514000Y-55603210D01*
X126502738Y-55614472D01*
X126400414Y-55767611D01*
X126329932Y-55937771D01*
X126294000Y-56118411D01*
X126294000Y-56302589D01*
X126329932Y-56483229D01*
X126400414Y-56653389D01*
X126502738Y-56806528D01*
X126632972Y-56936762D01*
X126786111Y-57039086D01*
X126956271Y-57109568D01*
X127136911Y-57145500D01*
X127321089Y-57145500D01*
X127501729Y-57109568D01*
X127671889Y-57039086D01*
X127825028Y-56936762D01*
X127955262Y-56806528D01*
X128057586Y-56653389D01*
X128128068Y-56483229D01*
X128164000Y-56302589D01*
X128164000Y-56118411D01*
X128128068Y-55937771D01*
X128057586Y-55767611D01*
X127955262Y-55614472D01*
X127944000Y-55603210D01*
X127944000Y-53833530D01*
X128165001Y-53715403D01*
X128165000Y-57000890D01*
X128161542Y-57036000D01*
X128165000Y-57071110D01*
X128165000Y-57071119D01*
X128175346Y-57176163D01*
X128216230Y-57310941D01*
X128282623Y-57435153D01*
X128371973Y-57544026D01*
X128399255Y-57566416D01*
X129879501Y-59046663D01*
X129879500Y-60874390D01*
X129876042Y-60909500D01*
X129879500Y-60944610D01*
X129879500Y-60944619D01*
X129889846Y-61049663D01*
X129930730Y-61184441D01*
X129977000Y-61271006D01*
X129977000Y-61319089D01*
X130012932Y-61499729D01*
X130083414Y-61669889D01*
X130185738Y-61823028D01*
X130315972Y-61953262D01*
X130469111Y-62055586D01*
X130639271Y-62126068D01*
X130819911Y-62162000D01*
X131004089Y-62162000D01*
X131184729Y-62126068D01*
X131354889Y-62055586D01*
X131508028Y-61953262D01*
X131638262Y-61823028D01*
X131740586Y-61669889D01*
X131780398Y-61573773D01*
X131790932Y-61626729D01*
X131861414Y-61796889D01*
X131963738Y-61950028D01*
X132093972Y-62080262D01*
X132247111Y-62182586D01*
X132417271Y-62253068D01*
X132597911Y-62289000D01*
X132782089Y-62289000D01*
X132962729Y-62253068D01*
X133132889Y-62182586D01*
X133286028Y-62080262D01*
X133416262Y-61950028D01*
X133518586Y-61796889D01*
X133589068Y-61626729D01*
X133625000Y-61446089D01*
X133625000Y-61261911D01*
X133589068Y-61081271D01*
X133518586Y-60911111D01*
X133416262Y-60757972D01*
X133405000Y-60746710D01*
X133405000Y-59912870D01*
X133448914Y-60018889D01*
X133551238Y-60172028D01*
X133681472Y-60302262D01*
X133834611Y-60404586D01*
X134004771Y-60475068D01*
X134185411Y-60511000D01*
X134369589Y-60511000D01*
X134550229Y-60475068D01*
X134720389Y-60404586D01*
X134873528Y-60302262D01*
X135003762Y-60172028D01*
X135106086Y-60018889D01*
X135176568Y-59848729D01*
X135212500Y-59668089D01*
X135212500Y-59483911D01*
X135176568Y-59303271D01*
X135106086Y-59133111D01*
X135003762Y-58979972D01*
X134873528Y-58849738D01*
X134798992Y-58799935D01*
X134910889Y-58753586D01*
X135064028Y-58651262D01*
X135194262Y-58521028D01*
X135296586Y-58367889D01*
X135367068Y-58197729D01*
X135403000Y-58017089D01*
X135403000Y-57832911D01*
X135367068Y-57652271D01*
X135296586Y-57482111D01*
X135257406Y-57423474D01*
X135418889Y-57356586D01*
X135572028Y-57254262D01*
X135702262Y-57124028D01*
X135804586Y-56970889D01*
X135875068Y-56800729D01*
X135911000Y-56620089D01*
X135911000Y-56435911D01*
X135885510Y-56307767D01*
X136209352Y-55660083D01*
X136264729Y-55649068D01*
X136434889Y-55578586D01*
X136588028Y-55476262D01*
X136718262Y-55346028D01*
X136820586Y-55192889D01*
X136891068Y-55022729D01*
X136927000Y-54842089D01*
X136927000Y-54657911D01*
X136891068Y-54477271D01*
X136820586Y-54307111D01*
X136718262Y-54153972D01*
X136588028Y-54023738D01*
X136434889Y-53921414D01*
X136264729Y-53850932D01*
X136084089Y-53815000D01*
X135899911Y-53815000D01*
X135719271Y-53850932D01*
X135549111Y-53921414D01*
X135395972Y-54023738D01*
X135265738Y-54153972D01*
X135163414Y-54307111D01*
X135133302Y-54379808D01*
X135067262Y-54280972D01*
X134937028Y-54150738D01*
X134783889Y-54048414D01*
X134613729Y-53977932D01*
X134496540Y-53954621D01*
X134561177Y-53889985D01*
X134684889Y-53927513D01*
X134903050Y-53949000D01*
X135048950Y-53949000D01*
X135267111Y-53927513D01*
X135547034Y-53842599D01*
X135805014Y-53704706D01*
X136031134Y-53519134D01*
X136216706Y-53293014D01*
X136354599Y-53035034D01*
X136439513Y-52755111D01*
X136468185Y-52464000D01*
X136439513Y-52172889D01*
X136354599Y-51892966D01*
X136216706Y-51634986D01*
X136031134Y-51408866D01*
X135805014Y-51223294D01*
X135547034Y-51085401D01*
X135267111Y-51000487D01*
X135048950Y-50979000D01*
X134903050Y-50979000D01*
X134684889Y-51000487D01*
X134404966Y-51085401D01*
X134146986Y-51223294D01*
X133920866Y-51408866D01*
X133735294Y-51634986D01*
X133706000Y-51689791D01*
X133676706Y-51634986D01*
X133491134Y-51408866D01*
X133265014Y-51223294D01*
X133007034Y-51085401D01*
X132727111Y-51000487D01*
X132508950Y-50979000D01*
X132363050Y-50979000D01*
X132144889Y-51000487D01*
X131864966Y-51085401D01*
X131606986Y-51223294D01*
X131380866Y-51408866D01*
X131195294Y-51634986D01*
X131166000Y-51689791D01*
X131136706Y-51634986D01*
X130951134Y-51408866D01*
X130725014Y-51223294D01*
X130467034Y-51085401D01*
X130187111Y-51000487D01*
X129968950Y-50979000D01*
X129823050Y-50979000D01*
X129604889Y-51000487D01*
X129324966Y-51085401D01*
X129066986Y-51223294D01*
X128840866Y-51408866D01*
X128655294Y-51634986D01*
X128626000Y-51689791D01*
X128596706Y-51634986D01*
X128411134Y-51408866D01*
X128185014Y-51223294D01*
X127927034Y-51085401D01*
X127647111Y-51000487D01*
X127428950Y-50979000D01*
X127283050Y-50979000D01*
X127064889Y-51000487D01*
X126784966Y-51085401D01*
X126526986Y-51223294D01*
X126300866Y-51408866D01*
X126115294Y-51634986D01*
X126086000Y-51689791D01*
X126056706Y-51634986D01*
X125871134Y-51408866D01*
X125645014Y-51223294D01*
X125387034Y-51085401D01*
X125107111Y-51000487D01*
X124888950Y-50979000D01*
X124743050Y-50979000D01*
X124524889Y-51000487D01*
X124244966Y-51085401D01*
X123986986Y-51223294D01*
X123760866Y-51408866D01*
X123575294Y-51634986D01*
X123546000Y-51689791D01*
X123516706Y-51634986D01*
X123331134Y-51408866D01*
X123105014Y-51223294D01*
X122847034Y-51085401D01*
X122567111Y-51000487D01*
X122348950Y-50979000D01*
X122203050Y-50979000D01*
X121984889Y-51000487D01*
X121704966Y-51085401D01*
X121446986Y-51223294D01*
X121220866Y-51408866D01*
X121035294Y-51634986D01*
X121006000Y-51689791D01*
X120976706Y-51634986D01*
X120791134Y-51408866D01*
X120565014Y-51223294D01*
X120307034Y-51085401D01*
X120027111Y-51000487D01*
X119808950Y-50979000D01*
X119663050Y-50979000D01*
X119444889Y-51000487D01*
X119164966Y-51085401D01*
X118906986Y-51223294D01*
X118680866Y-51408866D01*
X118656393Y-51438687D01*
X118635502Y-51369820D01*
X118576537Y-51259506D01*
X118497185Y-51162815D01*
X118400494Y-51083463D01*
X118290180Y-51024498D01*
X118170482Y-50988188D01*
X118046000Y-50975928D01*
X116647233Y-50975928D01*
X117814264Y-49808898D01*
X117896111Y-49863586D01*
X118066271Y-49934068D01*
X118246911Y-49970000D01*
X118431089Y-49970000D01*
X118611729Y-49934068D01*
X118781889Y-49863586D01*
X118935028Y-49761262D01*
X119065262Y-49631028D01*
X119167586Y-49477889D01*
X119238068Y-49307729D01*
X119274000Y-49127089D01*
X119274000Y-48942911D01*
X119271671Y-48931200D01*
X176378000Y-48931200D01*
X176378000Y-56909000D01*
X153645000Y-56909000D01*
X153620224Y-56911440D01*
X153596399Y-56918667D01*
X153574443Y-56930403D01*
X153555197Y-56946197D01*
X153539403Y-56965443D01*
X153527667Y-56987399D01*
X153520440Y-57011224D01*
X153518000Y-57036000D01*
X153518000Y-58052000D01*
X152121000Y-58052000D01*
X152096224Y-58054440D01*
X152072399Y-58061667D01*
X152050443Y-58073403D01*
X152031197Y-58089197D01*
X152015403Y-58108443D01*
X152003667Y-58130399D01*
X151996440Y-58154224D01*
X151994000Y-58179000D01*
X151994000Y-76871910D01*
X151902738Y-76963172D01*
X151800414Y-77116311D01*
X151729932Y-77286471D01*
X151694000Y-77467111D01*
X151694000Y-77651289D01*
X151729932Y-77831929D01*
X151800414Y-78002089D01*
X151902738Y-78155228D01*
X151994000Y-78246490D01*
X151994000Y-85573937D01*
X151881311Y-85620614D01*
X151728172Y-85722938D01*
X151597938Y-85853172D01*
X151495614Y-86006311D01*
X151425132Y-86176471D01*
X151389200Y-86357111D01*
X151389200Y-86541289D01*
X151425132Y-86721929D01*
X151495614Y-86892089D01*
X151597938Y-87045228D01*
X151728172Y-87175462D01*
X151881311Y-87277786D01*
X151994000Y-87324463D01*
X151994000Y-100290314D01*
X151675955Y-100130841D01*
X151308443Y-100029750D01*
X150928271Y-100002299D01*
X150550049Y-100049543D01*
X150188310Y-100169667D01*
X149941317Y-100301688D01*
X149809381Y-100596776D01*
X150979000Y-101766395D01*
X150993143Y-101752253D01*
X151172748Y-101931858D01*
X151158605Y-101946000D01*
X151172748Y-101960143D01*
X150993143Y-102139748D01*
X150979000Y-102125605D01*
X149809381Y-103295224D01*
X149941317Y-103590312D01*
X150282045Y-103761159D01*
X150649557Y-103862250D01*
X151029729Y-103889701D01*
X151407951Y-103842457D01*
X151769690Y-103722333D01*
X151994000Y-103602436D01*
X151994000Y-105931000D01*
X151996440Y-105955776D01*
X152003667Y-105979601D01*
X152015403Y-106001557D01*
X152031197Y-106020803D01*
X152050443Y-106036597D01*
X152072399Y-106048333D01*
X152096224Y-106055560D01*
X152121000Y-106058000D01*
X164821000Y-106058000D01*
X164821000Y-112561200D01*
X111498904Y-112561200D01*
X111016384Y-112513888D01*
X110584473Y-112383487D01*
X110186120Y-112171680D01*
X109836486Y-111886525D01*
X109548903Y-111538897D01*
X109334315Y-111142025D01*
X109200900Y-110711034D01*
X109150400Y-110230546D01*
X109150400Y-109550695D01*
X109980400Y-109550695D01*
X109980400Y-109941705D01*
X110056682Y-110325203D01*
X110206315Y-110686450D01*
X110423549Y-111011564D01*
X110700036Y-111288051D01*
X111025150Y-111505285D01*
X111386397Y-111654918D01*
X111769895Y-111731200D01*
X112160905Y-111731200D01*
X112544403Y-111654918D01*
X112905650Y-111505285D01*
X113230764Y-111288051D01*
X113507251Y-111011564D01*
X113724485Y-110686450D01*
X113874118Y-110325203D01*
X113950400Y-109941705D01*
X113950400Y-109550695D01*
X113892517Y-109259691D01*
X114992519Y-109259691D01*
X115089843Y-109534052D01*
X115238822Y-109784155D01*
X115433731Y-110000388D01*
X115667080Y-110174441D01*
X115929901Y-110299625D01*
X116077110Y-110344276D01*
X116307000Y-110222955D01*
X116307000Y-109029800D01*
X115113186Y-109029800D01*
X114992519Y-109259691D01*
X113892517Y-109259691D01*
X113874118Y-109167197D01*
X113724485Y-108805950D01*
X113550732Y-108545909D01*
X114992519Y-108545909D01*
X115113186Y-108775800D01*
X116307000Y-108775800D01*
X116307000Y-107582645D01*
X116561000Y-107582645D01*
X116561000Y-108775800D01*
X116581000Y-108775800D01*
X116581000Y-109029800D01*
X116561000Y-109029800D01*
X116561000Y-110222955D01*
X116790890Y-110344276D01*
X116938099Y-110299625D01*
X117200920Y-110174441D01*
X117434269Y-110000388D01*
X117629178Y-109784155D01*
X117698799Y-109667277D01*
X117733294Y-109731814D01*
X117918866Y-109957934D01*
X118144986Y-110143506D01*
X118402966Y-110281399D01*
X118682889Y-110366313D01*
X118901050Y-110387800D01*
X119046950Y-110387800D01*
X119265111Y-110366313D01*
X119545034Y-110281399D01*
X119803014Y-110143506D01*
X120029134Y-109957934D01*
X120214706Y-109731814D01*
X120244000Y-109677009D01*
X120273294Y-109731814D01*
X120458866Y-109957934D01*
X120684986Y-110143506D01*
X120942966Y-110281399D01*
X121222889Y-110366313D01*
X121441050Y-110387800D01*
X121586950Y-110387800D01*
X121805111Y-110366313D01*
X122085034Y-110281399D01*
X122343014Y-110143506D01*
X122569134Y-109957934D01*
X122754706Y-109731814D01*
X122784000Y-109677009D01*
X122813294Y-109731814D01*
X122998866Y-109957934D01*
X123224986Y-110143506D01*
X123482966Y-110281399D01*
X123762889Y-110366313D01*
X123981050Y-110387800D01*
X124126950Y-110387800D01*
X124345111Y-110366313D01*
X124625034Y-110281399D01*
X124883014Y-110143506D01*
X125109134Y-109957934D01*
X125294706Y-109731814D01*
X125324000Y-109677009D01*
X125353294Y-109731814D01*
X125538866Y-109957934D01*
X125764986Y-110143506D01*
X126022966Y-110281399D01*
X126302889Y-110366313D01*
X126521050Y-110387800D01*
X126666950Y-110387800D01*
X126885111Y-110366313D01*
X127165034Y-110281399D01*
X127423014Y-110143506D01*
X127649134Y-109957934D01*
X127834706Y-109731814D01*
X127864000Y-109677009D01*
X127893294Y-109731814D01*
X128078866Y-109957934D01*
X128304986Y-110143506D01*
X128562966Y-110281399D01*
X128842889Y-110366313D01*
X129061050Y-110387800D01*
X129206950Y-110387800D01*
X129425111Y-110366313D01*
X129705034Y-110281399D01*
X129963014Y-110143506D01*
X130189134Y-109957934D01*
X130374706Y-109731814D01*
X130404000Y-109677009D01*
X130433294Y-109731814D01*
X130618866Y-109957934D01*
X130844986Y-110143506D01*
X131102966Y-110281399D01*
X131382889Y-110366313D01*
X131601050Y-110387800D01*
X131746950Y-110387800D01*
X131965111Y-110366313D01*
X132245034Y-110281399D01*
X132503014Y-110143506D01*
X132729134Y-109957934D01*
X132914706Y-109731814D01*
X132944000Y-109677009D01*
X132973294Y-109731814D01*
X133158866Y-109957934D01*
X133384986Y-110143506D01*
X133642966Y-110281399D01*
X133922889Y-110366313D01*
X134141050Y-110387800D01*
X134286950Y-110387800D01*
X134505111Y-110366313D01*
X134785034Y-110281399D01*
X135043014Y-110143506D01*
X135269134Y-109957934D01*
X135454706Y-109731814D01*
X135484000Y-109677009D01*
X135513294Y-109731814D01*
X135698866Y-109957934D01*
X135924986Y-110143506D01*
X136182966Y-110281399D01*
X136462889Y-110366313D01*
X136681050Y-110387800D01*
X136826950Y-110387800D01*
X137045111Y-110366313D01*
X137325034Y-110281399D01*
X137583014Y-110143506D01*
X137809134Y-109957934D01*
X137833607Y-109928113D01*
X137854498Y-109996980D01*
X137913463Y-110107294D01*
X137992815Y-110203985D01*
X138089506Y-110283337D01*
X138199820Y-110342302D01*
X138319518Y-110378612D01*
X138444000Y-110390872D01*
X139008250Y-110387800D01*
X139167000Y-110229050D01*
X139167000Y-109029800D01*
X139421000Y-109029800D01*
X139421000Y-110229050D01*
X139579750Y-110387800D01*
X140144000Y-110390872D01*
X140268482Y-110378612D01*
X140388180Y-110342302D01*
X140498494Y-110283337D01*
X140595185Y-110203985D01*
X140674537Y-110107294D01*
X140733502Y-109996980D01*
X140769812Y-109877282D01*
X140782072Y-109752800D01*
X140779000Y-109188550D01*
X140620250Y-109029800D01*
X139421000Y-109029800D01*
X139167000Y-109029800D01*
X139147000Y-109029800D01*
X139147000Y-108775800D01*
X139167000Y-108775800D01*
X139167000Y-107576550D01*
X139421000Y-107576550D01*
X139421000Y-108775800D01*
X140620250Y-108775800D01*
X140779000Y-108617050D01*
X140782072Y-108052800D01*
X140769812Y-107928318D01*
X140733502Y-107808620D01*
X140674537Y-107698306D01*
X140595185Y-107601615D01*
X140498494Y-107522263D01*
X140388180Y-107463298D01*
X140268482Y-107426988D01*
X140144000Y-107414728D01*
X139579750Y-107417800D01*
X139421000Y-107576550D01*
X139167000Y-107576550D01*
X139008250Y-107417800D01*
X138444000Y-107414728D01*
X138319518Y-107426988D01*
X138199820Y-107463298D01*
X138089506Y-107522263D01*
X137992815Y-107601615D01*
X137913463Y-107698306D01*
X137854498Y-107808620D01*
X137833607Y-107877487D01*
X137809134Y-107847666D01*
X137583014Y-107662094D01*
X137325034Y-107524201D01*
X137045111Y-107439287D01*
X136826950Y-107417800D01*
X136681050Y-107417800D01*
X136462889Y-107439287D01*
X136182966Y-107524201D01*
X135924986Y-107662094D01*
X135698866Y-107847666D01*
X135513294Y-108073786D01*
X135484000Y-108128591D01*
X135454706Y-108073786D01*
X135269134Y-107847666D01*
X135043014Y-107662094D01*
X134785034Y-107524201D01*
X134505111Y-107439287D01*
X134286950Y-107417800D01*
X134141050Y-107417800D01*
X133922889Y-107439287D01*
X133642966Y-107524201D01*
X133384986Y-107662094D01*
X133158866Y-107847666D01*
X132973294Y-108073786D01*
X132944000Y-108128591D01*
X132914706Y-108073786D01*
X132729134Y-107847666D01*
X132503014Y-107662094D01*
X132245034Y-107524201D01*
X131965111Y-107439287D01*
X131746950Y-107417800D01*
X131601050Y-107417800D01*
X131382889Y-107439287D01*
X131102966Y-107524201D01*
X130844986Y-107662094D01*
X130618866Y-107847666D01*
X130433294Y-108073786D01*
X130404000Y-108128591D01*
X130374706Y-108073786D01*
X130189134Y-107847666D01*
X129963014Y-107662094D01*
X129705034Y-107524201D01*
X129425111Y-107439287D01*
X129206950Y-107417800D01*
X129061050Y-107417800D01*
X128842889Y-107439287D01*
X128562966Y-107524201D01*
X128304986Y-107662094D01*
X128078866Y-107847666D01*
X127893294Y-108073786D01*
X127864000Y-108128591D01*
X127834706Y-108073786D01*
X127649134Y-107847666D01*
X127423014Y-107662094D01*
X127165034Y-107524201D01*
X126885111Y-107439287D01*
X126666950Y-107417800D01*
X126521050Y-107417800D01*
X126302889Y-107439287D01*
X126022966Y-107524201D01*
X125764986Y-107662094D01*
X125538866Y-107847666D01*
X125353294Y-108073786D01*
X125324000Y-108128591D01*
X125294706Y-108073786D01*
X125109134Y-107847666D01*
X124883014Y-107662094D01*
X124625034Y-107524201D01*
X124345111Y-107439287D01*
X124126950Y-107417800D01*
X123981050Y-107417800D01*
X123762889Y-107439287D01*
X123482966Y-107524201D01*
X123224986Y-107662094D01*
X122998866Y-107847666D01*
X122813294Y-108073786D01*
X122784000Y-108128591D01*
X122754706Y-108073786D01*
X122569134Y-107847666D01*
X122343014Y-107662094D01*
X122085034Y-107524201D01*
X121805111Y-107439287D01*
X121586950Y-107417800D01*
X121441050Y-107417800D01*
X121222889Y-107439287D01*
X120942966Y-107524201D01*
X120684986Y-107662094D01*
X120458866Y-107847666D01*
X120273294Y-108073786D01*
X120244000Y-108128591D01*
X120214706Y-108073786D01*
X120029134Y-107847666D01*
X119803014Y-107662094D01*
X119545034Y-107524201D01*
X119265111Y-107439287D01*
X119046950Y-107417800D01*
X118901050Y-107417800D01*
X118682889Y-107439287D01*
X118402966Y-107524201D01*
X118144986Y-107662094D01*
X117918866Y-107847666D01*
X117733294Y-108073786D01*
X117698799Y-108138323D01*
X117629178Y-108021445D01*
X117434269Y-107805212D01*
X117200920Y-107631159D01*
X116938099Y-107505975D01*
X116790890Y-107461324D01*
X116561000Y-107582645D01*
X116307000Y-107582645D01*
X116077110Y-107461324D01*
X115929901Y-107505975D01*
X115667080Y-107631159D01*
X115433731Y-107805212D01*
X115238822Y-108021445D01*
X115089843Y-108271548D01*
X114992519Y-108545909D01*
X113550732Y-108545909D01*
X113507251Y-108480836D01*
X113230764Y-108204349D01*
X112905650Y-107987115D01*
X112544403Y-107837482D01*
X112160905Y-107761200D01*
X111769895Y-107761200D01*
X111386397Y-107837482D01*
X111025150Y-107987115D01*
X110700036Y-108204349D01*
X110423549Y-108480836D01*
X110206315Y-108805950D01*
X110056682Y-109167197D01*
X109980400Y-109550695D01*
X109150400Y-109550695D01*
X109150400Y-105252948D01*
X109213401Y-105460634D01*
X109351294Y-105718614D01*
X109536866Y-105944734D01*
X109762986Y-106130306D01*
X110020966Y-106268199D01*
X110300889Y-106353113D01*
X110519050Y-106374600D01*
X110664950Y-106374600D01*
X110883111Y-106353113D01*
X111163034Y-106268199D01*
X111421014Y-106130306D01*
X111647134Y-105944734D01*
X111671607Y-105914913D01*
X111692498Y-105983780D01*
X111751463Y-106094094D01*
X111830815Y-106190785D01*
X111927506Y-106270137D01*
X112037820Y-106329102D01*
X112157518Y-106365412D01*
X112282000Y-106377672D01*
X113982000Y-106377672D01*
X114106482Y-106365412D01*
X114226180Y-106329102D01*
X114289560Y-106295224D01*
X145109381Y-106295224D01*
X145241317Y-106590312D01*
X145582045Y-106761159D01*
X145949557Y-106862250D01*
X146329729Y-106889701D01*
X146707951Y-106842457D01*
X147069690Y-106722333D01*
X147316683Y-106590312D01*
X147448619Y-106295224D01*
X146279000Y-105125605D01*
X145109381Y-106295224D01*
X114289560Y-106295224D01*
X114336494Y-106270137D01*
X114433185Y-106190785D01*
X114512537Y-106094094D01*
X114571502Y-105983780D01*
X114607812Y-105864082D01*
X114620072Y-105739600D01*
X114620072Y-104039600D01*
X114607812Y-103915118D01*
X114571502Y-103795420D01*
X114512537Y-103685106D01*
X114433185Y-103588415D01*
X114336494Y-103509063D01*
X114226180Y-103450098D01*
X114157313Y-103429207D01*
X114187134Y-103404734D01*
X114372706Y-103178614D01*
X114433648Y-103064600D01*
X115357490Y-103064600D01*
X115392600Y-103068058D01*
X115427710Y-103064600D01*
X118957239Y-103064600D01*
X119503600Y-103610962D01*
X119503601Y-103952109D01*
X119492338Y-103963372D01*
X119390014Y-104116511D01*
X119319532Y-104286671D01*
X119283600Y-104467311D01*
X119283600Y-104651489D01*
X119319532Y-104832129D01*
X119390014Y-105002289D01*
X119492338Y-105155428D01*
X119622572Y-105285662D01*
X119775711Y-105387986D01*
X119945871Y-105458468D01*
X120126511Y-105494400D01*
X120310689Y-105494400D01*
X120491329Y-105458468D01*
X120661489Y-105387986D01*
X120814628Y-105285662D01*
X120944862Y-105155428D01*
X121047186Y-105002289D01*
X121117668Y-104832129D01*
X121153600Y-104651489D01*
X121153600Y-104467311D01*
X121117668Y-104286671D01*
X121047186Y-104116511D01*
X120944862Y-103963372D01*
X120933600Y-103952110D01*
X120933600Y-103349910D01*
X120937058Y-103314800D01*
X120933600Y-103279690D01*
X120933600Y-103279680D01*
X120923254Y-103174636D01*
X120882370Y-103039858D01*
X120815977Y-102915646D01*
X120778381Y-102869836D01*
X120749014Y-102834052D01*
X120749012Y-102834050D01*
X120726626Y-102806773D01*
X120699350Y-102784388D01*
X119783820Y-101868859D01*
X119761427Y-101841573D01*
X119652554Y-101752223D01*
X119528342Y-101685830D01*
X119393564Y-101644946D01*
X119288520Y-101634600D01*
X119288510Y-101634600D01*
X119253400Y-101631142D01*
X119218290Y-101634600D01*
X117118762Y-101634600D01*
X118262763Y-100490600D01*
X118278689Y-100490600D01*
X118459329Y-100454668D01*
X118629489Y-100384186D01*
X118782628Y-100281862D01*
X118912862Y-100151628D01*
X119015186Y-99998489D01*
X119085668Y-99828329D01*
X119121600Y-99647689D01*
X119121600Y-99463511D01*
X119091617Y-99312778D01*
X123319252Y-103540415D01*
X123319262Y-103540423D01*
X123783050Y-104004212D01*
X123708014Y-104116511D01*
X123637532Y-104286671D01*
X123601600Y-104467311D01*
X123601600Y-104651489D01*
X123637532Y-104832129D01*
X123708014Y-105002289D01*
X123810338Y-105155428D01*
X123940572Y-105285662D01*
X124093711Y-105387986D01*
X124263871Y-105458468D01*
X124329392Y-105471501D01*
X124348732Y-105568729D01*
X124419214Y-105738889D01*
X124521538Y-105892028D01*
X124651772Y-106022262D01*
X124804911Y-106124586D01*
X124975071Y-106195068D01*
X125155711Y-106231000D01*
X125339889Y-106231000D01*
X125520529Y-106195068D01*
X125690689Y-106124586D01*
X125843828Y-106022262D01*
X125974062Y-105892028D01*
X126076386Y-105738889D01*
X126146868Y-105568729D01*
X126182800Y-105388089D01*
X126182800Y-105203911D01*
X126146868Y-105023271D01*
X126135875Y-104996729D01*
X144335299Y-104996729D01*
X144382543Y-105374951D01*
X144502667Y-105736690D01*
X144634688Y-105983683D01*
X144929776Y-106115619D01*
X146099395Y-104946000D01*
X146458605Y-104946000D01*
X147628224Y-106115619D01*
X147923312Y-105983683D01*
X148094159Y-105642955D01*
X148195250Y-105275443D01*
X148222701Y-104895271D01*
X148175457Y-104517049D01*
X148055333Y-104155310D01*
X147923312Y-103908317D01*
X147628224Y-103776381D01*
X146458605Y-104946000D01*
X146099395Y-104946000D01*
X144929776Y-103776381D01*
X144634688Y-103908317D01*
X144463841Y-104249045D01*
X144362750Y-104616557D01*
X144335299Y-104996729D01*
X126135875Y-104996729D01*
X126076386Y-104853111D01*
X126062393Y-104832169D01*
X126585362Y-104309200D01*
X129110910Y-104309200D01*
X129122172Y-104320462D01*
X129275311Y-104422786D01*
X129445471Y-104493268D01*
X129626111Y-104529200D01*
X129810289Y-104529200D01*
X129990929Y-104493268D01*
X130161089Y-104422786D01*
X130314228Y-104320462D01*
X130444462Y-104190228D01*
X130546786Y-104037089D01*
X130617268Y-103866929D01*
X130653200Y-103686289D01*
X130653200Y-103596776D01*
X145109381Y-103596776D01*
X146279000Y-104766395D01*
X147448619Y-103596776D01*
X147316683Y-103301688D01*
X146975955Y-103130841D01*
X146608443Y-103029750D01*
X146228271Y-103002299D01*
X145850049Y-103049543D01*
X145488310Y-103169667D01*
X145241317Y-103301688D01*
X145109381Y-103596776D01*
X130653200Y-103596776D01*
X130653200Y-103502111D01*
X130635809Y-103414681D01*
X130647662Y-103402828D01*
X130703941Y-103318600D01*
X132895510Y-103318600D01*
X132906772Y-103329862D01*
X133059911Y-103432186D01*
X133230071Y-103502668D01*
X133410711Y-103538600D01*
X133594889Y-103538600D01*
X133775529Y-103502668D01*
X133945689Y-103432186D01*
X134087722Y-103337283D01*
X134119071Y-103350268D01*
X134299711Y-103386200D01*
X134483889Y-103386200D01*
X134664529Y-103350268D01*
X134834689Y-103279786D01*
X134925762Y-103218933D01*
X135058871Y-103274068D01*
X135239511Y-103310000D01*
X135423689Y-103310000D01*
X135604329Y-103274068D01*
X135774489Y-103203586D01*
X135927628Y-103101262D01*
X136057862Y-102971028D01*
X136160186Y-102817889D01*
X136230668Y-102647729D01*
X136266600Y-102467089D01*
X136266600Y-102282911D01*
X136230668Y-102102271D01*
X136186952Y-101996729D01*
X149035299Y-101996729D01*
X149082543Y-102374951D01*
X149202667Y-102736690D01*
X149334688Y-102983683D01*
X149629776Y-103115619D01*
X150799395Y-101946000D01*
X149629776Y-100776381D01*
X149334688Y-100908317D01*
X149163841Y-101249045D01*
X149062750Y-101616557D01*
X149035299Y-101996729D01*
X136186952Y-101996729D01*
X136160186Y-101932111D01*
X136057862Y-101778972D01*
X135927628Y-101648738D01*
X135774489Y-101546414D01*
X135604329Y-101475932D01*
X135423689Y-101440000D01*
X135407762Y-101440000D01*
X134693620Y-100725859D01*
X134671227Y-100698573D01*
X134562354Y-100609223D01*
X134438142Y-100542830D01*
X134303364Y-100501946D01*
X134198320Y-100491600D01*
X134198310Y-100491600D01*
X134163200Y-100488142D01*
X134128090Y-100491600D01*
X131411846Y-100491600D01*
X131376736Y-100488142D01*
X131341626Y-100491600D01*
X131341616Y-100491600D01*
X131236572Y-100501946D01*
X131101794Y-100542830D01*
X130977582Y-100609223D01*
X130868709Y-100698573D01*
X130846319Y-100725855D01*
X130507454Y-101064721D01*
X130480174Y-101087109D01*
X130416807Y-101164321D01*
X130371929Y-101145732D01*
X130191289Y-101109800D01*
X130007111Y-101109800D01*
X129826471Y-101145732D01*
X129656311Y-101216214D01*
X129503172Y-101318538D01*
X129372938Y-101448772D01*
X129270614Y-101601911D01*
X129200132Y-101772071D01*
X129164200Y-101952711D01*
X129164200Y-102091800D01*
X126324309Y-102091800D01*
X126289199Y-102088342D01*
X126254089Y-102091800D01*
X126254080Y-102091800D01*
X126149036Y-102102146D01*
X126014258Y-102143030D01*
X125890046Y-102209423D01*
X125781173Y-102298773D01*
X125758784Y-102326054D01*
X125198858Y-102885981D01*
X125198853Y-102885985D01*
X125140971Y-102943868D01*
X125135363Y-102949476D01*
X125135352Y-102949485D01*
X124942999Y-103141838D01*
X124889224Y-103088063D01*
X124889215Y-103088052D01*
X124330423Y-102529262D01*
X124330415Y-102529252D01*
X119839421Y-98038260D01*
X119817028Y-98010974D01*
X119708155Y-97921624D01*
X119583943Y-97855231D01*
X119449165Y-97814347D01*
X119344121Y-97804001D01*
X119344111Y-97804001D01*
X119309001Y-97800543D01*
X119273891Y-97804001D01*
X117785111Y-97804001D01*
X117749999Y-97800543D01*
X117714887Y-97804001D01*
X117714879Y-97804001D01*
X117621947Y-97813154D01*
X117609834Y-97814347D01*
X117568950Y-97826749D01*
X117475057Y-97855231D01*
X117421234Y-97884000D01*
X117357911Y-97884000D01*
X117177271Y-97919932D01*
X117007111Y-97990414D01*
X116853972Y-98092738D01*
X116723738Y-98222972D01*
X116621414Y-98376111D01*
X116550932Y-98546271D01*
X116515000Y-98726911D01*
X116515000Y-98911089D01*
X116550932Y-99091729D01*
X116621414Y-99261889D01*
X116723738Y-99415028D01*
X116853972Y-99545262D01*
X117007111Y-99647586D01*
X117061092Y-99669945D01*
X115096439Y-101634600D01*
X114433648Y-101634600D01*
X114372706Y-101520586D01*
X114187134Y-101294466D01*
X113961014Y-101108894D01*
X113906209Y-101079600D01*
X113961014Y-101050306D01*
X114187134Y-100864734D01*
X114372706Y-100638614D01*
X114510599Y-100380634D01*
X114595513Y-100100711D01*
X114624185Y-99809600D01*
X114595513Y-99518489D01*
X114510599Y-99238566D01*
X114372706Y-98980586D01*
X114187134Y-98754466D01*
X113961014Y-98568894D01*
X113906209Y-98539600D01*
X113961014Y-98510306D01*
X114187134Y-98324734D01*
X114372706Y-98098614D01*
X114510599Y-97840634D01*
X114569640Y-97646000D01*
X144340928Y-97646000D01*
X144340928Y-100246000D01*
X144353188Y-100370482D01*
X144389498Y-100490180D01*
X144448463Y-100600494D01*
X144527815Y-100697185D01*
X144624506Y-100776537D01*
X144734820Y-100835502D01*
X144854518Y-100871812D01*
X144979000Y-100884072D01*
X147579000Y-100884072D01*
X147703482Y-100871812D01*
X147823180Y-100835502D01*
X147933494Y-100776537D01*
X148030185Y-100697185D01*
X148109537Y-100600494D01*
X148168502Y-100490180D01*
X148204812Y-100370482D01*
X148217072Y-100246000D01*
X148217072Y-97646000D01*
X148204812Y-97521518D01*
X148168502Y-97401820D01*
X148109537Y-97291506D01*
X148030185Y-97194815D01*
X147933494Y-97115463D01*
X147823180Y-97056498D01*
X147703482Y-97020188D01*
X147579000Y-97007928D01*
X144979000Y-97007928D01*
X144854518Y-97020188D01*
X144734820Y-97056498D01*
X144624506Y-97115463D01*
X144527815Y-97194815D01*
X144448463Y-97291506D01*
X144389498Y-97401820D01*
X144353188Y-97521518D01*
X144340928Y-97646000D01*
X114569640Y-97646000D01*
X114595513Y-97560711D01*
X114624185Y-97269600D01*
X114595513Y-96978489D01*
X114510599Y-96698566D01*
X114372706Y-96440586D01*
X114187134Y-96214466D01*
X113961014Y-96028894D01*
X113896477Y-95994399D01*
X114013355Y-95924778D01*
X114229588Y-95729869D01*
X114403641Y-95496520D01*
X114528825Y-95233699D01*
X114573476Y-95086490D01*
X114452155Y-94856600D01*
X113259000Y-94856600D01*
X113259000Y-94876600D01*
X113005000Y-94876600D01*
X113005000Y-94856600D01*
X112985000Y-94856600D01*
X112985000Y-94602600D01*
X113005000Y-94602600D01*
X113005000Y-94582600D01*
X113259000Y-94582600D01*
X113259000Y-94602600D01*
X114452155Y-94602600D01*
X114573476Y-94372710D01*
X114528825Y-94225501D01*
X114403641Y-93962680D01*
X114229588Y-93729331D01*
X114013355Y-93534422D01*
X113896477Y-93464801D01*
X113961014Y-93430306D01*
X114187134Y-93244734D01*
X114372706Y-93018614D01*
X114510599Y-92760634D01*
X114595513Y-92480711D01*
X114624185Y-92189600D01*
X114595513Y-91898489D01*
X114510599Y-91618566D01*
X114372706Y-91360586D01*
X114187134Y-91134466D01*
X113961014Y-90948894D01*
X113906209Y-90919600D01*
X113961014Y-90890306D01*
X114187134Y-90704734D01*
X114372706Y-90478614D01*
X114510599Y-90220634D01*
X114595513Y-89940711D01*
X114624185Y-89649600D01*
X114595513Y-89358489D01*
X114510599Y-89078566D01*
X114372706Y-88820586D01*
X114187134Y-88594466D01*
X113961014Y-88408894D01*
X113906209Y-88379600D01*
X113961014Y-88350306D01*
X114187134Y-88164734D01*
X114372706Y-87938614D01*
X114510599Y-87680634D01*
X114595513Y-87400711D01*
X114624185Y-87109600D01*
X114595513Y-86818489D01*
X114594287Y-86814448D01*
X116981774Y-89201936D01*
X116977738Y-89205972D01*
X116875414Y-89359111D01*
X116804932Y-89529271D01*
X116769000Y-89709911D01*
X116769000Y-89894089D01*
X116804932Y-90074729D01*
X116875414Y-90244889D01*
X116977738Y-90398028D01*
X117107972Y-90528262D01*
X117261111Y-90630586D01*
X117431271Y-90701068D01*
X117611911Y-90737000D01*
X117796089Y-90737000D01*
X117976729Y-90701068D01*
X118146889Y-90630586D01*
X118300028Y-90528262D01*
X118430262Y-90398028D01*
X118532586Y-90244889D01*
X118603068Y-90074729D01*
X118639000Y-89894089D01*
X118639000Y-89709911D01*
X118603068Y-89529271D01*
X118532586Y-89359111D01*
X118430262Y-89205972D01*
X118419000Y-89194710D01*
X118419000Y-88948110D01*
X118422458Y-88913000D01*
X118419000Y-88877890D01*
X118419000Y-88877880D01*
X118408654Y-88772836D01*
X118367770Y-88638058D01*
X118301377Y-88513846D01*
X118212027Y-88404973D01*
X118184746Y-88382584D01*
X115186420Y-85384259D01*
X115164027Y-85356973D01*
X115134682Y-85332890D01*
X115138600Y-85333276D01*
X115175922Y-85329600D01*
X115175933Y-85329600D01*
X115287586Y-85318603D01*
X115430847Y-85275146D01*
X115562876Y-85204574D01*
X115678601Y-85109601D01*
X115702403Y-85080598D01*
X116026849Y-84756153D01*
X116147929Y-84732068D01*
X116318089Y-84661586D01*
X116471228Y-84559262D01*
X116601462Y-84429028D01*
X116703786Y-84275889D01*
X116774268Y-84105729D01*
X116810200Y-83925089D01*
X116810200Y-83740911D01*
X116774268Y-83560271D01*
X116703786Y-83390111D01*
X116601462Y-83236972D01*
X116471228Y-83106738D01*
X116318089Y-83004414D01*
X116147929Y-82933932D01*
X115967289Y-82898000D01*
X115783111Y-82898000D01*
X115602471Y-82933932D01*
X115432311Y-83004414D01*
X115279172Y-83106738D01*
X115148938Y-83236972D01*
X115046614Y-83390111D01*
X114976132Y-83560271D01*
X114952047Y-83681351D01*
X114823799Y-83809600D01*
X114409595Y-83809600D01*
X114372706Y-83740586D01*
X114187134Y-83514466D01*
X113961014Y-83328894D01*
X113906209Y-83299600D01*
X113961014Y-83270306D01*
X114187134Y-83084734D01*
X114372706Y-82858614D01*
X114510599Y-82600634D01*
X114595513Y-82320711D01*
X114624185Y-82029600D01*
X114595513Y-81738489D01*
X114510599Y-81458566D01*
X114372706Y-81200586D01*
X114187134Y-80974466D01*
X113961014Y-80788894D01*
X113906209Y-80759600D01*
X113961014Y-80730306D01*
X114187134Y-80544734D01*
X114372706Y-80318614D01*
X114510599Y-80060634D01*
X114595513Y-79780711D01*
X114624185Y-79489600D01*
X114595513Y-79198489D01*
X114510599Y-78918566D01*
X114372706Y-78660586D01*
X114187134Y-78434466D01*
X113961014Y-78248894D01*
X113906209Y-78219600D01*
X113961014Y-78190306D01*
X114187134Y-78004734D01*
X114372706Y-77778614D01*
X114510599Y-77520634D01*
X114595513Y-77240711D01*
X114624185Y-76949600D01*
X114595513Y-76658489D01*
X114510599Y-76378566D01*
X114372706Y-76120586D01*
X114187134Y-75894466D01*
X113961014Y-75708894D01*
X113896477Y-75674399D01*
X114013355Y-75604778D01*
X114229588Y-75409869D01*
X114403641Y-75176520D01*
X114528825Y-74913699D01*
X114573476Y-74766490D01*
X114452155Y-74536600D01*
X113259000Y-74536600D01*
X113259000Y-74556600D01*
X113005000Y-74556600D01*
X113005000Y-74536600D01*
X112985000Y-74536600D01*
X112985000Y-74282600D01*
X113005000Y-74282600D01*
X113005000Y-74262600D01*
X113259000Y-74262600D01*
X113259000Y-74282600D01*
X114452155Y-74282600D01*
X114573476Y-74052710D01*
X114528825Y-73905501D01*
X114403641Y-73642680D01*
X114229588Y-73409331D01*
X114013355Y-73214422D01*
X113896477Y-73144801D01*
X113961014Y-73110306D01*
X114187134Y-72924734D01*
X114372706Y-72698614D01*
X114510599Y-72440634D01*
X114595513Y-72160711D01*
X114624185Y-71869600D01*
X114595513Y-71578489D01*
X114510599Y-71298566D01*
X114372706Y-71040586D01*
X114187134Y-70814466D01*
X113961014Y-70628894D01*
X113906209Y-70599600D01*
X113961014Y-70570306D01*
X114187134Y-70384734D01*
X114372706Y-70158614D01*
X114510599Y-69900634D01*
X114595513Y-69620711D01*
X114624185Y-69329600D01*
X114595513Y-69038489D01*
X114510599Y-68758566D01*
X114399611Y-68550921D01*
X115688025Y-69690610D01*
X115715405Y-69828256D01*
X115785887Y-69998416D01*
X115888211Y-70151555D01*
X116018445Y-70281789D01*
X116171584Y-70384113D01*
X116341744Y-70454595D01*
X116522384Y-70490527D01*
X116706562Y-70490527D01*
X116887202Y-70454595D01*
X117057362Y-70384113D01*
X117210501Y-70281789D01*
X117340735Y-70151555D01*
X117443059Y-69998416D01*
X117513541Y-69828256D01*
X117549473Y-69647616D01*
X117549473Y-69463438D01*
X117513541Y-69282798D01*
X117443059Y-69112638D01*
X117340735Y-68959499D01*
X117210501Y-68829265D01*
X117057362Y-68726941D01*
X116887202Y-68656459D01*
X116706562Y-68620527D01*
X116636616Y-68620527D01*
X114619583Y-66836327D01*
X114624185Y-66789600D01*
X114595513Y-66498489D01*
X114592662Y-66489090D01*
X114637271Y-66507568D01*
X114817911Y-66543500D01*
X115002089Y-66543500D01*
X115182729Y-66507568D01*
X115352889Y-66437086D01*
X115506028Y-66334762D01*
X115550804Y-66289986D01*
X115609206Y-66272270D01*
X115632161Y-66260000D01*
X126557159Y-66260000D01*
X126316249Y-66388769D01*
X126067287Y-66593086D01*
X125862970Y-66842048D01*
X125711149Y-67126085D01*
X125617658Y-67434284D01*
X125594001Y-67674478D01*
X125594001Y-75354684D01*
X125553625Y-75318046D01*
X125507155Y-75271576D01*
X125489172Y-75259560D01*
X125473164Y-75245034D01*
X125416850Y-75211236D01*
X125362205Y-75174723D01*
X125342221Y-75166445D01*
X125323689Y-75155323D01*
X125261861Y-75133159D01*
X125201145Y-75108010D01*
X125179936Y-75103791D01*
X125159585Y-75096496D01*
X125094616Y-75086820D01*
X125030165Y-75074000D01*
X125008535Y-75074000D01*
X124987156Y-75070816D01*
X124921553Y-75074000D01*
X124855835Y-75074000D01*
X124834625Y-75078219D01*
X124813032Y-75079267D01*
X124749303Y-75095191D01*
X124684855Y-75108010D01*
X124664875Y-75116286D01*
X124643903Y-75121526D01*
X124584510Y-75149574D01*
X124523795Y-75174723D01*
X124505812Y-75186739D01*
X124486267Y-75195969D01*
X124433489Y-75235064D01*
X124378845Y-75271576D01*
X124363552Y-75286869D01*
X124346183Y-75299735D01*
X124302046Y-75348375D01*
X124255576Y-75394845D01*
X124243560Y-75412828D01*
X124229034Y-75428836D01*
X124195236Y-75485150D01*
X124158723Y-75539795D01*
X124150445Y-75559779D01*
X124139323Y-75578311D01*
X124117159Y-75640139D01*
X124092010Y-75700855D01*
X124087791Y-75722064D01*
X124080496Y-75742415D01*
X124070820Y-75807384D01*
X124058000Y-75871835D01*
X124058000Y-75893465D01*
X124054816Y-75914844D01*
X124058000Y-75980447D01*
X124058000Y-76046165D01*
X124062219Y-76067375D01*
X124063267Y-76088968D01*
X124079190Y-76152696D01*
X124092010Y-76217145D01*
X124116959Y-76277378D01*
X124693000Y-77890292D01*
X124693001Y-83789550D01*
X124552489Y-83761600D01*
X124368311Y-83761600D01*
X124187671Y-83797532D01*
X124017511Y-83868014D01*
X123864372Y-83970338D01*
X123734138Y-84100572D01*
X123631814Y-84253711D01*
X123561332Y-84423871D01*
X123525400Y-84604511D01*
X123525400Y-84788689D01*
X123561332Y-84969329D01*
X123631814Y-85139489D01*
X123734138Y-85292628D01*
X123745401Y-85303891D01*
X123745401Y-85571051D01*
X123587289Y-85539600D01*
X123403111Y-85539600D01*
X123222471Y-85575532D01*
X123052311Y-85646014D01*
X122899172Y-85748338D01*
X122768938Y-85878572D01*
X122666614Y-86031711D01*
X122596132Y-86201871D01*
X122586264Y-86251479D01*
X122548729Y-86235932D01*
X122368089Y-86200000D01*
X122183911Y-86200000D01*
X122003271Y-86235932D01*
X121833111Y-86306414D01*
X121679972Y-86408738D01*
X121668710Y-86420000D01*
X120343290Y-86420000D01*
X120332028Y-86408738D01*
X120178889Y-86306414D01*
X120008729Y-86235932D01*
X119828089Y-86200000D01*
X119643911Y-86200000D01*
X119463271Y-86235932D01*
X119293111Y-86306414D01*
X119139972Y-86408738D01*
X119009738Y-86538972D01*
X118907414Y-86692111D01*
X118836932Y-86862271D01*
X118801000Y-87042911D01*
X118801000Y-87227089D01*
X118836932Y-87407729D01*
X118907414Y-87577889D01*
X119009738Y-87731028D01*
X119139972Y-87861262D01*
X119293111Y-87963586D01*
X119463271Y-88034068D01*
X119643911Y-88070000D01*
X119828089Y-88070000D01*
X120008729Y-88034068D01*
X120178889Y-87963586D01*
X120332028Y-87861262D01*
X120343290Y-87850000D01*
X121668710Y-87850000D01*
X121679972Y-87861262D01*
X121833111Y-87963586D01*
X122003271Y-88034068D01*
X122063531Y-88046055D01*
X122088132Y-88169729D01*
X122158614Y-88339889D01*
X122260938Y-88493028D01*
X122391172Y-88623262D01*
X122544311Y-88725586D01*
X122714471Y-88796068D01*
X122895111Y-88832000D01*
X123079289Y-88832000D01*
X123259929Y-88796068D01*
X123430089Y-88725586D01*
X123492916Y-88683606D01*
X123559572Y-88750262D01*
X123712711Y-88852586D01*
X123882871Y-88923068D01*
X124063511Y-88959000D01*
X124247689Y-88959000D01*
X124428329Y-88923068D01*
X124598489Y-88852586D01*
X124751628Y-88750262D01*
X124866800Y-88635090D01*
X124981972Y-88750262D01*
X125135111Y-88852586D01*
X125305271Y-88923068D01*
X125425690Y-88947021D01*
X125304748Y-89173286D01*
X125211258Y-89481484D01*
X125179689Y-89802000D01*
X125211258Y-90122516D01*
X125304748Y-90430714D01*
X125456570Y-90714752D01*
X125660887Y-90963713D01*
X125909848Y-91168030D01*
X126193886Y-91319852D01*
X126502084Y-91413342D01*
X126822600Y-91444911D01*
X127143116Y-91413342D01*
X127451314Y-91319852D01*
X127735352Y-91168030D01*
X127921923Y-91014915D01*
X128328314Y-90608524D01*
X128390714Y-90557314D01*
X128595031Y-90308352D01*
X128746852Y-90024315D01*
X128840343Y-89716116D01*
X128864000Y-89475922D01*
X128864000Y-89475920D01*
X128871911Y-89395601D01*
X128864000Y-89315281D01*
X128864000Y-85854035D01*
X136478600Y-85854035D01*
X136478600Y-86028365D01*
X136512610Y-86199345D01*
X136579323Y-86360405D01*
X136676176Y-86505355D01*
X136799445Y-86628624D01*
X136944395Y-86725477D01*
X137105455Y-86792190D01*
X137276435Y-86826200D01*
X137450765Y-86826200D01*
X137621745Y-86792190D01*
X137782805Y-86725477D01*
X137927755Y-86628624D01*
X138051024Y-86505355D01*
X138147877Y-86360405D01*
X138214590Y-86199345D01*
X138238917Y-86077045D01*
X138682551Y-85633412D01*
X138709827Y-85611027D01*
X138732211Y-85583752D01*
X138732215Y-85583748D01*
X138799176Y-85502155D01*
X138814806Y-85472914D01*
X138865570Y-85377942D01*
X138906454Y-85243164D01*
X138916800Y-85138120D01*
X138916800Y-85138110D01*
X138920258Y-85103000D01*
X138916800Y-85067890D01*
X138916800Y-82529795D01*
X139021271Y-82573068D01*
X139201911Y-82609000D01*
X139386089Y-82609000D01*
X139566729Y-82573068D01*
X139736889Y-82502586D01*
X139890028Y-82400262D01*
X140020262Y-82270028D01*
X140097121Y-82155000D01*
X140489049Y-82155000D01*
X140629111Y-82248586D01*
X140799271Y-82319068D01*
X140979911Y-82355000D01*
X141164089Y-82355000D01*
X141344729Y-82319068D01*
X141514889Y-82248586D01*
X141668028Y-82146262D01*
X141798262Y-82016028D01*
X141900586Y-81862889D01*
X141971068Y-81692729D01*
X142007000Y-81512089D01*
X142007000Y-81327911D01*
X141971068Y-81147271D01*
X141900586Y-80977111D01*
X141798262Y-80823972D01*
X141668028Y-80693738D01*
X141514889Y-80591414D01*
X141344729Y-80520932D01*
X141164089Y-80485000D01*
X140979911Y-80485000D01*
X140799271Y-80520932D01*
X140763200Y-80535873D01*
X140763200Y-80367635D01*
X140729190Y-80196655D01*
X140662477Y-80035595D01*
X140565624Y-79890645D01*
X140442355Y-79767376D01*
X140297405Y-79670523D01*
X140136345Y-79603810D01*
X139965365Y-79569800D01*
X139791035Y-79569800D01*
X139620055Y-79603810D01*
X139458995Y-79670523D01*
X139355315Y-79739800D01*
X138948112Y-79739800D01*
X138913000Y-79736342D01*
X138877888Y-79739800D01*
X138877880Y-79739800D01*
X138784948Y-79748953D01*
X138772835Y-79750146D01*
X138731951Y-79762548D01*
X138638058Y-79791030D01*
X138513846Y-79857423D01*
X138496066Y-79872015D01*
X138432252Y-79924385D01*
X138432248Y-79924389D01*
X138404973Y-79946773D01*
X138382588Y-79974049D01*
X138065955Y-80290683D01*
X137943655Y-80315010D01*
X137782595Y-80381723D01*
X137637645Y-80478576D01*
X137514376Y-80601845D01*
X137417523Y-80746795D01*
X137350810Y-80907855D01*
X137316800Y-81078835D01*
X137316800Y-81253165D01*
X137350810Y-81424145D01*
X137417523Y-81585205D01*
X137486800Y-81688885D01*
X137486801Y-84806837D01*
X137227755Y-85065883D01*
X137105455Y-85090210D01*
X136944395Y-85156923D01*
X136799445Y-85253776D01*
X136676176Y-85377045D01*
X136579323Y-85521995D01*
X136512610Y-85683055D01*
X136478600Y-85854035D01*
X128864000Y-85854035D01*
X128864000Y-67674478D01*
X128840343Y-67434284D01*
X128746852Y-67126085D01*
X128735000Y-67103911D01*
X138613000Y-67103911D01*
X138613000Y-67288089D01*
X138648932Y-67468729D01*
X138719414Y-67638889D01*
X138821738Y-67792028D01*
X138951972Y-67922262D01*
X139105111Y-68024586D01*
X139275271Y-68095068D01*
X139455911Y-68131000D01*
X139640089Y-68131000D01*
X139820729Y-68095068D01*
X139990889Y-68024586D01*
X140144028Y-67922262D01*
X140155290Y-67911000D01*
X143449890Y-67911000D01*
X143485000Y-67914458D01*
X143520110Y-67911000D01*
X143520120Y-67911000D01*
X143625164Y-67900654D01*
X143759942Y-67859770D01*
X143884154Y-67793377D01*
X143993027Y-67704027D01*
X144015420Y-67676741D01*
X145011323Y-66680839D01*
X145054973Y-66734026D01*
X145082254Y-66756415D01*
X146764584Y-68438746D01*
X146786973Y-68466027D01*
X146895846Y-68555377D01*
X147004015Y-68613195D01*
X147017733Y-68620527D01*
X147020058Y-68621770D01*
X147154836Y-68662654D01*
X147259880Y-68673000D01*
X147259889Y-68673000D01*
X147294999Y-68676458D01*
X147323373Y-68673663D01*
X147333972Y-68684262D01*
X147487111Y-68786586D01*
X147657271Y-68857068D01*
X147837911Y-68893000D01*
X148022089Y-68893000D01*
X148202729Y-68857068D01*
X148372889Y-68786586D01*
X148526028Y-68684262D01*
X148656262Y-68554028D01*
X148758586Y-68400889D01*
X148829068Y-68230729D01*
X148865000Y-68050089D01*
X148865000Y-67865911D01*
X148829068Y-67685271D01*
X148758586Y-67515111D01*
X148656262Y-67361972D01*
X148526028Y-67231738D01*
X148372889Y-67129414D01*
X148202729Y-67058932D01*
X148022089Y-67023000D01*
X147837911Y-67023000D01*
X147657271Y-67058932D01*
X147487111Y-67129414D01*
X147481395Y-67133233D01*
X146277999Y-65929838D01*
X146277999Y-65753111D01*
X146281457Y-65717999D01*
X146277999Y-65682887D01*
X146277999Y-65682879D01*
X146268846Y-65589947D01*
X146267653Y-65577834D01*
X146246330Y-65507541D01*
X146226769Y-65443057D01*
X146198000Y-65389234D01*
X146198000Y-65325911D01*
X146162068Y-65145271D01*
X146091586Y-64975111D01*
X145989262Y-64821972D01*
X145859028Y-64691738D01*
X145705889Y-64589414D01*
X145535729Y-64518932D01*
X145355089Y-64483000D01*
X145170911Y-64483000D01*
X144990271Y-64518932D01*
X144820111Y-64589414D01*
X144666972Y-64691738D01*
X144536738Y-64821972D01*
X144434414Y-64975111D01*
X144363932Y-65145271D01*
X144328000Y-65325911D01*
X144328000Y-65341837D01*
X143188839Y-66481000D01*
X142179202Y-66481000D01*
X142303028Y-66398262D01*
X142433262Y-66268028D01*
X142535586Y-66114889D01*
X142606068Y-65944729D01*
X142642000Y-65764089D01*
X142642000Y-65579911D01*
X142606068Y-65399271D01*
X142535586Y-65229111D01*
X142433262Y-65075972D01*
X142422000Y-65064710D01*
X142422000Y-64571161D01*
X142672162Y-64321000D01*
X142688089Y-64321000D01*
X142868729Y-64285068D01*
X143038889Y-64214586D01*
X143192028Y-64112262D01*
X143322262Y-63982028D01*
X143424586Y-63828889D01*
X143495068Y-63658729D01*
X143531000Y-63478089D01*
X143531000Y-63293911D01*
X143495068Y-63113271D01*
X143424586Y-62943111D01*
X143322262Y-62789972D01*
X143192028Y-62659738D01*
X143038889Y-62557414D01*
X142868729Y-62486932D01*
X142688089Y-62451000D01*
X142503911Y-62451000D01*
X142323271Y-62486932D01*
X142153111Y-62557414D01*
X141999972Y-62659738D01*
X141869738Y-62789972D01*
X141767414Y-62943111D01*
X141696932Y-63113271D01*
X141661000Y-63293911D01*
X141661000Y-63309838D01*
X141226255Y-63744584D01*
X141198973Y-63766974D01*
X141109623Y-63875847D01*
X141043230Y-64000059D01*
X141002346Y-64134837D01*
X140992000Y-64239881D01*
X140992000Y-64239890D01*
X140988542Y-64275000D01*
X140992000Y-64310110D01*
X140992001Y-65064709D01*
X140980738Y-65075972D01*
X140878414Y-65229111D01*
X140807932Y-65399271D01*
X140772000Y-65579911D01*
X140772000Y-65764089D01*
X140807932Y-65944729D01*
X140878414Y-66114889D01*
X140980738Y-66268028D01*
X141110972Y-66398262D01*
X141234798Y-66481000D01*
X140155290Y-66481000D01*
X140144028Y-66469738D01*
X139990889Y-66367414D01*
X139820729Y-66296932D01*
X139640089Y-66261000D01*
X139455911Y-66261000D01*
X139275271Y-66296932D01*
X139105111Y-66367414D01*
X138951972Y-66469738D01*
X138821738Y-66599972D01*
X138719414Y-66753111D01*
X138648932Y-66923271D01*
X138613000Y-67103911D01*
X128735000Y-67103911D01*
X128595031Y-66842048D01*
X128390714Y-66593086D01*
X128141752Y-66388769D01*
X127900842Y-66260000D01*
X131575390Y-66260000D01*
X131610500Y-66263458D01*
X131645610Y-66260000D01*
X131645620Y-66260000D01*
X131750664Y-66249654D01*
X131885442Y-66208770D01*
X132009654Y-66142377D01*
X132118527Y-66053027D01*
X132140920Y-66025741D01*
X138174751Y-59991911D01*
X138867000Y-59991911D01*
X138867000Y-60176089D01*
X138902932Y-60356729D01*
X138973414Y-60526889D01*
X139075738Y-60680028D01*
X139205972Y-60810262D01*
X139359111Y-60912586D01*
X139529271Y-60983068D01*
X139709911Y-61019000D01*
X139837858Y-61019000D01*
X139915836Y-61042654D01*
X140020880Y-61053000D01*
X140020889Y-61053000D01*
X140055999Y-61056458D01*
X140091109Y-61053000D01*
X140972710Y-61053000D01*
X140983972Y-61064262D01*
X141137111Y-61166586D01*
X141307271Y-61237068D01*
X141487911Y-61273000D01*
X141672089Y-61273000D01*
X141852729Y-61237068D01*
X142022889Y-61166586D01*
X142176028Y-61064262D01*
X142306262Y-60934028D01*
X142408586Y-60780889D01*
X142479068Y-60610729D01*
X142515000Y-60430089D01*
X142515000Y-60245911D01*
X142479068Y-60065271D01*
X142408586Y-59895111D01*
X142306262Y-59741972D01*
X142176028Y-59611738D01*
X142022889Y-59509414D01*
X141852729Y-59438932D01*
X141672089Y-59403000D01*
X141487911Y-59403000D01*
X141307271Y-59438932D01*
X141137111Y-59509414D01*
X140983972Y-59611738D01*
X140972710Y-59623000D01*
X140618485Y-59623000D01*
X140528262Y-59487972D01*
X140398028Y-59357738D01*
X140244889Y-59255414D01*
X140074729Y-59184932D01*
X139894089Y-59149000D01*
X139709911Y-59149000D01*
X139529271Y-59184932D01*
X139359111Y-59255414D01*
X139205972Y-59357738D01*
X139075738Y-59487972D01*
X138973414Y-59641111D01*
X138902932Y-59811271D01*
X138867000Y-59991911D01*
X138174751Y-59991911D01*
X138657156Y-59509507D01*
X138684426Y-59487127D01*
X138706807Y-59459856D01*
X138706815Y-59459848D01*
X138773776Y-59378255D01*
X138773777Y-59378254D01*
X138840170Y-59254042D01*
X138881054Y-59119264D01*
X138891400Y-59014220D01*
X138891400Y-59014210D01*
X138894858Y-58979100D01*
X138891400Y-58943990D01*
X138891400Y-51877490D01*
X138902662Y-51866228D01*
X139004986Y-51713089D01*
X139075468Y-51542929D01*
X139111400Y-51362289D01*
X139111400Y-51346362D01*
X139209162Y-51248600D01*
X141156839Y-51248600D01*
X142516001Y-52607764D01*
X142516000Y-54156090D01*
X142512542Y-54191200D01*
X142516000Y-54226310D01*
X142516000Y-54226319D01*
X142526346Y-54331363D01*
X142567230Y-54466141D01*
X142633623Y-54590353D01*
X142722973Y-54699226D01*
X142750255Y-54721616D01*
X143413600Y-55384962D01*
X143413600Y-55400889D01*
X143449532Y-55581529D01*
X143520014Y-55751689D01*
X143622338Y-55904828D01*
X143752572Y-56035062D01*
X143905711Y-56137386D01*
X144075871Y-56207868D01*
X144256511Y-56243800D01*
X144440689Y-56243800D01*
X144621329Y-56207868D01*
X144791489Y-56137386D01*
X144944628Y-56035062D01*
X145074862Y-55904828D01*
X145100215Y-55866885D01*
X145124911Y-55883386D01*
X145295071Y-55953868D01*
X145475711Y-55989800D01*
X145659889Y-55989800D01*
X145840529Y-55953868D01*
X146010689Y-55883386D01*
X146163828Y-55781062D01*
X146294062Y-55650828D01*
X146396386Y-55497689D01*
X146466868Y-55327529D01*
X146502800Y-55146889D01*
X146502800Y-54962711D01*
X146466868Y-54782071D01*
X146396386Y-54611911D01*
X146294062Y-54458772D01*
X146163828Y-54328538D01*
X146010689Y-54226214D01*
X145840529Y-54155732D01*
X145659889Y-54119800D01*
X145643962Y-54119800D01*
X144613626Y-53089464D01*
X144617662Y-53085428D01*
X144719986Y-52932289D01*
X144790468Y-52762129D01*
X144826400Y-52581489D01*
X144826400Y-52397311D01*
X144790468Y-52216671D01*
X144719986Y-52046511D01*
X144650450Y-51942442D01*
X145203600Y-51942442D01*
X145203600Y-52274358D01*
X145268354Y-52599896D01*
X145395372Y-52906547D01*
X145579775Y-53182525D01*
X145814475Y-53417225D01*
X146090453Y-53601628D01*
X146397104Y-53728646D01*
X146722642Y-53793400D01*
X147054558Y-53793400D01*
X147380096Y-53728646D01*
X147686747Y-53601628D01*
X147840558Y-53498854D01*
X147848063Y-53512894D01*
X147927415Y-53609585D01*
X148024106Y-53688937D01*
X148134420Y-53747902D01*
X148254118Y-53784212D01*
X148378600Y-53796472D01*
X150478600Y-53796472D01*
X150603082Y-53784212D01*
X150722780Y-53747902D01*
X150833094Y-53688937D01*
X150929785Y-53609585D01*
X151009137Y-53512894D01*
X151068102Y-53402580D01*
X151104412Y-53282882D01*
X151116672Y-53158400D01*
X151116672Y-51942442D01*
X161586600Y-51942442D01*
X161586600Y-52274358D01*
X161651354Y-52599896D01*
X161778372Y-52906547D01*
X161962775Y-53182525D01*
X162197475Y-53417225D01*
X162473453Y-53601628D01*
X162780104Y-53728646D01*
X163105642Y-53793400D01*
X163437558Y-53793400D01*
X163763096Y-53728646D01*
X164069747Y-53601628D01*
X164223558Y-53498854D01*
X164231063Y-53512894D01*
X164310415Y-53609585D01*
X164407106Y-53688937D01*
X164517420Y-53747902D01*
X164637118Y-53784212D01*
X164761600Y-53796472D01*
X166861600Y-53796472D01*
X166986082Y-53784212D01*
X167105780Y-53747902D01*
X167216094Y-53688937D01*
X167312785Y-53609585D01*
X167392137Y-53512894D01*
X167451102Y-53402580D01*
X167487412Y-53282882D01*
X167499672Y-53158400D01*
X167499672Y-51058400D01*
X167487412Y-50933918D01*
X167451102Y-50814220D01*
X167392137Y-50703906D01*
X167312785Y-50607215D01*
X167216094Y-50527863D01*
X167105780Y-50468898D01*
X166986082Y-50432588D01*
X166861600Y-50420328D01*
X164761600Y-50420328D01*
X164637118Y-50432588D01*
X164517420Y-50468898D01*
X164407106Y-50527863D01*
X164310415Y-50607215D01*
X164231063Y-50703906D01*
X164223558Y-50717946D01*
X164069747Y-50615172D01*
X163763096Y-50488154D01*
X163437558Y-50423400D01*
X163105642Y-50423400D01*
X162780104Y-50488154D01*
X162473453Y-50615172D01*
X162197475Y-50799575D01*
X161962775Y-51034275D01*
X161778372Y-51310253D01*
X161651354Y-51616904D01*
X161586600Y-51942442D01*
X151116672Y-51942442D01*
X151116672Y-51058400D01*
X151104412Y-50933918D01*
X151068102Y-50814220D01*
X151009137Y-50703906D01*
X150929785Y-50607215D01*
X150833094Y-50527863D01*
X150722780Y-50468898D01*
X150603082Y-50432588D01*
X150478600Y-50420328D01*
X148378600Y-50420328D01*
X148254118Y-50432588D01*
X148134420Y-50468898D01*
X148024106Y-50527863D01*
X147927415Y-50607215D01*
X147848063Y-50703906D01*
X147840558Y-50717946D01*
X147686747Y-50615172D01*
X147380096Y-50488154D01*
X147054558Y-50423400D01*
X146722642Y-50423400D01*
X146397104Y-50488154D01*
X146090453Y-50615172D01*
X145814475Y-50799575D01*
X145579775Y-51034275D01*
X145395372Y-51310253D01*
X145268354Y-51616904D01*
X145203600Y-51942442D01*
X144650450Y-51942442D01*
X144617662Y-51893372D01*
X144487428Y-51763138D01*
X144334289Y-51660814D01*
X144164129Y-51590332D01*
X143983489Y-51554400D01*
X143799311Y-51554400D01*
X143618671Y-51590332D01*
X143549533Y-51618970D01*
X141983420Y-50052859D01*
X141961027Y-50025573D01*
X141852154Y-49936223D01*
X141727942Y-49869830D01*
X141593164Y-49828946D01*
X141488120Y-49818600D01*
X141488110Y-49818600D01*
X141453000Y-49815142D01*
X141417890Y-49818600D01*
X138948112Y-49818600D01*
X138913000Y-49815142D01*
X138877888Y-49818600D01*
X138877880Y-49818600D01*
X138784948Y-49827753D01*
X138772835Y-49828946D01*
X138744696Y-49837482D01*
X138638058Y-49869830D01*
X138513846Y-49936223D01*
X138513844Y-49936224D01*
X138513845Y-49936224D01*
X138432252Y-50003185D01*
X138432248Y-50003189D01*
X138404973Y-50025573D01*
X138382588Y-50052849D01*
X138100238Y-50335200D01*
X138084311Y-50335200D01*
X137903671Y-50371132D01*
X137733511Y-50441614D01*
X137580372Y-50543938D01*
X137450138Y-50674172D01*
X137347814Y-50827311D01*
X137277332Y-50997471D01*
X137241400Y-51178111D01*
X137241400Y-51362289D01*
X137277332Y-51542929D01*
X137347814Y-51713089D01*
X137450138Y-51866228D01*
X137461401Y-51877491D01*
X137461400Y-58682937D01*
X131314339Y-64830000D01*
X123494161Y-64830000D01*
X124153746Y-64170416D01*
X124181027Y-64148027D01*
X124270377Y-64039154D01*
X124336770Y-63914942D01*
X124377654Y-63780164D01*
X124388000Y-63675120D01*
X124388000Y-63675111D01*
X124391458Y-63640001D01*
X124388000Y-63604891D01*
X124388000Y-63548790D01*
X124399262Y-63537528D01*
X124501586Y-63384389D01*
X124572068Y-63214229D01*
X124608000Y-63033589D01*
X124608000Y-62849411D01*
X124572068Y-62668771D01*
X124501586Y-62498611D01*
X124399262Y-62345472D01*
X124269028Y-62215238D01*
X124115889Y-62112914D01*
X123945729Y-62042432D01*
X123765089Y-62006500D01*
X123580911Y-62006500D01*
X123400271Y-62042432D01*
X123230111Y-62112914D01*
X123076972Y-62215238D01*
X123002210Y-62290000D01*
X114505593Y-62290000D01*
X114510599Y-62280634D01*
X114595513Y-62000711D01*
X114624185Y-61709600D01*
X114595513Y-61418489D01*
X114523168Y-61180000D01*
X124272210Y-61180000D01*
X124283472Y-61191262D01*
X124436611Y-61293586D01*
X124606771Y-61364068D01*
X124787411Y-61400000D01*
X124971589Y-61400000D01*
X125152229Y-61364068D01*
X125322389Y-61293586D01*
X125475528Y-61191262D01*
X125605762Y-61061028D01*
X125708086Y-60907889D01*
X125778568Y-60737729D01*
X125814500Y-60557089D01*
X125814500Y-60372911D01*
X125778568Y-60192271D01*
X125708086Y-60022111D01*
X125616204Y-59884600D01*
X127260092Y-59884600D01*
X127289414Y-59955389D01*
X127391738Y-60108528D01*
X127395774Y-60112564D01*
X126125026Y-61383312D01*
X126003771Y-61407432D01*
X125833611Y-61477914D01*
X125680472Y-61580238D01*
X125550238Y-61710472D01*
X125447914Y-61863611D01*
X125377432Y-62033771D01*
X125341500Y-62214411D01*
X125341500Y-62398589D01*
X125377432Y-62579229D01*
X125447914Y-62749389D01*
X125550238Y-62902528D01*
X125680472Y-63032762D01*
X125833611Y-63135086D01*
X126003771Y-63205568D01*
X126184411Y-63241500D01*
X126368589Y-63241500D01*
X126549229Y-63205568D01*
X126719389Y-63135086D01*
X126872528Y-63032762D01*
X127002762Y-62902528D01*
X127105086Y-62749389D01*
X127175568Y-62579229D01*
X127211500Y-62398589D01*
X127211500Y-62335266D01*
X127229993Y-62300669D01*
X128598756Y-60931907D01*
X128626026Y-60909527D01*
X128648407Y-60882256D01*
X128648415Y-60882248D01*
X128710743Y-60806300D01*
X128715377Y-60800654D01*
X128781770Y-60676442D01*
X128817975Y-60557089D01*
X128822654Y-60541665D01*
X128825674Y-60511000D01*
X128833000Y-60436620D01*
X128833000Y-60436612D01*
X128836458Y-60401500D01*
X128833000Y-60366388D01*
X128833000Y-60119790D01*
X128844262Y-60108528D01*
X128946586Y-59955389D01*
X129017068Y-59785229D01*
X129053000Y-59604589D01*
X129053000Y-59420411D01*
X129017068Y-59239771D01*
X128946586Y-59069611D01*
X128844262Y-58916472D01*
X128714028Y-58786238D01*
X128560889Y-58683914D01*
X128390729Y-58613432D01*
X128210089Y-58577500D01*
X128180684Y-58577500D01*
X128174254Y-58572223D01*
X128050042Y-58505830D01*
X127915264Y-58464946D01*
X127810220Y-58454600D01*
X127810210Y-58454600D01*
X127775100Y-58451142D01*
X127739990Y-58454600D01*
X114433648Y-58454600D01*
X114372706Y-58340586D01*
X114187134Y-58114466D01*
X113961014Y-57928894D01*
X113896477Y-57894399D01*
X114013355Y-57824778D01*
X114229588Y-57629869D01*
X114403641Y-57396520D01*
X114528825Y-57133699D01*
X114573476Y-56986490D01*
X114452155Y-56756600D01*
X113259000Y-56756600D01*
X113259000Y-56776600D01*
X113005000Y-56776600D01*
X113005000Y-56756600D01*
X112985000Y-56756600D01*
X112985000Y-56502600D01*
X113005000Y-56502600D01*
X113005000Y-55308786D01*
X113259000Y-55308786D01*
X113259000Y-56502600D01*
X114452155Y-56502600D01*
X114573476Y-56272710D01*
X114528825Y-56125501D01*
X114403641Y-55862680D01*
X114229588Y-55629331D01*
X114013355Y-55434422D01*
X113763252Y-55285443D01*
X113488891Y-55188119D01*
X113259000Y-55308786D01*
X113005000Y-55308786D01*
X112775109Y-55188119D01*
X112500748Y-55285443D01*
X112250645Y-55434422D01*
X112034412Y-55629331D01*
X111863584Y-55858356D01*
X111832706Y-55800586D01*
X111647134Y-55574466D01*
X111421014Y-55388894D01*
X111163034Y-55251001D01*
X110883111Y-55166087D01*
X110664950Y-55144600D01*
X110519050Y-55144600D01*
X110300889Y-55166087D01*
X110020966Y-55251001D01*
X109762986Y-55388894D01*
X109536866Y-55574466D01*
X109351294Y-55800586D01*
X109213401Y-56058566D01*
X109150400Y-56266252D01*
X109150400Y-51550695D01*
X109980400Y-51550695D01*
X109980400Y-51941705D01*
X110056682Y-52325203D01*
X110206315Y-52686450D01*
X110423549Y-53011564D01*
X110700036Y-53288051D01*
X111025150Y-53505285D01*
X111386397Y-53654918D01*
X111769895Y-53731200D01*
X112160905Y-53731200D01*
X112544403Y-53654918D01*
X112905650Y-53505285D01*
X113230764Y-53288051D01*
X113507251Y-53011564D01*
X113724485Y-52686450D01*
X113874118Y-52325203D01*
X113950400Y-51941705D01*
X113950400Y-51550695D01*
X113874118Y-51167197D01*
X113724485Y-50805950D01*
X113507251Y-50480836D01*
X113230764Y-50204349D01*
X112905650Y-49987115D01*
X112544403Y-49837482D01*
X112160905Y-49761200D01*
X111769895Y-49761200D01*
X111386397Y-49837482D01*
X111025150Y-49987115D01*
X110700036Y-50204349D01*
X110423549Y-50480836D01*
X110206315Y-50805950D01*
X110056682Y-51167197D01*
X109980400Y-51550695D01*
X109150400Y-51550695D01*
X109150400Y-51279705D01*
X109197712Y-50797184D01*
X109328114Y-50365270D01*
X109539924Y-49966915D01*
X109825075Y-49617286D01*
X110172703Y-49329703D01*
X110569577Y-49115114D01*
X111000561Y-48981702D01*
X111481054Y-48931200D01*
X116669638Y-48931200D01*
X115064255Y-50536584D01*
X115064255Y-50536584D01*
G37*
X115064255Y-50536584D02*
X115036974Y-50558973D01*
X114990853Y-50615172D01*
X114947624Y-50667846D01*
X114881231Y-50792058D01*
X114840347Y-50926836D01*
X114826542Y-51067000D01*
X114830001Y-51102119D01*
X114830000Y-53407156D01*
X114820623Y-53418582D01*
X114754230Y-53542794D01*
X114736514Y-53601196D01*
X114691738Y-53645972D01*
X114589414Y-53799111D01*
X114518932Y-53969271D01*
X114483000Y-54149911D01*
X114483000Y-54334089D01*
X114518932Y-54514729D01*
X114589414Y-54684889D01*
X114691738Y-54838028D01*
X114821972Y-54968262D01*
X114975111Y-55070586D01*
X115145271Y-55141068D01*
X115325911Y-55177000D01*
X115510089Y-55177000D01*
X115690729Y-55141068D01*
X115860889Y-55070586D01*
X116014028Y-54968262D01*
X116144262Y-54838028D01*
X116246586Y-54684889D01*
X116317068Y-54514729D01*
X116353000Y-54334089D01*
X116353000Y-54149911D01*
X116317068Y-53969271D01*
X116308411Y-53948370D01*
X116346000Y-53952072D01*
X116544501Y-53952072D01*
X116544500Y-55539710D01*
X116533238Y-55550972D01*
X116430914Y-55704111D01*
X116360432Y-55874271D01*
X116324500Y-56054911D01*
X116324500Y-56239089D01*
X116360432Y-56419729D01*
X116430914Y-56589889D01*
X116533238Y-56743028D01*
X116663472Y-56873262D01*
X116816611Y-56975586D01*
X116986771Y-57046068D01*
X117167411Y-57082000D01*
X117351589Y-57082000D01*
X117532229Y-57046068D01*
X117702389Y-56975586D01*
X117855528Y-56873262D01*
X117985762Y-56743028D01*
X118088086Y-56589889D01*
X118158568Y-56419729D01*
X118194500Y-56239089D01*
X118194500Y-56054911D01*
X118158568Y-55874271D01*
X118088086Y-55704111D01*
X117985762Y-55550972D01*
X117974500Y-55539710D01*
X117974500Y-53952072D01*
X118046000Y-53952072D01*
X118170482Y-53939812D01*
X118290180Y-53903502D01*
X118400494Y-53844537D01*
X118497185Y-53765185D01*
X118576537Y-53668494D01*
X118635502Y-53558180D01*
X118656393Y-53489313D01*
X118680866Y-53519134D01*
X118906986Y-53704706D01*
X119084501Y-53799589D01*
X119084500Y-55793710D01*
X119073238Y-55804972D01*
X118970914Y-55958111D01*
X118900432Y-56128271D01*
X118864500Y-56308911D01*
X118864500Y-56493089D01*
X118900432Y-56673729D01*
X118970914Y-56843889D01*
X119073238Y-56997028D01*
X119203472Y-57127262D01*
X119356611Y-57229586D01*
X119526771Y-57300068D01*
X119707411Y-57336000D01*
X119891589Y-57336000D01*
X120072229Y-57300068D01*
X120242389Y-57229586D01*
X120395528Y-57127262D01*
X120525762Y-56997028D01*
X120628086Y-56843889D01*
X120698568Y-56673729D01*
X120734500Y-56493089D01*
X120734500Y-56308911D01*
X120698568Y-56128271D01*
X120628086Y-55958111D01*
X120525762Y-55804972D01*
X120514500Y-55793710D01*
X120514500Y-53731706D01*
X120565014Y-53704706D01*
X120791134Y-53519134D01*
X120976706Y-53293014D01*
X121006000Y-53238209D01*
X121035294Y-53293014D01*
X121220866Y-53519134D01*
X121446986Y-53704706D01*
X121561001Y-53765648D01*
X121561000Y-55476210D01*
X121549738Y-55487472D01*
X121447414Y-55640611D01*
X121376932Y-55810771D01*
X121341000Y-55991411D01*
X121341000Y-56175589D01*
X121376932Y-56356229D01*
X121447414Y-56526389D01*
X121549738Y-56679528D01*
X121679972Y-56809762D01*
X121833111Y-56912086D01*
X122003271Y-56982568D01*
X122183911Y-57018500D01*
X122368089Y-57018500D01*
X122548729Y-56982568D01*
X122718889Y-56912086D01*
X122872028Y-56809762D01*
X123002262Y-56679528D01*
X123104586Y-56526389D01*
X123175068Y-56356229D01*
X123211000Y-56175589D01*
X123211000Y-55991411D01*
X123175068Y-55810771D01*
X123104586Y-55640611D01*
X123002262Y-55487472D01*
X122991000Y-55476210D01*
X122991000Y-53765648D01*
X123105014Y-53704706D01*
X123331134Y-53519134D01*
X123516706Y-53293014D01*
X123546000Y-53238209D01*
X123575294Y-53293014D01*
X123760866Y-53519134D01*
X123974001Y-53694049D01*
X123974000Y-55730210D01*
X123962738Y-55741472D01*
X123860414Y-55894611D01*
X123789932Y-56064771D01*
X123754000Y-56245411D01*
X123754000Y-56429589D01*
X123789932Y-56610229D01*
X123860414Y-56780389D01*
X123962738Y-56933528D01*
X124092972Y-57063762D01*
X124246111Y-57166086D01*
X124416271Y-57236568D01*
X124596911Y-57272500D01*
X124781089Y-57272500D01*
X124961729Y-57236568D01*
X125131889Y-57166086D01*
X125285028Y-57063762D01*
X125415262Y-56933528D01*
X125517586Y-56780389D01*
X125588068Y-56610229D01*
X125624000Y-56429589D01*
X125624000Y-56245411D01*
X125588068Y-56064771D01*
X125517586Y-55894611D01*
X125415262Y-55741472D01*
X125404000Y-55730210D01*
X125404000Y-53833530D01*
X125645014Y-53704706D01*
X125871134Y-53519134D01*
X126056706Y-53293014D01*
X126086000Y-53238209D01*
X126115294Y-53293014D01*
X126300866Y-53519134D01*
X126514001Y-53694049D01*
X126514000Y-55603210D01*
X126502738Y-55614472D01*
X126400414Y-55767611D01*
X126329932Y-55937771D01*
X126294000Y-56118411D01*
X126294000Y-56302589D01*
X126329932Y-56483229D01*
X126400414Y-56653389D01*
X126502738Y-56806528D01*
X126632972Y-56936762D01*
X126786111Y-57039086D01*
X126956271Y-57109568D01*
X127136911Y-57145500D01*
X127321089Y-57145500D01*
X127501729Y-57109568D01*
X127671889Y-57039086D01*
X127825028Y-56936762D01*
X127955262Y-56806528D01*
X128057586Y-56653389D01*
X128128068Y-56483229D01*
X128164000Y-56302589D01*
X128164000Y-56118411D01*
X128128068Y-55937771D01*
X128057586Y-55767611D01*
X127955262Y-55614472D01*
X127944000Y-55603210D01*
X127944000Y-53833530D01*
X128165001Y-53715403D01*
X128165000Y-57000890D01*
X128161542Y-57036000D01*
X128165000Y-57071110D01*
X128165000Y-57071119D01*
X128175346Y-57176163D01*
X128216230Y-57310941D01*
X128282623Y-57435153D01*
X128371973Y-57544026D01*
X128399255Y-57566416D01*
X129879501Y-59046663D01*
X129879500Y-60874390D01*
X129876042Y-60909500D01*
X129879500Y-60944610D01*
X129879500Y-60944619D01*
X129889846Y-61049663D01*
X129930730Y-61184441D01*
X129977000Y-61271006D01*
X129977000Y-61319089D01*
X130012932Y-61499729D01*
X130083414Y-61669889D01*
X130185738Y-61823028D01*
X130315972Y-61953262D01*
X130469111Y-62055586D01*
X130639271Y-62126068D01*
X130819911Y-62162000D01*
X131004089Y-62162000D01*
X131184729Y-62126068D01*
X131354889Y-62055586D01*
X131508028Y-61953262D01*
X131638262Y-61823028D01*
X131740586Y-61669889D01*
X131780398Y-61573773D01*
X131790932Y-61626729D01*
X131861414Y-61796889D01*
X131963738Y-61950028D01*
X132093972Y-62080262D01*
X132247111Y-62182586D01*
X132417271Y-62253068D01*
X132597911Y-62289000D01*
X132782089Y-62289000D01*
X132962729Y-62253068D01*
X133132889Y-62182586D01*
X133286028Y-62080262D01*
X133416262Y-61950028D01*
X133518586Y-61796889D01*
X133589068Y-61626729D01*
X133625000Y-61446089D01*
X133625000Y-61261911D01*
X133589068Y-61081271D01*
X133518586Y-60911111D01*
X133416262Y-60757972D01*
X133405000Y-60746710D01*
X133405000Y-59912870D01*
X133448914Y-60018889D01*
X133551238Y-60172028D01*
X133681472Y-60302262D01*
X133834611Y-60404586D01*
X134004771Y-60475068D01*
X134185411Y-60511000D01*
X134369589Y-60511000D01*
X134550229Y-60475068D01*
X134720389Y-60404586D01*
X134873528Y-60302262D01*
X135003762Y-60172028D01*
X135106086Y-60018889D01*
X135176568Y-59848729D01*
X135212500Y-59668089D01*
X135212500Y-59483911D01*
X135176568Y-59303271D01*
X135106086Y-59133111D01*
X135003762Y-58979972D01*
X134873528Y-58849738D01*
X134798992Y-58799935D01*
X134910889Y-58753586D01*
X135064028Y-58651262D01*
X135194262Y-58521028D01*
X135296586Y-58367889D01*
X135367068Y-58197729D01*
X135403000Y-58017089D01*
X135403000Y-57832911D01*
X135367068Y-57652271D01*
X135296586Y-57482111D01*
X135257406Y-57423474D01*
X135418889Y-57356586D01*
X135572028Y-57254262D01*
X135702262Y-57124028D01*
X135804586Y-56970889D01*
X135875068Y-56800729D01*
X135911000Y-56620089D01*
X135911000Y-56435911D01*
X135885510Y-56307767D01*
X136209352Y-55660083D01*
X136264729Y-55649068D01*
X136434889Y-55578586D01*
X136588028Y-55476262D01*
X136718262Y-55346028D01*
X136820586Y-55192889D01*
X136891068Y-55022729D01*
X136927000Y-54842089D01*
X136927000Y-54657911D01*
X136891068Y-54477271D01*
X136820586Y-54307111D01*
X136718262Y-54153972D01*
X136588028Y-54023738D01*
X136434889Y-53921414D01*
X136264729Y-53850932D01*
X136084089Y-53815000D01*
X135899911Y-53815000D01*
X135719271Y-53850932D01*
X135549111Y-53921414D01*
X135395972Y-54023738D01*
X135265738Y-54153972D01*
X135163414Y-54307111D01*
X135133302Y-54379808D01*
X135067262Y-54280972D01*
X134937028Y-54150738D01*
X134783889Y-54048414D01*
X134613729Y-53977932D01*
X134496540Y-53954621D01*
X134561177Y-53889985D01*
X134684889Y-53927513D01*
X134903050Y-53949000D01*
X135048950Y-53949000D01*
X135267111Y-53927513D01*
X135547034Y-53842599D01*
X135805014Y-53704706D01*
X136031134Y-53519134D01*
X136216706Y-53293014D01*
X136354599Y-53035034D01*
X136439513Y-52755111D01*
X136468185Y-52464000D01*
X136439513Y-52172889D01*
X136354599Y-51892966D01*
X136216706Y-51634986D01*
X136031134Y-51408866D01*
X135805014Y-51223294D01*
X135547034Y-51085401D01*
X135267111Y-51000487D01*
X135048950Y-50979000D01*
X134903050Y-50979000D01*
X134684889Y-51000487D01*
X134404966Y-51085401D01*
X134146986Y-51223294D01*
X133920866Y-51408866D01*
X133735294Y-51634986D01*
X133706000Y-51689791D01*
X133676706Y-51634986D01*
X133491134Y-51408866D01*
X133265014Y-51223294D01*
X133007034Y-51085401D01*
X132727111Y-51000487D01*
X132508950Y-50979000D01*
X132363050Y-50979000D01*
X132144889Y-51000487D01*
X131864966Y-51085401D01*
X131606986Y-51223294D01*
X131380866Y-51408866D01*
X131195294Y-51634986D01*
X131166000Y-51689791D01*
X131136706Y-51634986D01*
X130951134Y-51408866D01*
X130725014Y-51223294D01*
X130467034Y-51085401D01*
X130187111Y-51000487D01*
X129968950Y-50979000D01*
X129823050Y-50979000D01*
X129604889Y-51000487D01*
X129324966Y-51085401D01*
X129066986Y-51223294D01*
X128840866Y-51408866D01*
X128655294Y-51634986D01*
X128626000Y-51689791D01*
X128596706Y-51634986D01*
X128411134Y-51408866D01*
X128185014Y-51223294D01*
X127927034Y-51085401D01*
X127647111Y-51000487D01*
X127428950Y-50979000D01*
X127283050Y-50979000D01*
X127064889Y-51000487D01*
X126784966Y-51085401D01*
X126526986Y-51223294D01*
X126300866Y-51408866D01*
X126115294Y-51634986D01*
X126086000Y-51689791D01*
X126056706Y-51634986D01*
X125871134Y-51408866D01*
X125645014Y-51223294D01*
X125387034Y-51085401D01*
X125107111Y-51000487D01*
X124888950Y-50979000D01*
X124743050Y-50979000D01*
X124524889Y-51000487D01*
X124244966Y-51085401D01*
X123986986Y-51223294D01*
X123760866Y-51408866D01*
X123575294Y-51634986D01*
X123546000Y-51689791D01*
X123516706Y-51634986D01*
X123331134Y-51408866D01*
X123105014Y-51223294D01*
X122847034Y-51085401D01*
X122567111Y-51000487D01*
X122348950Y-50979000D01*
X122203050Y-50979000D01*
X121984889Y-51000487D01*
X121704966Y-51085401D01*
X121446986Y-51223294D01*
X121220866Y-51408866D01*
X121035294Y-51634986D01*
X121006000Y-51689791D01*
X120976706Y-51634986D01*
X120791134Y-51408866D01*
X120565014Y-51223294D01*
X120307034Y-51085401D01*
X120027111Y-51000487D01*
X119808950Y-50979000D01*
X119663050Y-50979000D01*
X119444889Y-51000487D01*
X119164966Y-51085401D01*
X118906986Y-51223294D01*
X118680866Y-51408866D01*
X118656393Y-51438687D01*
X118635502Y-51369820D01*
X118576537Y-51259506D01*
X118497185Y-51162815D01*
X118400494Y-51083463D01*
X118290180Y-51024498D01*
X118170482Y-50988188D01*
X118046000Y-50975928D01*
X116647233Y-50975928D01*
X117814264Y-49808898D01*
X117896111Y-49863586D01*
X118066271Y-49934068D01*
X118246911Y-49970000D01*
X118431089Y-49970000D01*
X118611729Y-49934068D01*
X118781889Y-49863586D01*
X118935028Y-49761262D01*
X119065262Y-49631028D01*
X119167586Y-49477889D01*
X119238068Y-49307729D01*
X119274000Y-49127089D01*
X119274000Y-48942911D01*
X119271671Y-48931200D01*
X176378000Y-48931200D01*
X176378000Y-56909000D01*
X153645000Y-56909000D01*
X153620224Y-56911440D01*
X153596399Y-56918667D01*
X153574443Y-56930403D01*
X153555197Y-56946197D01*
X153539403Y-56965443D01*
X153527667Y-56987399D01*
X153520440Y-57011224D01*
X153518000Y-57036000D01*
X153518000Y-58052000D01*
X152121000Y-58052000D01*
X152096224Y-58054440D01*
X152072399Y-58061667D01*
X152050443Y-58073403D01*
X152031197Y-58089197D01*
X152015403Y-58108443D01*
X152003667Y-58130399D01*
X151996440Y-58154224D01*
X151994000Y-58179000D01*
X151994000Y-76871910D01*
X151902738Y-76963172D01*
X151800414Y-77116311D01*
X151729932Y-77286471D01*
X151694000Y-77467111D01*
X151694000Y-77651289D01*
X151729932Y-77831929D01*
X151800414Y-78002089D01*
X151902738Y-78155228D01*
X151994000Y-78246490D01*
X151994000Y-85573937D01*
X151881311Y-85620614D01*
X151728172Y-85722938D01*
X151597938Y-85853172D01*
X151495614Y-86006311D01*
X151425132Y-86176471D01*
X151389200Y-86357111D01*
X151389200Y-86541289D01*
X151425132Y-86721929D01*
X151495614Y-86892089D01*
X151597938Y-87045228D01*
X151728172Y-87175462D01*
X151881311Y-87277786D01*
X151994000Y-87324463D01*
X151994000Y-100290314D01*
X151675955Y-100130841D01*
X151308443Y-100029750D01*
X150928271Y-100002299D01*
X150550049Y-100049543D01*
X150188310Y-100169667D01*
X149941317Y-100301688D01*
X149809381Y-100596776D01*
X150979000Y-101766395D01*
X150993143Y-101752253D01*
X151172748Y-101931858D01*
X151158605Y-101946000D01*
X151172748Y-101960143D01*
X150993143Y-102139748D01*
X150979000Y-102125605D01*
X149809381Y-103295224D01*
X149941317Y-103590312D01*
X150282045Y-103761159D01*
X150649557Y-103862250D01*
X151029729Y-103889701D01*
X151407951Y-103842457D01*
X151769690Y-103722333D01*
X151994000Y-103602436D01*
X151994000Y-105931000D01*
X151996440Y-105955776D01*
X152003667Y-105979601D01*
X152015403Y-106001557D01*
X152031197Y-106020803D01*
X152050443Y-106036597D01*
X152072399Y-106048333D01*
X152096224Y-106055560D01*
X152121000Y-106058000D01*
X164821000Y-106058000D01*
X164821000Y-112561200D01*
X111498904Y-112561200D01*
X111016384Y-112513888D01*
X110584473Y-112383487D01*
X110186120Y-112171680D01*
X109836486Y-111886525D01*
X109548903Y-111538897D01*
X109334315Y-111142025D01*
X109200900Y-110711034D01*
X109150400Y-110230546D01*
X109150400Y-109550695D01*
X109980400Y-109550695D01*
X109980400Y-109941705D01*
X110056682Y-110325203D01*
X110206315Y-110686450D01*
X110423549Y-111011564D01*
X110700036Y-111288051D01*
X111025150Y-111505285D01*
X111386397Y-111654918D01*
X111769895Y-111731200D01*
X112160905Y-111731200D01*
X112544403Y-111654918D01*
X112905650Y-111505285D01*
X113230764Y-111288051D01*
X113507251Y-111011564D01*
X113724485Y-110686450D01*
X113874118Y-110325203D01*
X113950400Y-109941705D01*
X113950400Y-109550695D01*
X113892517Y-109259691D01*
X114992519Y-109259691D01*
X115089843Y-109534052D01*
X115238822Y-109784155D01*
X115433731Y-110000388D01*
X115667080Y-110174441D01*
X115929901Y-110299625D01*
X116077110Y-110344276D01*
X116307000Y-110222955D01*
X116307000Y-109029800D01*
X115113186Y-109029800D01*
X114992519Y-109259691D01*
X113892517Y-109259691D01*
X113874118Y-109167197D01*
X113724485Y-108805950D01*
X113550732Y-108545909D01*
X114992519Y-108545909D01*
X115113186Y-108775800D01*
X116307000Y-108775800D01*
X116307000Y-107582645D01*
X116561000Y-107582645D01*
X116561000Y-108775800D01*
X116581000Y-108775800D01*
X116581000Y-109029800D01*
X116561000Y-109029800D01*
X116561000Y-110222955D01*
X116790890Y-110344276D01*
X116938099Y-110299625D01*
X117200920Y-110174441D01*
X117434269Y-110000388D01*
X117629178Y-109784155D01*
X117698799Y-109667277D01*
X117733294Y-109731814D01*
X117918866Y-109957934D01*
X118144986Y-110143506D01*
X118402966Y-110281399D01*
X118682889Y-110366313D01*
X118901050Y-110387800D01*
X119046950Y-110387800D01*
X119265111Y-110366313D01*
X119545034Y-110281399D01*
X119803014Y-110143506D01*
X120029134Y-109957934D01*
X120214706Y-109731814D01*
X120244000Y-109677009D01*
X120273294Y-109731814D01*
X120458866Y-109957934D01*
X120684986Y-110143506D01*
X120942966Y-110281399D01*
X121222889Y-110366313D01*
X121441050Y-110387800D01*
X121586950Y-110387800D01*
X121805111Y-110366313D01*
X122085034Y-110281399D01*
X122343014Y-110143506D01*
X122569134Y-109957934D01*
X122754706Y-109731814D01*
X122784000Y-109677009D01*
X122813294Y-109731814D01*
X122998866Y-109957934D01*
X123224986Y-110143506D01*
X123482966Y-110281399D01*
X123762889Y-110366313D01*
X123981050Y-110387800D01*
X124126950Y-110387800D01*
X124345111Y-110366313D01*
X124625034Y-110281399D01*
X124883014Y-110143506D01*
X125109134Y-109957934D01*
X125294706Y-109731814D01*
X125324000Y-109677009D01*
X125353294Y-109731814D01*
X125538866Y-109957934D01*
X125764986Y-110143506D01*
X126022966Y-110281399D01*
X126302889Y-110366313D01*
X126521050Y-110387800D01*
X126666950Y-110387800D01*
X126885111Y-110366313D01*
X127165034Y-110281399D01*
X127423014Y-110143506D01*
X127649134Y-109957934D01*
X127834706Y-109731814D01*
X127864000Y-109677009D01*
X127893294Y-109731814D01*
X128078866Y-109957934D01*
X128304986Y-110143506D01*
X128562966Y-110281399D01*
X128842889Y-110366313D01*
X129061050Y-110387800D01*
X129206950Y-110387800D01*
X129425111Y-110366313D01*
X129705034Y-110281399D01*
X129963014Y-110143506D01*
X130189134Y-109957934D01*
X130374706Y-109731814D01*
X130404000Y-109677009D01*
X130433294Y-109731814D01*
X130618866Y-109957934D01*
X130844986Y-110143506D01*
X131102966Y-110281399D01*
X131382889Y-110366313D01*
X131601050Y-110387800D01*
X131746950Y-110387800D01*
X131965111Y-110366313D01*
X132245034Y-110281399D01*
X132503014Y-110143506D01*
X132729134Y-109957934D01*
X132914706Y-109731814D01*
X132944000Y-109677009D01*
X132973294Y-109731814D01*
X133158866Y-109957934D01*
X133384986Y-110143506D01*
X133642966Y-110281399D01*
X133922889Y-110366313D01*
X134141050Y-110387800D01*
X134286950Y-110387800D01*
X134505111Y-110366313D01*
X134785034Y-110281399D01*
X135043014Y-110143506D01*
X135269134Y-109957934D01*
X135454706Y-109731814D01*
X135484000Y-109677009D01*
X135513294Y-109731814D01*
X135698866Y-109957934D01*
X135924986Y-110143506D01*
X136182966Y-110281399D01*
X136462889Y-110366313D01*
X136681050Y-110387800D01*
X136826950Y-110387800D01*
X137045111Y-110366313D01*
X137325034Y-110281399D01*
X137583014Y-110143506D01*
X137809134Y-109957934D01*
X137833607Y-109928113D01*
X137854498Y-109996980D01*
X137913463Y-110107294D01*
X137992815Y-110203985D01*
X138089506Y-110283337D01*
X138199820Y-110342302D01*
X138319518Y-110378612D01*
X138444000Y-110390872D01*
X139008250Y-110387800D01*
X139167000Y-110229050D01*
X139167000Y-109029800D01*
X139421000Y-109029800D01*
X139421000Y-110229050D01*
X139579750Y-110387800D01*
X140144000Y-110390872D01*
X140268482Y-110378612D01*
X140388180Y-110342302D01*
X140498494Y-110283337D01*
X140595185Y-110203985D01*
X140674537Y-110107294D01*
X140733502Y-109996980D01*
X140769812Y-109877282D01*
X140782072Y-109752800D01*
X140779000Y-109188550D01*
X140620250Y-109029800D01*
X139421000Y-109029800D01*
X139167000Y-109029800D01*
X139147000Y-109029800D01*
X139147000Y-108775800D01*
X139167000Y-108775800D01*
X139167000Y-107576550D01*
X139421000Y-107576550D01*
X139421000Y-108775800D01*
X140620250Y-108775800D01*
X140779000Y-108617050D01*
X140782072Y-108052800D01*
X140769812Y-107928318D01*
X140733502Y-107808620D01*
X140674537Y-107698306D01*
X140595185Y-107601615D01*
X140498494Y-107522263D01*
X140388180Y-107463298D01*
X140268482Y-107426988D01*
X140144000Y-107414728D01*
X139579750Y-107417800D01*
X139421000Y-107576550D01*
X139167000Y-107576550D01*
X139008250Y-107417800D01*
X138444000Y-107414728D01*
X138319518Y-107426988D01*
X138199820Y-107463298D01*
X138089506Y-107522263D01*
X137992815Y-107601615D01*
X137913463Y-107698306D01*
X137854498Y-107808620D01*
X137833607Y-107877487D01*
X137809134Y-107847666D01*
X137583014Y-107662094D01*
X137325034Y-107524201D01*
X137045111Y-107439287D01*
X136826950Y-107417800D01*
X136681050Y-107417800D01*
X136462889Y-107439287D01*
X136182966Y-107524201D01*
X135924986Y-107662094D01*
X135698866Y-107847666D01*
X135513294Y-108073786D01*
X135484000Y-108128591D01*
X135454706Y-108073786D01*
X135269134Y-107847666D01*
X135043014Y-107662094D01*
X134785034Y-107524201D01*
X134505111Y-107439287D01*
X134286950Y-107417800D01*
X134141050Y-107417800D01*
X133922889Y-107439287D01*
X133642966Y-107524201D01*
X133384986Y-107662094D01*
X133158866Y-107847666D01*
X132973294Y-108073786D01*
X132944000Y-108128591D01*
X132914706Y-108073786D01*
X132729134Y-107847666D01*
X132503014Y-107662094D01*
X132245034Y-107524201D01*
X131965111Y-107439287D01*
X131746950Y-107417800D01*
X131601050Y-107417800D01*
X131382889Y-107439287D01*
X131102966Y-107524201D01*
X130844986Y-107662094D01*
X130618866Y-107847666D01*
X130433294Y-108073786D01*
X130404000Y-108128591D01*
X130374706Y-108073786D01*
X130189134Y-107847666D01*
X129963014Y-107662094D01*
X129705034Y-107524201D01*
X129425111Y-107439287D01*
X129206950Y-107417800D01*
X129061050Y-107417800D01*
X128842889Y-107439287D01*
X128562966Y-107524201D01*
X128304986Y-107662094D01*
X128078866Y-107847666D01*
X127893294Y-108073786D01*
X127864000Y-108128591D01*
X127834706Y-108073786D01*
X127649134Y-107847666D01*
X127423014Y-107662094D01*
X127165034Y-107524201D01*
X126885111Y-107439287D01*
X126666950Y-107417800D01*
X126521050Y-107417800D01*
X126302889Y-107439287D01*
X126022966Y-107524201D01*
X125764986Y-107662094D01*
X125538866Y-107847666D01*
X125353294Y-108073786D01*
X125324000Y-108128591D01*
X125294706Y-108073786D01*
X125109134Y-107847666D01*
X124883014Y-107662094D01*
X124625034Y-107524201D01*
X124345111Y-107439287D01*
X124126950Y-107417800D01*
X123981050Y-107417800D01*
X123762889Y-107439287D01*
X123482966Y-107524201D01*
X123224986Y-107662094D01*
X122998866Y-107847666D01*
X122813294Y-108073786D01*
X122784000Y-108128591D01*
X122754706Y-108073786D01*
X122569134Y-107847666D01*
X122343014Y-107662094D01*
X122085034Y-107524201D01*
X121805111Y-107439287D01*
X121586950Y-107417800D01*
X121441050Y-107417800D01*
X121222889Y-107439287D01*
X120942966Y-107524201D01*
X120684986Y-107662094D01*
X120458866Y-107847666D01*
X120273294Y-108073786D01*
X120244000Y-108128591D01*
X120214706Y-108073786D01*
X120029134Y-107847666D01*
X119803014Y-107662094D01*
X119545034Y-107524201D01*
X119265111Y-107439287D01*
X119046950Y-107417800D01*
X118901050Y-107417800D01*
X118682889Y-107439287D01*
X118402966Y-107524201D01*
X118144986Y-107662094D01*
X117918866Y-107847666D01*
X117733294Y-108073786D01*
X117698799Y-108138323D01*
X117629178Y-108021445D01*
X117434269Y-107805212D01*
X117200920Y-107631159D01*
X116938099Y-107505975D01*
X116790890Y-107461324D01*
X116561000Y-107582645D01*
X116307000Y-107582645D01*
X116077110Y-107461324D01*
X115929901Y-107505975D01*
X115667080Y-107631159D01*
X115433731Y-107805212D01*
X115238822Y-108021445D01*
X115089843Y-108271548D01*
X114992519Y-108545909D01*
X113550732Y-108545909D01*
X113507251Y-108480836D01*
X113230764Y-108204349D01*
X112905650Y-107987115D01*
X112544403Y-107837482D01*
X112160905Y-107761200D01*
X111769895Y-107761200D01*
X111386397Y-107837482D01*
X111025150Y-107987115D01*
X110700036Y-108204349D01*
X110423549Y-108480836D01*
X110206315Y-108805950D01*
X110056682Y-109167197D01*
X109980400Y-109550695D01*
X109150400Y-109550695D01*
X109150400Y-105252948D01*
X109213401Y-105460634D01*
X109351294Y-105718614D01*
X109536866Y-105944734D01*
X109762986Y-106130306D01*
X110020966Y-106268199D01*
X110300889Y-106353113D01*
X110519050Y-106374600D01*
X110664950Y-106374600D01*
X110883111Y-106353113D01*
X111163034Y-106268199D01*
X111421014Y-106130306D01*
X111647134Y-105944734D01*
X111671607Y-105914913D01*
X111692498Y-105983780D01*
X111751463Y-106094094D01*
X111830815Y-106190785D01*
X111927506Y-106270137D01*
X112037820Y-106329102D01*
X112157518Y-106365412D01*
X112282000Y-106377672D01*
X113982000Y-106377672D01*
X114106482Y-106365412D01*
X114226180Y-106329102D01*
X114289560Y-106295224D01*
X145109381Y-106295224D01*
X145241317Y-106590312D01*
X145582045Y-106761159D01*
X145949557Y-106862250D01*
X146329729Y-106889701D01*
X146707951Y-106842457D01*
X147069690Y-106722333D01*
X147316683Y-106590312D01*
X147448619Y-106295224D01*
X146279000Y-105125605D01*
X145109381Y-106295224D01*
X114289560Y-106295224D01*
X114336494Y-106270137D01*
X114433185Y-106190785D01*
X114512537Y-106094094D01*
X114571502Y-105983780D01*
X114607812Y-105864082D01*
X114620072Y-105739600D01*
X114620072Y-104039600D01*
X114607812Y-103915118D01*
X114571502Y-103795420D01*
X114512537Y-103685106D01*
X114433185Y-103588415D01*
X114336494Y-103509063D01*
X114226180Y-103450098D01*
X114157313Y-103429207D01*
X114187134Y-103404734D01*
X114372706Y-103178614D01*
X114433648Y-103064600D01*
X115357490Y-103064600D01*
X115392600Y-103068058D01*
X115427710Y-103064600D01*
X118957239Y-103064600D01*
X119503600Y-103610962D01*
X119503601Y-103952109D01*
X119492338Y-103963372D01*
X119390014Y-104116511D01*
X119319532Y-104286671D01*
X119283600Y-104467311D01*
X119283600Y-104651489D01*
X119319532Y-104832129D01*
X119390014Y-105002289D01*
X119492338Y-105155428D01*
X119622572Y-105285662D01*
X119775711Y-105387986D01*
X119945871Y-105458468D01*
X120126511Y-105494400D01*
X120310689Y-105494400D01*
X120491329Y-105458468D01*
X120661489Y-105387986D01*
X120814628Y-105285662D01*
X120944862Y-105155428D01*
X121047186Y-105002289D01*
X121117668Y-104832129D01*
X121153600Y-104651489D01*
X121153600Y-104467311D01*
X121117668Y-104286671D01*
X121047186Y-104116511D01*
X120944862Y-103963372D01*
X120933600Y-103952110D01*
X120933600Y-103349910D01*
X120937058Y-103314800D01*
X120933600Y-103279690D01*
X120933600Y-103279680D01*
X120923254Y-103174636D01*
X120882370Y-103039858D01*
X120815977Y-102915646D01*
X120778381Y-102869836D01*
X120749014Y-102834052D01*
X120749012Y-102834050D01*
X120726626Y-102806773D01*
X120699350Y-102784388D01*
X119783820Y-101868859D01*
X119761427Y-101841573D01*
X119652554Y-101752223D01*
X119528342Y-101685830D01*
X119393564Y-101644946D01*
X119288520Y-101634600D01*
X119288510Y-101634600D01*
X119253400Y-101631142D01*
X119218290Y-101634600D01*
X117118762Y-101634600D01*
X118262763Y-100490600D01*
X118278689Y-100490600D01*
X118459329Y-100454668D01*
X118629489Y-100384186D01*
X118782628Y-100281862D01*
X118912862Y-100151628D01*
X119015186Y-99998489D01*
X119085668Y-99828329D01*
X119121600Y-99647689D01*
X119121600Y-99463511D01*
X119091617Y-99312778D01*
X123319252Y-103540415D01*
X123319262Y-103540423D01*
X123783050Y-104004212D01*
X123708014Y-104116511D01*
X123637532Y-104286671D01*
X123601600Y-104467311D01*
X123601600Y-104651489D01*
X123637532Y-104832129D01*
X123708014Y-105002289D01*
X123810338Y-105155428D01*
X123940572Y-105285662D01*
X124093711Y-105387986D01*
X124263871Y-105458468D01*
X124329392Y-105471501D01*
X124348732Y-105568729D01*
X124419214Y-105738889D01*
X124521538Y-105892028D01*
X124651772Y-106022262D01*
X124804911Y-106124586D01*
X124975071Y-106195068D01*
X125155711Y-106231000D01*
X125339889Y-106231000D01*
X125520529Y-106195068D01*
X125690689Y-106124586D01*
X125843828Y-106022262D01*
X125974062Y-105892028D01*
X126076386Y-105738889D01*
X126146868Y-105568729D01*
X126182800Y-105388089D01*
X126182800Y-105203911D01*
X126146868Y-105023271D01*
X126135875Y-104996729D01*
X144335299Y-104996729D01*
X144382543Y-105374951D01*
X144502667Y-105736690D01*
X144634688Y-105983683D01*
X144929776Y-106115619D01*
X146099395Y-104946000D01*
X146458605Y-104946000D01*
X147628224Y-106115619D01*
X147923312Y-105983683D01*
X148094159Y-105642955D01*
X148195250Y-105275443D01*
X148222701Y-104895271D01*
X148175457Y-104517049D01*
X148055333Y-104155310D01*
X147923312Y-103908317D01*
X147628224Y-103776381D01*
X146458605Y-104946000D01*
X146099395Y-104946000D01*
X144929776Y-103776381D01*
X144634688Y-103908317D01*
X144463841Y-104249045D01*
X144362750Y-104616557D01*
X144335299Y-104996729D01*
X126135875Y-104996729D01*
X126076386Y-104853111D01*
X126062393Y-104832169D01*
X126585362Y-104309200D01*
X129110910Y-104309200D01*
X129122172Y-104320462D01*
X129275311Y-104422786D01*
X129445471Y-104493268D01*
X129626111Y-104529200D01*
X129810289Y-104529200D01*
X129990929Y-104493268D01*
X130161089Y-104422786D01*
X130314228Y-104320462D01*
X130444462Y-104190228D01*
X130546786Y-104037089D01*
X130617268Y-103866929D01*
X130653200Y-103686289D01*
X130653200Y-103596776D01*
X145109381Y-103596776D01*
X146279000Y-104766395D01*
X147448619Y-103596776D01*
X147316683Y-103301688D01*
X146975955Y-103130841D01*
X146608443Y-103029750D01*
X146228271Y-103002299D01*
X145850049Y-103049543D01*
X145488310Y-103169667D01*
X145241317Y-103301688D01*
X145109381Y-103596776D01*
X130653200Y-103596776D01*
X130653200Y-103502111D01*
X130635809Y-103414681D01*
X130647662Y-103402828D01*
X130703941Y-103318600D01*
X132895510Y-103318600D01*
X132906772Y-103329862D01*
X133059911Y-103432186D01*
X133230071Y-103502668D01*
X133410711Y-103538600D01*
X133594889Y-103538600D01*
X133775529Y-103502668D01*
X133945689Y-103432186D01*
X134087722Y-103337283D01*
X134119071Y-103350268D01*
X134299711Y-103386200D01*
X134483889Y-103386200D01*
X134664529Y-103350268D01*
X134834689Y-103279786D01*
X134925762Y-103218933D01*
X135058871Y-103274068D01*
X135239511Y-103310000D01*
X135423689Y-103310000D01*
X135604329Y-103274068D01*
X135774489Y-103203586D01*
X135927628Y-103101262D01*
X136057862Y-102971028D01*
X136160186Y-102817889D01*
X136230668Y-102647729D01*
X136266600Y-102467089D01*
X136266600Y-102282911D01*
X136230668Y-102102271D01*
X136186952Y-101996729D01*
X149035299Y-101996729D01*
X149082543Y-102374951D01*
X149202667Y-102736690D01*
X149334688Y-102983683D01*
X149629776Y-103115619D01*
X150799395Y-101946000D01*
X149629776Y-100776381D01*
X149334688Y-100908317D01*
X149163841Y-101249045D01*
X149062750Y-101616557D01*
X149035299Y-101996729D01*
X136186952Y-101996729D01*
X136160186Y-101932111D01*
X136057862Y-101778972D01*
X135927628Y-101648738D01*
X135774489Y-101546414D01*
X135604329Y-101475932D01*
X135423689Y-101440000D01*
X135407762Y-101440000D01*
X134693620Y-100725859D01*
X134671227Y-100698573D01*
X134562354Y-100609223D01*
X134438142Y-100542830D01*
X134303364Y-100501946D01*
X134198320Y-100491600D01*
X134198310Y-100491600D01*
X134163200Y-100488142D01*
X134128090Y-100491600D01*
X131411846Y-100491600D01*
X131376736Y-100488142D01*
X131341626Y-100491600D01*
X131341616Y-100491600D01*
X131236572Y-100501946D01*
X131101794Y-100542830D01*
X130977582Y-100609223D01*
X130868709Y-100698573D01*
X130846319Y-100725855D01*
X130507454Y-101064721D01*
X130480174Y-101087109D01*
X130416807Y-101164321D01*
X130371929Y-101145732D01*
X130191289Y-101109800D01*
X130007111Y-101109800D01*
X129826471Y-101145732D01*
X129656311Y-101216214D01*
X129503172Y-101318538D01*
X129372938Y-101448772D01*
X129270614Y-101601911D01*
X129200132Y-101772071D01*
X129164200Y-101952711D01*
X129164200Y-102091800D01*
X126324309Y-102091800D01*
X126289199Y-102088342D01*
X126254089Y-102091800D01*
X126254080Y-102091800D01*
X126149036Y-102102146D01*
X126014258Y-102143030D01*
X125890046Y-102209423D01*
X125781173Y-102298773D01*
X125758784Y-102326054D01*
X125198858Y-102885981D01*
X125198853Y-102885985D01*
X125140971Y-102943868D01*
X125135363Y-102949476D01*
X125135352Y-102949485D01*
X124942999Y-103141838D01*
X124889224Y-103088063D01*
X124889215Y-103088052D01*
X124330423Y-102529262D01*
X124330415Y-102529252D01*
X119839421Y-98038260D01*
X119817028Y-98010974D01*
X119708155Y-97921624D01*
X119583943Y-97855231D01*
X119449165Y-97814347D01*
X119344121Y-97804001D01*
X119344111Y-97804001D01*
X119309001Y-97800543D01*
X119273891Y-97804001D01*
X117785111Y-97804001D01*
X117749999Y-97800543D01*
X117714887Y-97804001D01*
X117714879Y-97804001D01*
X117621947Y-97813154D01*
X117609834Y-97814347D01*
X117568950Y-97826749D01*
X117475057Y-97855231D01*
X117421234Y-97884000D01*
X117357911Y-97884000D01*
X117177271Y-97919932D01*
X117007111Y-97990414D01*
X116853972Y-98092738D01*
X116723738Y-98222972D01*
X116621414Y-98376111D01*
X116550932Y-98546271D01*
X116515000Y-98726911D01*
X116515000Y-98911089D01*
X116550932Y-99091729D01*
X116621414Y-99261889D01*
X116723738Y-99415028D01*
X116853972Y-99545262D01*
X117007111Y-99647586D01*
X117061092Y-99669945D01*
X115096439Y-101634600D01*
X114433648Y-101634600D01*
X114372706Y-101520586D01*
X114187134Y-101294466D01*
X113961014Y-101108894D01*
X113906209Y-101079600D01*
X113961014Y-101050306D01*
X114187134Y-100864734D01*
X114372706Y-100638614D01*
X114510599Y-100380634D01*
X114595513Y-100100711D01*
X114624185Y-99809600D01*
X114595513Y-99518489D01*
X114510599Y-99238566D01*
X114372706Y-98980586D01*
X114187134Y-98754466D01*
X113961014Y-98568894D01*
X113906209Y-98539600D01*
X113961014Y-98510306D01*
X114187134Y-98324734D01*
X114372706Y-98098614D01*
X114510599Y-97840634D01*
X114569640Y-97646000D01*
X144340928Y-97646000D01*
X144340928Y-100246000D01*
X144353188Y-100370482D01*
X144389498Y-100490180D01*
X144448463Y-100600494D01*
X144527815Y-100697185D01*
X144624506Y-100776537D01*
X144734820Y-100835502D01*
X144854518Y-100871812D01*
X144979000Y-100884072D01*
X147579000Y-100884072D01*
X147703482Y-100871812D01*
X147823180Y-100835502D01*
X147933494Y-100776537D01*
X148030185Y-100697185D01*
X148109537Y-100600494D01*
X148168502Y-100490180D01*
X148204812Y-100370482D01*
X148217072Y-100246000D01*
X148217072Y-97646000D01*
X148204812Y-97521518D01*
X148168502Y-97401820D01*
X148109537Y-97291506D01*
X148030185Y-97194815D01*
X147933494Y-97115463D01*
X147823180Y-97056498D01*
X147703482Y-97020188D01*
X147579000Y-97007928D01*
X144979000Y-97007928D01*
X144854518Y-97020188D01*
X144734820Y-97056498D01*
X144624506Y-97115463D01*
X144527815Y-97194815D01*
X144448463Y-97291506D01*
X144389498Y-97401820D01*
X144353188Y-97521518D01*
X144340928Y-97646000D01*
X114569640Y-97646000D01*
X114595513Y-97560711D01*
X114624185Y-97269600D01*
X114595513Y-96978489D01*
X114510599Y-96698566D01*
X114372706Y-96440586D01*
X114187134Y-96214466D01*
X113961014Y-96028894D01*
X113896477Y-95994399D01*
X114013355Y-95924778D01*
X114229588Y-95729869D01*
X114403641Y-95496520D01*
X114528825Y-95233699D01*
X114573476Y-95086490D01*
X114452155Y-94856600D01*
X113259000Y-94856600D01*
X113259000Y-94876600D01*
X113005000Y-94876600D01*
X113005000Y-94856600D01*
X112985000Y-94856600D01*
X112985000Y-94602600D01*
X113005000Y-94602600D01*
X113005000Y-94582600D01*
X113259000Y-94582600D01*
X113259000Y-94602600D01*
X114452155Y-94602600D01*
X114573476Y-94372710D01*
X114528825Y-94225501D01*
X114403641Y-93962680D01*
X114229588Y-93729331D01*
X114013355Y-93534422D01*
X113896477Y-93464801D01*
X113961014Y-93430306D01*
X114187134Y-93244734D01*
X114372706Y-93018614D01*
X114510599Y-92760634D01*
X114595513Y-92480711D01*
X114624185Y-92189600D01*
X114595513Y-91898489D01*
X114510599Y-91618566D01*
X114372706Y-91360586D01*
X114187134Y-91134466D01*
X113961014Y-90948894D01*
X113906209Y-90919600D01*
X113961014Y-90890306D01*
X114187134Y-90704734D01*
X114372706Y-90478614D01*
X114510599Y-90220634D01*
X114595513Y-89940711D01*
X114624185Y-89649600D01*
X114595513Y-89358489D01*
X114510599Y-89078566D01*
X114372706Y-88820586D01*
X114187134Y-88594466D01*
X113961014Y-88408894D01*
X113906209Y-88379600D01*
X113961014Y-88350306D01*
X114187134Y-88164734D01*
X114372706Y-87938614D01*
X114510599Y-87680634D01*
X114595513Y-87400711D01*
X114624185Y-87109600D01*
X114595513Y-86818489D01*
X114594287Y-86814448D01*
X116981774Y-89201936D01*
X116977738Y-89205972D01*
X116875414Y-89359111D01*
X116804932Y-89529271D01*
X116769000Y-89709911D01*
X116769000Y-89894089D01*
X116804932Y-90074729D01*
X116875414Y-90244889D01*
X116977738Y-90398028D01*
X117107972Y-90528262D01*
X117261111Y-90630586D01*
X117431271Y-90701068D01*
X117611911Y-90737000D01*
X117796089Y-90737000D01*
X117976729Y-90701068D01*
X118146889Y-90630586D01*
X118300028Y-90528262D01*
X118430262Y-90398028D01*
X118532586Y-90244889D01*
X118603068Y-90074729D01*
X118639000Y-89894089D01*
X118639000Y-89709911D01*
X118603068Y-89529271D01*
X118532586Y-89359111D01*
X118430262Y-89205972D01*
X118419000Y-89194710D01*
X118419000Y-88948110D01*
X118422458Y-88913000D01*
X118419000Y-88877890D01*
X118419000Y-88877880D01*
X118408654Y-88772836D01*
X118367770Y-88638058D01*
X118301377Y-88513846D01*
X118212027Y-88404973D01*
X118184746Y-88382584D01*
X115186420Y-85384259D01*
X115164027Y-85356973D01*
X115134682Y-85332890D01*
X115138600Y-85333276D01*
X115175922Y-85329600D01*
X115175933Y-85329600D01*
X115287586Y-85318603D01*
X115430847Y-85275146D01*
X115562876Y-85204574D01*
X115678601Y-85109601D01*
X115702403Y-85080598D01*
X116026849Y-84756153D01*
X116147929Y-84732068D01*
X116318089Y-84661586D01*
X116471228Y-84559262D01*
X116601462Y-84429028D01*
X116703786Y-84275889D01*
X116774268Y-84105729D01*
X116810200Y-83925089D01*
X116810200Y-83740911D01*
X116774268Y-83560271D01*
X116703786Y-83390111D01*
X116601462Y-83236972D01*
X116471228Y-83106738D01*
X116318089Y-83004414D01*
X116147929Y-82933932D01*
X115967289Y-82898000D01*
X115783111Y-82898000D01*
X115602471Y-82933932D01*
X115432311Y-83004414D01*
X115279172Y-83106738D01*
X115148938Y-83236972D01*
X115046614Y-83390111D01*
X114976132Y-83560271D01*
X114952047Y-83681351D01*
X114823799Y-83809600D01*
X114409595Y-83809600D01*
X114372706Y-83740586D01*
X114187134Y-83514466D01*
X113961014Y-83328894D01*
X113906209Y-83299600D01*
X113961014Y-83270306D01*
X114187134Y-83084734D01*
X114372706Y-82858614D01*
X114510599Y-82600634D01*
X114595513Y-82320711D01*
X114624185Y-82029600D01*
X114595513Y-81738489D01*
X114510599Y-81458566D01*
X114372706Y-81200586D01*
X114187134Y-80974466D01*
X113961014Y-80788894D01*
X113906209Y-80759600D01*
X113961014Y-80730306D01*
X114187134Y-80544734D01*
X114372706Y-80318614D01*
X114510599Y-80060634D01*
X114595513Y-79780711D01*
X114624185Y-79489600D01*
X114595513Y-79198489D01*
X114510599Y-78918566D01*
X114372706Y-78660586D01*
X114187134Y-78434466D01*
X113961014Y-78248894D01*
X113906209Y-78219600D01*
X113961014Y-78190306D01*
X114187134Y-78004734D01*
X114372706Y-77778614D01*
X114510599Y-77520634D01*
X114595513Y-77240711D01*
X114624185Y-76949600D01*
X114595513Y-76658489D01*
X114510599Y-76378566D01*
X114372706Y-76120586D01*
X114187134Y-75894466D01*
X113961014Y-75708894D01*
X113896477Y-75674399D01*
X114013355Y-75604778D01*
X114229588Y-75409869D01*
X114403641Y-75176520D01*
X114528825Y-74913699D01*
X114573476Y-74766490D01*
X114452155Y-74536600D01*
X113259000Y-74536600D01*
X113259000Y-74556600D01*
X113005000Y-74556600D01*
X113005000Y-74536600D01*
X112985000Y-74536600D01*
X112985000Y-74282600D01*
X113005000Y-74282600D01*
X113005000Y-74262600D01*
X113259000Y-74262600D01*
X113259000Y-74282600D01*
X114452155Y-74282600D01*
X114573476Y-74052710D01*
X114528825Y-73905501D01*
X114403641Y-73642680D01*
X114229588Y-73409331D01*
X114013355Y-73214422D01*
X113896477Y-73144801D01*
X113961014Y-73110306D01*
X114187134Y-72924734D01*
X114372706Y-72698614D01*
X114510599Y-72440634D01*
X114595513Y-72160711D01*
X114624185Y-71869600D01*
X114595513Y-71578489D01*
X114510599Y-71298566D01*
X114372706Y-71040586D01*
X114187134Y-70814466D01*
X113961014Y-70628894D01*
X113906209Y-70599600D01*
X113961014Y-70570306D01*
X114187134Y-70384734D01*
X114372706Y-70158614D01*
X114510599Y-69900634D01*
X114595513Y-69620711D01*
X114624185Y-69329600D01*
X114595513Y-69038489D01*
X114510599Y-68758566D01*
X114399611Y-68550921D01*
X115688025Y-69690610D01*
X115715405Y-69828256D01*
X115785887Y-69998416D01*
X115888211Y-70151555D01*
X116018445Y-70281789D01*
X116171584Y-70384113D01*
X116341744Y-70454595D01*
X116522384Y-70490527D01*
X116706562Y-70490527D01*
X116887202Y-70454595D01*
X117057362Y-70384113D01*
X117210501Y-70281789D01*
X117340735Y-70151555D01*
X117443059Y-69998416D01*
X117513541Y-69828256D01*
X117549473Y-69647616D01*
X117549473Y-69463438D01*
X117513541Y-69282798D01*
X117443059Y-69112638D01*
X117340735Y-68959499D01*
X117210501Y-68829265D01*
X117057362Y-68726941D01*
X116887202Y-68656459D01*
X116706562Y-68620527D01*
X116636616Y-68620527D01*
X114619583Y-66836327D01*
X114624185Y-66789600D01*
X114595513Y-66498489D01*
X114592662Y-66489090D01*
X114637271Y-66507568D01*
X114817911Y-66543500D01*
X115002089Y-66543500D01*
X115182729Y-66507568D01*
X115352889Y-66437086D01*
X115506028Y-66334762D01*
X115550804Y-66289986D01*
X115609206Y-66272270D01*
X115632161Y-66260000D01*
X126557159Y-66260000D01*
X126316249Y-66388769D01*
X126067287Y-66593086D01*
X125862970Y-66842048D01*
X125711149Y-67126085D01*
X125617658Y-67434284D01*
X125594001Y-67674478D01*
X125594001Y-75354684D01*
X125553625Y-75318046D01*
X125507155Y-75271576D01*
X125489172Y-75259560D01*
X125473164Y-75245034D01*
X125416850Y-75211236D01*
X125362205Y-75174723D01*
X125342221Y-75166445D01*
X125323689Y-75155323D01*
X125261861Y-75133159D01*
X125201145Y-75108010D01*
X125179936Y-75103791D01*
X125159585Y-75096496D01*
X125094616Y-75086820D01*
X125030165Y-75074000D01*
X125008535Y-75074000D01*
X124987156Y-75070816D01*
X124921553Y-75074000D01*
X124855835Y-75074000D01*
X124834625Y-75078219D01*
X124813032Y-75079267D01*
X124749303Y-75095191D01*
X124684855Y-75108010D01*
X124664875Y-75116286D01*
X124643903Y-75121526D01*
X124584510Y-75149574D01*
X124523795Y-75174723D01*
X124505812Y-75186739D01*
X124486267Y-75195969D01*
X124433489Y-75235064D01*
X124378845Y-75271576D01*
X124363552Y-75286869D01*
X124346183Y-75299735D01*
X124302046Y-75348375D01*
X124255576Y-75394845D01*
X124243560Y-75412828D01*
X124229034Y-75428836D01*
X124195236Y-75485150D01*
X124158723Y-75539795D01*
X124150445Y-75559779D01*
X124139323Y-75578311D01*
X124117159Y-75640139D01*
X124092010Y-75700855D01*
X124087791Y-75722064D01*
X124080496Y-75742415D01*
X124070820Y-75807384D01*
X124058000Y-75871835D01*
X124058000Y-75893465D01*
X124054816Y-75914844D01*
X124058000Y-75980447D01*
X124058000Y-76046165D01*
X124062219Y-76067375D01*
X124063267Y-76088968D01*
X124079190Y-76152696D01*
X124092010Y-76217145D01*
X124116959Y-76277378D01*
X124693000Y-77890292D01*
X124693001Y-83789550D01*
X124552489Y-83761600D01*
X124368311Y-83761600D01*
X124187671Y-83797532D01*
X124017511Y-83868014D01*
X123864372Y-83970338D01*
X123734138Y-84100572D01*
X123631814Y-84253711D01*
X123561332Y-84423871D01*
X123525400Y-84604511D01*
X123525400Y-84788689D01*
X123561332Y-84969329D01*
X123631814Y-85139489D01*
X123734138Y-85292628D01*
X123745401Y-85303891D01*
X123745401Y-85571051D01*
X123587289Y-85539600D01*
X123403111Y-85539600D01*
X123222471Y-85575532D01*
X123052311Y-85646014D01*
X122899172Y-85748338D01*
X122768938Y-85878572D01*
X122666614Y-86031711D01*
X122596132Y-86201871D01*
X122586264Y-86251479D01*
X122548729Y-86235932D01*
X122368089Y-86200000D01*
X122183911Y-86200000D01*
X122003271Y-86235932D01*
X121833111Y-86306414D01*
X121679972Y-86408738D01*
X121668710Y-86420000D01*
X120343290Y-86420000D01*
X120332028Y-86408738D01*
X120178889Y-86306414D01*
X120008729Y-86235932D01*
X119828089Y-86200000D01*
X119643911Y-86200000D01*
X119463271Y-86235932D01*
X119293111Y-86306414D01*
X119139972Y-86408738D01*
X119009738Y-86538972D01*
X118907414Y-86692111D01*
X118836932Y-86862271D01*
X118801000Y-87042911D01*
X118801000Y-87227089D01*
X118836932Y-87407729D01*
X118907414Y-87577889D01*
X119009738Y-87731028D01*
X119139972Y-87861262D01*
X119293111Y-87963586D01*
X119463271Y-88034068D01*
X119643911Y-88070000D01*
X119828089Y-88070000D01*
X120008729Y-88034068D01*
X120178889Y-87963586D01*
X120332028Y-87861262D01*
X120343290Y-87850000D01*
X121668710Y-87850000D01*
X121679972Y-87861262D01*
X121833111Y-87963586D01*
X122003271Y-88034068D01*
X122063531Y-88046055D01*
X122088132Y-88169729D01*
X122158614Y-88339889D01*
X122260938Y-88493028D01*
X122391172Y-88623262D01*
X122544311Y-88725586D01*
X122714471Y-88796068D01*
X122895111Y-88832000D01*
X123079289Y-88832000D01*
X123259929Y-88796068D01*
X123430089Y-88725586D01*
X123492916Y-88683606D01*
X123559572Y-88750262D01*
X123712711Y-88852586D01*
X123882871Y-88923068D01*
X124063511Y-88959000D01*
X124247689Y-88959000D01*
X124428329Y-88923068D01*
X124598489Y-88852586D01*
X124751628Y-88750262D01*
X124866800Y-88635090D01*
X124981972Y-88750262D01*
X125135111Y-88852586D01*
X125305271Y-88923068D01*
X125425690Y-88947021D01*
X125304748Y-89173286D01*
X125211258Y-89481484D01*
X125179689Y-89802000D01*
X125211258Y-90122516D01*
X125304748Y-90430714D01*
X125456570Y-90714752D01*
X125660887Y-90963713D01*
X125909848Y-91168030D01*
X126193886Y-91319852D01*
X126502084Y-91413342D01*
X126822600Y-91444911D01*
X127143116Y-91413342D01*
X127451314Y-91319852D01*
X127735352Y-91168030D01*
X127921923Y-91014915D01*
X128328314Y-90608524D01*
X128390714Y-90557314D01*
X128595031Y-90308352D01*
X128746852Y-90024315D01*
X128840343Y-89716116D01*
X128864000Y-89475922D01*
X128864000Y-89475920D01*
X128871911Y-89395601D01*
X128864000Y-89315281D01*
X128864000Y-85854035D01*
X136478600Y-85854035D01*
X136478600Y-86028365D01*
X136512610Y-86199345D01*
X136579323Y-86360405D01*
X136676176Y-86505355D01*
X136799445Y-86628624D01*
X136944395Y-86725477D01*
X137105455Y-86792190D01*
X137276435Y-86826200D01*
X137450765Y-86826200D01*
X137621745Y-86792190D01*
X137782805Y-86725477D01*
X137927755Y-86628624D01*
X138051024Y-86505355D01*
X138147877Y-86360405D01*
X138214590Y-86199345D01*
X138238917Y-86077045D01*
X138682551Y-85633412D01*
X138709827Y-85611027D01*
X138732211Y-85583752D01*
X138732215Y-85583748D01*
X138799176Y-85502155D01*
X138814806Y-85472914D01*
X138865570Y-85377942D01*
X138906454Y-85243164D01*
X138916800Y-85138120D01*
X138916800Y-85138110D01*
X138920258Y-85103000D01*
X138916800Y-85067890D01*
X138916800Y-82529795D01*
X139021271Y-82573068D01*
X139201911Y-82609000D01*
X139386089Y-82609000D01*
X139566729Y-82573068D01*
X139736889Y-82502586D01*
X139890028Y-82400262D01*
X140020262Y-82270028D01*
X140097121Y-82155000D01*
X140489049Y-82155000D01*
X140629111Y-82248586D01*
X140799271Y-82319068D01*
X140979911Y-82355000D01*
X141164089Y-82355000D01*
X141344729Y-82319068D01*
X141514889Y-82248586D01*
X141668028Y-82146262D01*
X141798262Y-82016028D01*
X141900586Y-81862889D01*
X141971068Y-81692729D01*
X142007000Y-81512089D01*
X142007000Y-81327911D01*
X141971068Y-81147271D01*
X141900586Y-80977111D01*
X141798262Y-80823972D01*
X141668028Y-80693738D01*
X141514889Y-80591414D01*
X141344729Y-80520932D01*
X141164089Y-80485000D01*
X140979911Y-80485000D01*
X140799271Y-80520932D01*
X140763200Y-80535873D01*
X140763200Y-80367635D01*
X140729190Y-80196655D01*
X140662477Y-80035595D01*
X140565624Y-79890645D01*
X140442355Y-79767376D01*
X140297405Y-79670523D01*
X140136345Y-79603810D01*
X139965365Y-79569800D01*
X139791035Y-79569800D01*
X139620055Y-79603810D01*
X139458995Y-79670523D01*
X139355315Y-79739800D01*
X138948112Y-79739800D01*
X138913000Y-79736342D01*
X138877888Y-79739800D01*
X138877880Y-79739800D01*
X138784948Y-79748953D01*
X138772835Y-79750146D01*
X138731951Y-79762548D01*
X138638058Y-79791030D01*
X138513846Y-79857423D01*
X138496066Y-79872015D01*
X138432252Y-79924385D01*
X138432248Y-79924389D01*
X138404973Y-79946773D01*
X138382588Y-79974049D01*
X138065955Y-80290683D01*
X137943655Y-80315010D01*
X137782595Y-80381723D01*
X137637645Y-80478576D01*
X137514376Y-80601845D01*
X137417523Y-80746795D01*
X137350810Y-80907855D01*
X137316800Y-81078835D01*
X137316800Y-81253165D01*
X137350810Y-81424145D01*
X137417523Y-81585205D01*
X137486800Y-81688885D01*
X137486801Y-84806837D01*
X137227755Y-85065883D01*
X137105455Y-85090210D01*
X136944395Y-85156923D01*
X136799445Y-85253776D01*
X136676176Y-85377045D01*
X136579323Y-85521995D01*
X136512610Y-85683055D01*
X136478600Y-85854035D01*
X128864000Y-85854035D01*
X128864000Y-67674478D01*
X128840343Y-67434284D01*
X128746852Y-67126085D01*
X128735000Y-67103911D01*
X138613000Y-67103911D01*
X138613000Y-67288089D01*
X138648932Y-67468729D01*
X138719414Y-67638889D01*
X138821738Y-67792028D01*
X138951972Y-67922262D01*
X139105111Y-68024586D01*
X139275271Y-68095068D01*
X139455911Y-68131000D01*
X139640089Y-68131000D01*
X139820729Y-68095068D01*
X139990889Y-68024586D01*
X140144028Y-67922262D01*
X140155290Y-67911000D01*
X143449890Y-67911000D01*
X143485000Y-67914458D01*
X143520110Y-67911000D01*
X143520120Y-67911000D01*
X143625164Y-67900654D01*
X143759942Y-67859770D01*
X143884154Y-67793377D01*
X143993027Y-67704027D01*
X144015420Y-67676741D01*
X145011323Y-66680839D01*
X145054973Y-66734026D01*
X145082254Y-66756415D01*
X146764584Y-68438746D01*
X146786973Y-68466027D01*
X146895846Y-68555377D01*
X147004015Y-68613195D01*
X147017733Y-68620527D01*
X147020058Y-68621770D01*
X147154836Y-68662654D01*
X147259880Y-68673000D01*
X147259889Y-68673000D01*
X147294999Y-68676458D01*
X147323373Y-68673663D01*
X147333972Y-68684262D01*
X147487111Y-68786586D01*
X147657271Y-68857068D01*
X147837911Y-68893000D01*
X148022089Y-68893000D01*
X148202729Y-68857068D01*
X148372889Y-68786586D01*
X148526028Y-68684262D01*
X148656262Y-68554028D01*
X148758586Y-68400889D01*
X148829068Y-68230729D01*
X148865000Y-68050089D01*
X148865000Y-67865911D01*
X148829068Y-67685271D01*
X148758586Y-67515111D01*
X148656262Y-67361972D01*
X148526028Y-67231738D01*
X148372889Y-67129414D01*
X148202729Y-67058932D01*
X148022089Y-67023000D01*
X147837911Y-67023000D01*
X147657271Y-67058932D01*
X147487111Y-67129414D01*
X147481395Y-67133233D01*
X146277999Y-65929838D01*
X146277999Y-65753111D01*
X146281457Y-65717999D01*
X146277999Y-65682887D01*
X146277999Y-65682879D01*
X146268846Y-65589947D01*
X146267653Y-65577834D01*
X146246330Y-65507541D01*
X146226769Y-65443057D01*
X146198000Y-65389234D01*
X146198000Y-65325911D01*
X146162068Y-65145271D01*
X146091586Y-64975111D01*
X145989262Y-64821972D01*
X145859028Y-64691738D01*
X145705889Y-64589414D01*
X145535729Y-64518932D01*
X145355089Y-64483000D01*
X145170911Y-64483000D01*
X144990271Y-64518932D01*
X144820111Y-64589414D01*
X144666972Y-64691738D01*
X144536738Y-64821972D01*
X144434414Y-64975111D01*
X144363932Y-65145271D01*
X144328000Y-65325911D01*
X144328000Y-65341837D01*
X143188839Y-66481000D01*
X142179202Y-66481000D01*
X142303028Y-66398262D01*
X142433262Y-66268028D01*
X142535586Y-66114889D01*
X142606068Y-65944729D01*
X142642000Y-65764089D01*
X142642000Y-65579911D01*
X142606068Y-65399271D01*
X142535586Y-65229111D01*
X142433262Y-65075972D01*
X142422000Y-65064710D01*
X142422000Y-64571161D01*
X142672162Y-64321000D01*
X142688089Y-64321000D01*
X142868729Y-64285068D01*
X143038889Y-64214586D01*
X143192028Y-64112262D01*
X143322262Y-63982028D01*
X143424586Y-63828889D01*
X143495068Y-63658729D01*
X143531000Y-63478089D01*
X143531000Y-63293911D01*
X143495068Y-63113271D01*
X143424586Y-62943111D01*
X143322262Y-62789972D01*
X143192028Y-62659738D01*
X143038889Y-62557414D01*
X142868729Y-62486932D01*
X142688089Y-62451000D01*
X142503911Y-62451000D01*
X142323271Y-62486932D01*
X142153111Y-62557414D01*
X141999972Y-62659738D01*
X141869738Y-62789972D01*
X141767414Y-62943111D01*
X141696932Y-63113271D01*
X141661000Y-63293911D01*
X141661000Y-63309838D01*
X141226255Y-63744584D01*
X141198973Y-63766974D01*
X141109623Y-63875847D01*
X141043230Y-64000059D01*
X141002346Y-64134837D01*
X140992000Y-64239881D01*
X140992000Y-64239890D01*
X140988542Y-64275000D01*
X140992000Y-64310110D01*
X140992001Y-65064709D01*
X140980738Y-65075972D01*
X140878414Y-65229111D01*
X140807932Y-65399271D01*
X140772000Y-65579911D01*
X140772000Y-65764089D01*
X140807932Y-65944729D01*
X140878414Y-66114889D01*
X140980738Y-66268028D01*
X141110972Y-66398262D01*
X141234798Y-66481000D01*
X140155290Y-66481000D01*
X140144028Y-66469738D01*
X139990889Y-66367414D01*
X139820729Y-66296932D01*
X139640089Y-66261000D01*
X139455911Y-66261000D01*
X139275271Y-66296932D01*
X139105111Y-66367414D01*
X138951972Y-66469738D01*
X138821738Y-66599972D01*
X138719414Y-66753111D01*
X138648932Y-66923271D01*
X138613000Y-67103911D01*
X128735000Y-67103911D01*
X128595031Y-66842048D01*
X128390714Y-66593086D01*
X128141752Y-66388769D01*
X127900842Y-66260000D01*
X131575390Y-66260000D01*
X131610500Y-66263458D01*
X131645610Y-66260000D01*
X131645620Y-66260000D01*
X131750664Y-66249654D01*
X131885442Y-66208770D01*
X132009654Y-66142377D01*
X132118527Y-66053027D01*
X132140920Y-66025741D01*
X138174751Y-59991911D01*
X138867000Y-59991911D01*
X138867000Y-60176089D01*
X138902932Y-60356729D01*
X138973414Y-60526889D01*
X139075738Y-60680028D01*
X139205972Y-60810262D01*
X139359111Y-60912586D01*
X139529271Y-60983068D01*
X139709911Y-61019000D01*
X139837858Y-61019000D01*
X139915836Y-61042654D01*
X140020880Y-61053000D01*
X140020889Y-61053000D01*
X140055999Y-61056458D01*
X140091109Y-61053000D01*
X140972710Y-61053000D01*
X140983972Y-61064262D01*
X141137111Y-61166586D01*
X141307271Y-61237068D01*
X141487911Y-61273000D01*
X141672089Y-61273000D01*
X141852729Y-61237068D01*
X142022889Y-61166586D01*
X142176028Y-61064262D01*
X142306262Y-60934028D01*
X142408586Y-60780889D01*
X142479068Y-60610729D01*
X142515000Y-60430089D01*
X142515000Y-60245911D01*
X142479068Y-60065271D01*
X142408586Y-59895111D01*
X142306262Y-59741972D01*
X142176028Y-59611738D01*
X142022889Y-59509414D01*
X141852729Y-59438932D01*
X141672089Y-59403000D01*
X141487911Y-59403000D01*
X141307271Y-59438932D01*
X141137111Y-59509414D01*
X140983972Y-59611738D01*
X140972710Y-59623000D01*
X140618485Y-59623000D01*
X140528262Y-59487972D01*
X140398028Y-59357738D01*
X140244889Y-59255414D01*
X140074729Y-59184932D01*
X139894089Y-59149000D01*
X139709911Y-59149000D01*
X139529271Y-59184932D01*
X139359111Y-59255414D01*
X139205972Y-59357738D01*
X139075738Y-59487972D01*
X138973414Y-59641111D01*
X138902932Y-59811271D01*
X138867000Y-59991911D01*
X138174751Y-59991911D01*
X138657156Y-59509507D01*
X138684426Y-59487127D01*
X138706807Y-59459856D01*
X138706815Y-59459848D01*
X138773776Y-59378255D01*
X138773777Y-59378254D01*
X138840170Y-59254042D01*
X138881054Y-59119264D01*
X138891400Y-59014220D01*
X138891400Y-59014210D01*
X138894858Y-58979100D01*
X138891400Y-58943990D01*
X138891400Y-51877490D01*
X138902662Y-51866228D01*
X139004986Y-51713089D01*
X139075468Y-51542929D01*
X139111400Y-51362289D01*
X139111400Y-51346362D01*
X139209162Y-51248600D01*
X141156839Y-51248600D01*
X142516001Y-52607764D01*
X142516000Y-54156090D01*
X142512542Y-54191200D01*
X142516000Y-54226310D01*
X142516000Y-54226319D01*
X142526346Y-54331363D01*
X142567230Y-54466141D01*
X142633623Y-54590353D01*
X142722973Y-54699226D01*
X142750255Y-54721616D01*
X143413600Y-55384962D01*
X143413600Y-55400889D01*
X143449532Y-55581529D01*
X143520014Y-55751689D01*
X143622338Y-55904828D01*
X143752572Y-56035062D01*
X143905711Y-56137386D01*
X144075871Y-56207868D01*
X144256511Y-56243800D01*
X144440689Y-56243800D01*
X144621329Y-56207868D01*
X144791489Y-56137386D01*
X144944628Y-56035062D01*
X145074862Y-55904828D01*
X145100215Y-55866885D01*
X145124911Y-55883386D01*
X145295071Y-55953868D01*
X145475711Y-55989800D01*
X145659889Y-55989800D01*
X145840529Y-55953868D01*
X146010689Y-55883386D01*
X146163828Y-55781062D01*
X146294062Y-55650828D01*
X146396386Y-55497689D01*
X146466868Y-55327529D01*
X146502800Y-55146889D01*
X146502800Y-54962711D01*
X146466868Y-54782071D01*
X146396386Y-54611911D01*
X146294062Y-54458772D01*
X146163828Y-54328538D01*
X146010689Y-54226214D01*
X145840529Y-54155732D01*
X145659889Y-54119800D01*
X145643962Y-54119800D01*
X144613626Y-53089464D01*
X144617662Y-53085428D01*
X144719986Y-52932289D01*
X144790468Y-52762129D01*
X144826400Y-52581489D01*
X144826400Y-52397311D01*
X144790468Y-52216671D01*
X144719986Y-52046511D01*
X144650450Y-51942442D01*
X145203600Y-51942442D01*
X145203600Y-52274358D01*
X145268354Y-52599896D01*
X145395372Y-52906547D01*
X145579775Y-53182525D01*
X145814475Y-53417225D01*
X146090453Y-53601628D01*
X146397104Y-53728646D01*
X146722642Y-53793400D01*
X147054558Y-53793400D01*
X147380096Y-53728646D01*
X147686747Y-53601628D01*
X147840558Y-53498854D01*
X147848063Y-53512894D01*
X147927415Y-53609585D01*
X148024106Y-53688937D01*
X148134420Y-53747902D01*
X148254118Y-53784212D01*
X148378600Y-53796472D01*
X150478600Y-53796472D01*
X150603082Y-53784212D01*
X150722780Y-53747902D01*
X150833094Y-53688937D01*
X150929785Y-53609585D01*
X151009137Y-53512894D01*
X151068102Y-53402580D01*
X151104412Y-53282882D01*
X151116672Y-53158400D01*
X151116672Y-51942442D01*
X161586600Y-51942442D01*
X161586600Y-52274358D01*
X161651354Y-52599896D01*
X161778372Y-52906547D01*
X161962775Y-53182525D01*
X162197475Y-53417225D01*
X162473453Y-53601628D01*
X162780104Y-53728646D01*
X163105642Y-53793400D01*
X163437558Y-53793400D01*
X163763096Y-53728646D01*
X164069747Y-53601628D01*
X164223558Y-53498854D01*
X164231063Y-53512894D01*
X164310415Y-53609585D01*
X164407106Y-53688937D01*
X164517420Y-53747902D01*
X164637118Y-53784212D01*
X164761600Y-53796472D01*
X166861600Y-53796472D01*
X166986082Y-53784212D01*
X167105780Y-53747902D01*
X167216094Y-53688937D01*
X167312785Y-53609585D01*
X167392137Y-53512894D01*
X167451102Y-53402580D01*
X167487412Y-53282882D01*
X167499672Y-53158400D01*
X167499672Y-51058400D01*
X167487412Y-50933918D01*
X167451102Y-50814220D01*
X167392137Y-50703906D01*
X167312785Y-50607215D01*
X167216094Y-50527863D01*
X167105780Y-50468898D01*
X166986082Y-50432588D01*
X166861600Y-50420328D01*
X164761600Y-50420328D01*
X164637118Y-50432588D01*
X164517420Y-50468898D01*
X164407106Y-50527863D01*
X164310415Y-50607215D01*
X164231063Y-50703906D01*
X164223558Y-50717946D01*
X164069747Y-50615172D01*
X163763096Y-50488154D01*
X163437558Y-50423400D01*
X163105642Y-50423400D01*
X162780104Y-50488154D01*
X162473453Y-50615172D01*
X162197475Y-50799575D01*
X161962775Y-51034275D01*
X161778372Y-51310253D01*
X161651354Y-51616904D01*
X161586600Y-51942442D01*
X151116672Y-51942442D01*
X151116672Y-51058400D01*
X151104412Y-50933918D01*
X151068102Y-50814220D01*
X151009137Y-50703906D01*
X150929785Y-50607215D01*
X150833094Y-50527863D01*
X150722780Y-50468898D01*
X150603082Y-50432588D01*
X150478600Y-50420328D01*
X148378600Y-50420328D01*
X148254118Y-50432588D01*
X148134420Y-50468898D01*
X148024106Y-50527863D01*
X147927415Y-50607215D01*
X147848063Y-50703906D01*
X147840558Y-50717946D01*
X147686747Y-50615172D01*
X147380096Y-50488154D01*
X147054558Y-50423400D01*
X146722642Y-50423400D01*
X146397104Y-50488154D01*
X146090453Y-50615172D01*
X145814475Y-50799575D01*
X145579775Y-51034275D01*
X145395372Y-51310253D01*
X145268354Y-51616904D01*
X145203600Y-51942442D01*
X144650450Y-51942442D01*
X144617662Y-51893372D01*
X144487428Y-51763138D01*
X144334289Y-51660814D01*
X144164129Y-51590332D01*
X143983489Y-51554400D01*
X143799311Y-51554400D01*
X143618671Y-51590332D01*
X143549533Y-51618970D01*
X141983420Y-50052859D01*
X141961027Y-50025573D01*
X141852154Y-49936223D01*
X141727942Y-49869830D01*
X141593164Y-49828946D01*
X141488120Y-49818600D01*
X141488110Y-49818600D01*
X141453000Y-49815142D01*
X141417890Y-49818600D01*
X138948112Y-49818600D01*
X138913000Y-49815142D01*
X138877888Y-49818600D01*
X138877880Y-49818600D01*
X138784948Y-49827753D01*
X138772835Y-49828946D01*
X138744696Y-49837482D01*
X138638058Y-49869830D01*
X138513846Y-49936223D01*
X138513844Y-49936224D01*
X138513845Y-49936224D01*
X138432252Y-50003185D01*
X138432248Y-50003189D01*
X138404973Y-50025573D01*
X138382588Y-50052849D01*
X138100238Y-50335200D01*
X138084311Y-50335200D01*
X137903671Y-50371132D01*
X137733511Y-50441614D01*
X137580372Y-50543938D01*
X137450138Y-50674172D01*
X137347814Y-50827311D01*
X137277332Y-50997471D01*
X137241400Y-51178111D01*
X137241400Y-51362289D01*
X137277332Y-51542929D01*
X137347814Y-51713089D01*
X137450138Y-51866228D01*
X137461401Y-51877491D01*
X137461400Y-58682937D01*
X131314339Y-64830000D01*
X123494161Y-64830000D01*
X124153746Y-64170416D01*
X124181027Y-64148027D01*
X124270377Y-64039154D01*
X124336770Y-63914942D01*
X124377654Y-63780164D01*
X124388000Y-63675120D01*
X124388000Y-63675111D01*
X124391458Y-63640001D01*
X124388000Y-63604891D01*
X124388000Y-63548790D01*
X124399262Y-63537528D01*
X124501586Y-63384389D01*
X124572068Y-63214229D01*
X124608000Y-63033589D01*
X124608000Y-62849411D01*
X124572068Y-62668771D01*
X124501586Y-62498611D01*
X124399262Y-62345472D01*
X124269028Y-62215238D01*
X124115889Y-62112914D01*
X123945729Y-62042432D01*
X123765089Y-62006500D01*
X123580911Y-62006500D01*
X123400271Y-62042432D01*
X123230111Y-62112914D01*
X123076972Y-62215238D01*
X123002210Y-62290000D01*
X114505593Y-62290000D01*
X114510599Y-62280634D01*
X114595513Y-62000711D01*
X114624185Y-61709600D01*
X114595513Y-61418489D01*
X114523168Y-61180000D01*
X124272210Y-61180000D01*
X124283472Y-61191262D01*
X124436611Y-61293586D01*
X124606771Y-61364068D01*
X124787411Y-61400000D01*
X124971589Y-61400000D01*
X125152229Y-61364068D01*
X125322389Y-61293586D01*
X125475528Y-61191262D01*
X125605762Y-61061028D01*
X125708086Y-60907889D01*
X125778568Y-60737729D01*
X125814500Y-60557089D01*
X125814500Y-60372911D01*
X125778568Y-60192271D01*
X125708086Y-60022111D01*
X125616204Y-59884600D01*
X127260092Y-59884600D01*
X127289414Y-59955389D01*
X127391738Y-60108528D01*
X127395774Y-60112564D01*
X126125026Y-61383312D01*
X126003771Y-61407432D01*
X125833611Y-61477914D01*
X125680472Y-61580238D01*
X125550238Y-61710472D01*
X125447914Y-61863611D01*
X125377432Y-62033771D01*
X125341500Y-62214411D01*
X125341500Y-62398589D01*
X125377432Y-62579229D01*
X125447914Y-62749389D01*
X125550238Y-62902528D01*
X125680472Y-63032762D01*
X125833611Y-63135086D01*
X126003771Y-63205568D01*
X126184411Y-63241500D01*
X126368589Y-63241500D01*
X126549229Y-63205568D01*
X126719389Y-63135086D01*
X126872528Y-63032762D01*
X127002762Y-62902528D01*
X127105086Y-62749389D01*
X127175568Y-62579229D01*
X127211500Y-62398589D01*
X127211500Y-62335266D01*
X127229993Y-62300669D01*
X128598756Y-60931907D01*
X128626026Y-60909527D01*
X128648407Y-60882256D01*
X128648415Y-60882248D01*
X128710743Y-60806300D01*
X128715377Y-60800654D01*
X128781770Y-60676442D01*
X128817975Y-60557089D01*
X128822654Y-60541665D01*
X128825674Y-60511000D01*
X128833000Y-60436620D01*
X128833000Y-60436612D01*
X128836458Y-60401500D01*
X128833000Y-60366388D01*
X128833000Y-60119790D01*
X128844262Y-60108528D01*
X128946586Y-59955389D01*
X129017068Y-59785229D01*
X129053000Y-59604589D01*
X129053000Y-59420411D01*
X129017068Y-59239771D01*
X128946586Y-59069611D01*
X128844262Y-58916472D01*
X128714028Y-58786238D01*
X128560889Y-58683914D01*
X128390729Y-58613432D01*
X128210089Y-58577500D01*
X128180684Y-58577500D01*
X128174254Y-58572223D01*
X128050042Y-58505830D01*
X127915264Y-58464946D01*
X127810220Y-58454600D01*
X127810210Y-58454600D01*
X127775100Y-58451142D01*
X127739990Y-58454600D01*
X114433648Y-58454600D01*
X114372706Y-58340586D01*
X114187134Y-58114466D01*
X113961014Y-57928894D01*
X113896477Y-57894399D01*
X114013355Y-57824778D01*
X114229588Y-57629869D01*
X114403641Y-57396520D01*
X114528825Y-57133699D01*
X114573476Y-56986490D01*
X114452155Y-56756600D01*
X113259000Y-56756600D01*
X113259000Y-56776600D01*
X113005000Y-56776600D01*
X113005000Y-56756600D01*
X112985000Y-56756600D01*
X112985000Y-56502600D01*
X113005000Y-56502600D01*
X113005000Y-55308786D01*
X113259000Y-55308786D01*
X113259000Y-56502600D01*
X114452155Y-56502600D01*
X114573476Y-56272710D01*
X114528825Y-56125501D01*
X114403641Y-55862680D01*
X114229588Y-55629331D01*
X114013355Y-55434422D01*
X113763252Y-55285443D01*
X113488891Y-55188119D01*
X113259000Y-55308786D01*
X113005000Y-55308786D01*
X112775109Y-55188119D01*
X112500748Y-55285443D01*
X112250645Y-55434422D01*
X112034412Y-55629331D01*
X111863584Y-55858356D01*
X111832706Y-55800586D01*
X111647134Y-55574466D01*
X111421014Y-55388894D01*
X111163034Y-55251001D01*
X110883111Y-55166087D01*
X110664950Y-55144600D01*
X110519050Y-55144600D01*
X110300889Y-55166087D01*
X110020966Y-55251001D01*
X109762986Y-55388894D01*
X109536866Y-55574466D01*
X109351294Y-55800586D01*
X109213401Y-56058566D01*
X109150400Y-56266252D01*
X109150400Y-51550695D01*
X109980400Y-51550695D01*
X109980400Y-51941705D01*
X110056682Y-52325203D01*
X110206315Y-52686450D01*
X110423549Y-53011564D01*
X110700036Y-53288051D01*
X111025150Y-53505285D01*
X111386397Y-53654918D01*
X111769895Y-53731200D01*
X112160905Y-53731200D01*
X112544403Y-53654918D01*
X112905650Y-53505285D01*
X113230764Y-53288051D01*
X113507251Y-53011564D01*
X113724485Y-52686450D01*
X113874118Y-52325203D01*
X113950400Y-51941705D01*
X113950400Y-51550695D01*
X113874118Y-51167197D01*
X113724485Y-50805950D01*
X113507251Y-50480836D01*
X113230764Y-50204349D01*
X112905650Y-49987115D01*
X112544403Y-49837482D01*
X112160905Y-49761200D01*
X111769895Y-49761200D01*
X111386397Y-49837482D01*
X111025150Y-49987115D01*
X110700036Y-50204349D01*
X110423549Y-50480836D01*
X110206315Y-50805950D01*
X110056682Y-51167197D01*
X109980400Y-51550695D01*
X109150400Y-51550695D01*
X109150400Y-51279705D01*
X109197712Y-50797184D01*
X109328114Y-50365270D01*
X109539924Y-49966915D01*
X109825075Y-49617286D01*
X110172703Y-49329703D01*
X110569577Y-49115114D01*
X111000561Y-48981702D01*
X111481054Y-48931200D01*
X116669638Y-48931200D01*
X115064255Y-50536584D01*
G36*
X110719000Y-99682600D02*
G01*
X110739000Y-99682600D01*
X110739000Y-99936600D01*
X110719000Y-99936600D01*
X110719000Y-99956600D01*
X110465000Y-99956600D01*
X110465000Y-99936600D01*
X110445000Y-99936600D01*
X110445000Y-99682600D01*
X110465000Y-99682600D01*
X110465000Y-99662600D01*
X110719000Y-99662600D01*
X110719000Y-99682600D01*
X110719000Y-99682600D01*
G37*
X110719000Y-99682600D02*
X110739000Y-99682600D01*
X110739000Y-99936600D01*
X110719000Y-99936600D01*
X110719000Y-99956600D01*
X110465000Y-99956600D01*
X110465000Y-99936600D01*
X110445000Y-99936600D01*
X110445000Y-99682600D01*
X110465000Y-99682600D01*
X110465000Y-99662600D01*
X110719000Y-99662600D01*
X110719000Y-99682600D01*
G36*
X111891294Y-98098614D02*
G01*
X112076866Y-98324734D01*
X112302986Y-98510306D01*
X112357791Y-98539600D01*
X112302986Y-98568894D01*
X112076866Y-98754466D01*
X111891294Y-98980586D01*
X111860416Y-99038356D01*
X111689588Y-98809331D01*
X111473355Y-98614422D01*
X111356477Y-98544801D01*
X111421014Y-98510306D01*
X111647134Y-98324734D01*
X111832706Y-98098614D01*
X111862000Y-98043809D01*
X111891294Y-98098614D01*
X111891294Y-98098614D01*
G37*
X111891294Y-98098614D02*
X112076866Y-98324734D01*
X112302986Y-98510306D01*
X112357791Y-98539600D01*
X112302986Y-98568894D01*
X112076866Y-98754466D01*
X111891294Y-98980586D01*
X111860416Y-99038356D01*
X111689588Y-98809331D01*
X111473355Y-98614422D01*
X111356477Y-98544801D01*
X111421014Y-98510306D01*
X111647134Y-98324734D01*
X111832706Y-98098614D01*
X111862000Y-98043809D01*
X111891294Y-98098614D01*
G36*
X110719000Y-89522600D02*
G01*
X110739000Y-89522600D01*
X110739000Y-89776600D01*
X110719000Y-89776600D01*
X110719000Y-89796600D01*
X110465000Y-89796600D01*
X110465000Y-89776600D01*
X110445000Y-89776600D01*
X110445000Y-89522600D01*
X110465000Y-89522600D01*
X110465000Y-89502600D01*
X110719000Y-89502600D01*
X110719000Y-89522600D01*
X110719000Y-89522600D01*
G37*
X110719000Y-89522600D02*
X110739000Y-89522600D01*
X110739000Y-89776600D01*
X110719000Y-89776600D01*
X110719000Y-89796600D01*
X110465000Y-89796600D01*
X110465000Y-89776600D01*
X110445000Y-89776600D01*
X110445000Y-89522600D01*
X110465000Y-89522600D01*
X110465000Y-89502600D01*
X110719000Y-89502600D01*
X110719000Y-89522600D01*
G36*
X110719000Y-81902600D02*
G01*
X110739000Y-81902600D01*
X110739000Y-82156600D01*
X110719000Y-82156600D01*
X110719000Y-82176600D01*
X110465000Y-82176600D01*
X110465000Y-82156600D01*
X110445000Y-82156600D01*
X110445000Y-81902600D01*
X110465000Y-81902600D01*
X110465000Y-81882600D01*
X110719000Y-81882600D01*
X110719000Y-81902600D01*
X110719000Y-81902600D01*
G37*
X110719000Y-81902600D02*
X110739000Y-81902600D01*
X110739000Y-82156600D01*
X110719000Y-82156600D01*
X110719000Y-82176600D01*
X110465000Y-82176600D01*
X110465000Y-82156600D01*
X110445000Y-82156600D01*
X110445000Y-81902600D01*
X110465000Y-81902600D01*
X110465000Y-81882600D01*
X110719000Y-81882600D01*
X110719000Y-81902600D01*
G36*
X111891294Y-80318614D02*
G01*
X112076866Y-80544734D01*
X112302986Y-80730306D01*
X112357791Y-80759600D01*
X112302986Y-80788894D01*
X112076866Y-80974466D01*
X111891294Y-81200586D01*
X111860416Y-81258356D01*
X111689588Y-81029331D01*
X111473355Y-80834422D01*
X111356477Y-80764801D01*
X111421014Y-80730306D01*
X111647134Y-80544734D01*
X111832706Y-80318614D01*
X111862000Y-80263809D01*
X111891294Y-80318614D01*
X111891294Y-80318614D01*
G37*
X111891294Y-80318614D02*
X112076866Y-80544734D01*
X112302986Y-80730306D01*
X112357791Y-80759600D01*
X112302986Y-80788894D01*
X112076866Y-80974466D01*
X111891294Y-81200586D01*
X111860416Y-81258356D01*
X111689588Y-81029331D01*
X111473355Y-80834422D01*
X111356477Y-80764801D01*
X111421014Y-80730306D01*
X111647134Y-80544734D01*
X111832706Y-80318614D01*
X111862000Y-80263809D01*
X111891294Y-80318614D01*
G36*
X110719000Y-69202600D02*
G01*
X110739000Y-69202600D01*
X110739000Y-69456600D01*
X110719000Y-69456600D01*
X110719000Y-69476600D01*
X110465000Y-69476600D01*
X110465000Y-69456600D01*
X110445000Y-69456600D01*
X110445000Y-69202600D01*
X110465000Y-69202600D01*
X110465000Y-69182600D01*
X110719000Y-69182600D01*
X110719000Y-69202600D01*
X110719000Y-69202600D01*
G37*
X110719000Y-69202600D02*
X110739000Y-69202600D01*
X110739000Y-69456600D01*
X110719000Y-69456600D01*
X110719000Y-69476600D01*
X110465000Y-69476600D01*
X110465000Y-69456600D01*
X110445000Y-69456600D01*
X110445000Y-69202600D01*
X110465000Y-69202600D01*
X110465000Y-69182600D01*
X110719000Y-69182600D01*
X110719000Y-69202600D01*
G36*
X110719000Y-64122600D02*
G01*
X110739000Y-64122600D01*
X110739000Y-64376600D01*
X110719000Y-64376600D01*
X110719000Y-64396600D01*
X110465000Y-64396600D01*
X110465000Y-64376600D01*
X110445000Y-64376600D01*
X110445000Y-64122600D01*
X110465000Y-64122600D01*
X110465000Y-64102600D01*
X110719000Y-64102600D01*
X110719000Y-64122600D01*
X110719000Y-64122600D01*
G37*
X110719000Y-64122600D02*
X110739000Y-64122600D01*
X110739000Y-64376600D01*
X110719000Y-64376600D01*
X110719000Y-64396600D01*
X110465000Y-64396600D01*
X110465000Y-64376600D01*
X110445000Y-64376600D01*
X110445000Y-64122600D01*
X110465000Y-64122600D01*
X110465000Y-64102600D01*
X110719000Y-64102600D01*
X110719000Y-64122600D01*
M02*
