G04 #@! TF.GenerationSoftware,KiCad,Pcbnew,5.1.4+dfsg1-1*
G04 #@! TF.CreationDate,2020-01-17T08:12:17-05:00*
G04 #@! TF.ProjectId,RasPi_NFC_Audio_KiCAD,52617350-695f-44e4-9643-5f417564696f,rev?*
G04 #@! TF.SameCoordinates,Original*
G04 #@! TF.FileFunction,Copper,L2,Bot*
G04 #@! TF.FilePolarity,Positive*
%FSLAX46Y46*%
G04 Gerber Fmt 4.6, Leading zero omitted, Abs format (unit mm)*
G04 Created by KiCad (PCBNEW 5.1.4+dfsg1-1) date 2020-01-17 08:12:17*
%MOMM*%
%LPD*%
G04 APERTURE LIST*
%ADD10R,2.600000X2.600000*%
%ADD11C,2.600000*%
%ADD12C,2.100000*%
%ADD13R,2.100000X2.100000*%
%ADD14C,0.100000*%
%ADD15C,0.590000*%
%ADD16R,1.700000X1.700000*%
%ADD17O,1.700000X1.700000*%
%ADD18C,0.600000*%
%ADD19C,0.500000*%
%ADD20C,1.000000*%
%ADD21C,2.000000*%
%ADD22C,0.500000*%
%ADD23C,0.250000*%
%ADD24C,2.000000*%
%ADD25C,0.200000*%
%ADD26C,0.160000*%
%ADD27C,0.254000*%
G04 APERTURE END LIST*
D10*
X145390000Y-98692000D03*
D11*
X145390000Y-104692000D03*
X150090000Y-101692000D03*
D12*
X146888600Y-52108400D03*
D13*
X149428600Y-52108400D03*
X165811600Y-52108400D03*
D12*
X163271600Y-52108400D03*
D14*
G36*
X156498958Y-79121510D02*
G01*
X156513276Y-79123634D01*
X156527317Y-79127151D01*
X156540946Y-79132028D01*
X156554031Y-79138217D01*
X156566447Y-79145658D01*
X156578073Y-79154281D01*
X156588798Y-79164002D01*
X156598519Y-79174727D01*
X156607142Y-79186353D01*
X156614583Y-79198769D01*
X156620772Y-79211854D01*
X156625649Y-79225483D01*
X156629166Y-79239524D01*
X156631290Y-79253842D01*
X156632000Y-79268300D01*
X156632000Y-79563300D01*
X156631290Y-79577758D01*
X156629166Y-79592076D01*
X156625649Y-79606117D01*
X156620772Y-79619746D01*
X156614583Y-79632831D01*
X156607142Y-79645247D01*
X156598519Y-79656873D01*
X156588798Y-79667598D01*
X156578073Y-79677319D01*
X156566447Y-79685942D01*
X156554031Y-79693383D01*
X156540946Y-79699572D01*
X156527317Y-79704449D01*
X156513276Y-79707966D01*
X156498958Y-79710090D01*
X156484500Y-79710800D01*
X156139500Y-79710800D01*
X156125042Y-79710090D01*
X156110724Y-79707966D01*
X156096683Y-79704449D01*
X156083054Y-79699572D01*
X156069969Y-79693383D01*
X156057553Y-79685942D01*
X156045927Y-79677319D01*
X156035202Y-79667598D01*
X156025481Y-79656873D01*
X156016858Y-79645247D01*
X156009417Y-79632831D01*
X156003228Y-79619746D01*
X155998351Y-79606117D01*
X155994834Y-79592076D01*
X155992710Y-79577758D01*
X155992000Y-79563300D01*
X155992000Y-79268300D01*
X155992710Y-79253842D01*
X155994834Y-79239524D01*
X155998351Y-79225483D01*
X156003228Y-79211854D01*
X156009417Y-79198769D01*
X156016858Y-79186353D01*
X156025481Y-79174727D01*
X156035202Y-79164002D01*
X156045927Y-79154281D01*
X156057553Y-79145658D01*
X156069969Y-79138217D01*
X156083054Y-79132028D01*
X156096683Y-79127151D01*
X156110724Y-79123634D01*
X156125042Y-79121510D01*
X156139500Y-79120800D01*
X156484500Y-79120800D01*
X156498958Y-79121510D01*
X156498958Y-79121510D01*
G37*
D15*
X156312000Y-79415800D03*
D14*
G36*
X156498958Y-78151510D02*
G01*
X156513276Y-78153634D01*
X156527317Y-78157151D01*
X156540946Y-78162028D01*
X156554031Y-78168217D01*
X156566447Y-78175658D01*
X156578073Y-78184281D01*
X156588798Y-78194002D01*
X156598519Y-78204727D01*
X156607142Y-78216353D01*
X156614583Y-78228769D01*
X156620772Y-78241854D01*
X156625649Y-78255483D01*
X156629166Y-78269524D01*
X156631290Y-78283842D01*
X156632000Y-78298300D01*
X156632000Y-78593300D01*
X156631290Y-78607758D01*
X156629166Y-78622076D01*
X156625649Y-78636117D01*
X156620772Y-78649746D01*
X156614583Y-78662831D01*
X156607142Y-78675247D01*
X156598519Y-78686873D01*
X156588798Y-78697598D01*
X156578073Y-78707319D01*
X156566447Y-78715942D01*
X156554031Y-78723383D01*
X156540946Y-78729572D01*
X156527317Y-78734449D01*
X156513276Y-78737966D01*
X156498958Y-78740090D01*
X156484500Y-78740800D01*
X156139500Y-78740800D01*
X156125042Y-78740090D01*
X156110724Y-78737966D01*
X156096683Y-78734449D01*
X156083054Y-78729572D01*
X156069969Y-78723383D01*
X156057553Y-78715942D01*
X156045927Y-78707319D01*
X156035202Y-78697598D01*
X156025481Y-78686873D01*
X156016858Y-78675247D01*
X156009417Y-78662831D01*
X156003228Y-78649746D01*
X155998351Y-78636117D01*
X155994834Y-78622076D01*
X155992710Y-78607758D01*
X155992000Y-78593300D01*
X155992000Y-78298300D01*
X155992710Y-78283842D01*
X155994834Y-78269524D01*
X155998351Y-78255483D01*
X156003228Y-78241854D01*
X156009417Y-78228769D01*
X156016858Y-78216353D01*
X156025481Y-78204727D01*
X156035202Y-78194002D01*
X156045927Y-78184281D01*
X156057553Y-78175658D01*
X156069969Y-78168217D01*
X156083054Y-78162028D01*
X156096683Y-78157151D01*
X156110724Y-78153634D01*
X156125042Y-78151510D01*
X156139500Y-78150800D01*
X156484500Y-78150800D01*
X156498958Y-78151510D01*
X156498958Y-78151510D01*
G37*
D15*
X156312000Y-78445800D03*
D14*
G36*
X156524358Y-84427710D02*
G01*
X156538676Y-84429834D01*
X156552717Y-84433351D01*
X156566346Y-84438228D01*
X156579431Y-84444417D01*
X156591847Y-84451858D01*
X156603473Y-84460481D01*
X156614198Y-84470202D01*
X156623919Y-84480927D01*
X156632542Y-84492553D01*
X156639983Y-84504969D01*
X156646172Y-84518054D01*
X156651049Y-84531683D01*
X156654566Y-84545724D01*
X156656690Y-84560042D01*
X156657400Y-84574500D01*
X156657400Y-84869500D01*
X156656690Y-84883958D01*
X156654566Y-84898276D01*
X156651049Y-84912317D01*
X156646172Y-84925946D01*
X156639983Y-84939031D01*
X156632542Y-84951447D01*
X156623919Y-84963073D01*
X156614198Y-84973798D01*
X156603473Y-84983519D01*
X156591847Y-84992142D01*
X156579431Y-84999583D01*
X156566346Y-85005772D01*
X156552717Y-85010649D01*
X156538676Y-85014166D01*
X156524358Y-85016290D01*
X156509900Y-85017000D01*
X156164900Y-85017000D01*
X156150442Y-85016290D01*
X156136124Y-85014166D01*
X156122083Y-85010649D01*
X156108454Y-85005772D01*
X156095369Y-84999583D01*
X156082953Y-84992142D01*
X156071327Y-84983519D01*
X156060602Y-84973798D01*
X156050881Y-84963073D01*
X156042258Y-84951447D01*
X156034817Y-84939031D01*
X156028628Y-84925946D01*
X156023751Y-84912317D01*
X156020234Y-84898276D01*
X156018110Y-84883958D01*
X156017400Y-84869500D01*
X156017400Y-84574500D01*
X156018110Y-84560042D01*
X156020234Y-84545724D01*
X156023751Y-84531683D01*
X156028628Y-84518054D01*
X156034817Y-84504969D01*
X156042258Y-84492553D01*
X156050881Y-84480927D01*
X156060602Y-84470202D01*
X156071327Y-84460481D01*
X156082953Y-84451858D01*
X156095369Y-84444417D01*
X156108454Y-84438228D01*
X156122083Y-84433351D01*
X156136124Y-84429834D01*
X156150442Y-84427710D01*
X156164900Y-84427000D01*
X156509900Y-84427000D01*
X156524358Y-84427710D01*
X156524358Y-84427710D01*
G37*
D15*
X156337400Y-84722000D03*
D14*
G36*
X156524358Y-85397710D02*
G01*
X156538676Y-85399834D01*
X156552717Y-85403351D01*
X156566346Y-85408228D01*
X156579431Y-85414417D01*
X156591847Y-85421858D01*
X156603473Y-85430481D01*
X156614198Y-85440202D01*
X156623919Y-85450927D01*
X156632542Y-85462553D01*
X156639983Y-85474969D01*
X156646172Y-85488054D01*
X156651049Y-85501683D01*
X156654566Y-85515724D01*
X156656690Y-85530042D01*
X156657400Y-85544500D01*
X156657400Y-85839500D01*
X156656690Y-85853958D01*
X156654566Y-85868276D01*
X156651049Y-85882317D01*
X156646172Y-85895946D01*
X156639983Y-85909031D01*
X156632542Y-85921447D01*
X156623919Y-85933073D01*
X156614198Y-85943798D01*
X156603473Y-85953519D01*
X156591847Y-85962142D01*
X156579431Y-85969583D01*
X156566346Y-85975772D01*
X156552717Y-85980649D01*
X156538676Y-85984166D01*
X156524358Y-85986290D01*
X156509900Y-85987000D01*
X156164900Y-85987000D01*
X156150442Y-85986290D01*
X156136124Y-85984166D01*
X156122083Y-85980649D01*
X156108454Y-85975772D01*
X156095369Y-85969583D01*
X156082953Y-85962142D01*
X156071327Y-85953519D01*
X156060602Y-85943798D01*
X156050881Y-85933073D01*
X156042258Y-85921447D01*
X156034817Y-85909031D01*
X156028628Y-85895946D01*
X156023751Y-85882317D01*
X156020234Y-85868276D01*
X156018110Y-85853958D01*
X156017400Y-85839500D01*
X156017400Y-85544500D01*
X156018110Y-85530042D01*
X156020234Y-85515724D01*
X156023751Y-85501683D01*
X156028628Y-85488054D01*
X156034817Y-85474969D01*
X156042258Y-85462553D01*
X156050881Y-85450927D01*
X156060602Y-85440202D01*
X156071327Y-85430481D01*
X156082953Y-85421858D01*
X156095369Y-85414417D01*
X156108454Y-85408228D01*
X156122083Y-85403351D01*
X156136124Y-85399834D01*
X156150442Y-85397710D01*
X156164900Y-85397000D01*
X156509900Y-85397000D01*
X156524358Y-85397710D01*
X156524358Y-85397710D01*
G37*
D15*
X156337400Y-85692000D03*
D16*
X113132000Y-104889600D03*
D17*
X110592000Y-104889600D03*
X113132000Y-102349600D03*
X110592000Y-102349600D03*
X113132000Y-99809600D03*
X110592000Y-99809600D03*
X113132000Y-97269600D03*
X110592000Y-97269600D03*
X113132000Y-94729600D03*
X110592000Y-94729600D03*
X113132000Y-92189600D03*
X110592000Y-92189600D03*
X113132000Y-89649600D03*
X110592000Y-89649600D03*
X113132000Y-87109600D03*
X110592000Y-87109600D03*
X113132000Y-84569600D03*
X110592000Y-84569600D03*
X113132000Y-82029600D03*
X110592000Y-82029600D03*
X113132000Y-79489600D03*
X110592000Y-79489600D03*
X113132000Y-76949600D03*
X110592000Y-76949600D03*
X113132000Y-74409600D03*
X110592000Y-74409600D03*
X113132000Y-71869600D03*
X110592000Y-71869600D03*
X113132000Y-69329600D03*
X110592000Y-69329600D03*
X113132000Y-66789600D03*
X110592000Y-66789600D03*
X113132000Y-64249600D03*
X110592000Y-64249600D03*
X113132000Y-61709600D03*
X110592000Y-61709600D03*
X113132000Y-59169600D03*
X110592000Y-59169600D03*
X113132000Y-56629600D03*
X110592000Y-56629600D03*
D18*
X125578000Y-88024000D03*
D19*
X124943000Y-75959000D03*
X121895000Y-75959000D03*
D20*
X126822600Y-89802000D03*
X127229000Y-67754800D03*
D18*
X134722000Y-81699400D03*
X132690000Y-81674000D03*
X154153000Y-106185000D03*
X153137000Y-104915000D03*
X153264000Y-59195000D03*
X153391000Y-57798000D03*
X156312000Y-83693300D03*
D21*
X163678000Y-111264994D03*
X163043000Y-107836000D03*
D20*
X119990000Y-107074000D03*
D18*
X115545000Y-90945000D03*
X115291000Y-80023000D03*
X115418000Y-70625000D03*
X115037000Y-62243000D03*
X128499000Y-98565000D03*
X136627000Y-97295000D03*
X136119000Y-90056000D03*
X129134000Y-85992000D03*
X147168000Y-90056000D03*
X141580000Y-89929000D03*
X141580000Y-86246000D03*
X150216000Y-72911000D03*
X146406000Y-74181000D03*
X140945000Y-75959000D03*
X142088000Y-78245000D03*
X131293000Y-70371000D03*
X131166000Y-71514000D03*
X129388000Y-71260000D03*
X130912000Y-72784000D03*
X124943000Y-70498000D03*
X119609000Y-71895000D03*
X137008000Y-65672000D03*
X143358000Y-68085000D03*
X151232000Y-69228000D03*
X129007000Y-59830000D03*
X136373000Y-58560000D03*
X144247000Y-58687000D03*
X132639200Y-79946800D03*
X134722000Y-79972200D03*
X124689000Y-79616600D03*
X136169800Y-76390800D03*
D19*
X147244200Y-63436800D03*
X140195700Y-53746700D03*
X136881000Y-54089600D03*
X143840600Y-63843200D03*
X146863200Y-60109400D03*
X137516000Y-83909200D03*
D18*
X118186600Y-99555600D03*
X115418000Y-103518000D03*
X117450000Y-98819000D03*
X123800000Y-103264000D03*
X115875200Y-83833000D03*
D19*
X138201800Y-81166000D03*
X139878200Y-80454800D03*
X137363600Y-85941200D03*
D18*
X144348600Y-55308800D03*
X138176400Y-51270200D03*
X125070000Y-53988000D03*
X126594000Y-52337000D03*
X117704000Y-89802000D03*
X122276000Y-87135000D03*
X119736000Y-87135000D03*
X145263000Y-65418000D03*
X147930000Y-67958000D03*
X139548000Y-67196000D03*
X115291000Y-68593000D03*
X118262800Y-51194000D03*
X118237400Y-53607000D03*
X145567800Y-55054800D03*
X143891400Y-52489400D03*
X141580000Y-60338000D03*
X139802000Y-60084000D03*
X134087000Y-57925000D03*
X134087000Y-53861000D03*
X124155600Y-88024000D03*
X124460400Y-84696600D03*
X122987200Y-87897000D03*
X123495200Y-86474600D03*
X141072000Y-81420000D03*
X139294000Y-81674000D03*
X155169000Y-80835800D03*
X154089500Y-79756300D03*
X209779000Y-80391300D03*
X210858500Y-81470800D03*
X152324200Y-86449200D03*
X208636000Y-80391300D03*
X207493000Y-81534300D03*
X152629000Y-77559200D03*
X135611000Y-53988000D03*
X135103000Y-55766000D03*
X142596000Y-63386000D03*
X141707000Y-65672000D03*
D22*
X125578000Y-77737000D02*
X125578000Y-88024000D01*
X124943000Y-75959000D02*
X125578000Y-77737000D01*
D23*
X124943000Y-75959000D02*
X121895000Y-75959000D01*
D24*
X126822600Y-89802000D02*
X127229000Y-89395600D01*
X127229000Y-89395600D02*
X127229000Y-67754800D01*
D23*
X153391000Y-59068000D02*
X153264000Y-59195000D01*
D25*
X156312000Y-79415800D02*
X156312000Y-83693300D01*
X156337400Y-83718700D02*
X156312000Y-83693300D01*
X156337400Y-84722000D02*
X156337400Y-83718700D01*
X110592000Y-99809600D02*
X111862000Y-98539600D01*
X111862000Y-98539600D02*
X114478200Y-98539600D01*
D26*
X111441999Y-81179601D02*
X111721399Y-81179601D01*
X110592000Y-82029600D02*
X111441999Y-81179601D01*
X111721399Y-81179601D02*
X112116000Y-80785000D01*
X112116000Y-80785000D02*
X114529000Y-80785000D01*
X114529000Y-80785000D02*
X115291000Y-80023000D01*
X113132000Y-102349600D02*
X115392600Y-102349600D01*
X115392600Y-102349600D02*
X118186600Y-99555600D01*
X115392600Y-102349600D02*
X115392600Y-103492600D01*
X115392600Y-103492600D02*
X115418000Y-103518000D01*
X117749999Y-98519001D02*
X119309001Y-98519001D01*
X117450000Y-98819000D02*
X117749999Y-98519001D01*
X119309001Y-98519001D02*
X123800000Y-103010000D01*
X123800000Y-103010000D02*
X123800000Y-103264000D01*
D23*
X113132000Y-84569600D02*
X115138600Y-84569600D01*
X115138600Y-84569600D02*
X115875200Y-83833000D01*
D26*
X113132000Y-104889600D02*
X113132000Y-104584800D01*
X113132000Y-104584800D02*
X112166800Y-103619600D01*
X112166800Y-103619600D02*
X109576000Y-103619600D01*
X109576000Y-103619600D02*
X109144200Y-103187800D01*
X109144200Y-103187800D02*
X109144200Y-83629800D01*
X109144200Y-83629800D02*
X109474400Y-83299600D01*
X111862000Y-83299600D02*
X113132000Y-84569600D01*
X109474400Y-83299600D02*
X111862000Y-83299600D01*
X138201800Y-81166000D02*
X138913000Y-80454800D01*
X138913000Y-80454800D02*
X139878200Y-80454800D01*
X138201800Y-81166000D02*
X138201800Y-81519553D01*
X138201800Y-81519553D02*
X138201800Y-85103000D01*
X138201800Y-85103000D02*
X137363600Y-85941200D01*
X144348600Y-55308800D02*
X143231000Y-54191200D01*
X143231000Y-54191200D02*
X143231000Y-52311600D01*
X143231000Y-52311600D02*
X141453000Y-50533600D01*
X141453000Y-50533600D02*
X138913000Y-50533600D01*
X138913000Y-50533600D02*
X138176400Y-51270200D01*
X125070000Y-53988000D02*
X126594000Y-52464000D01*
X126594000Y-52464000D02*
X126594000Y-52337000D01*
X114656000Y-85865000D02*
X111887400Y-85865000D01*
X111887400Y-85865000D02*
X110592000Y-84569600D01*
X117704000Y-89802000D02*
X117704000Y-88913000D01*
X117704000Y-88913000D02*
X114656000Y-85865000D01*
X122276000Y-87135000D02*
X119736000Y-87135000D01*
X145562999Y-65717999D02*
X145562999Y-66225999D01*
X145263000Y-65418000D02*
X145562999Y-65717999D01*
X145562999Y-66225999D02*
X147295000Y-67958000D01*
X147295000Y-67958000D02*
X147930000Y-67958000D01*
X140967402Y-67196000D02*
X139548000Y-67196000D01*
X145263000Y-65418000D02*
X143485000Y-67196000D01*
X143485000Y-67196000D02*
X140967402Y-67196000D01*
X113487600Y-66789600D02*
X113132000Y-66789600D01*
X115291000Y-68593000D02*
X113487600Y-66789600D01*
X118262800Y-51194000D02*
X118262800Y-53581600D01*
X118262800Y-53581600D02*
X118237400Y-53607000D01*
X145567800Y-55054800D02*
X143891400Y-53378400D01*
X143891400Y-53378400D02*
X143891400Y-52489400D01*
X141580000Y-60338000D02*
X140056000Y-60338000D01*
X140056000Y-60338000D02*
X139802000Y-60084000D01*
X134087000Y-57925000D02*
X134087000Y-53861000D01*
X124155600Y-88024000D02*
X124460400Y-87719200D01*
X124460400Y-87719200D02*
X124460400Y-84696600D01*
X122987200Y-87897000D02*
X123495200Y-87389000D01*
X123495200Y-87389000D02*
X123495200Y-86474600D01*
D25*
X141072000Y-81420000D02*
X139548000Y-81420000D01*
X139548000Y-81420000D02*
X139294000Y-81674000D01*
X209779000Y-80391300D02*
X209715500Y-80327800D01*
X207493000Y-80264300D02*
X207493000Y-79692800D01*
X156312000Y-62865300D02*
X156312000Y-63309800D01*
X156820000Y-62357300D02*
X156312000Y-62865300D01*
X156312000Y-75882800D02*
X156312000Y-63309800D01*
X154089500Y-61277800D02*
X155296000Y-60071300D01*
X205969000Y-62357300D02*
X156820000Y-62357300D01*
X209779000Y-61404800D02*
X209779000Y-62611300D01*
X206731000Y-62357300D02*
X205969000Y-62357300D01*
X208636000Y-81407300D02*
X207493000Y-80264300D01*
X156883500Y-60071300D02*
X155867500Y-60071300D01*
X209779000Y-60706300D02*
X209144000Y-60071300D01*
X154089500Y-64325800D02*
X154089500Y-79756300D01*
X208636000Y-81407300D02*
X208636000Y-101346300D01*
X207874000Y-102616300D02*
X208636000Y-101854300D01*
X155169000Y-81978800D02*
X155169000Y-102044800D01*
X208636000Y-101854300D02*
X208636000Y-101346300D01*
X207493000Y-79692800D02*
X207493000Y-63119300D01*
X155169000Y-80835800D02*
X155169000Y-81978800D01*
X154089500Y-61849300D02*
X154089500Y-61277800D01*
X209779000Y-79121300D02*
X209779000Y-62611300D01*
X156312000Y-75882800D02*
X156312000Y-77337800D01*
X209779000Y-80391300D02*
X209779000Y-79121300D01*
X157010500Y-102616300D02*
X207874000Y-102616300D01*
X155296000Y-60071300D02*
X155867500Y-60071300D01*
X207493000Y-63119300D02*
X206731000Y-62357300D01*
X155740500Y-102616300D02*
X157010500Y-102616300D01*
X209779000Y-61404800D02*
X209779000Y-60706300D01*
X209144000Y-60071300D02*
X202984500Y-60071300D01*
X202984500Y-60071300D02*
X156883500Y-60071300D01*
X154089500Y-61849300D02*
X154089500Y-64325800D01*
X155169000Y-102044800D02*
X155740500Y-102616300D01*
X156312000Y-77337800D02*
X156312000Y-78445800D01*
X152946500Y-87071500D02*
X152324200Y-86449200D01*
X152946500Y-103505300D02*
X152946500Y-87071500D01*
X154407000Y-104965800D02*
X152946500Y-103505300D01*
X208890000Y-104965800D02*
X154407000Y-104965800D01*
X210858500Y-81470800D02*
X210858500Y-102997300D01*
X210858500Y-102997300D02*
X208890000Y-104965800D01*
X209779000Y-86614300D02*
X209779000Y-102552800D01*
X155550000Y-58928300D02*
X154661000Y-58928300D01*
X209779000Y-102552800D02*
X208572500Y-103759300D01*
X207493000Y-81534300D02*
X207493000Y-83248800D01*
X210922000Y-60896800D02*
X210922000Y-80327800D01*
X210922000Y-60325300D02*
X210922000Y-60896800D01*
X202730500Y-61214300D02*
X207937500Y-61214300D01*
X154661000Y-58928300D02*
X152946500Y-60642800D01*
X152946500Y-60642800D02*
X152946500Y-61531800D01*
X156756500Y-58928300D02*
X155550000Y-58928300D01*
X209779000Y-86614300D02*
X209779000Y-81470800D01*
X207493000Y-83248800D02*
X207493000Y-101155800D01*
X156312000Y-100901800D02*
X156312000Y-100330300D01*
X156883500Y-101473300D02*
X156312000Y-100901800D01*
X156312000Y-86556300D02*
X156312000Y-100330300D01*
X208318500Y-58928300D02*
X209525000Y-58928300D01*
X157899500Y-103759300D02*
X208572500Y-103759300D01*
X209525000Y-58928300D02*
X210922000Y-60325300D01*
X210922000Y-80327800D02*
X209779000Y-81470800D01*
X156756500Y-58928300D02*
X208318500Y-58928300D01*
X155169000Y-103759300D02*
X157899500Y-103759300D01*
X155169000Y-76136800D02*
X155169000Y-62420800D01*
X154089500Y-80899300D02*
X155169000Y-79819800D01*
X154026000Y-81026300D02*
X154089500Y-80962800D01*
X156375500Y-61214300D02*
X157328000Y-61214300D01*
X152946500Y-61531800D02*
X152946500Y-61468300D01*
X208636000Y-63055800D02*
X208636000Y-80391300D01*
X207937500Y-61214300D02*
X208636000Y-61912800D01*
X207175500Y-101473300D02*
X206096000Y-101473300D01*
X208636000Y-61912800D02*
X208636000Y-63055800D01*
X155169000Y-79819800D02*
X155169000Y-76136800D01*
X154089500Y-80962800D02*
X154089500Y-80899300D01*
X154026000Y-102616300D02*
X154026000Y-96964800D01*
X207493000Y-101155800D02*
X207175500Y-101473300D01*
X157899500Y-103759300D02*
X157963000Y-103759300D01*
X155169000Y-103759300D02*
X154026000Y-102616300D01*
X154026000Y-96964800D02*
X154026000Y-81026300D01*
X155169000Y-62420800D02*
X156375500Y-61214300D01*
X206096000Y-101473300D02*
X156883500Y-101473300D01*
X157328000Y-61214300D02*
X202730500Y-61214300D01*
X156312000Y-86112400D02*
X156312000Y-86556300D01*
X156337400Y-86087000D02*
X156312000Y-86112400D01*
X156337400Y-85692000D02*
X156337400Y-86087000D01*
X152946500Y-76708300D02*
X152946500Y-61531800D01*
X152946500Y-76708300D02*
X152946500Y-77241700D01*
X152946500Y-77241700D02*
X152629000Y-77559200D01*
D26*
X135611000Y-53988000D02*
X135611000Y-55258000D01*
X135611000Y-55258000D02*
X135103000Y-55766000D01*
X142596000Y-63386000D02*
X141707000Y-64275000D01*
X141707000Y-64275000D02*
X141707000Y-65672000D01*
D27*
G36*
X176378000Y-56909000D02*
G01*
X153645000Y-56909000D01*
X153620224Y-56911440D01*
X153596399Y-56918667D01*
X153574443Y-56930403D01*
X153555197Y-56946197D01*
X153539403Y-56965443D01*
X153527667Y-56987399D01*
X153520440Y-57011224D01*
X153518000Y-57036000D01*
X153518000Y-58052000D01*
X152121000Y-58052000D01*
X152096224Y-58054440D01*
X152072399Y-58061667D01*
X152050443Y-58073403D01*
X152031197Y-58089197D01*
X152015403Y-58108443D01*
X152003667Y-58130399D01*
X151996440Y-58154224D01*
X151994000Y-58179000D01*
X151994000Y-76871910D01*
X151902738Y-76963172D01*
X151800414Y-77116311D01*
X151729932Y-77286471D01*
X151694000Y-77467111D01*
X151694000Y-77651289D01*
X151729932Y-77831929D01*
X151800414Y-78002089D01*
X151902738Y-78155228D01*
X151994000Y-78246490D01*
X151994000Y-85573937D01*
X151881311Y-85620614D01*
X151728172Y-85722938D01*
X151597938Y-85853172D01*
X151495614Y-86006311D01*
X151425132Y-86176471D01*
X151389200Y-86357111D01*
X151389200Y-86541289D01*
X151425132Y-86721929D01*
X151495614Y-86892089D01*
X151597938Y-87045228D01*
X151728172Y-87175462D01*
X151881311Y-87277786D01*
X151994000Y-87324463D01*
X151994000Y-101323436D01*
X151986457Y-101263049D01*
X151866333Y-100901310D01*
X151734312Y-100654317D01*
X151439224Y-100522381D01*
X150269605Y-101692000D01*
X151439224Y-102861619D01*
X151734312Y-102729683D01*
X151905159Y-102388955D01*
X151994000Y-102065977D01*
X151994000Y-105931000D01*
X151996440Y-105955776D01*
X152003667Y-105979601D01*
X152015403Y-106001557D01*
X152031197Y-106020803D01*
X152050443Y-106036597D01*
X152072399Y-106048333D01*
X152096224Y-106055560D01*
X152121000Y-106058000D01*
X164821000Y-106058000D01*
X164821000Y-112561200D01*
X111498904Y-112561200D01*
X111016384Y-112513888D01*
X110584473Y-112383487D01*
X110186120Y-112171680D01*
X109836486Y-111886525D01*
X109548903Y-111538897D01*
X109334315Y-111142025D01*
X109200900Y-110711034D01*
X109150400Y-110230546D01*
X109150400Y-109550695D01*
X109980400Y-109550695D01*
X109980400Y-109941705D01*
X110056682Y-110325203D01*
X110206315Y-110686450D01*
X110423549Y-111011564D01*
X110700036Y-111288051D01*
X111025150Y-111505285D01*
X111386397Y-111654918D01*
X111769895Y-111731200D01*
X112160905Y-111731200D01*
X112544403Y-111654918D01*
X112905650Y-111505285D01*
X113230764Y-111288051D01*
X113507251Y-111011564D01*
X113724485Y-110686450D01*
X113874118Y-110325203D01*
X113950400Y-109941705D01*
X113950400Y-109550695D01*
X113874118Y-109167197D01*
X113724485Y-108805950D01*
X113507251Y-108480836D01*
X113230764Y-108204349D01*
X112905650Y-107987115D01*
X112544403Y-107837482D01*
X112160905Y-107761200D01*
X111769895Y-107761200D01*
X111386397Y-107837482D01*
X111025150Y-107987115D01*
X110700036Y-108204349D01*
X110423549Y-108480836D01*
X110206315Y-108805950D01*
X110056682Y-109167197D01*
X109980400Y-109550695D01*
X109150400Y-109550695D01*
X109150400Y-105252948D01*
X109213401Y-105460634D01*
X109351294Y-105718614D01*
X109536866Y-105944734D01*
X109762986Y-106130306D01*
X110020966Y-106268199D01*
X110300889Y-106353113D01*
X110519050Y-106374600D01*
X110664950Y-106374600D01*
X110883111Y-106353113D01*
X111163034Y-106268199D01*
X111421014Y-106130306D01*
X111647134Y-105944734D01*
X111671607Y-105914913D01*
X111692498Y-105983780D01*
X111751463Y-106094094D01*
X111830815Y-106190785D01*
X111927506Y-106270137D01*
X112037820Y-106329102D01*
X112157518Y-106365412D01*
X112282000Y-106377672D01*
X113982000Y-106377672D01*
X114106482Y-106365412D01*
X114226180Y-106329102D01*
X114336494Y-106270137D01*
X114433185Y-106190785D01*
X114512537Y-106094094D01*
X114540797Y-106041224D01*
X144220381Y-106041224D01*
X144352317Y-106336312D01*
X144693045Y-106507159D01*
X145060557Y-106608250D01*
X145440729Y-106635701D01*
X145818951Y-106588457D01*
X146180690Y-106468333D01*
X146427683Y-106336312D01*
X146559619Y-106041224D01*
X145390000Y-104871605D01*
X144220381Y-106041224D01*
X114540797Y-106041224D01*
X114571502Y-105983780D01*
X114607812Y-105864082D01*
X114620072Y-105739600D01*
X114620072Y-104742729D01*
X143446299Y-104742729D01*
X143493543Y-105120951D01*
X143613667Y-105482690D01*
X143745688Y-105729683D01*
X144040776Y-105861619D01*
X145210395Y-104692000D01*
X145569605Y-104692000D01*
X146739224Y-105861619D01*
X147034312Y-105729683D01*
X147205159Y-105388955D01*
X147306250Y-105021443D01*
X147333701Y-104641271D01*
X147286457Y-104263049D01*
X147166333Y-103901310D01*
X147034312Y-103654317D01*
X146739224Y-103522381D01*
X145569605Y-104692000D01*
X145210395Y-104692000D01*
X144040776Y-103522381D01*
X143745688Y-103654317D01*
X143574841Y-103995045D01*
X143473750Y-104362557D01*
X143446299Y-104742729D01*
X114620072Y-104742729D01*
X114620072Y-104039600D01*
X114616280Y-104001097D01*
X114691738Y-104114028D01*
X114821972Y-104244262D01*
X114975111Y-104346586D01*
X115145271Y-104417068D01*
X115325911Y-104453000D01*
X115510089Y-104453000D01*
X115690729Y-104417068D01*
X115860889Y-104346586D01*
X116014028Y-104244262D01*
X116144262Y-104114028D01*
X116246586Y-103960889D01*
X116317068Y-103790729D01*
X116353000Y-103610089D01*
X116353000Y-103425911D01*
X116317068Y-103245271D01*
X116246586Y-103075111D01*
X116144262Y-102921972D01*
X116107600Y-102885310D01*
X116107600Y-102645761D01*
X118262763Y-100490600D01*
X118278689Y-100490600D01*
X118459329Y-100454668D01*
X118629489Y-100384186D01*
X118782628Y-100281862D01*
X118912862Y-100151628D01*
X119015186Y-99998489D01*
X119085668Y-99828329D01*
X119121600Y-99647689D01*
X119121600Y-99463511D01*
X119091617Y-99312778D01*
X122879227Y-103100390D01*
X122865000Y-103171911D01*
X122865000Y-103356089D01*
X122900932Y-103536729D01*
X122971414Y-103706889D01*
X123073738Y-103860028D01*
X123203972Y-103990262D01*
X123357111Y-104092586D01*
X123527271Y-104163068D01*
X123707911Y-104199000D01*
X123892089Y-104199000D01*
X124072729Y-104163068D01*
X124242889Y-104092586D01*
X124396028Y-103990262D01*
X124526262Y-103860028D01*
X124628586Y-103706889D01*
X124699068Y-103536729D01*
X124735000Y-103356089D01*
X124735000Y-103342776D01*
X144220381Y-103342776D01*
X145390000Y-104512395D01*
X146559619Y-103342776D01*
X146427683Y-103047688D01*
X146414792Y-103041224D01*
X148920381Y-103041224D01*
X149052317Y-103336312D01*
X149393045Y-103507159D01*
X149760557Y-103608250D01*
X150140729Y-103635701D01*
X150518951Y-103588457D01*
X150880690Y-103468333D01*
X151127683Y-103336312D01*
X151259619Y-103041224D01*
X150090000Y-101871605D01*
X148920381Y-103041224D01*
X146414792Y-103041224D01*
X146086955Y-102876841D01*
X145719443Y-102775750D01*
X145339271Y-102748299D01*
X144961049Y-102795543D01*
X144599310Y-102915667D01*
X144352317Y-103047688D01*
X144220381Y-103342776D01*
X124735000Y-103342776D01*
X124735000Y-103171911D01*
X124699068Y-102991271D01*
X124628586Y-102821111D01*
X124526262Y-102667972D01*
X124396028Y-102537738D01*
X124242889Y-102435414D01*
X124232114Y-102430951D01*
X123543892Y-101742729D01*
X148146299Y-101742729D01*
X148193543Y-102120951D01*
X148313667Y-102482690D01*
X148445688Y-102729683D01*
X148740776Y-102861619D01*
X149910395Y-101692000D01*
X148740776Y-100522381D01*
X148445688Y-100654317D01*
X148274841Y-100995045D01*
X148173750Y-101362557D01*
X148146299Y-101742729D01*
X123543892Y-101742729D01*
X119839421Y-98038260D01*
X119817028Y-98010974D01*
X119708155Y-97921624D01*
X119583943Y-97855231D01*
X119449165Y-97814347D01*
X119344121Y-97804001D01*
X119344111Y-97804001D01*
X119309001Y-97800543D01*
X119273891Y-97804001D01*
X117785111Y-97804001D01*
X117749999Y-97800543D01*
X117714887Y-97804001D01*
X117714879Y-97804001D01*
X117621947Y-97813154D01*
X117609834Y-97814347D01*
X117568950Y-97826749D01*
X117475057Y-97855231D01*
X117421234Y-97884000D01*
X117357911Y-97884000D01*
X117177271Y-97919932D01*
X117007111Y-97990414D01*
X116853972Y-98092738D01*
X116723738Y-98222972D01*
X116621414Y-98376111D01*
X116550932Y-98546271D01*
X116515000Y-98726911D01*
X116515000Y-98911089D01*
X116550932Y-99091729D01*
X116621414Y-99261889D01*
X116723738Y-99415028D01*
X116853972Y-99545262D01*
X117007111Y-99647586D01*
X117061092Y-99669945D01*
X115096439Y-101634600D01*
X114433648Y-101634600D01*
X114372706Y-101520586D01*
X114187134Y-101294466D01*
X113961014Y-101108894D01*
X113906209Y-101079600D01*
X113961014Y-101050306D01*
X114187134Y-100864734D01*
X114372706Y-100638614D01*
X114510599Y-100380634D01*
X114595513Y-100100711D01*
X114624185Y-99809600D01*
X114595513Y-99518489D01*
X114510599Y-99238566D01*
X114372706Y-98980586D01*
X114187134Y-98754466D01*
X113961014Y-98568894D01*
X113906209Y-98539600D01*
X113961014Y-98510306D01*
X114187134Y-98324734D01*
X114372706Y-98098614D01*
X114510599Y-97840634D01*
X114595513Y-97560711D01*
X114612129Y-97392000D01*
X143451928Y-97392000D01*
X143451928Y-99992000D01*
X143464188Y-100116482D01*
X143500498Y-100236180D01*
X143559463Y-100346494D01*
X143638815Y-100443185D01*
X143735506Y-100522537D01*
X143845820Y-100581502D01*
X143965518Y-100617812D01*
X144090000Y-100630072D01*
X146690000Y-100630072D01*
X146814482Y-100617812D01*
X146934180Y-100581502D01*
X147044494Y-100522537D01*
X147141185Y-100443185D01*
X147220537Y-100346494D01*
X147222524Y-100342776D01*
X148920381Y-100342776D01*
X150090000Y-101512395D01*
X151259619Y-100342776D01*
X151127683Y-100047688D01*
X150786955Y-99876841D01*
X150419443Y-99775750D01*
X150039271Y-99748299D01*
X149661049Y-99795543D01*
X149299310Y-99915667D01*
X149052317Y-100047688D01*
X148920381Y-100342776D01*
X147222524Y-100342776D01*
X147279502Y-100236180D01*
X147315812Y-100116482D01*
X147328072Y-99992000D01*
X147328072Y-97392000D01*
X147315812Y-97267518D01*
X147279502Y-97147820D01*
X147220537Y-97037506D01*
X147141185Y-96940815D01*
X147044494Y-96861463D01*
X146934180Y-96802498D01*
X146814482Y-96766188D01*
X146690000Y-96753928D01*
X144090000Y-96753928D01*
X143965518Y-96766188D01*
X143845820Y-96802498D01*
X143735506Y-96861463D01*
X143638815Y-96940815D01*
X143559463Y-97037506D01*
X143500498Y-97147820D01*
X143464188Y-97267518D01*
X143451928Y-97392000D01*
X114612129Y-97392000D01*
X114624185Y-97269600D01*
X114595513Y-96978489D01*
X114510599Y-96698566D01*
X114372706Y-96440586D01*
X114187134Y-96214466D01*
X113961014Y-96028894D01*
X113896477Y-95994399D01*
X114013355Y-95924778D01*
X114229588Y-95729869D01*
X114403641Y-95496520D01*
X114528825Y-95233699D01*
X114573476Y-95086490D01*
X114452155Y-94856600D01*
X113259000Y-94856600D01*
X113259000Y-94876600D01*
X113005000Y-94876600D01*
X113005000Y-94856600D01*
X112985000Y-94856600D01*
X112985000Y-94602600D01*
X113005000Y-94602600D01*
X113005000Y-94582600D01*
X113259000Y-94582600D01*
X113259000Y-94602600D01*
X114452155Y-94602600D01*
X114573476Y-94372710D01*
X114528825Y-94225501D01*
X114403641Y-93962680D01*
X114229588Y-93729331D01*
X114013355Y-93534422D01*
X113896477Y-93464801D01*
X113961014Y-93430306D01*
X114187134Y-93244734D01*
X114372706Y-93018614D01*
X114510599Y-92760634D01*
X114595513Y-92480711D01*
X114624185Y-92189600D01*
X114595513Y-91898489D01*
X114510599Y-91618566D01*
X114372706Y-91360586D01*
X114187134Y-91134466D01*
X113961014Y-90948894D01*
X113906209Y-90919600D01*
X113961014Y-90890306D01*
X114187134Y-90704734D01*
X114372706Y-90478614D01*
X114510599Y-90220634D01*
X114595513Y-89940711D01*
X114624185Y-89649600D01*
X114595513Y-89358489D01*
X114510599Y-89078566D01*
X114372706Y-88820586D01*
X114187134Y-88594466D01*
X113961014Y-88408894D01*
X113906209Y-88379600D01*
X113961014Y-88350306D01*
X114187134Y-88164734D01*
X114372706Y-87938614D01*
X114510599Y-87680634D01*
X114595513Y-87400711D01*
X114624185Y-87109600D01*
X114595513Y-86818489D01*
X114594287Y-86814448D01*
X116981774Y-89201936D01*
X116977738Y-89205972D01*
X116875414Y-89359111D01*
X116804932Y-89529271D01*
X116769000Y-89709911D01*
X116769000Y-89894089D01*
X116804932Y-90074729D01*
X116875414Y-90244889D01*
X116977738Y-90398028D01*
X117107972Y-90528262D01*
X117261111Y-90630586D01*
X117431271Y-90701068D01*
X117611911Y-90737000D01*
X117796089Y-90737000D01*
X117976729Y-90701068D01*
X118146889Y-90630586D01*
X118300028Y-90528262D01*
X118430262Y-90398028D01*
X118532586Y-90244889D01*
X118603068Y-90074729D01*
X118639000Y-89894089D01*
X118639000Y-89709911D01*
X118603068Y-89529271D01*
X118532586Y-89359111D01*
X118430262Y-89205972D01*
X118419000Y-89194710D01*
X118419000Y-88948110D01*
X118422458Y-88913000D01*
X118419000Y-88877890D01*
X118419000Y-88877880D01*
X118408654Y-88772836D01*
X118367770Y-88638058D01*
X118301377Y-88513846D01*
X118212027Y-88404973D01*
X118184746Y-88382584D01*
X116845073Y-87042911D01*
X118801000Y-87042911D01*
X118801000Y-87227089D01*
X118836932Y-87407729D01*
X118907414Y-87577889D01*
X119009738Y-87731028D01*
X119139972Y-87861262D01*
X119293111Y-87963586D01*
X119463271Y-88034068D01*
X119643911Y-88070000D01*
X119828089Y-88070000D01*
X120008729Y-88034068D01*
X120178889Y-87963586D01*
X120332028Y-87861262D01*
X120343290Y-87850000D01*
X121668710Y-87850000D01*
X121679972Y-87861262D01*
X121833111Y-87963586D01*
X122003271Y-88034068D01*
X122063531Y-88046055D01*
X122088132Y-88169729D01*
X122158614Y-88339889D01*
X122260938Y-88493028D01*
X122391172Y-88623262D01*
X122544311Y-88725586D01*
X122714471Y-88796068D01*
X122895111Y-88832000D01*
X123079289Y-88832000D01*
X123259929Y-88796068D01*
X123430089Y-88725586D01*
X123492916Y-88683606D01*
X123559572Y-88750262D01*
X123712711Y-88852586D01*
X123882871Y-88923068D01*
X124063511Y-88959000D01*
X124247689Y-88959000D01*
X124428329Y-88923068D01*
X124598489Y-88852586D01*
X124751628Y-88750262D01*
X124866800Y-88635090D01*
X124981972Y-88750262D01*
X125135111Y-88852586D01*
X125305271Y-88923068D01*
X125425690Y-88947021D01*
X125304748Y-89173286D01*
X125211258Y-89481484D01*
X125179689Y-89802000D01*
X125211258Y-90122516D01*
X125304748Y-90430714D01*
X125456570Y-90714752D01*
X125660887Y-90963713D01*
X125909848Y-91168030D01*
X126193886Y-91319852D01*
X126502084Y-91413342D01*
X126822600Y-91444911D01*
X127143116Y-91413342D01*
X127451314Y-91319852D01*
X127735352Y-91168030D01*
X127921923Y-91014915D01*
X128328314Y-90608524D01*
X128390714Y-90557314D01*
X128595031Y-90308352D01*
X128746852Y-90024315D01*
X128840343Y-89716116D01*
X128864000Y-89475922D01*
X128864000Y-89475920D01*
X128871911Y-89395601D01*
X128864000Y-89315281D01*
X128864000Y-85854035D01*
X136478600Y-85854035D01*
X136478600Y-86028365D01*
X136512610Y-86199345D01*
X136579323Y-86360405D01*
X136676176Y-86505355D01*
X136799445Y-86628624D01*
X136944395Y-86725477D01*
X137105455Y-86792190D01*
X137276435Y-86826200D01*
X137450765Y-86826200D01*
X137621745Y-86792190D01*
X137782805Y-86725477D01*
X137927755Y-86628624D01*
X138051024Y-86505355D01*
X138147877Y-86360405D01*
X138214590Y-86199345D01*
X138238917Y-86077045D01*
X138682551Y-85633412D01*
X138709827Y-85611027D01*
X138732211Y-85583752D01*
X138732215Y-85583748D01*
X138799176Y-85502155D01*
X138814806Y-85472914D01*
X138865570Y-85377942D01*
X138906454Y-85243164D01*
X138916800Y-85138120D01*
X138916800Y-85138110D01*
X138920258Y-85103000D01*
X138916800Y-85067890D01*
X138916800Y-82529795D01*
X139021271Y-82573068D01*
X139201911Y-82609000D01*
X139386089Y-82609000D01*
X139566729Y-82573068D01*
X139736889Y-82502586D01*
X139890028Y-82400262D01*
X140020262Y-82270028D01*
X140097121Y-82155000D01*
X140489049Y-82155000D01*
X140629111Y-82248586D01*
X140799271Y-82319068D01*
X140979911Y-82355000D01*
X141164089Y-82355000D01*
X141344729Y-82319068D01*
X141514889Y-82248586D01*
X141668028Y-82146262D01*
X141798262Y-82016028D01*
X141900586Y-81862889D01*
X141971068Y-81692729D01*
X142007000Y-81512089D01*
X142007000Y-81327911D01*
X141971068Y-81147271D01*
X141900586Y-80977111D01*
X141798262Y-80823972D01*
X141668028Y-80693738D01*
X141514889Y-80591414D01*
X141344729Y-80520932D01*
X141164089Y-80485000D01*
X140979911Y-80485000D01*
X140799271Y-80520932D01*
X140763200Y-80535873D01*
X140763200Y-80367635D01*
X140729190Y-80196655D01*
X140662477Y-80035595D01*
X140565624Y-79890645D01*
X140442355Y-79767376D01*
X140297405Y-79670523D01*
X140136345Y-79603810D01*
X139965365Y-79569800D01*
X139791035Y-79569800D01*
X139620055Y-79603810D01*
X139458995Y-79670523D01*
X139355315Y-79739800D01*
X138948112Y-79739800D01*
X138913000Y-79736342D01*
X138877888Y-79739800D01*
X138877880Y-79739800D01*
X138784948Y-79748953D01*
X138772835Y-79750146D01*
X138731951Y-79762548D01*
X138638058Y-79791030D01*
X138513846Y-79857423D01*
X138496066Y-79872015D01*
X138432252Y-79924385D01*
X138432248Y-79924389D01*
X138404973Y-79946773D01*
X138382588Y-79974049D01*
X138065955Y-80290683D01*
X137943655Y-80315010D01*
X137782595Y-80381723D01*
X137637645Y-80478576D01*
X137514376Y-80601845D01*
X137417523Y-80746795D01*
X137350810Y-80907855D01*
X137316800Y-81078835D01*
X137316800Y-81253165D01*
X137350810Y-81424145D01*
X137417523Y-81585205D01*
X137486800Y-81688885D01*
X137486801Y-84806837D01*
X137227755Y-85065883D01*
X137105455Y-85090210D01*
X136944395Y-85156923D01*
X136799445Y-85253776D01*
X136676176Y-85377045D01*
X136579323Y-85521995D01*
X136512610Y-85683055D01*
X136478600Y-85854035D01*
X128864000Y-85854035D01*
X128864000Y-67674478D01*
X128840343Y-67434284D01*
X128746852Y-67126085D01*
X128735000Y-67103911D01*
X138613000Y-67103911D01*
X138613000Y-67288089D01*
X138648932Y-67468729D01*
X138719414Y-67638889D01*
X138821738Y-67792028D01*
X138951972Y-67922262D01*
X139105111Y-68024586D01*
X139275271Y-68095068D01*
X139455911Y-68131000D01*
X139640089Y-68131000D01*
X139820729Y-68095068D01*
X139990889Y-68024586D01*
X140144028Y-67922262D01*
X140155290Y-67911000D01*
X143449890Y-67911000D01*
X143485000Y-67914458D01*
X143520110Y-67911000D01*
X143520120Y-67911000D01*
X143625164Y-67900654D01*
X143759942Y-67859770D01*
X143884154Y-67793377D01*
X143993027Y-67704027D01*
X144015420Y-67676741D01*
X145011323Y-66680839D01*
X145054973Y-66734026D01*
X145082254Y-66756415D01*
X146764584Y-68438746D01*
X146786973Y-68466027D01*
X146895846Y-68555377D01*
X147020058Y-68621770D01*
X147154836Y-68662654D01*
X147259880Y-68673000D01*
X147259889Y-68673000D01*
X147294999Y-68676458D01*
X147323373Y-68673663D01*
X147333972Y-68684262D01*
X147487111Y-68786586D01*
X147657271Y-68857068D01*
X147837911Y-68893000D01*
X148022089Y-68893000D01*
X148202729Y-68857068D01*
X148372889Y-68786586D01*
X148526028Y-68684262D01*
X148656262Y-68554028D01*
X148758586Y-68400889D01*
X148829068Y-68230729D01*
X148865000Y-68050089D01*
X148865000Y-67865911D01*
X148829068Y-67685271D01*
X148758586Y-67515111D01*
X148656262Y-67361972D01*
X148526028Y-67231738D01*
X148372889Y-67129414D01*
X148202729Y-67058932D01*
X148022089Y-67023000D01*
X147837911Y-67023000D01*
X147657271Y-67058932D01*
X147487111Y-67129414D01*
X147481395Y-67133233D01*
X146277999Y-65929838D01*
X146277999Y-65753111D01*
X146281457Y-65717999D01*
X146277999Y-65682887D01*
X146277999Y-65682879D01*
X146268846Y-65589947D01*
X146267653Y-65577834D01*
X146246330Y-65507541D01*
X146226769Y-65443057D01*
X146198000Y-65389234D01*
X146198000Y-65325911D01*
X146162068Y-65145271D01*
X146091586Y-64975111D01*
X145989262Y-64821972D01*
X145859028Y-64691738D01*
X145705889Y-64589414D01*
X145535729Y-64518932D01*
X145355089Y-64483000D01*
X145170911Y-64483000D01*
X144990271Y-64518932D01*
X144820111Y-64589414D01*
X144666972Y-64691738D01*
X144536738Y-64821972D01*
X144434414Y-64975111D01*
X144363932Y-65145271D01*
X144328000Y-65325911D01*
X144328000Y-65341837D01*
X143188839Y-66481000D01*
X142179202Y-66481000D01*
X142303028Y-66398262D01*
X142433262Y-66268028D01*
X142535586Y-66114889D01*
X142606068Y-65944729D01*
X142642000Y-65764089D01*
X142642000Y-65579911D01*
X142606068Y-65399271D01*
X142535586Y-65229111D01*
X142433262Y-65075972D01*
X142422000Y-65064710D01*
X142422000Y-64571161D01*
X142672162Y-64321000D01*
X142688089Y-64321000D01*
X142868729Y-64285068D01*
X143038889Y-64214586D01*
X143192028Y-64112262D01*
X143322262Y-63982028D01*
X143424586Y-63828889D01*
X143495068Y-63658729D01*
X143531000Y-63478089D01*
X143531000Y-63293911D01*
X143495068Y-63113271D01*
X143424586Y-62943111D01*
X143322262Y-62789972D01*
X143192028Y-62659738D01*
X143038889Y-62557414D01*
X142868729Y-62486932D01*
X142688089Y-62451000D01*
X142503911Y-62451000D01*
X142323271Y-62486932D01*
X142153111Y-62557414D01*
X141999972Y-62659738D01*
X141869738Y-62789972D01*
X141767414Y-62943111D01*
X141696932Y-63113271D01*
X141661000Y-63293911D01*
X141661000Y-63309838D01*
X141226255Y-63744584D01*
X141198973Y-63766974D01*
X141109623Y-63875847D01*
X141043230Y-64000059D01*
X141002346Y-64134837D01*
X140992000Y-64239881D01*
X140992000Y-64239890D01*
X140988542Y-64275000D01*
X140992000Y-64310110D01*
X140992001Y-65064709D01*
X140980738Y-65075972D01*
X140878414Y-65229111D01*
X140807932Y-65399271D01*
X140772000Y-65579911D01*
X140772000Y-65764089D01*
X140807932Y-65944729D01*
X140878414Y-66114889D01*
X140980738Y-66268028D01*
X141110972Y-66398262D01*
X141234798Y-66481000D01*
X140155290Y-66481000D01*
X140144028Y-66469738D01*
X139990889Y-66367414D01*
X139820729Y-66296932D01*
X139640089Y-66261000D01*
X139455911Y-66261000D01*
X139275271Y-66296932D01*
X139105111Y-66367414D01*
X138951972Y-66469738D01*
X138821738Y-66599972D01*
X138719414Y-66753111D01*
X138648932Y-66923271D01*
X138613000Y-67103911D01*
X128735000Y-67103911D01*
X128595031Y-66842048D01*
X128390714Y-66593086D01*
X128141752Y-66388769D01*
X127857715Y-66236948D01*
X127549516Y-66143457D01*
X127229000Y-66111889D01*
X126908485Y-66143457D01*
X126600286Y-66236948D01*
X126316249Y-66388769D01*
X126067287Y-66593086D01*
X125862970Y-66842048D01*
X125711149Y-67126085D01*
X125617658Y-67434284D01*
X125594001Y-67674478D01*
X125594001Y-75354684D01*
X125553625Y-75318046D01*
X125507155Y-75271576D01*
X125489172Y-75259560D01*
X125473164Y-75245034D01*
X125416850Y-75211236D01*
X125362205Y-75174723D01*
X125342221Y-75166445D01*
X125323689Y-75155323D01*
X125261861Y-75133159D01*
X125201145Y-75108010D01*
X125179936Y-75103791D01*
X125159585Y-75096496D01*
X125094616Y-75086820D01*
X125030165Y-75074000D01*
X125008535Y-75074000D01*
X124987156Y-75070816D01*
X124921553Y-75074000D01*
X124855835Y-75074000D01*
X124834625Y-75078219D01*
X124813032Y-75079267D01*
X124749303Y-75095191D01*
X124684855Y-75108010D01*
X124664875Y-75116286D01*
X124643903Y-75121526D01*
X124584510Y-75149574D01*
X124523795Y-75174723D01*
X124505812Y-75186739D01*
X124486267Y-75195969D01*
X124482175Y-75199000D01*
X122350538Y-75199000D01*
X122314205Y-75174723D01*
X122153145Y-75108010D01*
X121982165Y-75074000D01*
X121807835Y-75074000D01*
X121636855Y-75108010D01*
X121475795Y-75174723D01*
X121330845Y-75271576D01*
X121207576Y-75394845D01*
X121110723Y-75539795D01*
X121044010Y-75700855D01*
X121010000Y-75871835D01*
X121010000Y-76046165D01*
X121044010Y-76217145D01*
X121110723Y-76378205D01*
X121207576Y-76523155D01*
X121330845Y-76646424D01*
X121475795Y-76743277D01*
X121636855Y-76809990D01*
X121807835Y-76844000D01*
X121982165Y-76844000D01*
X122153145Y-76809990D01*
X122314205Y-76743277D01*
X122350538Y-76719000D01*
X124274681Y-76719000D01*
X124693000Y-77890292D01*
X124693001Y-83789550D01*
X124552489Y-83761600D01*
X124368311Y-83761600D01*
X124187671Y-83797532D01*
X124017511Y-83868014D01*
X123864372Y-83970338D01*
X123734138Y-84100572D01*
X123631814Y-84253711D01*
X123561332Y-84423871D01*
X123525400Y-84604511D01*
X123525400Y-84788689D01*
X123561332Y-84969329D01*
X123631814Y-85139489D01*
X123734138Y-85292628D01*
X123745401Y-85303891D01*
X123745401Y-85571051D01*
X123587289Y-85539600D01*
X123403111Y-85539600D01*
X123222471Y-85575532D01*
X123052311Y-85646014D01*
X122899172Y-85748338D01*
X122768938Y-85878572D01*
X122666614Y-86031711D01*
X122596132Y-86201871D01*
X122586264Y-86251479D01*
X122548729Y-86235932D01*
X122368089Y-86200000D01*
X122183911Y-86200000D01*
X122003271Y-86235932D01*
X121833111Y-86306414D01*
X121679972Y-86408738D01*
X121668710Y-86420000D01*
X120343290Y-86420000D01*
X120332028Y-86408738D01*
X120178889Y-86306414D01*
X120008729Y-86235932D01*
X119828089Y-86200000D01*
X119643911Y-86200000D01*
X119463271Y-86235932D01*
X119293111Y-86306414D01*
X119139972Y-86408738D01*
X119009738Y-86538972D01*
X118907414Y-86692111D01*
X118836932Y-86862271D01*
X118801000Y-87042911D01*
X116845073Y-87042911D01*
X115186420Y-85384259D01*
X115164027Y-85356973D01*
X115134682Y-85332890D01*
X115138600Y-85333276D01*
X115175922Y-85329600D01*
X115175933Y-85329600D01*
X115287586Y-85318603D01*
X115430847Y-85275146D01*
X115562876Y-85204574D01*
X115678601Y-85109601D01*
X115702403Y-85080598D01*
X116026849Y-84756153D01*
X116147929Y-84732068D01*
X116318089Y-84661586D01*
X116471228Y-84559262D01*
X116601462Y-84429028D01*
X116703786Y-84275889D01*
X116774268Y-84105729D01*
X116810200Y-83925089D01*
X116810200Y-83740911D01*
X116774268Y-83560271D01*
X116703786Y-83390111D01*
X116601462Y-83236972D01*
X116471228Y-83106738D01*
X116318089Y-83004414D01*
X116147929Y-82933932D01*
X115967289Y-82898000D01*
X115783111Y-82898000D01*
X115602471Y-82933932D01*
X115432311Y-83004414D01*
X115279172Y-83106738D01*
X115148938Y-83236972D01*
X115046614Y-83390111D01*
X114976132Y-83560271D01*
X114952047Y-83681351D01*
X114823799Y-83809600D01*
X114409595Y-83809600D01*
X114372706Y-83740586D01*
X114187134Y-83514466D01*
X113961014Y-83328894D01*
X113906209Y-83299600D01*
X113961014Y-83270306D01*
X114187134Y-83084734D01*
X114372706Y-82858614D01*
X114510599Y-82600634D01*
X114595513Y-82320711D01*
X114624185Y-82029600D01*
X114595513Y-81738489D01*
X114510599Y-81458566D01*
X114372706Y-81200586D01*
X114187134Y-80974466D01*
X113961014Y-80788894D01*
X113906209Y-80759600D01*
X113961014Y-80730306D01*
X114187134Y-80544734D01*
X114372706Y-80318614D01*
X114510599Y-80060634D01*
X114595513Y-79780711D01*
X114624185Y-79489600D01*
X114595513Y-79198489D01*
X114510599Y-78918566D01*
X114372706Y-78660586D01*
X114187134Y-78434466D01*
X113961014Y-78248894D01*
X113906209Y-78219600D01*
X113961014Y-78190306D01*
X114187134Y-78004734D01*
X114372706Y-77778614D01*
X114510599Y-77520634D01*
X114595513Y-77240711D01*
X114624185Y-76949600D01*
X114595513Y-76658489D01*
X114510599Y-76378566D01*
X114372706Y-76120586D01*
X114187134Y-75894466D01*
X113961014Y-75708894D01*
X113896477Y-75674399D01*
X114013355Y-75604778D01*
X114229588Y-75409869D01*
X114403641Y-75176520D01*
X114528825Y-74913699D01*
X114573476Y-74766490D01*
X114452155Y-74536600D01*
X113259000Y-74536600D01*
X113259000Y-74556600D01*
X113005000Y-74556600D01*
X113005000Y-74536600D01*
X112985000Y-74536600D01*
X112985000Y-74282600D01*
X113005000Y-74282600D01*
X113005000Y-74262600D01*
X113259000Y-74262600D01*
X113259000Y-74282600D01*
X114452155Y-74282600D01*
X114573476Y-74052710D01*
X114528825Y-73905501D01*
X114403641Y-73642680D01*
X114229588Y-73409331D01*
X114013355Y-73214422D01*
X113896477Y-73144801D01*
X113961014Y-73110306D01*
X114187134Y-72924734D01*
X114372706Y-72698614D01*
X114510599Y-72440634D01*
X114595513Y-72160711D01*
X114624185Y-71869600D01*
X114595513Y-71578489D01*
X114510599Y-71298566D01*
X114372706Y-71040586D01*
X114187134Y-70814466D01*
X113961014Y-70628894D01*
X113906209Y-70599600D01*
X113961014Y-70570306D01*
X114187134Y-70384734D01*
X114372706Y-70158614D01*
X114510599Y-69900634D01*
X114595513Y-69620711D01*
X114624185Y-69329600D01*
X114615322Y-69239612D01*
X114694972Y-69319262D01*
X114848111Y-69421586D01*
X115018271Y-69492068D01*
X115198911Y-69528000D01*
X115383089Y-69528000D01*
X115563729Y-69492068D01*
X115733889Y-69421586D01*
X115887028Y-69319262D01*
X116017262Y-69189028D01*
X116119586Y-69035889D01*
X116190068Y-68865729D01*
X116226000Y-68685089D01*
X116226000Y-68500911D01*
X116190068Y-68320271D01*
X116119586Y-68150111D01*
X116017262Y-67996972D01*
X115887028Y-67866738D01*
X115733889Y-67764414D01*
X115563729Y-67693932D01*
X115383089Y-67658000D01*
X115367163Y-67658000D01*
X114612939Y-66903778D01*
X114624185Y-66789600D01*
X114595513Y-66498489D01*
X114510599Y-66218566D01*
X114372706Y-65960586D01*
X114187134Y-65734466D01*
X113961014Y-65548894D01*
X113906209Y-65519600D01*
X113961014Y-65490306D01*
X114187134Y-65304734D01*
X114372706Y-65078614D01*
X114510599Y-64820634D01*
X114595513Y-64540711D01*
X114624185Y-64249600D01*
X114595513Y-63958489D01*
X114510599Y-63678566D01*
X114372706Y-63420586D01*
X114187134Y-63194466D01*
X113961014Y-63008894D01*
X113906209Y-62979600D01*
X113961014Y-62950306D01*
X114187134Y-62764734D01*
X114372706Y-62538614D01*
X114510599Y-62280634D01*
X114595513Y-62000711D01*
X114624185Y-61709600D01*
X114595513Y-61418489D01*
X114510599Y-61138566D01*
X114372706Y-60880586D01*
X114187134Y-60654466D01*
X113961014Y-60468894D01*
X113906209Y-60439600D01*
X113961014Y-60410306D01*
X114187134Y-60224734D01*
X114372706Y-59998614D01*
X114376288Y-59991911D01*
X138867000Y-59991911D01*
X138867000Y-60176089D01*
X138902932Y-60356729D01*
X138973414Y-60526889D01*
X139075738Y-60680028D01*
X139205972Y-60810262D01*
X139359111Y-60912586D01*
X139529271Y-60983068D01*
X139709911Y-61019000D01*
X139837858Y-61019000D01*
X139915836Y-61042654D01*
X140020880Y-61053000D01*
X140020889Y-61053000D01*
X140055999Y-61056458D01*
X140091109Y-61053000D01*
X140972710Y-61053000D01*
X140983972Y-61064262D01*
X141137111Y-61166586D01*
X141307271Y-61237068D01*
X141487911Y-61273000D01*
X141672089Y-61273000D01*
X141852729Y-61237068D01*
X142022889Y-61166586D01*
X142176028Y-61064262D01*
X142306262Y-60934028D01*
X142408586Y-60780889D01*
X142479068Y-60610729D01*
X142515000Y-60430089D01*
X142515000Y-60245911D01*
X142479068Y-60065271D01*
X142408586Y-59895111D01*
X142306262Y-59741972D01*
X142176028Y-59611738D01*
X142022889Y-59509414D01*
X141852729Y-59438932D01*
X141672089Y-59403000D01*
X141487911Y-59403000D01*
X141307271Y-59438932D01*
X141137111Y-59509414D01*
X140983972Y-59611738D01*
X140972710Y-59623000D01*
X140618485Y-59623000D01*
X140528262Y-59487972D01*
X140398028Y-59357738D01*
X140244889Y-59255414D01*
X140074729Y-59184932D01*
X139894089Y-59149000D01*
X139709911Y-59149000D01*
X139529271Y-59184932D01*
X139359111Y-59255414D01*
X139205972Y-59357738D01*
X139075738Y-59487972D01*
X138973414Y-59641111D01*
X138902932Y-59811271D01*
X138867000Y-59991911D01*
X114376288Y-59991911D01*
X114510599Y-59740634D01*
X114595513Y-59460711D01*
X114624185Y-59169600D01*
X114595513Y-58878489D01*
X114510599Y-58598566D01*
X114372706Y-58340586D01*
X114187134Y-58114466D01*
X113961014Y-57928894D01*
X113896477Y-57894399D01*
X114013355Y-57824778D01*
X114229588Y-57629869D01*
X114403641Y-57396520D01*
X114528825Y-57133699D01*
X114573476Y-56986490D01*
X114452155Y-56756600D01*
X113259000Y-56756600D01*
X113259000Y-56776600D01*
X113005000Y-56776600D01*
X113005000Y-56756600D01*
X112985000Y-56756600D01*
X112985000Y-56502600D01*
X113005000Y-56502600D01*
X113005000Y-55308786D01*
X113259000Y-55308786D01*
X113259000Y-56502600D01*
X114452155Y-56502600D01*
X114573476Y-56272710D01*
X114528825Y-56125501D01*
X114403641Y-55862680D01*
X114229588Y-55629331D01*
X114013355Y-55434422D01*
X113763252Y-55285443D01*
X113488891Y-55188119D01*
X113259000Y-55308786D01*
X113005000Y-55308786D01*
X112775109Y-55188119D01*
X112500748Y-55285443D01*
X112250645Y-55434422D01*
X112034412Y-55629331D01*
X111863584Y-55858356D01*
X111832706Y-55800586D01*
X111647134Y-55574466D01*
X111421014Y-55388894D01*
X111163034Y-55251001D01*
X110883111Y-55166087D01*
X110664950Y-55144600D01*
X110519050Y-55144600D01*
X110300889Y-55166087D01*
X110020966Y-55251001D01*
X109762986Y-55388894D01*
X109536866Y-55574466D01*
X109351294Y-55800586D01*
X109213401Y-56058566D01*
X109150400Y-56266252D01*
X109150400Y-51550695D01*
X109980400Y-51550695D01*
X109980400Y-51941705D01*
X110056682Y-52325203D01*
X110206315Y-52686450D01*
X110423549Y-53011564D01*
X110700036Y-53288051D01*
X111025150Y-53505285D01*
X111386397Y-53654918D01*
X111769895Y-53731200D01*
X112160905Y-53731200D01*
X112544403Y-53654918D01*
X112882410Y-53514911D01*
X117302400Y-53514911D01*
X117302400Y-53699089D01*
X117338332Y-53879729D01*
X117408814Y-54049889D01*
X117511138Y-54203028D01*
X117641372Y-54333262D01*
X117794511Y-54435586D01*
X117964671Y-54506068D01*
X118145311Y-54542000D01*
X118329489Y-54542000D01*
X118510129Y-54506068D01*
X118680289Y-54435586D01*
X118833428Y-54333262D01*
X118963662Y-54203028D01*
X119065986Y-54049889D01*
X119129765Y-53895911D01*
X124135000Y-53895911D01*
X124135000Y-54080089D01*
X124170932Y-54260729D01*
X124241414Y-54430889D01*
X124343738Y-54584028D01*
X124473972Y-54714262D01*
X124627111Y-54816586D01*
X124797271Y-54887068D01*
X124977911Y-54923000D01*
X125162089Y-54923000D01*
X125342729Y-54887068D01*
X125512889Y-54816586D01*
X125666028Y-54714262D01*
X125796262Y-54584028D01*
X125898586Y-54430889D01*
X125969068Y-54260729D01*
X126005000Y-54080089D01*
X126005000Y-54064162D01*
X126300251Y-53768911D01*
X133152000Y-53768911D01*
X133152000Y-53953089D01*
X133187932Y-54133729D01*
X133258414Y-54303889D01*
X133360738Y-54457028D01*
X133372001Y-54468291D01*
X133372000Y-57317710D01*
X133360738Y-57328972D01*
X133258414Y-57482111D01*
X133187932Y-57652271D01*
X133152000Y-57832911D01*
X133152000Y-58017089D01*
X133187932Y-58197729D01*
X133258414Y-58367889D01*
X133360738Y-58521028D01*
X133490972Y-58651262D01*
X133644111Y-58753586D01*
X133814271Y-58824068D01*
X133994911Y-58860000D01*
X134179089Y-58860000D01*
X134359729Y-58824068D01*
X134529889Y-58753586D01*
X134683028Y-58651262D01*
X134813262Y-58521028D01*
X134915586Y-58367889D01*
X134986068Y-58197729D01*
X135022000Y-58017089D01*
X135022000Y-57832911D01*
X134986068Y-57652271D01*
X134915586Y-57482111D01*
X134813262Y-57328972D01*
X134802000Y-57317710D01*
X134802000Y-56653358D01*
X134830271Y-56665068D01*
X135010911Y-56701000D01*
X135195089Y-56701000D01*
X135375729Y-56665068D01*
X135545889Y-56594586D01*
X135699028Y-56492262D01*
X135829262Y-56362028D01*
X135931586Y-56208889D01*
X136002068Y-56038729D01*
X136038000Y-55858089D01*
X136038000Y-55842163D01*
X136091751Y-55788412D01*
X136119027Y-55766027D01*
X136157975Y-55718569D01*
X136208376Y-55657156D01*
X136274769Y-55532944D01*
X136274770Y-55532942D01*
X136315654Y-55398164D01*
X136326000Y-55293120D01*
X136326000Y-55293111D01*
X136329458Y-55258001D01*
X136326000Y-55222891D01*
X136326000Y-54595290D01*
X136337262Y-54584028D01*
X136439586Y-54430889D01*
X136510068Y-54260729D01*
X136546000Y-54080089D01*
X136546000Y-53895911D01*
X136510068Y-53715271D01*
X136439586Y-53545111D01*
X136337262Y-53391972D01*
X136207028Y-53261738D01*
X136053889Y-53159414D01*
X135883729Y-53088932D01*
X135703089Y-53053000D01*
X135518911Y-53053000D01*
X135338271Y-53088932D01*
X135168111Y-53159414D01*
X135014972Y-53261738D01*
X134892760Y-53383950D01*
X134813262Y-53264972D01*
X134683028Y-53134738D01*
X134529889Y-53032414D01*
X134359729Y-52961932D01*
X134179089Y-52926000D01*
X133994911Y-52926000D01*
X133814271Y-52961932D01*
X133644111Y-53032414D01*
X133490972Y-53134738D01*
X133360738Y-53264972D01*
X133258414Y-53418111D01*
X133187932Y-53588271D01*
X133152000Y-53768911D01*
X126300251Y-53768911D01*
X126824743Y-53244420D01*
X126866729Y-53236068D01*
X127036889Y-53165586D01*
X127190028Y-53063262D01*
X127320262Y-52933028D01*
X127422586Y-52779889D01*
X127493068Y-52609729D01*
X127529000Y-52429089D01*
X127529000Y-52244911D01*
X127493068Y-52064271D01*
X127422586Y-51894111D01*
X127320262Y-51740972D01*
X127190028Y-51610738D01*
X127036889Y-51508414D01*
X126866729Y-51437932D01*
X126686089Y-51402000D01*
X126501911Y-51402000D01*
X126321271Y-51437932D01*
X126151111Y-51508414D01*
X125997972Y-51610738D01*
X125867738Y-51740972D01*
X125765414Y-51894111D01*
X125694932Y-52064271D01*
X125659000Y-52244911D01*
X125659000Y-52387838D01*
X124993838Y-53053000D01*
X124977911Y-53053000D01*
X124797271Y-53088932D01*
X124627111Y-53159414D01*
X124473972Y-53261738D01*
X124343738Y-53391972D01*
X124241414Y-53545111D01*
X124170932Y-53715271D01*
X124135000Y-53895911D01*
X119129765Y-53895911D01*
X119136468Y-53879729D01*
X119172400Y-53699089D01*
X119172400Y-53514911D01*
X119136468Y-53334271D01*
X119065986Y-53164111D01*
X118977800Y-53032131D01*
X118977800Y-51801290D01*
X118989062Y-51790028D01*
X119091386Y-51636889D01*
X119161868Y-51466729D01*
X119197800Y-51286089D01*
X119197800Y-51178111D01*
X137241400Y-51178111D01*
X137241400Y-51362289D01*
X137277332Y-51542929D01*
X137347814Y-51713089D01*
X137450138Y-51866228D01*
X137580372Y-51996462D01*
X137733511Y-52098786D01*
X137903671Y-52169268D01*
X138084311Y-52205200D01*
X138268489Y-52205200D01*
X138449129Y-52169268D01*
X138619289Y-52098786D01*
X138772428Y-51996462D01*
X138902662Y-51866228D01*
X139004986Y-51713089D01*
X139075468Y-51542929D01*
X139111400Y-51362289D01*
X139111400Y-51346362D01*
X139209162Y-51248600D01*
X141156839Y-51248600D01*
X142516001Y-52607764D01*
X142516000Y-54156090D01*
X142512542Y-54191200D01*
X142516000Y-54226310D01*
X142516000Y-54226319D01*
X142526346Y-54331363D01*
X142567230Y-54466141D01*
X142633623Y-54590353D01*
X142722973Y-54699226D01*
X142750255Y-54721616D01*
X143413600Y-55384962D01*
X143413600Y-55400889D01*
X143449532Y-55581529D01*
X143520014Y-55751689D01*
X143622338Y-55904828D01*
X143752572Y-56035062D01*
X143905711Y-56137386D01*
X144075871Y-56207868D01*
X144256511Y-56243800D01*
X144440689Y-56243800D01*
X144621329Y-56207868D01*
X144791489Y-56137386D01*
X144944628Y-56035062D01*
X145074862Y-55904828D01*
X145100215Y-55866885D01*
X145124911Y-55883386D01*
X145295071Y-55953868D01*
X145475711Y-55989800D01*
X145659889Y-55989800D01*
X145840529Y-55953868D01*
X146010689Y-55883386D01*
X146163828Y-55781062D01*
X146294062Y-55650828D01*
X146396386Y-55497689D01*
X146466868Y-55327529D01*
X146502800Y-55146889D01*
X146502800Y-54962711D01*
X146466868Y-54782071D01*
X146396386Y-54611911D01*
X146294062Y-54458772D01*
X146163828Y-54328538D01*
X146010689Y-54226214D01*
X145840529Y-54155732D01*
X145659889Y-54119800D01*
X145643962Y-54119800D01*
X144613626Y-53089464D01*
X144617662Y-53085428D01*
X144719986Y-52932289D01*
X144790468Y-52762129D01*
X144826400Y-52581489D01*
X144826400Y-52397311D01*
X144790468Y-52216671D01*
X144719986Y-52046511D01*
X144650450Y-51942442D01*
X145203600Y-51942442D01*
X145203600Y-52274358D01*
X145268354Y-52599896D01*
X145395372Y-52906547D01*
X145579775Y-53182525D01*
X145814475Y-53417225D01*
X146090453Y-53601628D01*
X146397104Y-53728646D01*
X146722642Y-53793400D01*
X147054558Y-53793400D01*
X147380096Y-53728646D01*
X147686747Y-53601628D01*
X147840558Y-53498854D01*
X147848063Y-53512894D01*
X147927415Y-53609585D01*
X148024106Y-53688937D01*
X148134420Y-53747902D01*
X148254118Y-53784212D01*
X148378600Y-53796472D01*
X150478600Y-53796472D01*
X150603082Y-53784212D01*
X150722780Y-53747902D01*
X150833094Y-53688937D01*
X150929785Y-53609585D01*
X151009137Y-53512894D01*
X151068102Y-53402580D01*
X151104412Y-53282882D01*
X151116672Y-53158400D01*
X151116672Y-51942442D01*
X161586600Y-51942442D01*
X161586600Y-52274358D01*
X161651354Y-52599896D01*
X161778372Y-52906547D01*
X161962775Y-53182525D01*
X162197475Y-53417225D01*
X162473453Y-53601628D01*
X162780104Y-53728646D01*
X163105642Y-53793400D01*
X163437558Y-53793400D01*
X163763096Y-53728646D01*
X164069747Y-53601628D01*
X164223558Y-53498854D01*
X164231063Y-53512894D01*
X164310415Y-53609585D01*
X164407106Y-53688937D01*
X164517420Y-53747902D01*
X164637118Y-53784212D01*
X164761600Y-53796472D01*
X166861600Y-53796472D01*
X166986082Y-53784212D01*
X167105780Y-53747902D01*
X167216094Y-53688937D01*
X167312785Y-53609585D01*
X167392137Y-53512894D01*
X167451102Y-53402580D01*
X167487412Y-53282882D01*
X167499672Y-53158400D01*
X167499672Y-51058400D01*
X167487412Y-50933918D01*
X167451102Y-50814220D01*
X167392137Y-50703906D01*
X167312785Y-50607215D01*
X167216094Y-50527863D01*
X167105780Y-50468898D01*
X166986082Y-50432588D01*
X166861600Y-50420328D01*
X164761600Y-50420328D01*
X164637118Y-50432588D01*
X164517420Y-50468898D01*
X164407106Y-50527863D01*
X164310415Y-50607215D01*
X164231063Y-50703906D01*
X164223558Y-50717946D01*
X164069747Y-50615172D01*
X163763096Y-50488154D01*
X163437558Y-50423400D01*
X163105642Y-50423400D01*
X162780104Y-50488154D01*
X162473453Y-50615172D01*
X162197475Y-50799575D01*
X161962775Y-51034275D01*
X161778372Y-51310253D01*
X161651354Y-51616904D01*
X161586600Y-51942442D01*
X151116672Y-51942442D01*
X151116672Y-51058400D01*
X151104412Y-50933918D01*
X151068102Y-50814220D01*
X151009137Y-50703906D01*
X150929785Y-50607215D01*
X150833094Y-50527863D01*
X150722780Y-50468898D01*
X150603082Y-50432588D01*
X150478600Y-50420328D01*
X148378600Y-50420328D01*
X148254118Y-50432588D01*
X148134420Y-50468898D01*
X148024106Y-50527863D01*
X147927415Y-50607215D01*
X147848063Y-50703906D01*
X147840558Y-50717946D01*
X147686747Y-50615172D01*
X147380096Y-50488154D01*
X147054558Y-50423400D01*
X146722642Y-50423400D01*
X146397104Y-50488154D01*
X146090453Y-50615172D01*
X145814475Y-50799575D01*
X145579775Y-51034275D01*
X145395372Y-51310253D01*
X145268354Y-51616904D01*
X145203600Y-51942442D01*
X144650450Y-51942442D01*
X144617662Y-51893372D01*
X144487428Y-51763138D01*
X144334289Y-51660814D01*
X144164129Y-51590332D01*
X143983489Y-51554400D01*
X143799311Y-51554400D01*
X143618671Y-51590332D01*
X143549533Y-51618970D01*
X141983420Y-50052859D01*
X141961027Y-50025573D01*
X141852154Y-49936223D01*
X141727942Y-49869830D01*
X141593164Y-49828946D01*
X141488120Y-49818600D01*
X141488110Y-49818600D01*
X141453000Y-49815142D01*
X141417890Y-49818600D01*
X138948112Y-49818600D01*
X138913000Y-49815142D01*
X138877888Y-49818600D01*
X138877880Y-49818600D01*
X138784948Y-49827753D01*
X138772835Y-49828946D01*
X138744696Y-49837482D01*
X138638058Y-49869830D01*
X138513846Y-49936223D01*
X138513844Y-49936224D01*
X138513845Y-49936224D01*
X138432252Y-50003185D01*
X138432248Y-50003189D01*
X138404973Y-50025573D01*
X138382588Y-50052849D01*
X138100238Y-50335200D01*
X138084311Y-50335200D01*
X137903671Y-50371132D01*
X137733511Y-50441614D01*
X137580372Y-50543938D01*
X137450138Y-50674172D01*
X137347814Y-50827311D01*
X137277332Y-50997471D01*
X137241400Y-51178111D01*
X119197800Y-51178111D01*
X119197800Y-51101911D01*
X119161868Y-50921271D01*
X119091386Y-50751111D01*
X118989062Y-50597972D01*
X118858828Y-50467738D01*
X118705689Y-50365414D01*
X118535529Y-50294932D01*
X118354889Y-50259000D01*
X118170711Y-50259000D01*
X117990071Y-50294932D01*
X117819911Y-50365414D01*
X117666772Y-50467738D01*
X117536538Y-50597972D01*
X117434214Y-50751111D01*
X117363732Y-50921271D01*
X117327800Y-51101911D01*
X117327800Y-51286089D01*
X117363732Y-51466729D01*
X117434214Y-51636889D01*
X117536538Y-51790028D01*
X117547800Y-51801290D01*
X117547801Y-52974309D01*
X117511138Y-53010972D01*
X117408814Y-53164111D01*
X117338332Y-53334271D01*
X117302400Y-53514911D01*
X112882410Y-53514911D01*
X112905650Y-53505285D01*
X113230764Y-53288051D01*
X113507251Y-53011564D01*
X113724485Y-52686450D01*
X113874118Y-52325203D01*
X113950400Y-51941705D01*
X113950400Y-51550695D01*
X113874118Y-51167197D01*
X113724485Y-50805950D01*
X113507251Y-50480836D01*
X113230764Y-50204349D01*
X112905650Y-49987115D01*
X112544403Y-49837482D01*
X112160905Y-49761200D01*
X111769895Y-49761200D01*
X111386397Y-49837482D01*
X111025150Y-49987115D01*
X110700036Y-50204349D01*
X110423549Y-50480836D01*
X110206315Y-50805950D01*
X110056682Y-51167197D01*
X109980400Y-51550695D01*
X109150400Y-51550695D01*
X109150400Y-51279705D01*
X109197712Y-50797184D01*
X109328114Y-50365270D01*
X109539924Y-49966915D01*
X109825075Y-49617286D01*
X110172703Y-49329703D01*
X110569577Y-49115114D01*
X111000561Y-48981702D01*
X111481054Y-48931200D01*
X176378000Y-48931200D01*
X176378000Y-56909000D01*
X176378000Y-56909000D01*
G37*
X176378000Y-56909000D02*
X153645000Y-56909000D01*
X153620224Y-56911440D01*
X153596399Y-56918667D01*
X153574443Y-56930403D01*
X153555197Y-56946197D01*
X153539403Y-56965443D01*
X153527667Y-56987399D01*
X153520440Y-57011224D01*
X153518000Y-57036000D01*
X153518000Y-58052000D01*
X152121000Y-58052000D01*
X152096224Y-58054440D01*
X152072399Y-58061667D01*
X152050443Y-58073403D01*
X152031197Y-58089197D01*
X152015403Y-58108443D01*
X152003667Y-58130399D01*
X151996440Y-58154224D01*
X151994000Y-58179000D01*
X151994000Y-76871910D01*
X151902738Y-76963172D01*
X151800414Y-77116311D01*
X151729932Y-77286471D01*
X151694000Y-77467111D01*
X151694000Y-77651289D01*
X151729932Y-77831929D01*
X151800414Y-78002089D01*
X151902738Y-78155228D01*
X151994000Y-78246490D01*
X151994000Y-85573937D01*
X151881311Y-85620614D01*
X151728172Y-85722938D01*
X151597938Y-85853172D01*
X151495614Y-86006311D01*
X151425132Y-86176471D01*
X151389200Y-86357111D01*
X151389200Y-86541289D01*
X151425132Y-86721929D01*
X151495614Y-86892089D01*
X151597938Y-87045228D01*
X151728172Y-87175462D01*
X151881311Y-87277786D01*
X151994000Y-87324463D01*
X151994000Y-101323436D01*
X151986457Y-101263049D01*
X151866333Y-100901310D01*
X151734312Y-100654317D01*
X151439224Y-100522381D01*
X150269605Y-101692000D01*
X151439224Y-102861619D01*
X151734312Y-102729683D01*
X151905159Y-102388955D01*
X151994000Y-102065977D01*
X151994000Y-105931000D01*
X151996440Y-105955776D01*
X152003667Y-105979601D01*
X152015403Y-106001557D01*
X152031197Y-106020803D01*
X152050443Y-106036597D01*
X152072399Y-106048333D01*
X152096224Y-106055560D01*
X152121000Y-106058000D01*
X164821000Y-106058000D01*
X164821000Y-112561200D01*
X111498904Y-112561200D01*
X111016384Y-112513888D01*
X110584473Y-112383487D01*
X110186120Y-112171680D01*
X109836486Y-111886525D01*
X109548903Y-111538897D01*
X109334315Y-111142025D01*
X109200900Y-110711034D01*
X109150400Y-110230546D01*
X109150400Y-109550695D01*
X109980400Y-109550695D01*
X109980400Y-109941705D01*
X110056682Y-110325203D01*
X110206315Y-110686450D01*
X110423549Y-111011564D01*
X110700036Y-111288051D01*
X111025150Y-111505285D01*
X111386397Y-111654918D01*
X111769895Y-111731200D01*
X112160905Y-111731200D01*
X112544403Y-111654918D01*
X112905650Y-111505285D01*
X113230764Y-111288051D01*
X113507251Y-111011564D01*
X113724485Y-110686450D01*
X113874118Y-110325203D01*
X113950400Y-109941705D01*
X113950400Y-109550695D01*
X113874118Y-109167197D01*
X113724485Y-108805950D01*
X113507251Y-108480836D01*
X113230764Y-108204349D01*
X112905650Y-107987115D01*
X112544403Y-107837482D01*
X112160905Y-107761200D01*
X111769895Y-107761200D01*
X111386397Y-107837482D01*
X111025150Y-107987115D01*
X110700036Y-108204349D01*
X110423549Y-108480836D01*
X110206315Y-108805950D01*
X110056682Y-109167197D01*
X109980400Y-109550695D01*
X109150400Y-109550695D01*
X109150400Y-105252948D01*
X109213401Y-105460634D01*
X109351294Y-105718614D01*
X109536866Y-105944734D01*
X109762986Y-106130306D01*
X110020966Y-106268199D01*
X110300889Y-106353113D01*
X110519050Y-106374600D01*
X110664950Y-106374600D01*
X110883111Y-106353113D01*
X111163034Y-106268199D01*
X111421014Y-106130306D01*
X111647134Y-105944734D01*
X111671607Y-105914913D01*
X111692498Y-105983780D01*
X111751463Y-106094094D01*
X111830815Y-106190785D01*
X111927506Y-106270137D01*
X112037820Y-106329102D01*
X112157518Y-106365412D01*
X112282000Y-106377672D01*
X113982000Y-106377672D01*
X114106482Y-106365412D01*
X114226180Y-106329102D01*
X114336494Y-106270137D01*
X114433185Y-106190785D01*
X114512537Y-106094094D01*
X114540797Y-106041224D01*
X144220381Y-106041224D01*
X144352317Y-106336312D01*
X144693045Y-106507159D01*
X145060557Y-106608250D01*
X145440729Y-106635701D01*
X145818951Y-106588457D01*
X146180690Y-106468333D01*
X146427683Y-106336312D01*
X146559619Y-106041224D01*
X145390000Y-104871605D01*
X144220381Y-106041224D01*
X114540797Y-106041224D01*
X114571502Y-105983780D01*
X114607812Y-105864082D01*
X114620072Y-105739600D01*
X114620072Y-104742729D01*
X143446299Y-104742729D01*
X143493543Y-105120951D01*
X143613667Y-105482690D01*
X143745688Y-105729683D01*
X144040776Y-105861619D01*
X145210395Y-104692000D01*
X145569605Y-104692000D01*
X146739224Y-105861619D01*
X147034312Y-105729683D01*
X147205159Y-105388955D01*
X147306250Y-105021443D01*
X147333701Y-104641271D01*
X147286457Y-104263049D01*
X147166333Y-103901310D01*
X147034312Y-103654317D01*
X146739224Y-103522381D01*
X145569605Y-104692000D01*
X145210395Y-104692000D01*
X144040776Y-103522381D01*
X143745688Y-103654317D01*
X143574841Y-103995045D01*
X143473750Y-104362557D01*
X143446299Y-104742729D01*
X114620072Y-104742729D01*
X114620072Y-104039600D01*
X114616280Y-104001097D01*
X114691738Y-104114028D01*
X114821972Y-104244262D01*
X114975111Y-104346586D01*
X115145271Y-104417068D01*
X115325911Y-104453000D01*
X115510089Y-104453000D01*
X115690729Y-104417068D01*
X115860889Y-104346586D01*
X116014028Y-104244262D01*
X116144262Y-104114028D01*
X116246586Y-103960889D01*
X116317068Y-103790729D01*
X116353000Y-103610089D01*
X116353000Y-103425911D01*
X116317068Y-103245271D01*
X116246586Y-103075111D01*
X116144262Y-102921972D01*
X116107600Y-102885310D01*
X116107600Y-102645761D01*
X118262763Y-100490600D01*
X118278689Y-100490600D01*
X118459329Y-100454668D01*
X118629489Y-100384186D01*
X118782628Y-100281862D01*
X118912862Y-100151628D01*
X119015186Y-99998489D01*
X119085668Y-99828329D01*
X119121600Y-99647689D01*
X119121600Y-99463511D01*
X119091617Y-99312778D01*
X122879227Y-103100390D01*
X122865000Y-103171911D01*
X122865000Y-103356089D01*
X122900932Y-103536729D01*
X122971414Y-103706889D01*
X123073738Y-103860028D01*
X123203972Y-103990262D01*
X123357111Y-104092586D01*
X123527271Y-104163068D01*
X123707911Y-104199000D01*
X123892089Y-104199000D01*
X124072729Y-104163068D01*
X124242889Y-104092586D01*
X124396028Y-103990262D01*
X124526262Y-103860028D01*
X124628586Y-103706889D01*
X124699068Y-103536729D01*
X124735000Y-103356089D01*
X124735000Y-103342776D01*
X144220381Y-103342776D01*
X145390000Y-104512395D01*
X146559619Y-103342776D01*
X146427683Y-103047688D01*
X146414792Y-103041224D01*
X148920381Y-103041224D01*
X149052317Y-103336312D01*
X149393045Y-103507159D01*
X149760557Y-103608250D01*
X150140729Y-103635701D01*
X150518951Y-103588457D01*
X150880690Y-103468333D01*
X151127683Y-103336312D01*
X151259619Y-103041224D01*
X150090000Y-101871605D01*
X148920381Y-103041224D01*
X146414792Y-103041224D01*
X146086955Y-102876841D01*
X145719443Y-102775750D01*
X145339271Y-102748299D01*
X144961049Y-102795543D01*
X144599310Y-102915667D01*
X144352317Y-103047688D01*
X144220381Y-103342776D01*
X124735000Y-103342776D01*
X124735000Y-103171911D01*
X124699068Y-102991271D01*
X124628586Y-102821111D01*
X124526262Y-102667972D01*
X124396028Y-102537738D01*
X124242889Y-102435414D01*
X124232114Y-102430951D01*
X123543892Y-101742729D01*
X148146299Y-101742729D01*
X148193543Y-102120951D01*
X148313667Y-102482690D01*
X148445688Y-102729683D01*
X148740776Y-102861619D01*
X149910395Y-101692000D01*
X148740776Y-100522381D01*
X148445688Y-100654317D01*
X148274841Y-100995045D01*
X148173750Y-101362557D01*
X148146299Y-101742729D01*
X123543892Y-101742729D01*
X119839421Y-98038260D01*
X119817028Y-98010974D01*
X119708155Y-97921624D01*
X119583943Y-97855231D01*
X119449165Y-97814347D01*
X119344121Y-97804001D01*
X119344111Y-97804001D01*
X119309001Y-97800543D01*
X119273891Y-97804001D01*
X117785111Y-97804001D01*
X117749999Y-97800543D01*
X117714887Y-97804001D01*
X117714879Y-97804001D01*
X117621947Y-97813154D01*
X117609834Y-97814347D01*
X117568950Y-97826749D01*
X117475057Y-97855231D01*
X117421234Y-97884000D01*
X117357911Y-97884000D01*
X117177271Y-97919932D01*
X117007111Y-97990414D01*
X116853972Y-98092738D01*
X116723738Y-98222972D01*
X116621414Y-98376111D01*
X116550932Y-98546271D01*
X116515000Y-98726911D01*
X116515000Y-98911089D01*
X116550932Y-99091729D01*
X116621414Y-99261889D01*
X116723738Y-99415028D01*
X116853972Y-99545262D01*
X117007111Y-99647586D01*
X117061092Y-99669945D01*
X115096439Y-101634600D01*
X114433648Y-101634600D01*
X114372706Y-101520586D01*
X114187134Y-101294466D01*
X113961014Y-101108894D01*
X113906209Y-101079600D01*
X113961014Y-101050306D01*
X114187134Y-100864734D01*
X114372706Y-100638614D01*
X114510599Y-100380634D01*
X114595513Y-100100711D01*
X114624185Y-99809600D01*
X114595513Y-99518489D01*
X114510599Y-99238566D01*
X114372706Y-98980586D01*
X114187134Y-98754466D01*
X113961014Y-98568894D01*
X113906209Y-98539600D01*
X113961014Y-98510306D01*
X114187134Y-98324734D01*
X114372706Y-98098614D01*
X114510599Y-97840634D01*
X114595513Y-97560711D01*
X114612129Y-97392000D01*
X143451928Y-97392000D01*
X143451928Y-99992000D01*
X143464188Y-100116482D01*
X143500498Y-100236180D01*
X143559463Y-100346494D01*
X143638815Y-100443185D01*
X143735506Y-100522537D01*
X143845820Y-100581502D01*
X143965518Y-100617812D01*
X144090000Y-100630072D01*
X146690000Y-100630072D01*
X146814482Y-100617812D01*
X146934180Y-100581502D01*
X147044494Y-100522537D01*
X147141185Y-100443185D01*
X147220537Y-100346494D01*
X147222524Y-100342776D01*
X148920381Y-100342776D01*
X150090000Y-101512395D01*
X151259619Y-100342776D01*
X151127683Y-100047688D01*
X150786955Y-99876841D01*
X150419443Y-99775750D01*
X150039271Y-99748299D01*
X149661049Y-99795543D01*
X149299310Y-99915667D01*
X149052317Y-100047688D01*
X148920381Y-100342776D01*
X147222524Y-100342776D01*
X147279502Y-100236180D01*
X147315812Y-100116482D01*
X147328072Y-99992000D01*
X147328072Y-97392000D01*
X147315812Y-97267518D01*
X147279502Y-97147820D01*
X147220537Y-97037506D01*
X147141185Y-96940815D01*
X147044494Y-96861463D01*
X146934180Y-96802498D01*
X146814482Y-96766188D01*
X146690000Y-96753928D01*
X144090000Y-96753928D01*
X143965518Y-96766188D01*
X143845820Y-96802498D01*
X143735506Y-96861463D01*
X143638815Y-96940815D01*
X143559463Y-97037506D01*
X143500498Y-97147820D01*
X143464188Y-97267518D01*
X143451928Y-97392000D01*
X114612129Y-97392000D01*
X114624185Y-97269600D01*
X114595513Y-96978489D01*
X114510599Y-96698566D01*
X114372706Y-96440586D01*
X114187134Y-96214466D01*
X113961014Y-96028894D01*
X113896477Y-95994399D01*
X114013355Y-95924778D01*
X114229588Y-95729869D01*
X114403641Y-95496520D01*
X114528825Y-95233699D01*
X114573476Y-95086490D01*
X114452155Y-94856600D01*
X113259000Y-94856600D01*
X113259000Y-94876600D01*
X113005000Y-94876600D01*
X113005000Y-94856600D01*
X112985000Y-94856600D01*
X112985000Y-94602600D01*
X113005000Y-94602600D01*
X113005000Y-94582600D01*
X113259000Y-94582600D01*
X113259000Y-94602600D01*
X114452155Y-94602600D01*
X114573476Y-94372710D01*
X114528825Y-94225501D01*
X114403641Y-93962680D01*
X114229588Y-93729331D01*
X114013355Y-93534422D01*
X113896477Y-93464801D01*
X113961014Y-93430306D01*
X114187134Y-93244734D01*
X114372706Y-93018614D01*
X114510599Y-92760634D01*
X114595513Y-92480711D01*
X114624185Y-92189600D01*
X114595513Y-91898489D01*
X114510599Y-91618566D01*
X114372706Y-91360586D01*
X114187134Y-91134466D01*
X113961014Y-90948894D01*
X113906209Y-90919600D01*
X113961014Y-90890306D01*
X114187134Y-90704734D01*
X114372706Y-90478614D01*
X114510599Y-90220634D01*
X114595513Y-89940711D01*
X114624185Y-89649600D01*
X114595513Y-89358489D01*
X114510599Y-89078566D01*
X114372706Y-88820586D01*
X114187134Y-88594466D01*
X113961014Y-88408894D01*
X113906209Y-88379600D01*
X113961014Y-88350306D01*
X114187134Y-88164734D01*
X114372706Y-87938614D01*
X114510599Y-87680634D01*
X114595513Y-87400711D01*
X114624185Y-87109600D01*
X114595513Y-86818489D01*
X114594287Y-86814448D01*
X116981774Y-89201936D01*
X116977738Y-89205972D01*
X116875414Y-89359111D01*
X116804932Y-89529271D01*
X116769000Y-89709911D01*
X116769000Y-89894089D01*
X116804932Y-90074729D01*
X116875414Y-90244889D01*
X116977738Y-90398028D01*
X117107972Y-90528262D01*
X117261111Y-90630586D01*
X117431271Y-90701068D01*
X117611911Y-90737000D01*
X117796089Y-90737000D01*
X117976729Y-90701068D01*
X118146889Y-90630586D01*
X118300028Y-90528262D01*
X118430262Y-90398028D01*
X118532586Y-90244889D01*
X118603068Y-90074729D01*
X118639000Y-89894089D01*
X118639000Y-89709911D01*
X118603068Y-89529271D01*
X118532586Y-89359111D01*
X118430262Y-89205972D01*
X118419000Y-89194710D01*
X118419000Y-88948110D01*
X118422458Y-88913000D01*
X118419000Y-88877890D01*
X118419000Y-88877880D01*
X118408654Y-88772836D01*
X118367770Y-88638058D01*
X118301377Y-88513846D01*
X118212027Y-88404973D01*
X118184746Y-88382584D01*
X116845073Y-87042911D01*
X118801000Y-87042911D01*
X118801000Y-87227089D01*
X118836932Y-87407729D01*
X118907414Y-87577889D01*
X119009738Y-87731028D01*
X119139972Y-87861262D01*
X119293111Y-87963586D01*
X119463271Y-88034068D01*
X119643911Y-88070000D01*
X119828089Y-88070000D01*
X120008729Y-88034068D01*
X120178889Y-87963586D01*
X120332028Y-87861262D01*
X120343290Y-87850000D01*
X121668710Y-87850000D01*
X121679972Y-87861262D01*
X121833111Y-87963586D01*
X122003271Y-88034068D01*
X122063531Y-88046055D01*
X122088132Y-88169729D01*
X122158614Y-88339889D01*
X122260938Y-88493028D01*
X122391172Y-88623262D01*
X122544311Y-88725586D01*
X122714471Y-88796068D01*
X122895111Y-88832000D01*
X123079289Y-88832000D01*
X123259929Y-88796068D01*
X123430089Y-88725586D01*
X123492916Y-88683606D01*
X123559572Y-88750262D01*
X123712711Y-88852586D01*
X123882871Y-88923068D01*
X124063511Y-88959000D01*
X124247689Y-88959000D01*
X124428329Y-88923068D01*
X124598489Y-88852586D01*
X124751628Y-88750262D01*
X124866800Y-88635090D01*
X124981972Y-88750262D01*
X125135111Y-88852586D01*
X125305271Y-88923068D01*
X125425690Y-88947021D01*
X125304748Y-89173286D01*
X125211258Y-89481484D01*
X125179689Y-89802000D01*
X125211258Y-90122516D01*
X125304748Y-90430714D01*
X125456570Y-90714752D01*
X125660887Y-90963713D01*
X125909848Y-91168030D01*
X126193886Y-91319852D01*
X126502084Y-91413342D01*
X126822600Y-91444911D01*
X127143116Y-91413342D01*
X127451314Y-91319852D01*
X127735352Y-91168030D01*
X127921923Y-91014915D01*
X128328314Y-90608524D01*
X128390714Y-90557314D01*
X128595031Y-90308352D01*
X128746852Y-90024315D01*
X128840343Y-89716116D01*
X128864000Y-89475922D01*
X128864000Y-89475920D01*
X128871911Y-89395601D01*
X128864000Y-89315281D01*
X128864000Y-85854035D01*
X136478600Y-85854035D01*
X136478600Y-86028365D01*
X136512610Y-86199345D01*
X136579323Y-86360405D01*
X136676176Y-86505355D01*
X136799445Y-86628624D01*
X136944395Y-86725477D01*
X137105455Y-86792190D01*
X137276435Y-86826200D01*
X137450765Y-86826200D01*
X137621745Y-86792190D01*
X137782805Y-86725477D01*
X137927755Y-86628624D01*
X138051024Y-86505355D01*
X138147877Y-86360405D01*
X138214590Y-86199345D01*
X138238917Y-86077045D01*
X138682551Y-85633412D01*
X138709827Y-85611027D01*
X138732211Y-85583752D01*
X138732215Y-85583748D01*
X138799176Y-85502155D01*
X138814806Y-85472914D01*
X138865570Y-85377942D01*
X138906454Y-85243164D01*
X138916800Y-85138120D01*
X138916800Y-85138110D01*
X138920258Y-85103000D01*
X138916800Y-85067890D01*
X138916800Y-82529795D01*
X139021271Y-82573068D01*
X139201911Y-82609000D01*
X139386089Y-82609000D01*
X139566729Y-82573068D01*
X139736889Y-82502586D01*
X139890028Y-82400262D01*
X140020262Y-82270028D01*
X140097121Y-82155000D01*
X140489049Y-82155000D01*
X140629111Y-82248586D01*
X140799271Y-82319068D01*
X140979911Y-82355000D01*
X141164089Y-82355000D01*
X141344729Y-82319068D01*
X141514889Y-82248586D01*
X141668028Y-82146262D01*
X141798262Y-82016028D01*
X141900586Y-81862889D01*
X141971068Y-81692729D01*
X142007000Y-81512089D01*
X142007000Y-81327911D01*
X141971068Y-81147271D01*
X141900586Y-80977111D01*
X141798262Y-80823972D01*
X141668028Y-80693738D01*
X141514889Y-80591414D01*
X141344729Y-80520932D01*
X141164089Y-80485000D01*
X140979911Y-80485000D01*
X140799271Y-80520932D01*
X140763200Y-80535873D01*
X140763200Y-80367635D01*
X140729190Y-80196655D01*
X140662477Y-80035595D01*
X140565624Y-79890645D01*
X140442355Y-79767376D01*
X140297405Y-79670523D01*
X140136345Y-79603810D01*
X139965365Y-79569800D01*
X139791035Y-79569800D01*
X139620055Y-79603810D01*
X139458995Y-79670523D01*
X139355315Y-79739800D01*
X138948112Y-79739800D01*
X138913000Y-79736342D01*
X138877888Y-79739800D01*
X138877880Y-79739800D01*
X138784948Y-79748953D01*
X138772835Y-79750146D01*
X138731951Y-79762548D01*
X138638058Y-79791030D01*
X138513846Y-79857423D01*
X138496066Y-79872015D01*
X138432252Y-79924385D01*
X138432248Y-79924389D01*
X138404973Y-79946773D01*
X138382588Y-79974049D01*
X138065955Y-80290683D01*
X137943655Y-80315010D01*
X137782595Y-80381723D01*
X137637645Y-80478576D01*
X137514376Y-80601845D01*
X137417523Y-80746795D01*
X137350810Y-80907855D01*
X137316800Y-81078835D01*
X137316800Y-81253165D01*
X137350810Y-81424145D01*
X137417523Y-81585205D01*
X137486800Y-81688885D01*
X137486801Y-84806837D01*
X137227755Y-85065883D01*
X137105455Y-85090210D01*
X136944395Y-85156923D01*
X136799445Y-85253776D01*
X136676176Y-85377045D01*
X136579323Y-85521995D01*
X136512610Y-85683055D01*
X136478600Y-85854035D01*
X128864000Y-85854035D01*
X128864000Y-67674478D01*
X128840343Y-67434284D01*
X128746852Y-67126085D01*
X128735000Y-67103911D01*
X138613000Y-67103911D01*
X138613000Y-67288089D01*
X138648932Y-67468729D01*
X138719414Y-67638889D01*
X138821738Y-67792028D01*
X138951972Y-67922262D01*
X139105111Y-68024586D01*
X139275271Y-68095068D01*
X139455911Y-68131000D01*
X139640089Y-68131000D01*
X139820729Y-68095068D01*
X139990889Y-68024586D01*
X140144028Y-67922262D01*
X140155290Y-67911000D01*
X143449890Y-67911000D01*
X143485000Y-67914458D01*
X143520110Y-67911000D01*
X143520120Y-67911000D01*
X143625164Y-67900654D01*
X143759942Y-67859770D01*
X143884154Y-67793377D01*
X143993027Y-67704027D01*
X144015420Y-67676741D01*
X145011323Y-66680839D01*
X145054973Y-66734026D01*
X145082254Y-66756415D01*
X146764584Y-68438746D01*
X146786973Y-68466027D01*
X146895846Y-68555377D01*
X147020058Y-68621770D01*
X147154836Y-68662654D01*
X147259880Y-68673000D01*
X147259889Y-68673000D01*
X147294999Y-68676458D01*
X147323373Y-68673663D01*
X147333972Y-68684262D01*
X147487111Y-68786586D01*
X147657271Y-68857068D01*
X147837911Y-68893000D01*
X148022089Y-68893000D01*
X148202729Y-68857068D01*
X148372889Y-68786586D01*
X148526028Y-68684262D01*
X148656262Y-68554028D01*
X148758586Y-68400889D01*
X148829068Y-68230729D01*
X148865000Y-68050089D01*
X148865000Y-67865911D01*
X148829068Y-67685271D01*
X148758586Y-67515111D01*
X148656262Y-67361972D01*
X148526028Y-67231738D01*
X148372889Y-67129414D01*
X148202729Y-67058932D01*
X148022089Y-67023000D01*
X147837911Y-67023000D01*
X147657271Y-67058932D01*
X147487111Y-67129414D01*
X147481395Y-67133233D01*
X146277999Y-65929838D01*
X146277999Y-65753111D01*
X146281457Y-65717999D01*
X146277999Y-65682887D01*
X146277999Y-65682879D01*
X146268846Y-65589947D01*
X146267653Y-65577834D01*
X146246330Y-65507541D01*
X146226769Y-65443057D01*
X146198000Y-65389234D01*
X146198000Y-65325911D01*
X146162068Y-65145271D01*
X146091586Y-64975111D01*
X145989262Y-64821972D01*
X145859028Y-64691738D01*
X145705889Y-64589414D01*
X145535729Y-64518932D01*
X145355089Y-64483000D01*
X145170911Y-64483000D01*
X144990271Y-64518932D01*
X144820111Y-64589414D01*
X144666972Y-64691738D01*
X144536738Y-64821972D01*
X144434414Y-64975111D01*
X144363932Y-65145271D01*
X144328000Y-65325911D01*
X144328000Y-65341837D01*
X143188839Y-66481000D01*
X142179202Y-66481000D01*
X142303028Y-66398262D01*
X142433262Y-66268028D01*
X142535586Y-66114889D01*
X142606068Y-65944729D01*
X142642000Y-65764089D01*
X142642000Y-65579911D01*
X142606068Y-65399271D01*
X142535586Y-65229111D01*
X142433262Y-65075972D01*
X142422000Y-65064710D01*
X142422000Y-64571161D01*
X142672162Y-64321000D01*
X142688089Y-64321000D01*
X142868729Y-64285068D01*
X143038889Y-64214586D01*
X143192028Y-64112262D01*
X143322262Y-63982028D01*
X143424586Y-63828889D01*
X143495068Y-63658729D01*
X143531000Y-63478089D01*
X143531000Y-63293911D01*
X143495068Y-63113271D01*
X143424586Y-62943111D01*
X143322262Y-62789972D01*
X143192028Y-62659738D01*
X143038889Y-62557414D01*
X142868729Y-62486932D01*
X142688089Y-62451000D01*
X142503911Y-62451000D01*
X142323271Y-62486932D01*
X142153111Y-62557414D01*
X141999972Y-62659738D01*
X141869738Y-62789972D01*
X141767414Y-62943111D01*
X141696932Y-63113271D01*
X141661000Y-63293911D01*
X141661000Y-63309838D01*
X141226255Y-63744584D01*
X141198973Y-63766974D01*
X141109623Y-63875847D01*
X141043230Y-64000059D01*
X141002346Y-64134837D01*
X140992000Y-64239881D01*
X140992000Y-64239890D01*
X140988542Y-64275000D01*
X140992000Y-64310110D01*
X140992001Y-65064709D01*
X140980738Y-65075972D01*
X140878414Y-65229111D01*
X140807932Y-65399271D01*
X140772000Y-65579911D01*
X140772000Y-65764089D01*
X140807932Y-65944729D01*
X140878414Y-66114889D01*
X140980738Y-66268028D01*
X141110972Y-66398262D01*
X141234798Y-66481000D01*
X140155290Y-66481000D01*
X140144028Y-66469738D01*
X139990889Y-66367414D01*
X139820729Y-66296932D01*
X139640089Y-66261000D01*
X139455911Y-66261000D01*
X139275271Y-66296932D01*
X139105111Y-66367414D01*
X138951972Y-66469738D01*
X138821738Y-66599972D01*
X138719414Y-66753111D01*
X138648932Y-66923271D01*
X138613000Y-67103911D01*
X128735000Y-67103911D01*
X128595031Y-66842048D01*
X128390714Y-66593086D01*
X128141752Y-66388769D01*
X127857715Y-66236948D01*
X127549516Y-66143457D01*
X127229000Y-66111889D01*
X126908485Y-66143457D01*
X126600286Y-66236948D01*
X126316249Y-66388769D01*
X126067287Y-66593086D01*
X125862970Y-66842048D01*
X125711149Y-67126085D01*
X125617658Y-67434284D01*
X125594001Y-67674478D01*
X125594001Y-75354684D01*
X125553625Y-75318046D01*
X125507155Y-75271576D01*
X125489172Y-75259560D01*
X125473164Y-75245034D01*
X125416850Y-75211236D01*
X125362205Y-75174723D01*
X125342221Y-75166445D01*
X125323689Y-75155323D01*
X125261861Y-75133159D01*
X125201145Y-75108010D01*
X125179936Y-75103791D01*
X125159585Y-75096496D01*
X125094616Y-75086820D01*
X125030165Y-75074000D01*
X125008535Y-75074000D01*
X124987156Y-75070816D01*
X124921553Y-75074000D01*
X124855835Y-75074000D01*
X124834625Y-75078219D01*
X124813032Y-75079267D01*
X124749303Y-75095191D01*
X124684855Y-75108010D01*
X124664875Y-75116286D01*
X124643903Y-75121526D01*
X124584510Y-75149574D01*
X124523795Y-75174723D01*
X124505812Y-75186739D01*
X124486267Y-75195969D01*
X124482175Y-75199000D01*
X122350538Y-75199000D01*
X122314205Y-75174723D01*
X122153145Y-75108010D01*
X121982165Y-75074000D01*
X121807835Y-75074000D01*
X121636855Y-75108010D01*
X121475795Y-75174723D01*
X121330845Y-75271576D01*
X121207576Y-75394845D01*
X121110723Y-75539795D01*
X121044010Y-75700855D01*
X121010000Y-75871835D01*
X121010000Y-76046165D01*
X121044010Y-76217145D01*
X121110723Y-76378205D01*
X121207576Y-76523155D01*
X121330845Y-76646424D01*
X121475795Y-76743277D01*
X121636855Y-76809990D01*
X121807835Y-76844000D01*
X121982165Y-76844000D01*
X122153145Y-76809990D01*
X122314205Y-76743277D01*
X122350538Y-76719000D01*
X124274681Y-76719000D01*
X124693000Y-77890292D01*
X124693001Y-83789550D01*
X124552489Y-83761600D01*
X124368311Y-83761600D01*
X124187671Y-83797532D01*
X124017511Y-83868014D01*
X123864372Y-83970338D01*
X123734138Y-84100572D01*
X123631814Y-84253711D01*
X123561332Y-84423871D01*
X123525400Y-84604511D01*
X123525400Y-84788689D01*
X123561332Y-84969329D01*
X123631814Y-85139489D01*
X123734138Y-85292628D01*
X123745401Y-85303891D01*
X123745401Y-85571051D01*
X123587289Y-85539600D01*
X123403111Y-85539600D01*
X123222471Y-85575532D01*
X123052311Y-85646014D01*
X122899172Y-85748338D01*
X122768938Y-85878572D01*
X122666614Y-86031711D01*
X122596132Y-86201871D01*
X122586264Y-86251479D01*
X122548729Y-86235932D01*
X122368089Y-86200000D01*
X122183911Y-86200000D01*
X122003271Y-86235932D01*
X121833111Y-86306414D01*
X121679972Y-86408738D01*
X121668710Y-86420000D01*
X120343290Y-86420000D01*
X120332028Y-86408738D01*
X120178889Y-86306414D01*
X120008729Y-86235932D01*
X119828089Y-86200000D01*
X119643911Y-86200000D01*
X119463271Y-86235932D01*
X119293111Y-86306414D01*
X119139972Y-86408738D01*
X119009738Y-86538972D01*
X118907414Y-86692111D01*
X118836932Y-86862271D01*
X118801000Y-87042911D01*
X116845073Y-87042911D01*
X115186420Y-85384259D01*
X115164027Y-85356973D01*
X115134682Y-85332890D01*
X115138600Y-85333276D01*
X115175922Y-85329600D01*
X115175933Y-85329600D01*
X115287586Y-85318603D01*
X115430847Y-85275146D01*
X115562876Y-85204574D01*
X115678601Y-85109601D01*
X115702403Y-85080598D01*
X116026849Y-84756153D01*
X116147929Y-84732068D01*
X116318089Y-84661586D01*
X116471228Y-84559262D01*
X116601462Y-84429028D01*
X116703786Y-84275889D01*
X116774268Y-84105729D01*
X116810200Y-83925089D01*
X116810200Y-83740911D01*
X116774268Y-83560271D01*
X116703786Y-83390111D01*
X116601462Y-83236972D01*
X116471228Y-83106738D01*
X116318089Y-83004414D01*
X116147929Y-82933932D01*
X115967289Y-82898000D01*
X115783111Y-82898000D01*
X115602471Y-82933932D01*
X115432311Y-83004414D01*
X115279172Y-83106738D01*
X115148938Y-83236972D01*
X115046614Y-83390111D01*
X114976132Y-83560271D01*
X114952047Y-83681351D01*
X114823799Y-83809600D01*
X114409595Y-83809600D01*
X114372706Y-83740586D01*
X114187134Y-83514466D01*
X113961014Y-83328894D01*
X113906209Y-83299600D01*
X113961014Y-83270306D01*
X114187134Y-83084734D01*
X114372706Y-82858614D01*
X114510599Y-82600634D01*
X114595513Y-82320711D01*
X114624185Y-82029600D01*
X114595513Y-81738489D01*
X114510599Y-81458566D01*
X114372706Y-81200586D01*
X114187134Y-80974466D01*
X113961014Y-80788894D01*
X113906209Y-80759600D01*
X113961014Y-80730306D01*
X114187134Y-80544734D01*
X114372706Y-80318614D01*
X114510599Y-80060634D01*
X114595513Y-79780711D01*
X114624185Y-79489600D01*
X114595513Y-79198489D01*
X114510599Y-78918566D01*
X114372706Y-78660586D01*
X114187134Y-78434466D01*
X113961014Y-78248894D01*
X113906209Y-78219600D01*
X113961014Y-78190306D01*
X114187134Y-78004734D01*
X114372706Y-77778614D01*
X114510599Y-77520634D01*
X114595513Y-77240711D01*
X114624185Y-76949600D01*
X114595513Y-76658489D01*
X114510599Y-76378566D01*
X114372706Y-76120586D01*
X114187134Y-75894466D01*
X113961014Y-75708894D01*
X113896477Y-75674399D01*
X114013355Y-75604778D01*
X114229588Y-75409869D01*
X114403641Y-75176520D01*
X114528825Y-74913699D01*
X114573476Y-74766490D01*
X114452155Y-74536600D01*
X113259000Y-74536600D01*
X113259000Y-74556600D01*
X113005000Y-74556600D01*
X113005000Y-74536600D01*
X112985000Y-74536600D01*
X112985000Y-74282600D01*
X113005000Y-74282600D01*
X113005000Y-74262600D01*
X113259000Y-74262600D01*
X113259000Y-74282600D01*
X114452155Y-74282600D01*
X114573476Y-74052710D01*
X114528825Y-73905501D01*
X114403641Y-73642680D01*
X114229588Y-73409331D01*
X114013355Y-73214422D01*
X113896477Y-73144801D01*
X113961014Y-73110306D01*
X114187134Y-72924734D01*
X114372706Y-72698614D01*
X114510599Y-72440634D01*
X114595513Y-72160711D01*
X114624185Y-71869600D01*
X114595513Y-71578489D01*
X114510599Y-71298566D01*
X114372706Y-71040586D01*
X114187134Y-70814466D01*
X113961014Y-70628894D01*
X113906209Y-70599600D01*
X113961014Y-70570306D01*
X114187134Y-70384734D01*
X114372706Y-70158614D01*
X114510599Y-69900634D01*
X114595513Y-69620711D01*
X114624185Y-69329600D01*
X114615322Y-69239612D01*
X114694972Y-69319262D01*
X114848111Y-69421586D01*
X115018271Y-69492068D01*
X115198911Y-69528000D01*
X115383089Y-69528000D01*
X115563729Y-69492068D01*
X115733889Y-69421586D01*
X115887028Y-69319262D01*
X116017262Y-69189028D01*
X116119586Y-69035889D01*
X116190068Y-68865729D01*
X116226000Y-68685089D01*
X116226000Y-68500911D01*
X116190068Y-68320271D01*
X116119586Y-68150111D01*
X116017262Y-67996972D01*
X115887028Y-67866738D01*
X115733889Y-67764414D01*
X115563729Y-67693932D01*
X115383089Y-67658000D01*
X115367163Y-67658000D01*
X114612939Y-66903778D01*
X114624185Y-66789600D01*
X114595513Y-66498489D01*
X114510599Y-66218566D01*
X114372706Y-65960586D01*
X114187134Y-65734466D01*
X113961014Y-65548894D01*
X113906209Y-65519600D01*
X113961014Y-65490306D01*
X114187134Y-65304734D01*
X114372706Y-65078614D01*
X114510599Y-64820634D01*
X114595513Y-64540711D01*
X114624185Y-64249600D01*
X114595513Y-63958489D01*
X114510599Y-63678566D01*
X114372706Y-63420586D01*
X114187134Y-63194466D01*
X113961014Y-63008894D01*
X113906209Y-62979600D01*
X113961014Y-62950306D01*
X114187134Y-62764734D01*
X114372706Y-62538614D01*
X114510599Y-62280634D01*
X114595513Y-62000711D01*
X114624185Y-61709600D01*
X114595513Y-61418489D01*
X114510599Y-61138566D01*
X114372706Y-60880586D01*
X114187134Y-60654466D01*
X113961014Y-60468894D01*
X113906209Y-60439600D01*
X113961014Y-60410306D01*
X114187134Y-60224734D01*
X114372706Y-59998614D01*
X114376288Y-59991911D01*
X138867000Y-59991911D01*
X138867000Y-60176089D01*
X138902932Y-60356729D01*
X138973414Y-60526889D01*
X139075738Y-60680028D01*
X139205972Y-60810262D01*
X139359111Y-60912586D01*
X139529271Y-60983068D01*
X139709911Y-61019000D01*
X139837858Y-61019000D01*
X139915836Y-61042654D01*
X140020880Y-61053000D01*
X140020889Y-61053000D01*
X140055999Y-61056458D01*
X140091109Y-61053000D01*
X140972710Y-61053000D01*
X140983972Y-61064262D01*
X141137111Y-61166586D01*
X141307271Y-61237068D01*
X141487911Y-61273000D01*
X141672089Y-61273000D01*
X141852729Y-61237068D01*
X142022889Y-61166586D01*
X142176028Y-61064262D01*
X142306262Y-60934028D01*
X142408586Y-60780889D01*
X142479068Y-60610729D01*
X142515000Y-60430089D01*
X142515000Y-60245911D01*
X142479068Y-60065271D01*
X142408586Y-59895111D01*
X142306262Y-59741972D01*
X142176028Y-59611738D01*
X142022889Y-59509414D01*
X141852729Y-59438932D01*
X141672089Y-59403000D01*
X141487911Y-59403000D01*
X141307271Y-59438932D01*
X141137111Y-59509414D01*
X140983972Y-59611738D01*
X140972710Y-59623000D01*
X140618485Y-59623000D01*
X140528262Y-59487972D01*
X140398028Y-59357738D01*
X140244889Y-59255414D01*
X140074729Y-59184932D01*
X139894089Y-59149000D01*
X139709911Y-59149000D01*
X139529271Y-59184932D01*
X139359111Y-59255414D01*
X139205972Y-59357738D01*
X139075738Y-59487972D01*
X138973414Y-59641111D01*
X138902932Y-59811271D01*
X138867000Y-59991911D01*
X114376288Y-59991911D01*
X114510599Y-59740634D01*
X114595513Y-59460711D01*
X114624185Y-59169600D01*
X114595513Y-58878489D01*
X114510599Y-58598566D01*
X114372706Y-58340586D01*
X114187134Y-58114466D01*
X113961014Y-57928894D01*
X113896477Y-57894399D01*
X114013355Y-57824778D01*
X114229588Y-57629869D01*
X114403641Y-57396520D01*
X114528825Y-57133699D01*
X114573476Y-56986490D01*
X114452155Y-56756600D01*
X113259000Y-56756600D01*
X113259000Y-56776600D01*
X113005000Y-56776600D01*
X113005000Y-56756600D01*
X112985000Y-56756600D01*
X112985000Y-56502600D01*
X113005000Y-56502600D01*
X113005000Y-55308786D01*
X113259000Y-55308786D01*
X113259000Y-56502600D01*
X114452155Y-56502600D01*
X114573476Y-56272710D01*
X114528825Y-56125501D01*
X114403641Y-55862680D01*
X114229588Y-55629331D01*
X114013355Y-55434422D01*
X113763252Y-55285443D01*
X113488891Y-55188119D01*
X113259000Y-55308786D01*
X113005000Y-55308786D01*
X112775109Y-55188119D01*
X112500748Y-55285443D01*
X112250645Y-55434422D01*
X112034412Y-55629331D01*
X111863584Y-55858356D01*
X111832706Y-55800586D01*
X111647134Y-55574466D01*
X111421014Y-55388894D01*
X111163034Y-55251001D01*
X110883111Y-55166087D01*
X110664950Y-55144600D01*
X110519050Y-55144600D01*
X110300889Y-55166087D01*
X110020966Y-55251001D01*
X109762986Y-55388894D01*
X109536866Y-55574466D01*
X109351294Y-55800586D01*
X109213401Y-56058566D01*
X109150400Y-56266252D01*
X109150400Y-51550695D01*
X109980400Y-51550695D01*
X109980400Y-51941705D01*
X110056682Y-52325203D01*
X110206315Y-52686450D01*
X110423549Y-53011564D01*
X110700036Y-53288051D01*
X111025150Y-53505285D01*
X111386397Y-53654918D01*
X111769895Y-53731200D01*
X112160905Y-53731200D01*
X112544403Y-53654918D01*
X112882410Y-53514911D01*
X117302400Y-53514911D01*
X117302400Y-53699089D01*
X117338332Y-53879729D01*
X117408814Y-54049889D01*
X117511138Y-54203028D01*
X117641372Y-54333262D01*
X117794511Y-54435586D01*
X117964671Y-54506068D01*
X118145311Y-54542000D01*
X118329489Y-54542000D01*
X118510129Y-54506068D01*
X118680289Y-54435586D01*
X118833428Y-54333262D01*
X118963662Y-54203028D01*
X119065986Y-54049889D01*
X119129765Y-53895911D01*
X124135000Y-53895911D01*
X124135000Y-54080089D01*
X124170932Y-54260729D01*
X124241414Y-54430889D01*
X124343738Y-54584028D01*
X124473972Y-54714262D01*
X124627111Y-54816586D01*
X124797271Y-54887068D01*
X124977911Y-54923000D01*
X125162089Y-54923000D01*
X125342729Y-54887068D01*
X125512889Y-54816586D01*
X125666028Y-54714262D01*
X125796262Y-54584028D01*
X125898586Y-54430889D01*
X125969068Y-54260729D01*
X126005000Y-54080089D01*
X126005000Y-54064162D01*
X126300251Y-53768911D01*
X133152000Y-53768911D01*
X133152000Y-53953089D01*
X133187932Y-54133729D01*
X133258414Y-54303889D01*
X133360738Y-54457028D01*
X133372001Y-54468291D01*
X133372000Y-57317710D01*
X133360738Y-57328972D01*
X133258414Y-57482111D01*
X133187932Y-57652271D01*
X133152000Y-57832911D01*
X133152000Y-58017089D01*
X133187932Y-58197729D01*
X133258414Y-58367889D01*
X133360738Y-58521028D01*
X133490972Y-58651262D01*
X133644111Y-58753586D01*
X133814271Y-58824068D01*
X133994911Y-58860000D01*
X134179089Y-58860000D01*
X134359729Y-58824068D01*
X134529889Y-58753586D01*
X134683028Y-58651262D01*
X134813262Y-58521028D01*
X134915586Y-58367889D01*
X134986068Y-58197729D01*
X135022000Y-58017089D01*
X135022000Y-57832911D01*
X134986068Y-57652271D01*
X134915586Y-57482111D01*
X134813262Y-57328972D01*
X134802000Y-57317710D01*
X134802000Y-56653358D01*
X134830271Y-56665068D01*
X135010911Y-56701000D01*
X135195089Y-56701000D01*
X135375729Y-56665068D01*
X135545889Y-56594586D01*
X135699028Y-56492262D01*
X135829262Y-56362028D01*
X135931586Y-56208889D01*
X136002068Y-56038729D01*
X136038000Y-55858089D01*
X136038000Y-55842163D01*
X136091751Y-55788412D01*
X136119027Y-55766027D01*
X136157975Y-55718569D01*
X136208376Y-55657156D01*
X136274769Y-55532944D01*
X136274770Y-55532942D01*
X136315654Y-55398164D01*
X136326000Y-55293120D01*
X136326000Y-55293111D01*
X136329458Y-55258001D01*
X136326000Y-55222891D01*
X136326000Y-54595290D01*
X136337262Y-54584028D01*
X136439586Y-54430889D01*
X136510068Y-54260729D01*
X136546000Y-54080089D01*
X136546000Y-53895911D01*
X136510068Y-53715271D01*
X136439586Y-53545111D01*
X136337262Y-53391972D01*
X136207028Y-53261738D01*
X136053889Y-53159414D01*
X135883729Y-53088932D01*
X135703089Y-53053000D01*
X135518911Y-53053000D01*
X135338271Y-53088932D01*
X135168111Y-53159414D01*
X135014972Y-53261738D01*
X134892760Y-53383950D01*
X134813262Y-53264972D01*
X134683028Y-53134738D01*
X134529889Y-53032414D01*
X134359729Y-52961932D01*
X134179089Y-52926000D01*
X133994911Y-52926000D01*
X133814271Y-52961932D01*
X133644111Y-53032414D01*
X133490972Y-53134738D01*
X133360738Y-53264972D01*
X133258414Y-53418111D01*
X133187932Y-53588271D01*
X133152000Y-53768911D01*
X126300251Y-53768911D01*
X126824743Y-53244420D01*
X126866729Y-53236068D01*
X127036889Y-53165586D01*
X127190028Y-53063262D01*
X127320262Y-52933028D01*
X127422586Y-52779889D01*
X127493068Y-52609729D01*
X127529000Y-52429089D01*
X127529000Y-52244911D01*
X127493068Y-52064271D01*
X127422586Y-51894111D01*
X127320262Y-51740972D01*
X127190028Y-51610738D01*
X127036889Y-51508414D01*
X126866729Y-51437932D01*
X126686089Y-51402000D01*
X126501911Y-51402000D01*
X126321271Y-51437932D01*
X126151111Y-51508414D01*
X125997972Y-51610738D01*
X125867738Y-51740972D01*
X125765414Y-51894111D01*
X125694932Y-52064271D01*
X125659000Y-52244911D01*
X125659000Y-52387838D01*
X124993838Y-53053000D01*
X124977911Y-53053000D01*
X124797271Y-53088932D01*
X124627111Y-53159414D01*
X124473972Y-53261738D01*
X124343738Y-53391972D01*
X124241414Y-53545111D01*
X124170932Y-53715271D01*
X124135000Y-53895911D01*
X119129765Y-53895911D01*
X119136468Y-53879729D01*
X119172400Y-53699089D01*
X119172400Y-53514911D01*
X119136468Y-53334271D01*
X119065986Y-53164111D01*
X118977800Y-53032131D01*
X118977800Y-51801290D01*
X118989062Y-51790028D01*
X119091386Y-51636889D01*
X119161868Y-51466729D01*
X119197800Y-51286089D01*
X119197800Y-51178111D01*
X137241400Y-51178111D01*
X137241400Y-51362289D01*
X137277332Y-51542929D01*
X137347814Y-51713089D01*
X137450138Y-51866228D01*
X137580372Y-51996462D01*
X137733511Y-52098786D01*
X137903671Y-52169268D01*
X138084311Y-52205200D01*
X138268489Y-52205200D01*
X138449129Y-52169268D01*
X138619289Y-52098786D01*
X138772428Y-51996462D01*
X138902662Y-51866228D01*
X139004986Y-51713089D01*
X139075468Y-51542929D01*
X139111400Y-51362289D01*
X139111400Y-51346362D01*
X139209162Y-51248600D01*
X141156839Y-51248600D01*
X142516001Y-52607764D01*
X142516000Y-54156090D01*
X142512542Y-54191200D01*
X142516000Y-54226310D01*
X142516000Y-54226319D01*
X142526346Y-54331363D01*
X142567230Y-54466141D01*
X142633623Y-54590353D01*
X142722973Y-54699226D01*
X142750255Y-54721616D01*
X143413600Y-55384962D01*
X143413600Y-55400889D01*
X143449532Y-55581529D01*
X143520014Y-55751689D01*
X143622338Y-55904828D01*
X143752572Y-56035062D01*
X143905711Y-56137386D01*
X144075871Y-56207868D01*
X144256511Y-56243800D01*
X144440689Y-56243800D01*
X144621329Y-56207868D01*
X144791489Y-56137386D01*
X144944628Y-56035062D01*
X145074862Y-55904828D01*
X145100215Y-55866885D01*
X145124911Y-55883386D01*
X145295071Y-55953868D01*
X145475711Y-55989800D01*
X145659889Y-55989800D01*
X145840529Y-55953868D01*
X146010689Y-55883386D01*
X146163828Y-55781062D01*
X146294062Y-55650828D01*
X146396386Y-55497689D01*
X146466868Y-55327529D01*
X146502800Y-55146889D01*
X146502800Y-54962711D01*
X146466868Y-54782071D01*
X146396386Y-54611911D01*
X146294062Y-54458772D01*
X146163828Y-54328538D01*
X146010689Y-54226214D01*
X145840529Y-54155732D01*
X145659889Y-54119800D01*
X145643962Y-54119800D01*
X144613626Y-53089464D01*
X144617662Y-53085428D01*
X144719986Y-52932289D01*
X144790468Y-52762129D01*
X144826400Y-52581489D01*
X144826400Y-52397311D01*
X144790468Y-52216671D01*
X144719986Y-52046511D01*
X144650450Y-51942442D01*
X145203600Y-51942442D01*
X145203600Y-52274358D01*
X145268354Y-52599896D01*
X145395372Y-52906547D01*
X145579775Y-53182525D01*
X145814475Y-53417225D01*
X146090453Y-53601628D01*
X146397104Y-53728646D01*
X146722642Y-53793400D01*
X147054558Y-53793400D01*
X147380096Y-53728646D01*
X147686747Y-53601628D01*
X147840558Y-53498854D01*
X147848063Y-53512894D01*
X147927415Y-53609585D01*
X148024106Y-53688937D01*
X148134420Y-53747902D01*
X148254118Y-53784212D01*
X148378600Y-53796472D01*
X150478600Y-53796472D01*
X150603082Y-53784212D01*
X150722780Y-53747902D01*
X150833094Y-53688937D01*
X150929785Y-53609585D01*
X151009137Y-53512894D01*
X151068102Y-53402580D01*
X151104412Y-53282882D01*
X151116672Y-53158400D01*
X151116672Y-51942442D01*
X161586600Y-51942442D01*
X161586600Y-52274358D01*
X161651354Y-52599896D01*
X161778372Y-52906547D01*
X161962775Y-53182525D01*
X162197475Y-53417225D01*
X162473453Y-53601628D01*
X162780104Y-53728646D01*
X163105642Y-53793400D01*
X163437558Y-53793400D01*
X163763096Y-53728646D01*
X164069747Y-53601628D01*
X164223558Y-53498854D01*
X164231063Y-53512894D01*
X164310415Y-53609585D01*
X164407106Y-53688937D01*
X164517420Y-53747902D01*
X164637118Y-53784212D01*
X164761600Y-53796472D01*
X166861600Y-53796472D01*
X166986082Y-53784212D01*
X167105780Y-53747902D01*
X167216094Y-53688937D01*
X167312785Y-53609585D01*
X167392137Y-53512894D01*
X167451102Y-53402580D01*
X167487412Y-53282882D01*
X167499672Y-53158400D01*
X167499672Y-51058400D01*
X167487412Y-50933918D01*
X167451102Y-50814220D01*
X167392137Y-50703906D01*
X167312785Y-50607215D01*
X167216094Y-50527863D01*
X167105780Y-50468898D01*
X166986082Y-50432588D01*
X166861600Y-50420328D01*
X164761600Y-50420328D01*
X164637118Y-50432588D01*
X164517420Y-50468898D01*
X164407106Y-50527863D01*
X164310415Y-50607215D01*
X164231063Y-50703906D01*
X164223558Y-50717946D01*
X164069747Y-50615172D01*
X163763096Y-50488154D01*
X163437558Y-50423400D01*
X163105642Y-50423400D01*
X162780104Y-50488154D01*
X162473453Y-50615172D01*
X162197475Y-50799575D01*
X161962775Y-51034275D01*
X161778372Y-51310253D01*
X161651354Y-51616904D01*
X161586600Y-51942442D01*
X151116672Y-51942442D01*
X151116672Y-51058400D01*
X151104412Y-50933918D01*
X151068102Y-50814220D01*
X151009137Y-50703906D01*
X150929785Y-50607215D01*
X150833094Y-50527863D01*
X150722780Y-50468898D01*
X150603082Y-50432588D01*
X150478600Y-50420328D01*
X148378600Y-50420328D01*
X148254118Y-50432588D01*
X148134420Y-50468898D01*
X148024106Y-50527863D01*
X147927415Y-50607215D01*
X147848063Y-50703906D01*
X147840558Y-50717946D01*
X147686747Y-50615172D01*
X147380096Y-50488154D01*
X147054558Y-50423400D01*
X146722642Y-50423400D01*
X146397104Y-50488154D01*
X146090453Y-50615172D01*
X145814475Y-50799575D01*
X145579775Y-51034275D01*
X145395372Y-51310253D01*
X145268354Y-51616904D01*
X145203600Y-51942442D01*
X144650450Y-51942442D01*
X144617662Y-51893372D01*
X144487428Y-51763138D01*
X144334289Y-51660814D01*
X144164129Y-51590332D01*
X143983489Y-51554400D01*
X143799311Y-51554400D01*
X143618671Y-51590332D01*
X143549533Y-51618970D01*
X141983420Y-50052859D01*
X141961027Y-50025573D01*
X141852154Y-49936223D01*
X141727942Y-49869830D01*
X141593164Y-49828946D01*
X141488120Y-49818600D01*
X141488110Y-49818600D01*
X141453000Y-49815142D01*
X141417890Y-49818600D01*
X138948112Y-49818600D01*
X138913000Y-49815142D01*
X138877888Y-49818600D01*
X138877880Y-49818600D01*
X138784948Y-49827753D01*
X138772835Y-49828946D01*
X138744696Y-49837482D01*
X138638058Y-49869830D01*
X138513846Y-49936223D01*
X138513844Y-49936224D01*
X138513845Y-49936224D01*
X138432252Y-50003185D01*
X138432248Y-50003189D01*
X138404973Y-50025573D01*
X138382588Y-50052849D01*
X138100238Y-50335200D01*
X138084311Y-50335200D01*
X137903671Y-50371132D01*
X137733511Y-50441614D01*
X137580372Y-50543938D01*
X137450138Y-50674172D01*
X137347814Y-50827311D01*
X137277332Y-50997471D01*
X137241400Y-51178111D01*
X119197800Y-51178111D01*
X119197800Y-51101911D01*
X119161868Y-50921271D01*
X119091386Y-50751111D01*
X118989062Y-50597972D01*
X118858828Y-50467738D01*
X118705689Y-50365414D01*
X118535529Y-50294932D01*
X118354889Y-50259000D01*
X118170711Y-50259000D01*
X117990071Y-50294932D01*
X117819911Y-50365414D01*
X117666772Y-50467738D01*
X117536538Y-50597972D01*
X117434214Y-50751111D01*
X117363732Y-50921271D01*
X117327800Y-51101911D01*
X117327800Y-51286089D01*
X117363732Y-51466729D01*
X117434214Y-51636889D01*
X117536538Y-51790028D01*
X117547800Y-51801290D01*
X117547801Y-52974309D01*
X117511138Y-53010972D01*
X117408814Y-53164111D01*
X117338332Y-53334271D01*
X117302400Y-53514911D01*
X112882410Y-53514911D01*
X112905650Y-53505285D01*
X113230764Y-53288051D01*
X113507251Y-53011564D01*
X113724485Y-52686450D01*
X113874118Y-52325203D01*
X113950400Y-51941705D01*
X113950400Y-51550695D01*
X113874118Y-51167197D01*
X113724485Y-50805950D01*
X113507251Y-50480836D01*
X113230764Y-50204349D01*
X112905650Y-49987115D01*
X112544403Y-49837482D01*
X112160905Y-49761200D01*
X111769895Y-49761200D01*
X111386397Y-49837482D01*
X111025150Y-49987115D01*
X110700036Y-50204349D01*
X110423549Y-50480836D01*
X110206315Y-50805950D01*
X110056682Y-51167197D01*
X109980400Y-51550695D01*
X109150400Y-51550695D01*
X109150400Y-51279705D01*
X109197712Y-50797184D01*
X109328114Y-50365270D01*
X109539924Y-49966915D01*
X109825075Y-49617286D01*
X110172703Y-49329703D01*
X110569577Y-49115114D01*
X111000561Y-48981702D01*
X111481054Y-48931200D01*
X176378000Y-48931200D01*
X176378000Y-56909000D01*
G36*
X110719000Y-99682600D02*
G01*
X110739000Y-99682600D01*
X110739000Y-99936600D01*
X110719000Y-99936600D01*
X110719000Y-99956600D01*
X110465000Y-99956600D01*
X110465000Y-99936600D01*
X110445000Y-99936600D01*
X110445000Y-99682600D01*
X110465000Y-99682600D01*
X110465000Y-99662600D01*
X110719000Y-99662600D01*
X110719000Y-99682600D01*
X110719000Y-99682600D01*
G37*
X110719000Y-99682600D02*
X110739000Y-99682600D01*
X110739000Y-99936600D01*
X110719000Y-99936600D01*
X110719000Y-99956600D01*
X110465000Y-99956600D01*
X110465000Y-99936600D01*
X110445000Y-99936600D01*
X110445000Y-99682600D01*
X110465000Y-99682600D01*
X110465000Y-99662600D01*
X110719000Y-99662600D01*
X110719000Y-99682600D01*
G36*
X111891294Y-98098614D02*
G01*
X112076866Y-98324734D01*
X112302986Y-98510306D01*
X112357791Y-98539600D01*
X112302986Y-98568894D01*
X112076866Y-98754466D01*
X111891294Y-98980586D01*
X111860416Y-99038356D01*
X111689588Y-98809331D01*
X111473355Y-98614422D01*
X111356477Y-98544801D01*
X111421014Y-98510306D01*
X111647134Y-98324734D01*
X111832706Y-98098614D01*
X111862000Y-98043809D01*
X111891294Y-98098614D01*
X111891294Y-98098614D01*
G37*
X111891294Y-98098614D02*
X112076866Y-98324734D01*
X112302986Y-98510306D01*
X112357791Y-98539600D01*
X112302986Y-98568894D01*
X112076866Y-98754466D01*
X111891294Y-98980586D01*
X111860416Y-99038356D01*
X111689588Y-98809331D01*
X111473355Y-98614422D01*
X111356477Y-98544801D01*
X111421014Y-98510306D01*
X111647134Y-98324734D01*
X111832706Y-98098614D01*
X111862000Y-98043809D01*
X111891294Y-98098614D01*
G36*
X110719000Y-89522600D02*
G01*
X110739000Y-89522600D01*
X110739000Y-89776600D01*
X110719000Y-89776600D01*
X110719000Y-89796600D01*
X110465000Y-89796600D01*
X110465000Y-89776600D01*
X110445000Y-89776600D01*
X110445000Y-89522600D01*
X110465000Y-89522600D01*
X110465000Y-89502600D01*
X110719000Y-89502600D01*
X110719000Y-89522600D01*
X110719000Y-89522600D01*
G37*
X110719000Y-89522600D02*
X110739000Y-89522600D01*
X110739000Y-89776600D01*
X110719000Y-89776600D01*
X110719000Y-89796600D01*
X110465000Y-89796600D01*
X110465000Y-89776600D01*
X110445000Y-89776600D01*
X110445000Y-89522600D01*
X110465000Y-89522600D01*
X110465000Y-89502600D01*
X110719000Y-89502600D01*
X110719000Y-89522600D01*
G36*
X110719000Y-81902600D02*
G01*
X110739000Y-81902600D01*
X110739000Y-82156600D01*
X110719000Y-82156600D01*
X110719000Y-82176600D01*
X110465000Y-82176600D01*
X110465000Y-82156600D01*
X110445000Y-82156600D01*
X110445000Y-81902600D01*
X110465000Y-81902600D01*
X110465000Y-81882600D01*
X110719000Y-81882600D01*
X110719000Y-81902600D01*
X110719000Y-81902600D01*
G37*
X110719000Y-81902600D02*
X110739000Y-81902600D01*
X110739000Y-82156600D01*
X110719000Y-82156600D01*
X110719000Y-82176600D01*
X110465000Y-82176600D01*
X110465000Y-82156600D01*
X110445000Y-82156600D01*
X110445000Y-81902600D01*
X110465000Y-81902600D01*
X110465000Y-81882600D01*
X110719000Y-81882600D01*
X110719000Y-81902600D01*
G36*
X111891294Y-80318614D02*
G01*
X112076866Y-80544734D01*
X112302986Y-80730306D01*
X112357791Y-80759600D01*
X112302986Y-80788894D01*
X112076866Y-80974466D01*
X111891294Y-81200586D01*
X111860416Y-81258356D01*
X111689588Y-81029331D01*
X111473355Y-80834422D01*
X111356477Y-80764801D01*
X111421014Y-80730306D01*
X111647134Y-80544734D01*
X111832706Y-80318614D01*
X111862000Y-80263809D01*
X111891294Y-80318614D01*
X111891294Y-80318614D01*
G37*
X111891294Y-80318614D02*
X112076866Y-80544734D01*
X112302986Y-80730306D01*
X112357791Y-80759600D01*
X112302986Y-80788894D01*
X112076866Y-80974466D01*
X111891294Y-81200586D01*
X111860416Y-81258356D01*
X111689588Y-81029331D01*
X111473355Y-80834422D01*
X111356477Y-80764801D01*
X111421014Y-80730306D01*
X111647134Y-80544734D01*
X111832706Y-80318614D01*
X111862000Y-80263809D01*
X111891294Y-80318614D01*
G36*
X110719000Y-69202600D02*
G01*
X110739000Y-69202600D01*
X110739000Y-69456600D01*
X110719000Y-69456600D01*
X110719000Y-69476600D01*
X110465000Y-69476600D01*
X110465000Y-69456600D01*
X110445000Y-69456600D01*
X110445000Y-69202600D01*
X110465000Y-69202600D01*
X110465000Y-69182600D01*
X110719000Y-69182600D01*
X110719000Y-69202600D01*
X110719000Y-69202600D01*
G37*
X110719000Y-69202600D02*
X110739000Y-69202600D01*
X110739000Y-69456600D01*
X110719000Y-69456600D01*
X110719000Y-69476600D01*
X110465000Y-69476600D01*
X110465000Y-69456600D01*
X110445000Y-69456600D01*
X110445000Y-69202600D01*
X110465000Y-69202600D01*
X110465000Y-69182600D01*
X110719000Y-69182600D01*
X110719000Y-69202600D01*
G36*
X110719000Y-64122600D02*
G01*
X110739000Y-64122600D01*
X110739000Y-64376600D01*
X110719000Y-64376600D01*
X110719000Y-64396600D01*
X110465000Y-64396600D01*
X110465000Y-64376600D01*
X110445000Y-64376600D01*
X110445000Y-64122600D01*
X110465000Y-64122600D01*
X110465000Y-64102600D01*
X110719000Y-64102600D01*
X110719000Y-64122600D01*
X110719000Y-64122600D01*
G37*
X110719000Y-64122600D02*
X110739000Y-64122600D01*
X110739000Y-64376600D01*
X110719000Y-64376600D01*
X110719000Y-64396600D01*
X110465000Y-64396600D01*
X110465000Y-64376600D01*
X110445000Y-64376600D01*
X110445000Y-64122600D01*
X110465000Y-64122600D01*
X110465000Y-64102600D01*
X110719000Y-64102600D01*
X110719000Y-64122600D01*
M02*
