G04 #@! TF.GenerationSoftware,KiCad,Pcbnew,(5.1.0)-1*
G04 #@! TF.CreationDate,2020-01-21T12:08:37-05:00*
G04 #@! TF.ProjectId,RasPi_NFC_Audio_KiCAD,52617350-695f-44e4-9643-5f417564696f,rev?*
G04 #@! TF.SameCoordinates,Original*
G04 #@! TF.FileFunction,Legend,Bot*
G04 #@! TF.FilePolarity,Positive*
%FSLAX46Y46*%
G04 Gerber Fmt 4.6, Leading zero omitted, Abs format (unit mm)*
G04 Created by KiCad (PCBNEW (5.1.0)-1) date 2020-01-21 12:08:37*
%MOMM*%
%LPD*%
G04 APERTURE LIST*
%ADD10C,0.400000*%
%ADD11C,0.150000*%
G04 APERTURE END LIST*
D10*
X192791476Y-75813523D02*
X192791476Y-71813523D01*
X191267666Y-71813523D01*
X190886714Y-72004000D01*
X190696238Y-72194476D01*
X190505761Y-72575428D01*
X190505761Y-73146857D01*
X190696238Y-73527809D01*
X190886714Y-73718285D01*
X191267666Y-73908761D01*
X192791476Y-73908761D01*
X188791476Y-75813523D02*
X188791476Y-73146857D01*
X188791476Y-71813523D02*
X188981952Y-72004000D01*
X188791476Y-72194476D01*
X188601000Y-72004000D01*
X188791476Y-71813523D01*
X188791476Y-72194476D01*
X184220047Y-71813523D02*
X181553380Y-71813523D01*
X184220047Y-75813523D01*
X181553380Y-75813523D01*
X178505761Y-75623047D02*
X178886714Y-75813523D01*
X179648619Y-75813523D01*
X180029571Y-75623047D01*
X180220047Y-75242095D01*
X180220047Y-73718285D01*
X180029571Y-73337333D01*
X179648619Y-73146857D01*
X178886714Y-73146857D01*
X178505761Y-73337333D01*
X178315285Y-73718285D01*
X178315285Y-74099238D01*
X180220047Y-74480190D01*
X176601000Y-75813523D02*
X176601000Y-73146857D01*
X176601000Y-73908761D02*
X176410523Y-73527809D01*
X176220047Y-73337333D01*
X175839095Y-73146857D01*
X175458142Y-73146857D01*
X173553380Y-75813523D02*
X173934333Y-75623047D01*
X174124809Y-75432571D01*
X174315285Y-75051619D01*
X174315285Y-73908761D01*
X174124809Y-73527809D01*
X173934333Y-73337333D01*
X173553380Y-73146857D01*
X172981952Y-73146857D01*
X172601000Y-73337333D01*
X172410523Y-73527809D01*
X172220047Y-73908761D01*
X172220047Y-75051619D01*
X172410523Y-75432571D01*
X172601000Y-75623047D01*
X172981952Y-75813523D01*
X173553380Y-75813523D01*
X197648619Y-82213523D02*
X197648619Y-78213523D01*
X195362904Y-82213523D01*
X195362904Y-78213523D01*
X192124809Y-80118285D02*
X193458142Y-80118285D01*
X193458142Y-82213523D02*
X193458142Y-78213523D01*
X191553380Y-78213523D01*
X187743857Y-81832571D02*
X187934333Y-82023047D01*
X188505761Y-82213523D01*
X188886714Y-82213523D01*
X189458142Y-82023047D01*
X189839095Y-81642095D01*
X190029571Y-81261142D01*
X190220047Y-80499238D01*
X190220047Y-79927809D01*
X190029571Y-79165904D01*
X189839095Y-78784952D01*
X189458142Y-78404000D01*
X188886714Y-78213523D01*
X188505761Y-78213523D01*
X187934333Y-78404000D01*
X187743857Y-78594476D01*
X183172428Y-78023047D02*
X186601000Y-83165904D01*
X182029571Y-81070666D02*
X180124809Y-81070666D01*
X182410523Y-82213523D02*
X181077190Y-78213523D01*
X179743857Y-82213523D01*
X176696238Y-79546857D02*
X176696238Y-82213523D01*
X178410523Y-79546857D02*
X178410523Y-81642095D01*
X178220047Y-82023047D01*
X177839095Y-82213523D01*
X177267666Y-82213523D01*
X176886714Y-82023047D01*
X176696238Y-81832571D01*
X173077190Y-82213523D02*
X173077190Y-78213523D01*
X173077190Y-82023047D02*
X173458142Y-82213523D01*
X174220047Y-82213523D01*
X174601000Y-82023047D01*
X174791476Y-81832571D01*
X174981952Y-81451619D01*
X174981952Y-80308761D01*
X174791476Y-79927809D01*
X174601000Y-79737333D01*
X174220047Y-79546857D01*
X173458142Y-79546857D01*
X173077190Y-79737333D01*
X171172428Y-82213523D02*
X171172428Y-79546857D01*
X171172428Y-78213523D02*
X171362904Y-78404000D01*
X171172428Y-78594476D01*
X170981952Y-78404000D01*
X171172428Y-78213523D01*
X171172428Y-78594476D01*
X168696238Y-82213523D02*
X169077190Y-82023047D01*
X169267666Y-81832571D01*
X169458142Y-81451619D01*
X169458142Y-80308761D01*
X169267666Y-79927809D01*
X169077190Y-79737333D01*
X168696238Y-79546857D01*
X168124809Y-79546857D01*
X167743857Y-79737333D01*
X167553380Y-79927809D01*
X167362904Y-80308761D01*
X167362904Y-81451619D01*
X167553380Y-81832571D01*
X167743857Y-82023047D01*
X168124809Y-82213523D01*
X168696238Y-82213523D01*
X188696238Y-88423047D02*
X188124809Y-88613523D01*
X187172428Y-88613523D01*
X186791476Y-88423047D01*
X186601000Y-88232571D01*
X186410523Y-87851619D01*
X186410523Y-87470666D01*
X186601000Y-87089714D01*
X186791476Y-86899238D01*
X187172428Y-86708761D01*
X187934333Y-86518285D01*
X188315285Y-86327809D01*
X188505761Y-86137333D01*
X188696238Y-85756380D01*
X188696238Y-85375428D01*
X188505761Y-84994476D01*
X188315285Y-84804000D01*
X187934333Y-84613523D01*
X186981952Y-84613523D01*
X186410523Y-84804000D01*
X184696238Y-88613523D02*
X184696238Y-84613523D01*
X184315285Y-87089714D02*
X183172428Y-88613523D01*
X183172428Y-85946857D02*
X184696238Y-87470666D01*
X181458142Y-88613523D02*
X181458142Y-85946857D01*
X181458142Y-84613523D02*
X181648619Y-84804000D01*
X181458142Y-84994476D01*
X181267666Y-84804000D01*
X181458142Y-84613523D01*
X181458142Y-84994476D01*
X179553380Y-88613523D02*
X179553380Y-85946857D01*
X179553380Y-86708761D02*
X179362904Y-86327809D01*
X179172428Y-86137333D01*
X178791476Y-85946857D01*
X178410523Y-85946857D01*
X177648619Y-85946857D02*
X176124809Y-85946857D01*
X177077190Y-84613523D02*
X177077190Y-88042095D01*
X176886714Y-88423047D01*
X176505761Y-88613523D01*
X176124809Y-88613523D01*
D11*
X159177357Y-79459380D02*
X159510690Y-78983190D01*
X159748785Y-79459380D02*
X159748785Y-78459380D01*
X159367833Y-78459380D01*
X159272595Y-78507000D01*
X159224976Y-78554619D01*
X159177357Y-78649857D01*
X159177357Y-78792714D01*
X159224976Y-78887952D01*
X159272595Y-78935571D01*
X159367833Y-78983190D01*
X159748785Y-78983190D01*
X158224976Y-79459380D02*
X158796404Y-79459380D01*
X158510690Y-79459380D02*
X158510690Y-78459380D01*
X158605928Y-78602238D01*
X158701166Y-78697476D01*
X158796404Y-78745095D01*
X157605928Y-78459380D02*
X157510690Y-78459380D01*
X157415452Y-78507000D01*
X157367833Y-78554619D01*
X157320214Y-78649857D01*
X157272595Y-78840333D01*
X157272595Y-79078428D01*
X157320214Y-79268904D01*
X157367833Y-79364142D01*
X157415452Y-79411761D01*
X157510690Y-79459380D01*
X157605928Y-79459380D01*
X157701166Y-79411761D01*
X157748785Y-79364142D01*
X157796404Y-79268904D01*
X157844023Y-79078428D01*
X157844023Y-78840333D01*
X157796404Y-78649857D01*
X157748785Y-78554619D01*
X157701166Y-78507000D01*
X157605928Y-78459380D01*
X159050357Y-85618880D02*
X159383690Y-85142690D01*
X159621785Y-85618880D02*
X159621785Y-84618880D01*
X159240833Y-84618880D01*
X159145595Y-84666500D01*
X159097976Y-84714119D01*
X159050357Y-84809357D01*
X159050357Y-84952214D01*
X159097976Y-85047452D01*
X159145595Y-85095071D01*
X159240833Y-85142690D01*
X159621785Y-85142690D01*
X158097976Y-85618880D02*
X158669404Y-85618880D01*
X158383690Y-85618880D02*
X158383690Y-84618880D01*
X158478928Y-84761738D01*
X158574166Y-84856976D01*
X158669404Y-84904595D01*
X157145595Y-85618880D02*
X157717023Y-85618880D01*
X157431309Y-85618880D02*
X157431309Y-84618880D01*
X157526547Y-84761738D01*
X157621785Y-84856976D01*
X157717023Y-84904595D01*
M02*
